<svg width="27" height="27" viewBox="0 0 27 27" fill="none" xmlns="http://www.w3.org/2000/svg">
<path fill-rule="evenodd" clip-rule="evenodd" d="M23.5251 24.566C22.4666 24.566 19.4038 24.4622 17.1535 24.3828L17.023 27L10.2037 21.7503L17.5004 17.7801L17.3521 20.5562L22.8224 20.2508L21.5831 18.2565L23.2523 13.1748L27 19.982C27 19.982 26.8666 24.566 23.5251 24.566ZM14.0373 10.5972L16.4478 9.32983L13.1864 4.15643L11.7039 6.48355L7.09641 7.28979L10.8293 0.537501C10.8293 0.537501 14.9416 -1.10247 16.4122 1.3468C16.9874 2.29658 18.6063 5.38718 19.7448 7.59519L22.013 6.40414L21.0138 15.1201L14.0373 10.5972ZM9.54248 8.51137L9.24599 17.0044L6.96595 15.4774L4.33902 20.7272L7.43738 20.6997L10.6187 24.5355H2.50077C2.50077 24.5355 -1.17575 22.0923 0.386769 19.1483C0.902667 18.1863 2.59861 15.4011 3.83202 13.3855L1.71209 11.9684L9.54248 8.51137Z" fill="#111111"/>
</svg>
