<?xml version="1.0" standalone="no"?>
<!DOCTYPE svg PUBLIC "-//W3C//DTD SVG 1.1//EN" "http://www.w3.org/Graphics/SVG/1.1/DTD/svg11.dtd" >
<svg xmlns="http://www.w3.org/2000/svg" xmlns:xlink="http://www.w3.org/1999/xlink" version="1.1">
<metadata>
Created by FontForge 20170731 at Mon Oct 21 11:14:17 2013
 By Aleksey,,,
Copyright (c) 2010, 2011, Denis Masharov &#60;denis.masharov@gmail.com&#62;. This Font Software is licensed under the SIL Open Font License, Version 1.1. This license is available with a FAQ at: http://scripts.sil.org/OFL
</metadata>
<defs>
<font id="TenorSans" horiz-adv-x="1232" >
  <font-face 
    font-family="Tenor Sans"
    font-weight="400"
    font-stretch="normal"
    units-per-em="2048"
    panose-1="2 0 0 0 0 0 0 0 0 0"
    ascent="1638"
    descent="-410"
    x-height="1024"
    cap-height="1434"
    bbox="-123 -512 2392 1868"
    underline-thickness="102"
    underline-position="-306"
    unicode-range="U+000D-E000"
  />
<missing-glyph horiz-adv-x="748" 
d="M68 0v1365h544v-1365h-544zM136 68h408v1229h-408v-1229z" />
    <glyph glyph-name=".notdef" horiz-adv-x="748" 
d="M68 0v1365h544v-1365h-544zM136 68h408v1229h-408v-1229z" />
    <glyph glyph-name="glyph1" horiz-adv-x="2048" 
 />
    <glyph glyph-name="glyph1" horiz-adv-x="2048" 
 />
    <glyph glyph-name="uni000D" unicode="&#xd;" horiz-adv-x="204" 
 />
    <glyph glyph-name="space" unicode=" " horiz-adv-x="716" 
 />
    <glyph glyph-name="exclam" unicode="!" horiz-adv-x="712" 
d="M240 1434h225l-66 -1160h-96zM246 86q0 45 32.5 78t77.5 33t78 -33t33 -78t-33 -78t-78 -33t-77.5 33t-32.5 78z" />
    <glyph glyph-name="quotedbl" unicode="&#x22;" horiz-adv-x="706" 
d="M61 1530h207l-59 -473h-84zM440 1530h205l-63 -473h-78z" />
    <glyph glyph-name="numbersign" unicode="#" horiz-adv-x="1773" 
d="M123 367l27 125h417l64 327h-418l31 125h415l89 418h129l-91 -418h326l90 420h123l-88 -420h414l-27 -125h-414l-67 -327h413l-28 -125h-412l-92 -412h-123l88 412h-325l-89 -412h-126l88 412h-414zM692 492h326l69 327h-329z" />
    <glyph glyph-name="dollar" unicode="$" horiz-adv-x="1280" 
d="M76 362q2 -80 39 -147.5t99 -116.5t147 -79.5t188 -38.5v-236h149v236q205 16 324 123.5t119 279.5q0 98 -38 166.5t-100.5 120t-142.5 86.5t-162 65v539q100 -16 168 -70.5t82 -154.5h139q-23 133 -131 214t-258 103v180h-149v-176q-86 -6 -162 -33.5t-132 -76t-89 -115
t-33 -152.5q0 -90 36 -153.5t94.5 -109.5t133 -77.5t152.5 -60.5v-610q-109 8 -173.5 42.5t-99 80t-47 92.5t-14.5 79h-139zM283 1130q0 86 67.5 153t198.5 81v-487q-55 23 -104.5 47t-85 54t-56 66.5t-20.5 85.5zM698 70v553q55 -23 104.5 -50.5t86.5 -62.5t58.5 -81
t21.5 -107q0 -115 -73 -176.5t-198 -75.5z" />
    <glyph glyph-name="percent" unicode="%" horiz-adv-x="1519" 
d="M123 1135q0 51 16.5 108t53 104.5t93 79t136.5 31.5t137 -31.5t94 -79t53.5 -104.5t16.5 -108q0 -66 -21.5 -126.5t-61.5 -105.5t-95.5 -71.5t-122.5 -26.5q-68 0 -123 26.5t-94 71.5t-60.5 105.5t-21.5 126.5zM256 1135q0 -74 16.5 -124t41 -81t54 -44.5t54.5 -13.5
q27 0 55.5 13.5t53 44.5t41 81t16.5 124q0 43 -8.5 88t-26.5 81.5t-50 60.5t-81 24q-47 0 -79 -24t-51.5 -60.5t-27.5 -81.5t-8 -88zM305 -25l789 1483h125l-793 -1483h-121zM795 299q0 53 16 111.5t53 106.5t94.5 79t137.5 31t137 -31t94 -79t53.5 -106.5t16.5 -111.5
q0 -63 -21.5 -121.5t-61.5 -102.5t-95.5 -71t-122.5 -27q-68 0 -123 27t-95 71t-61.5 102.5t-21.5 121.5zM930 299q0 -74 16.5 -123t42 -79.5t54 -43t53.5 -12.5t54.5 12.5t54 43t41 79.5t16.5 123q0 45 -7.5 92t-27 84t-51 60.5t-80.5 23.5q-47 0 -79 -23.5t-51.5 -60.5
t-27.5 -84t-8 -92z" />
    <glyph glyph-name="ampersand" unicode="&#x26;" horiz-adv-x="1445" 
d="M123 375q0 78 29.5 143.5t82 121.5t122 102t151.5 85q-66 92 -112 169t-46 163q0 51 17.5 105.5t55.5 97.5t96.5 70.5t139.5 27.5q63 0 119 -20.5t96.5 -59.5t65.5 -93t25 -122q0 -86 -58.5 -169t-201.5 -150l407 -537q61 82 94 187.5t39 269.5h160q-10 -111 -42 -199
t-70 -155.5t-73.5 -111.5t-54.5 -64l187 -236h-217l-95 123q-125 -92 -224 -119t-183 -27q-125 0 -220.5 34t-160 90.5t-97 128t-32.5 145.5zM297 434q0 -84 35 -148.5t91 -109.5t124.5 -68.5t136.5 -23.5q16 0 50 3t77 13.5t89 31t89 56.5l-430 568q-150 -78 -206 -154
t-56 -168zM502 1198q0 -72 45 -140.5t110 -150.5q27 14 59 40t58.5 59.5t44 76.5t17.5 95q0 27 -8.5 60.5t-27 62t-50 49t-80.5 20.5q-45 0 -77 -15.5t-52.5 -40t-29.5 -55t-9 -61.5z" />
    <glyph glyph-name="quotesingle" unicode="'" horiz-adv-x="327" 
d="M61 1530h205l-57 -473h-86z" />
    <glyph glyph-name="parenleft" unicode="(" horiz-adv-x="614" 
d="M203 504q0 55 3 136t14 173t35 190.5t64.5 185.5t103 156.5t150.5 108.5v-59q-66 -59 -102.5 -138t-57 -186.5t-25.5 -247t-5 -319.5t5 -320.5t25.5 -249t57.5 -189.5t102 -138v-56q-88 37 -150.5 107t-103 158t-64.5 187t-35 192.5t-14 174.5t-3 134z" />
    <glyph glyph-name="parenright" unicode=")" horiz-adv-x="614" 
d="M41 -389q63 57 101 137t58.5 187.5t25.5 248t5 318.5q0 180 -6 320.5t-25.5 249t-57.5 188t-101 139.5v55q88 -37 150.5 -106.5t103.5 -157.5t64.5 -187.5t35 -192.5t14.5 -174t3 -134t-3 -134t-14.5 -174.5t-35 -191.5t-64.5 -185t-103.5 -158t-150.5 -108v60z" />
    <glyph glyph-name="asterisk" unicode="*" horiz-adv-x="681" 
d="M61 1229h215l64 205l68 -205h213l-175 -127l68 -203l-174 129l-172 -129l63 203z" />
    <glyph glyph-name="plus" unicode="+" horiz-adv-x="1818" 
d="M205 717v90h643v651h125v-651h641v-90h-641v-664h-125v664h-643z" />
    <glyph glyph-name="comma" unicode="," horiz-adv-x="520" 
d="M123 250h192l-125 -529h-67v529z" />
    <glyph glyph-name="hyphen" unicode="-" horiz-adv-x="751" 
d="M123 471v154h506v-154h-506z" />
    <glyph glyph-name="period" unicode="." horiz-adv-x="548" 
d="M164 88q0 45 32.5 78t77.5 33t78 -33t33 -78t-33 -78t-78 -33t-77.5 33t-32.5 78z" />
    <glyph glyph-name="slash" unicode="/" horiz-adv-x="1056" 
d="M61 -25l789 1483h145l-792 -1483h-142z" />
    <glyph glyph-name="zero" unicode="0" horiz-adv-x="1222" 
d="M123 713q0 59 9 138t30.5 162t57.5 162.5t89 142t127 101.5t172 39t173 -39t129.5 -101.5t91 -142t58 -162.5t31 -162t9.5 -138q0 -129 -29 -259t-89 -236.5t-153.5 -173.5t-220.5 -67t-218 67t-150.5 173.5t-88 236.5t-28.5 259zM328 713q0 -104 8 -219t37.5 -209.5
t85 -155.5t149.5 -61q96 0 153.5 61t87.5 155.5t38 209t8 219.5q0 106 -8 223t-38 212t-87 157.5t-154 62.5q-94 0 -149.5 -62.5t-85 -157.5t-37.5 -212t-8 -223z" />
    <glyph glyph-name="one" unicode="1" horiz-adv-x="653" 
d="M61 1135l289 299h99v-1434h-175v1241l-157 -164z" />
    <glyph glyph-name="two" unicode="2" horiz-adv-x="1114" 
d="M102 1047q0 86 35 161.5t97.5 131t146.5 87t182 31.5q111 0 199 -31.5t147.5 -87t91 -128t31.5 -152.5q0 -100 -19.5 -172t-61.5 -138.5t-108.5 -140t-160.5 -176.5l-266 -285h637v-147h-942l387 432q51 61 109.5 133t107.5 152t81.5 166t32.5 176q0 141 -74.5 225
t-191.5 84q-70 0 -116 -26.5t-75.5 -70.5t-44 -102.5t-20.5 -121.5h-205z" />
    <glyph glyph-name="three" unicode="3" horiz-adv-x="1175" 
d="M102 324h205q2 -49 21.5 -96.5t53.5 -82t81 -56t106 -21.5q123 0 200 81.5t77 253.5q0 37 -8.5 90.5t-42 103.5t-105.5 85t-196 35v90q43 0 99 9t106.5 39t84 85t33.5 145q0 55 -15.5 105.5t-47 90.5t-80.5 63.5t-117 23.5q-43 0 -82 -10t-69.5 -38t-51 -77t-28.5 -125
h-183q2 55 23.5 115.5t71 111t129 82t200.5 31.5q111 0 192 -31.5t133 -84t76.5 -122t24.5 -145.5q0 -106 -57 -172.5t-174 -116.5l-23 -8v-14l23 -4q68 -10 121 -44t91 -82t58.5 -106.5t20.5 -115.5q0 -82 -32 -160t-95.5 -138.5t-158.5 -97t-222 -36.5q-90 -2 -170 24.5
t-140.5 74.5t-96.5 111.5t-36 133.5z" />
    <glyph glyph-name="four" unicode="4" horiz-adv-x="1120" 
d="M61 344l707 1090h76v-981h194v-109h-194v-344h-166v344h-617zM221 453h457v706z" />
    <glyph glyph-name="five" unicode="5" horiz-adv-x="1155" 
d="M61 332h150q2 -55 22.5 -103.5t56.5 -84t87 -56t117 -20.5q59 0 118.5 23.5t107.5 75.5t77.5 133t29.5 196q0 162 -86 262t-258 100q-41 0 -112.5 -8t-159.5 -53l182 637h621l-41 -113h-492l-119 -401q57 23 103.5 34t103.5 11q98 0 182.5 -32t147 -92.5t98 -144.5
t35.5 -188q0 -127 -42 -225.5t-114.5 -166t-170 -103.5t-207.5 -36q-94 0 -173 28t-136.5 75t-91.5 112.5t-36 139.5z" />
    <glyph glyph-name="six" unicode="6" horiz-adv-x="1198" 
d="M123 721q0 -131 18.5 -263t70.5 -238.5t147.5 -174.5t246.5 -68q104 0 190.5 39t148 106.5t96 158t34.5 192.5q0 123 -39 211t-100.5 145.5t-138 85t-152.5 27.5q-127 0 -203.5 -51t-111.5 -121l-25 -47h-8q0 143 13.5 262t50 204t102 132t168.5 47q78 0 133 -40t67 -111
h173q-8 63 -41 109t-82.5 75t-110.5 43t-129 14q-141 0 -239.5 -62.5t-161 -166t-90 -236.5t-27.5 -272zM317 459q0 106 27 181t69 121t93 67.5t102 21.5q45 0 94.5 -18.5t90.5 -63.5t66.5 -121t25.5 -188q0 -123 -29 -200t-72 -120t-91 -57t-87 -14q-49 0 -101 21.5
t-93 69.5t-68 122t-27 178z" />
    <glyph glyph-name="seven" unicode="7" horiz-adv-x="1087" 
d="M61 1321h750l-231 -569h-228v-88h193l-269 -664h170l269 664h209v88h-174l276 682h-965v-113z" />
    <glyph glyph-name="eight" unicode="8" horiz-adv-x="1198" 
d="M123 395q0 63 22.5 127t63.5 116t101.5 86t135.5 38v10q-72 8 -124 41t-87.5 79t-53 99t-17.5 107q0 57 22.5 120.5t73.5 117t133 88t203 34.5q119 0 202 -34.5t134 -88t74.5 -117t23.5 -120.5q0 -53 -17.5 -106.5t-53 -99.5t-88 -79t-121.5 -41v-10q76 -4 136 -38
t102 -86t64.5 -115.5t22.5 -127.5q0 -76 -29.5 -150.5t-89 -134t-149.5 -96.5t-211 -37t-210 37t-147.5 96.5t-87 134t-28.5 150.5zM322 416q0 -160 74.5 -254t199.5 -94q129 0 205 94t76 254q0 66 -19.5 122t-56.5 98t-89.5 65.5t-115.5 23.5q-61 0 -112.5 -23.5
t-87.5 -65.5t-55 -98.5t-19 -121.5zM334 1079q0 -72 22.5 -124t59.5 -88t84 -53t96 -17q51 0 99 17t86 53t60.5 88.5t22.5 123.5q0 86 -27.5 142.5t-68.5 88t-87 45t-85 13.5t-84 -13.5t-85 -45t-66.5 -88t-26.5 -142.5z" />
    <glyph glyph-name="nine" unicode="9" horiz-adv-x="1198" 
d="M123 963q0 100 35 190t96 157.5t147 107.5t191 40q152 0 247 -67.5t147 -174t70.5 -239.5t18.5 -262q0 -139 -27.5 -272.5t-90 -237t-161 -166t-239.5 -62.5q-68 0 -129 14.5t-110.5 43t-82 75t-40.5 109.5h172q12 -72 67 -111.5t133 -39.5q102 0 168 47t102.5 132
t50 203.5t13.5 262.5h-8l-19 -47q-18 -47 -54 -79t-81 -52.5t-95 -28.5t-99 -8q-70 0 -144.5 26.5t-136 84t-101.5 144.5t-40 210zM313 977q0 -115 26 -189.5t66.5 -119.5t89 -63.5t95.5 -18.5q51 0 102 21.5t93 67.5t69 121t27 181q0 104 -27 178t-68 122t-93 69.5
t-101 21.5q-39 0 -87 -14.5t-91 -57.5t-72 -119.5t-29 -199.5z" />
    <glyph glyph-name="colon" unicode=":" horiz-adv-x="466" 
d="M123 86q0 -45 32.5 -78t77.5 -33t78 33t33 78t-32.5 78t-78.5 33q-45 0 -77.5 -33t-32.5 -78zM123 936q0 -45 32.5 -78t77.5 -33t78 33t33 78t-32.5 78t-78.5 33q-45 0 -77.5 -33t-32.5 -78z" />
    <glyph glyph-name="semicolon" unicode=";" horiz-adv-x="466" 
d="M123 936q0 -45 32.5 -78t77.5 -33t78 33t33 78t-32.5 78t-78.5 33q-45 0 -77.5 -33t-32.5 -78zM129 250v-529h68l125 529h-193z" />
    <glyph glyph-name="less" unicode="&#x3c;" horiz-adv-x="1601" 
d="M123 674l1323 -559l33 90l-1076 469l1076 475l-33 90z" />
    <glyph glyph-name="equal" unicode="=" horiz-adv-x="1818" 
d="M205 457h1409v127h-1409v-127zM205 848h1409v125h-1409v-125z" />
    <glyph glyph-name="greater" unicode="&#x3e;" horiz-adv-x="1599" 
d="M123 205l33 -90l1321 559l-1321 565l-33 -90l1075 -475z" />
    <glyph glyph-name="question" unicode="?" horiz-adv-x="1062" 
d="M205 1202h143v12q0 37 15.5 69t42 54.5t59.5 34.5t67 12q33 0 67 -12t61.5 -33.5t44 -51.5t16.5 -66q0 -63 -29.5 -115.5t-74 -100t-95.5 -93.5t-97 -95t-78 -104.5t-36 -124.5v-21q0 -47 14.5 -89t43 -73.5t71.5 -50t103 -18.5q51 0 111.5 32.5t107.5 90.5l-98 67
q-33 -41 -72 -73.5t-86 -32.5q-25 0 -50.5 23.5t-25.5 64.5q0 55 32 106.5t79 101.5t103 100t103.5 105.5t79 118t31.5 134.5q0 51 -15.5 102t-53 91t-103 65.5t-166.5 25.5q-78 0 -136 -19.5t-98 -54t-59.5 -82t-21.5 -100.5zM403 86q0 -45 33 -78t78 -33t78 33t33 78
t-33 78t-78 33t-78 -33t-33 -78z" />
    <glyph glyph-name="at" unicode="@" horiz-adv-x="2107" 
d="M123 610q0 -178 65.5 -353t187.5 -315.5t297 -226.5t396 -86q57 0 126 6.5t146.5 29t163.5 64.5t183 113l-48 60q-23 -20 -69.5 -54t-119.5 -66t-169 -54.5t-219 -22.5q-201 0 -361.5 79t-272.5 207t-172 289.5t-60 327.5q0 160 48 296t127 241.5t178 181.5t204 117
q78 31 160.5 45t166.5 14q188 0 342 -60.5t261.5 -167t166 -250.5t58.5 -312q0 -123 -41 -223.5t-102.5 -173t-134 -111.5t-138.5 -39q-12 0 -29.5 5t-34 19.5t-27.5 41t-11 69.5q0 23 9 65t32 115l184 617h-176l-43 -127q-33 49 -69 76.5t-69.5 41t-63.5 17.5t-50 4
q-121 0 -225.5 -47t-182.5 -129t-122 -189.5t-44 -228.5q0 -109 32 -185.5t84 -125.5t118.5 -71.5t136.5 -22.5q72 0 136.5 27.5t140.5 86.5q29 -45 62.5 -71.5t68 -41t66.5 -18.5t57 -4q109 0 201.5 48t162.5 133t109 199t39 243q0 86 -12.5 172t-43.5 168
q-37 94 -108.5 188t-174 170t-235.5 122t-293 46q-100 0 -199.5 -13.5t-191.5 -47.5q-141 -55 -253 -149.5t-190.5 -214.5t-119.5 -260t-41 -284zM776 438q0 127 33 237.5t84 191.5t115.5 127t130.5 46q78 0 135 -56t74 -148l-146 -514q-16 -23 -39.5 -46.5t-54.5 -43
t-67.5 -32t-79.5 -12.5q-94 0 -139.5 70t-45.5 180z" />
    <glyph glyph-name="A" unicode="A" horiz-adv-x="1499" 
d="M61 0h95l180 422h706l197 -422h199l-668 1434h-102zM375 514l295 690h8l321 -690h-624z" />
    <glyph glyph-name="B" unicode="B" horiz-adv-x="1353" 
d="M246 0h514q137 0 231 36t151.5 93t83 130t25.5 147q0 117 -50 186.5t-119.5 106t-143.5 49t-119 14.5v8q72 0 135.5 27.5t111.5 71.5t76.5 102.5t28.5 124.5q0 57 -24.5 116.5t-74.5 108.5t-129 81t-185 32h-512v-1434zM432 90v627h225q100 0 174 -26.5t122 -72
t72 -104.5t24 -125q0 -72 -26 -127t-69 -94t-101 -58.5t-124 -19.5h-297zM432 807v536h250q80 0 136 -22.5t92 -59t52.5 -84t16.5 -94.5q0 -59 -23.5 -110t-65.5 -88t-96.5 -57.5t-115.5 -20.5h-246z" />
    <glyph glyph-name="C" unicode="C" horiz-adv-x="1554" 
d="M102 731q0 -143 46.5 -279.5t142.5 -242t245.5 -170t356.5 -64.5q131 0 234.5 25t180 60.5t128 76.5t77.5 72l-61 55q-208 -196 -493 -196h-3q-160 0 -282.5 55t-204.5 147t-124 213t-42 252q0 139 44 255t124 200t189.5 131t238.5 47q88 0 161 -20.5t129 -53t92 -74.5
t50 -85h152q-31 70 -79 129t-120 102t-168 67.5t-219 24.5q-178 0 -324.5 -51t-251 -146.5t-162 -229.5t-57.5 -300z" />
    <glyph glyph-name="D" unicode="D" horiz-adv-x="1566" 
d="M266 0v1434h471q170 0 311.5 -54.5t243 -149.5t157.5 -226.5t56 -282.5q0 -158 -58 -290t-159.5 -228.5t-237 -149.5t-288.5 -53h-496zM453 90h225q168 0 285.5 56.5t193.5 146.5t111 201.5t35 222.5q0 123 -41 236.5t-120 200.5t-196 138t-268 51h-225v-1253z" />
    <glyph glyph-name="E" unicode="E" 
d="M246 0h925v113h-739v600h635v94h-635v514h739v113h-925v-1434z" />
    <glyph glyph-name="F" unicode="F" 
d="M246 0h186v713h635v94h-635v514h739v113h-925v-1434z" />
    <glyph glyph-name="G" unicode="G" horiz-adv-x="1673" 
d="M123 737q0 -145 46 -281.5t141.5 -244t242.5 -172t352 -64.5q154 0 272.5 34t196.5 75v-84h176v639h-405v-84h229v-371q-92 -59 -188 -87.5t-219 -28.5q-162 0 -283 49t-201 136t-119.5 207t-39.5 263q0 141 37.5 260t113.5 205t185.5 133t254.5 47q96 0 180.5 -20.5
t150 -53t107.5 -74.5t54 -85h147q-18 45 -62 101t-120 105.5t-187.5 83t-262.5 33.5q-174 0 -320.5 -49t-253 -141t-166 -226.5t-59.5 -304.5z" />
    <glyph glyph-name="H" unicode="H" horiz-adv-x="1722" 
d="M246 0h186v713h858v-713h187v1434h-187v-627h-858v627h-186v-1434z" />
    <glyph glyph-name="I" unicode="I" horiz-adv-x="841" 
d="M328 0h186v1434h-186v-1434z" />
    <glyph glyph-name="J" unicode="J" horiz-adv-x="1069" 
d="M20 305q4 -158 102.5 -244t295.5 -86q141 0 223 42t122 106.5t50 140.5t10 142v1028h-186v-1035q0 -49 -3 -107.5t-23.5 -108.5t-62.5 -83.5t-120 -33.5q-68 0 -112 24.5t-69.5 61t-36.5 78.5t-11 75h-179z" />
    <glyph glyph-name="K" unicode="K" horiz-adv-x="1482" 
d="M246 0h186v504l232 248l544 -752h213l-639 879l521 555h-103l-768 -807v807h-186v-1434z" />
    <glyph glyph-name="L" unicode="L" 
d="M246 0v1434h186v-1321h739v-113h-925z" />
    <glyph glyph-name="M" unicode="M" horiz-adv-x="2101" 
d="M246 0h90v1169h8l633 -1194h37l647 1186h8v-1161h186v1434h-141l-663 -1231h-9l-657 1231h-139v-1434z" />
    <glyph glyph-name="N" unicode="N" horiz-adv-x="1740" 
d="M246 0h94v1096h8l1137 -1121h10v1459h-94v-1096h-8l-1137 1120h-10v-1458z" />
    <glyph glyph-name="O" unicode="O" horiz-adv-x="1771" 
d="M102 717q0 -115 44 -245t138.5 -240.5t240 -183.5t347.5 -73q137 0 249 34t201 91.5t154.5 132t107.5 157.5t63.5 167t21.5 160q0 115 -47 245t-145.5 240.5t-249 183t-355.5 72.5q-203 0 -348 -71.5t-239.5 -181t-138.5 -240.5t-44 -248zM303 717q0 143 44 263t121 206
t181.5 134t227.5 48q121 0 228 -48t188 -134t128 -206t47 -263t-47 -263t-128 -206t-188.5 -134t-227.5 -48q-123 0 -227.5 48t-181.5 134t-121 206t-44 263z" />
    <glyph glyph-name="P" unicode="P" horiz-adv-x="1255" 
d="M246 0h186v598q53 -14 114.5 -23.5t135.5 -9.5q125 0 221 35t160.5 95.5t97.5 139t33 169.5q0 86 -28.5 164.5t-87 137t-146.5 93.5t-207 35h-479v-1434zM432 682v661h215q86 0 151.5 -30.5t108.5 -80.5t64.5 -112.5t21.5 -124.5q0 -59 -19.5 -119.5t-62.5 -109.5
t-108.5 -80t-157.5 -31q-63 0 -116.5 5.5t-96.5 21.5z" />
    <glyph glyph-name="Q" unicode="Q" horiz-adv-x="1830" 
d="M133 719q0 -152 57.5 -287t162 -236.5t248.5 -161t319 -59.5q70 0 137 9.5t133 31.5l192 -196l156 55l-195 203q100 59 172 138t117 165t65.5 173t20.5 165q0 117 -46 247t-143 239.5t-248 181t-361 71.5q-209 0 -357.5 -71.5t-244 -180t-140.5 -239.5t-45 -248zM336 719
q0 145 46 265t125 205t185.5 132t227.5 47q125 0 233.5 -47t188 -132t125.5 -205t46 -265q0 -39 -5 -101.5t-29.5 -137t-76.5 -154.5t-147 -154l-155 162l-129 -84l145 -150q-53 -20 -106.5 -27t-108.5 -7q-113 0 -215 44t-180 129t-124 205.5t-46 274.5z" />
    <glyph glyph-name="R" unicode="R" horiz-adv-x="1470" 
d="M246 0h186v633h90q57 0 95 -10.5t69 -35t57.5 -63.5t63.5 -96l162 -240q31 -47 60.5 -86t64 -66.5t79 -44t105.5 -16.5q45 0 73.5 4.5t57.5 20.5v76q-10 -2 -20.5 -3t-20.5 -1q-43 0 -75.5 12t-61.5 35.5t-55.5 57.5t-55.5 77q-86 125 -133 199.5t-74.5 115.5t-45 59.5
t-42.5 30.5l-20 11v8q98 6 168.5 43t116 92t66 119.5t20.5 126.5q0 55 -21.5 120.5t-74 122t-142.5 94.5t-227 38h-465v-1434zM432 725v618h207q78 0 140.5 -22.5t107.5 -62t68.5 -95t23.5 -121.5q0 -55 -21.5 -111.5t-64.5 -102.5t-105.5 -74.5t-144.5 -28.5h-211z" />
    <glyph glyph-name="S" unicode="S" horiz-adv-x="1280" 
d="M76 362q4 -88 46 -159.5t114.5 -121.5t171 -78t215.5 -28q119 0 214 29t162.5 82t104.5 129t37 168q0 127 -63.5 208t-159 135t-207 91t-206.5 78t-158.5 94t-63.5 141q0 49 21.5 92.5t63.5 75t103 51t141 19.5q133 0 226.5 -56.5t109.5 -176.5h139q-12 76 -55 136
t-108.5 102t-148.5 63.5t-173 21.5q-94 0 -179 -24.5t-149.5 -71.5t-102.5 -119t-38 -164q0 -121 61.5 -194.5t154.5 -122.5t201.5 -84t202 -79t155 -107.5t61.5 -169.5q0 -133 -97.5 -194.5t-259.5 -61.5q-129 0 -206.5 33.5t-118.5 80.5t-55.5 97.5t-16.5 84.5h-139z" />
    <glyph glyph-name="T" unicode="T" horiz-adv-x="1366" 
d="M41 1321h549v-1321h186v1321h549v113h-1284v-113z" />
    <glyph glyph-name="U" unicode="U" horiz-adv-x="1474" 
d="M164 553q0 -84 16.5 -185.5t77.5 -188.5t182 -145.5t330 -58.5q131 0 232.5 41t170 113t103.5 167t35 204v934h-90v-867q0 -45 -2 -91t-12.5 -92t-32 -91t-62.5 -90q-74 -80 -166 -108.5t-192 -28.5q-86 0 -152.5 26.5t-126.5 79.5q-47 41 -71.5 82t-37 81t-14.5 81
t-2 82v936h-186v-881z" />
    <glyph glyph-name="V" unicode="V" horiz-adv-x="1427" 
d="M61 1434l601 -1434h122l582 1434h-106l-478 -1180h-8l-491 1180h-222z" />
    <glyph glyph-name="W" unicode="W" horiz-adv-x="2162" 
d="M61 1434l508 -1434h123l391 1120h11l379 -1120h120l508 1434h-94l-424 -1196h-8l-399 1196h-89l-407 -1190h-8l-422 1190h-189z" />
    <glyph glyph-name="X" unicode="X" horiz-adv-x="1472" 
d="M61 1434l560 -719l-549 -715h110l490 641h8l500 -641h231l-620 793l489 641h-109l-432 -564h-10l-438 564h-230z" />
    <glyph glyph-name="Y" unicode="Y" horiz-adv-x="1308" 
d="M61 1434l496 -891v-543h186v561l504 873h-110l-439 -756h-8l-418 756h-211z" />
    <glyph glyph-name="Z" unicode="Z" horiz-adv-x="1363" 
d="M61 0h1242v113h-945l910 1321h-1155v-113h866z" />
    <glyph glyph-name="bracketleft" unicode="[" horiz-adv-x="624" 
d="M205 -451h358v101h-178v1685h178v99h-358v-1885z" />
    <glyph glyph-name="backslash" unicode="\" horiz-adv-x="1056" 
d="M61 1458h146l788 -1483h-141z" />
    <glyph glyph-name="bracketright" unicode="]" horiz-adv-x="624" 
d="M61 -350h179v1685h-179v99h359v-1885h-359v101z" />
    <glyph glyph-name="asciicircum" unicode="^" horiz-adv-x="892" 
d="M123 1544l323 129l324 -129v74l-278 180h-86l-283 -180v-74z" />
    <glyph glyph-name="underscore" unicode="_" horiz-adv-x="1554" 
d="M61 -303v-148h1432v148h-1432z" />
    <glyph glyph-name="grave" unicode="`" horiz-adv-x="456" 
d="M33 1458l317 -260h80l-170 260h-227z" />
    <glyph glyph-name="a" unicode="a" horiz-adv-x="1105" 
d="M82 322q0 66 24.5 131t73.5 117.5t121 85t164 32.5t175 -36t136 -101v88q0 168 -50 250t-183 82q-57 0 -100.5 -14.5t-77 -40t-62.5 -63.5t-57 -85l-107 106q29 31 60.5 62t78 55.5t110 40t153.5 15.5q150 0 231.5 -42t119.5 -110t44 -156t6 -180v-559h-166v100
q-59 -57 -151.5 -91t-184.5 -34q-88 0 -155.5 31t-112.5 80t-67.5 110.5t-22.5 125.5zM258 319q0 -66 23.5 -113.5t60.5 -81.5t82 -50.5t86 -16.5q39 0 79 14.5t75.5 40t64.5 60.5t47 76v158q-10 25 -29.5 57.5t-50 63t-73.5 52t-103 21.5q-59 0 -108.5 -23.5t-83 -61.5
t-52 -89t-18.5 -107z" />
    <glyph glyph-name="b" unicode="b" horiz-adv-x="1236" 
d="M164 0v1434h174v-578h8q20 53 54 89t77 58.5t91 33t98 10.5q102 0 188 -38t148.5 -108t97.5 -168t35 -219q0 -123 -35 -222t-97.5 -170t-148.5 -109t-188 -38q-244 0 -320 191h-8v-166h-174zM338 410q0 -68 21.5 -128.5t60.5 -104.5t91 -69.5t112 -25.5q63 0 121.5 23.5
t101.5 74.5t68.5 133t25.5 197q0 117 -25.5 199t-69.5 134t-101.5 75.5t-120.5 23.5q-57 0 -108.5 -23.5t-90.5 -69.5t-62.5 -111.5t-23.5 -149.5v-178z" />
    <glyph glyph-name="c" unicode="c" horiz-adv-x="1114" 
d="M102 518q0 -115 37 -214t105.5 -172t165 -115t217.5 -42q135 0 236.5 45.5t170.5 98.5l-59 78q-72 -59 -142.5 -87t-154.5 -28q-74 0 -142.5 22.5t-122 72.5t-85 133t-31.5 204q0 125 35 212t87 139.5t115.5 76t120.5 23.5q94 0 164 -49.5t92 -120.5h142
q-20 74 -65.5 122t-104 77.5t-125 41t-127.5 11.5q-129 0 -227.5 -42t-166 -114t-101.5 -168t-34 -205z" />
    <glyph glyph-name="d" unicode="d" horiz-adv-x="1236" 
d="M102 514q0 -123 35 -222t97.5 -170t148.5 -109t188 -38q242 0 320 191h8v-166h174v1434h-174v-578h-8q-20 53 -54 89t-77 58.5t-91 33t-98 10.5q-102 0 -188 -38t-148.5 -108t-97.5 -168t-35 -219zM297 510q0 117 25.5 199t69.5 134t101.5 75.5t120.5 23.5
q57 0 108.5 -23.5t90.5 -69.5t62.5 -111.5t23.5 -149.5v-178q0 -68 -22.5 -128.5t-60.5 -104.5t-90 -69.5t-112 -25.5q-66 0 -123 23.5t-100 74.5t-68.5 133t-25.5 197z" />
    <glyph glyph-name="e" unicode="e" horiz-adv-x="1175" 
d="M102 518q0 -102 32 -199.5t96.5 -174t164 -123t234.5 -46.5q131 0 241.5 46.5t192.5 132.5l-66 65q-43 -37 -80.5 -67.5t-76.5 -51t-81 -32t-93 -11.5q-57 0 -122 17.5t-120 62.5t-92 125t-37 205h778v43q0 137 -39 237.5t-105.5 166t-154.5 98t-186 32.5
q-104 0 -192.5 -35.5t-154 -104t-102.5 -166t-37 -220.5zM295 549q0 82 17.5 158.5t53 136t91 95.5t131.5 36q145 0 226 -113.5t81 -312.5h-600z" />
    <glyph glyph-name="f" unicode="f" horiz-adv-x="743" 
d="M61 942h179v-942h174v942h248v82h-248v172q0 25 2 58.5t12 63.5t31.5 50.5t60.5 20.5q49 0 81 -41t52 -84l90 96q-49 49 -101 73.5t-118 24.5q-53 0 -104 -18.5t-91 -56t-64.5 -97t-24.5 -139.5v-123h-179v-82z" />
    <glyph glyph-name="g" unicode="g" 
d="M102 514q0 -123 34 -222t95.5 -170t146.5 -109t189 -38q115 0 200 45.5t120 143.5h8v-250q0 -94 -22.5 -159.5t-62.5 -106.5t-94 -59.5t-116 -18.5q-109 0 -175.5 55.5t-121.5 147.5l-113 -103q14 -18 45 -48t78 -59.5t113 -51t149 -21.5q156 0 252.5 44t149.5 118
t72.5 169t19.5 197v1006h-174v-160h-8q-25 86 -106 134.5t-212 48.5q-104 0 -190 -38t-147.5 -108t-95.5 -168t-34 -219zM291 518q0 143 39 228t91 130.5t106.5 58.5t84.5 13q68 0 121 -29.5t89 -80t54.5 -116t18.5 -134.5v-152q0 -86 -23.5 -151.5t-62.5 -110.5t-90 -68.5
t-107 -23.5q-49 0 -105 17.5t-104.5 64.5t-80 133t-31.5 221z" />
    <glyph glyph-name="h" unicode="h" horiz-adv-x="1165" 
d="M164 0h174v592q0 41 6 100.5t34 114.5t83 95t153 40q70 0 112 -25.5t64.5 -68.5t29.5 -100.5t7 -118.5v-629h174v676q0 115 -32.5 187.5t-81.5 113.5t-107.5 55.5t-111.5 14.5q-72 0 -151 -28t-148 -106l-23 -28h-8v549h-174v-1434z" />
    <glyph glyph-name="i" unicode="i" horiz-adv-x="630" 
d="M205 1348q0 -45 32.5 -78t77.5 -33t78 33t33 78t-33 77.5t-78 32.5t-77.5 -32.5t-32.5 -77.5zM229 0h174v1024h-174v-1024z" />
    <glyph glyph-name="j" unicode="j" horiz-adv-x="595" 
d="M-123 -412q45 -59 105.5 -79.5t126.5 -20.5q45 0 97 16.5t97 62.5t75 127t30 210v1120h-177v-1212q0 -47 -4 -91.5t-17 -79t-39 -55t-67 -20.5q-51 0 -76.5 24.5t-47.5 77.5zM211 1348q0 -45 31.5 -78t79.5 -33q45 0 77.5 33t32.5 78t-32.5 77.5t-77.5 32.5
q-47 0 -79 -32.5t-32 -77.5z" />
    <glyph glyph-name="k" unicode="k" horiz-adv-x="1097" 
d="M164 0h174v385l119 121l411 -506h230l-514 631l391 393h-133l-504 -508v918h-174v-1434z" />
    <glyph glyph-name="l" unicode="l" horiz-adv-x="583" 
d="M205 0h174v1434h-174v-1434z" />
    <glyph glyph-name="m" unicode="m" horiz-adv-x="1759" 
d="M164 0h174v584q0 37 6 97t31.5 118.5t79 100.5t149.5 42q70 0 108 -30.5t56 -75.5t21.5 -94.5t3.5 -86.5v-655h174v584q0 45 8 107.5t34.5 117.5t77 94t136.5 39q63 0 102 -18.5t60.5 -55.5t28.5 -90t7 -123v-655h174v715q0 47 -10 105.5t-44 108.5t-98.5 84t-170.5 34
q-31 0 -72 -6.5t-86 -27t-87 -59.5t-73 -102h-14q-12 33 -34.5 66.5t-57.5 62.5t-83 47.5t-116 18.5q-31 0 -74 -7.5t-86 -28t-80.5 -57t-62.5 -96.5h-8v166h-174v-1024z" />
    <glyph glyph-name="n" unicode="n" horiz-adv-x="1189" 
d="M164 0h174v633q0 80 22.5 137t61.5 96t89 57.5t103 18.5q86 0 133.5 -34t69 -79t25.5 -90t4 -65v-674h174v664q0 37 -6 101t-40 126.5t-107.5 109t-209.5 46.5h-9q-56 0 -124 -24q-74 -26 -145 -97l-33 -33h-8v131h-174v-1024z" />
    <glyph glyph-name="o" unicode="o" horiz-adv-x="1265" 
d="M102 510q0 106 38 203.5t106.5 171t168 118t222.5 44.5q121 0 218 -44.5t166 -118t105.5 -171t36.5 -203.5t-36.5 -203.5t-105.5 -171.5t-166 -117t-218 -43q-123 0 -222.5 44t-168 118t-106.5 171.5t-38 201.5zM297 510q0 -141 31.5 -230.5t82 -138.5t110 -66.5
t114.5 -17.5t114.5 17.5t108.5 66.5t80 138.5t31 230.5q0 143 -31 232t-80 138.5t-108.5 67t-114.5 17.5t-114.5 -17.5t-110 -67t-82 -138.5t-31.5 -232z" />
    <glyph glyph-name="p" unicode="p" horiz-adv-x="1236" 
d="M164 -512h174v680h8q20 -53 54 -90t77 -59.5t91 -33t98 -10.5q102 0 188 38t148.5 107.5t97.5 169t35 220.5q0 123 -35 221t-97.5 169t-148.5 109t-188 38q-244 0 -320 -189h-8v166h-174v-1536zM338 436v178q0 68 21.5 128.5t60.5 104.5t91 69.5t112 25.5
q63 0 121.5 -23.5t101.5 -74.5t68.5 -133t25.5 -197q0 -117 -25.5 -199t-69.5 -134t-101.5 -75.5t-120.5 -23.5q-57 0 -108.5 23.5t-90.5 69.5t-62.5 111.5t-23.5 149.5z" />
    <glyph glyph-name="q" unicode="q" horiz-adv-x="1236" 
d="M102 510q0 123 35 221t97.5 169t148.5 109t188 38q244 0 320 -189h8v166h174v-1536h-174v680h-8q-20 -53 -54 -90t-77 -59.5t-91 -33t-98 -10.5q-102 0 -188 38t-148.5 107.5t-97.5 169t-35 220.5zM297 514q0 -117 25.5 -199t69.5 -134t101.5 -75.5t120.5 -23.5
q57 0 108.5 23.5t90.5 69.5t62.5 111.5t23.5 149.5v178q0 68 -22.5 128.5t-60.5 104.5t-90 69.5t-112 25.5q-66 0 -123 -23.5t-100 -74.5t-68.5 -133t-25.5 -197z" />
    <glyph glyph-name="r" unicode="r" horiz-adv-x="782" 
d="M164 0h174v618q0 84 19.5 142.5t50 95.5t67.5 53.5t72 16.5q47 0 87 -31t58 -57l70 127q-18 25 -44 41t-51.5 25t-47 12.5t-31.5 3.5q-86 0 -143.5 -47.5t-94.5 -139.5h-12v164h-174v-1024z" />
    <glyph glyph-name="s" unicode="s" horiz-adv-x="983" 
d="M68 279q0 -57 26.5 -111.5t80.5 -97.5t133 -69t184 -26q188 0 283 83t95 218q0 98 -46 158t-115.5 95.5t-150.5 58t-150.5 47t-115.5 59.5t-46 99q0 27 10 56.5t34.5 55t65.5 43t103 17.5q61 0 106 -17.5t76 -43t45 -56.5t14 -57h117q0 55 -28.5 102t-79 81t-117 53.5
t-141.5 19.5q-72 0 -134.5 -18.5t-108.5 -55.5t-72.5 -91.5t-26.5 -125.5q0 -98 45 -155.5t112.5 -92.5t146.5 -56.5t146.5 -47t112.5 -64.5t45 -107q0 -29 -9.5 -59.5t-34 -56t-67.5 -43t-108 -17.5q-82 0 -138.5 26t-92.5 61.5t-51 72.5t-15 62h-133z" />
    <glyph glyph-name="t" unicode="t" horiz-adv-x="768" 
d="M61 942v82h179v315h174v-315h248v-82h-248v-680q0 -25 2 -56.5t12 -59t31.5 -46t60.5 -18.5q49 0 82 37t53 80l97 -99q-100 -100 -228 -100q-53 0 -104 18.5t-91 56.5t-64.5 97t-24.5 139v631h-179z" />
    <glyph glyph-name="u" unicode="u" horiz-adv-x="1189" 
d="M164 358q0 -37 7 -101t42 -126.5t109.5 -109t209.5 -46.5h8q56 0 122 24q71 26 143 97l33 33h8v-129h174v1024h-174v-635q0 -80 -22.5 -137t-59.5 -95t-86 -56.5t-103 -18.5q-86 0 -134 34t-71.5 79t-27.5 89t-4 64v676h-174v-666z" />
    <glyph glyph-name="v" unicode="v" horiz-adv-x="1044" 
d="M41 1024l426 -1024h123l414 1024h-97l-332 -821h-12l-342 821h-180z" />
    <glyph glyph-name="w" unicode="w" horiz-adv-x="1527" 
d="M41 1024l354 -1024h111l237 686h9l266 -686h96l373 1024h-107l-278 -766h-8l-291 766h-41l-268 -772h-9l-266 772h-178z" />
    <glyph glyph-name="x" unicode="x" horiz-adv-x="1087" 
d="M61 1024l383 -520l-381 -504h121l320 424l313 -424h209l-418 561l344 463h-118l-285 -383l-281 383h-207z" />
    <glyph glyph-name="y" unicode="y" horiz-adv-x="1032" 
d="M20 1024l459 -1012l-108 -266q-18 -47 -48 -75.5t-69 -28.5q-37 0 -70.5 21.5t-52.5 62.5l-90 -170q39 -35 86 -51.5t88 -16.5q57 0 100 28.5t76 75t57.5 102.5t47.5 111l495 1219h-100l-322 -784h-8l-354 784h-187z" />
    <glyph glyph-name="z" unicode="z" horiz-adv-x="1003" 
d="M41 0h895v82h-643l649 942h-868v-82h616z" />
    <glyph glyph-name="braceleft" unicode="{" horiz-adv-x="729" 
d="M123 596q31 -4 65.5 -17.5t64.5 -47t50.5 -91t20.5 -149.5q0 -72 -4.5 -130.5t-4.5 -117.5q0 -47 10.5 -110.5t46.5 -122t105.5 -100.5t190.5 -46v121q-55 12 -86 38.5t-47.5 57.5t-20.5 62.5t-4 56.5q0 63 6 125.5t6 122.5q0 158 -62.5 253t-199.5 158v17
q137 63 199.5 159.5t62.5 254.5q0 66 -6 127t-6 126q0 23 4 55t20.5 62.5t47 57t86.5 41.5v118q-61 -2 -124 -19.5t-113 -60.5t-83 -115.5t-33 -185.5q0 -61 4.5 -121.5t4.5 -121.5q0 -84 -16.5 -141.5t-44 -93.5t-64.5 -54.5t-76 -20.5v-147z" />
    <glyph glyph-name="bar" unicode="|" horiz-adv-x="559" 
d="M205 -510h149v2322h-149v-2322z" />
    <glyph glyph-name="braceright" unicode="}" horiz-adv-x="733" 
d="M61 -215v-121q125 6 197 51t106.5 105.5t44 122t9.5 100.5q0 59 -4 117.5t-4 130.5q0 80 16 136t44 93t64.5 54.5t75.5 21.5v147q-29 2 -63.5 15.5t-65 47.5t-51 93t-20.5 154q0 61 4 121.5t4 121.5q0 113 -33 185.5t-85 115.5t-115.5 60.5t-123.5 19.5v-118
q51 -12 83 -36t49.5 -53.5t23.5 -62.5t6 -64q0 -66 -6 -127t-6 -126q0 -158 60.5 -254.5t197.5 -159.5v-17q-137 -63 -197.5 -158t-60.5 -253q0 -59 6 -122t6 -126q0 -31 -6 -64.5t-23.5 -63.5t-49 -52.5t-83.5 -34.5z" />
    <glyph glyph-name="asciitilde" unicode="~" 
d="M123 621l55 -39q23 33 59.5 52t98.5 19q72 0 123 -4t92 -11t78 -15.5t80 -16.5l116 -20q10 -2 20.5 -2h22.5q27 0 58.5 6t63.5 23.5t63.5 50t56.5 88.5l-47 30q-35 -37 -76 -52t-98 -15q-31 0 -99.5 10t-146.5 23.5t-150.5 23.5t-111.5 10q-27 0 -59.5 -5t-66.5 -22.5
t-68.5 -49t-63.5 -84.5z" />
    <glyph glyph-name="uni00A0" unicode="&#xa0;" horiz-adv-x="716" 
 />
    <glyph glyph-name="cent" unicode="&#xa2;" horiz-adv-x="1218" 
d="M164 508q0 -102 32.5 -194.5t94 -163t149.5 -116.5t197 -54v-316h108v313q111 10 200 52.5t151 89.5l-60 78q-72 -59 -140.5 -89t-150.5 -32v878q96 -10 151.5 -54t76.5 -105h141q-18 63 -55 108t-86 75t-107.5 45t-120.5 19v275h-108v-273q-113 -6 -201 -51
t-148.5 -116.5t-92 -167t-31.5 -201.5zM358 510q0 121 26 202t65.5 131t89 74.5t98.5 32.5v-864q-57 14 -108.5 45t-89.5 83t-59.5 125t-21.5 171z" />
    <glyph glyph-name="sterling" unicode="&#xa3;" horiz-adv-x="1572" 
d="M135 117q0 -47 22.5 -75t51.5 -42t57.5 -18.5t40.5 -4.5h51q80 6 145.5 53.5t114.5 102.5l62 -33q109 -59 189.5 -91t158.5 -32q86 0 147.5 33t105.5 88.5t74.5 129t55.5 157.5l-96 25q-16 -53 -39 -102.5t-56.5 -86.5t-78.5 -58.5t-107 -21.5q-84 0 -171 34t-187 67
q33 66 55.5 141.5t22.5 165.5q0 10 -2 51t-9 117h433v90h-443q-10 68 -17 119t-11.5 89t-6.5 65.5t-2 52.5q0 43 9.5 86t29 76.5t51 54t78.5 20.5q49 0 70.5 -14.5t21.5 -28.5q0 -12 -8 -19.5t-19 -18.5t-19.5 -30.5t-8.5 -52.5q0 -45 33 -77.5t88 -32.5q59 0 89 46t30 118
q0 92 -64.5 145t-163.5 53q-78 0 -152.5 -24.5t-134 -73.5t-96 -122t-36.5 -169q0 -59 6 -132t16 -130h-319v-90h335q23 -72 29 -148.5t6 -152.5q0 -35 -4 -64.5t-18 -66.5q-35 10 -76 16t-74 6q-55 0 -102 -12t-82 -37t-55.5 -60.5t-20.5 -80.5zM252 121q0 12 5 27.5
t18.5 28.5t39 22.5t66.5 9.5q23 0 53.5 -4.5t71.5 -20.5q-45 -78 -92 -101.5t-76 -23.5q-41 0 -63.5 19.5t-22.5 42.5z" />
    <glyph glyph-name="yen" unicode="&#xa5;" horiz-adv-x="1267" 
d="M41 1434l473 -852h-260v-115h283v-84h-283v-117h283v-266h186v266h283v117h-283v84h283v115h-271l492 852h-111l-438 -756h-8l-418 756h-211z" />
    <glyph glyph-name="dieresis" unicode="&#xa8;" horiz-adv-x="503" 
d="M0 1348q0 -45 33 -78t78 -33t77.5 33t32.5 78t-32.5 77.5t-77.5 32.5t-78 -32.5t-33 -77.5zM283 1348q0 -45 32.5 -78t77.5 -33t78 33t33 78t-33 77.5t-78 32.5t-77.5 -32.5t-32.5 -77.5z" />
    <glyph glyph-name="copyright" unicode="&#xa9;" horiz-adv-x="1765" 
d="M143 717q0 -152 58.5 -286t159 -234.5t234.5 -158.5t288 -58t288 58t234 158.5t158.5 234.5t58.5 286q0 154 -58.5 288t-158.5 234t-234.5 158.5t-287.5 58.5q-154 0 -288 -58.5t-234.5 -158.5t-159 -234t-58.5 -288zM276 717q0 125 48.5 235.5t131.5 192.5t192.5 130
t234.5 48t234.5 -48t192.5 -130t131 -192.5t48 -235.5t-48 -234.5t-131 -192.5t-192.5 -131t-234.5 -48t-234.5 48t-192.5 131t-131.5 192.5t-48.5 234.5zM506 700q0 -80 27.5 -151.5t78 -124.5t122 -85t159.5 -32q98 0 174 34t127 73l-51 63q-53 -45 -102.5 -69.5
t-112.5 -24.5q-53 0 -101.5 17.5t-87.5 55.5t-61.5 98t-22.5 146q0 106 25 172t62.5 102t81.5 48t83 12q84 0 127 -35.5t60 -85.5h114q-16 55 -48 91t-76 57.5t-95 30t-104 8.5q-90 0 -161 -32t-119 -85t-73.5 -127t-25.5 -156z" />
    <glyph glyph-name="guillemotleft" unicode="&#xab;" horiz-adv-x="1105" 
d="M164 530l246 -405h139l-240 405l240 406h-139zM553 530l250 -405h139l-242 405l242 406h-139z" />
    <glyph glyph-name="uni00AD" unicode="&#xad;" horiz-adv-x="751" 
d="M123 471v154h506v-154h-506z" />
    <glyph glyph-name="registered" unicode="&#xae;" horiz-adv-x="1765" 
d="M143 715q0 -152 58.5 -287t159 -235.5t234.5 -159t288 -58.5t288 58.5t234 159t158.5 235.5t58.5 287q0 154 -58.5 288t-158.5 234t-234.5 158.5t-287.5 58.5q-154 0 -288 -58.5t-234.5 -158.5t-159 -234t-58.5 -288zM276 715q0 125 48.5 234.5t131.5 192.5t192.5 131
t234.5 48t234.5 -48t192.5 -131t131 -192.5t48 -234.5t-48 -234.5t-131 -192.5t-192.5 -131t-234.5 -48t-234.5 48t-192.5 131t-131.5 192.5t-48.5 234.5zM612 309h131v336h88q8 0 31 -29.5t48.5 -68.5t48 -76t32.5 -51q18 -25 33.5 -47.5t36 -40t46.5 -26.5t64 -9
q33 0 50.5 4t35.5 16v66q-18 -6 -36 -6q-47 0 -70 24.5t-33 40.5l-160 226q47 12 81 36.5t55.5 55.5t31 62.5t9.5 60.5q0 18 -8.5 54t-36 71.5t-80 61.5t-138.5 26h-260v-787zM743 723v303h93q70 0 115.5 -46t45.5 -106q0 -43 -15 -71.5t-39.5 -46t-52.5 -25.5t-52 -8h-95z
" />
    <glyph glyph-name="acute" unicode="&#xb4;" horiz-adv-x="397" 
d="M0 1198l170 260h227l-317 -260h-80z" />
    <glyph glyph-name="cedilla" unicode="&#xb8;" horiz-adv-x="370" 
d="M0 -389q31 -4 66.5 -8t70.5 -4q43 0 85 9t75 30.5t53.5 53.5t20.5 79q0 66 -55.5 103.5t-122.5 37.5h-24.5t-25.5 -2l25 90h-68l-51 -168q14 4 38 6t38 2q78 0 104.5 -24.5t26.5 -48.5q0 -35 -18.5 -55.5t-47 -31t-62.5 -14.5t-62 -4h-26.5t-23.5 4z" />
    <glyph glyph-name="guillemotright" unicode="&#xbb;" horiz-adv-x="1105" 
d="M164 125h141l244 405l-244 406h-141l242 -406zM553 125h141l248 405l-248 406h-141l246 -406z" />
    <glyph glyph-name="circumflex" unicode="&#x2c6;" horiz-adv-x="714" 
d="M0 1161l49 -61l23 13q24 13 58 34.5t74 45.5t73.5 45.5t44.5 27.5l34 20l22 -13q23 -13 57 -33.5t74 -45.5t73.5 -46.5t56.5 -35.5l23 -14l51 63l-23 23q-22 22 -56 55t-74 72t-73.5 71.5t-56.5 53.5l-22 22h-103l-23 -22q-22 -23 -55.5 -55.5t-73.5 -71.5t-74 -72
t-56.5 -55.5t-22.5 -20.5z" />
    <glyph glyph-name="ring" unicode="&#x2da;" horiz-adv-x="376" 
d="M0 1288q0 -39 14.5 -72.5t40 -59.5t60.5 -41t73 -15q39 0 74 15t60.5 41t40 59.5t14.5 72.5q0 31 -11.5 64.5t-35 60.5t-59 44.5t-83.5 17.5q-47 0 -81.5 -17.5t-58 -44.5t-36 -60.5t-12.5 -64.5zM68 1288q0 51 34.5 85t85.5 34q49 0 85 -34t36 -85t-35.5 -86t-85.5 -35
q-51 0 -85.5 35t-34.5 86z" />
    <glyph glyph-name="tilde" unicode="&#x2dc;" horiz-adv-x="761" 
d="M0 1237l55 -31q23 39 59 64.5t70 25.5q27 0 52.5 -8t48.5 -18q74 -29 135 -51.5t115 -22.5q72 0 132 48t95 157l-62 29q-23 -53 -57.5 -73t-69.5 -20q-25 0 -48 6.5t-42 10.5q-88 29 -150.5 54.5t-109.5 25.5q-78 0 -136 -56.5t-87 -140.5z" />
    <glyph glyph-name="afii10023" unicode="&#x401;" 
d="M246 0h925v113h-739v604h635v90h-635v514h739v113h-925v-1434zM446 1757q0 -45 33 -77.5t78 -32.5t78 32.5t33 77.5t-33 78t-78 33t-78 -33t-33 -78zM729 1757q0 -45 33 -77.5t78 -32.5t77.5 32.5t32.5 77.5t-32.5 78t-77.5 33t-78 -33t-33 -78z" />
    <glyph glyph-name="afii10051" unicode="&#x402;" horiz-adv-x="1689" 
d="M41 1321h537v-1321h186v735q33 6 74 12.5t83 11.5t82.5 8t73.5 3q43 0 103.5 -8t115 -30.5t93 -66.5t38.5 -114v-209q0 -78 -18 -130t-49 -86t-69 -48.5t-77 -14.5q-47 0 -82.5 14.5t-62.5 36t-44 46t-26 47.5l-129 -103q76 -76 156 -102.5t178 -26.5q139 0 219 46.5
t121 113t52.5 140t11.5 131.5v155q0 41 -16.5 93.5t-63.5 97.5t-135 75.5t-230 30.5q-41 0 -93 -3t-107.5 -7t-107.5 -10.5t-91 -12.5v496h547v113h-1270v-113z" />
    <glyph glyph-name="afii10052" unicode="&#x403;" horiz-adv-x="1181" 
d="M246 0h186v1321h688v113h-874v-1434zM487 1608l170 260h228l-318 -260h-80z" />
    <glyph glyph-name="afii10053" unicode="&#x404;" horiz-adv-x="1579" 
d="M61 739q0 174 58.5 308.5t160 225.5t237.5 138t292 47q201 0 372 -67.5t275 -214.5l-104 -101q-41 61 -93.5 114.5t-118 93.5t-144 62.5t-169.5 22.5q-141 0 -245.5 -49t-175 -129t-105.5 -178.5t-35 -196.5v-8h682v-92h-682v-10q0 -123 39 -239t111.5 -205t178 -142
t241.5 -53q90 0 166.5 22.5t141 62t116 93t92.5 114.5l104 -100q-51 -74 -122.5 -127t-154.5 -88t-174.5 -51.5t-183.5 -16.5q-135 0 -243.5 35t-192.5 92.5t-145.5 135t-101.5 161.5t-58.5 172t-18.5 168z" />
    <glyph glyph-name="afii10054" unicode="&#x405;" horiz-adv-x="1280" 
d="M76 362q4 -88 46 -159.5t114.5 -121.5t171 -78t215.5 -28q119 0 214 29t162.5 82t104.5 129t37 168q0 127 -63.5 208t-159 135t-207 91t-206.5 78t-158.5 94t-63.5 141q0 49 21.5 92.5t63.5 75t103 51t141 19.5q133 0 226.5 -56.5t109.5 -176.5h139q-12 76 -55 136
t-108.5 102t-148.5 63.5t-173 21.5q-94 0 -179 -24.5t-149.5 -71.5t-102.5 -119t-38 -164q0 -121 61.5 -194.5t154.5 -122.5t201.5 -84t202 -79t155 -107.5t61.5 -169.5q0 -133 -97.5 -194.5t-259.5 -61.5q-129 0 -206.5 33.5t-118.5 80.5t-55.5 97.5t-16.5 84.5h-139z" />
    <glyph glyph-name="afii10055" unicode="&#x406;" horiz-adv-x="841" 
d="M328 0h186v1434h-186v-1434z" />
    <glyph glyph-name="afii10056" unicode="&#x407;" horiz-adv-x="841" 
d="M168 1757q0 -45 32.5 -77.5t78.5 -32.5q45 0 77.5 32.5t32.5 77.5t-32.5 78t-77.5 33t-78 -33t-33 -78zM328 0h186v1434h-186v-1434zM451 1757q0 -45 32.5 -77.5t77.5 -32.5t78 32.5t33 77.5t-33 78t-78 33t-77.5 -33t-32.5 -78z" />
    <glyph glyph-name="afii10057" unicode="&#x408;" horiz-adv-x="1089" 
d="M41 305q4 -152 99.5 -241t299.5 -89q141 0 222 43t121 107.5t50.5 139.5t10.5 141v1028h-187v-1035q0 -49 -3 -106t-23.5 -108.5t-62.5 -85t-117 -33.5q-70 0 -115 25.5t-70.5 62t-36 78.5t-10.5 73h-178z" />
    <glyph glyph-name="afii10058" unicode="&#x409;" horiz-adv-x="2119" 
d="M41 -6q41 -14 72.5 -16.5t44.5 -2.5q29 0 62.5 7.5t70.5 33t78 75.5t86 136l557 1065h16v-1292h457q137 0 234.5 36t158.5 94t90 133t29 155q0 74 -27.5 143.5t-88 124.5t-155 88t-229.5 33h-283v627h-213l-561 -1080q-18 -37 -41.5 -70.5t-49 -61t-55.5 -44t-63 -16.5
q-23 0 -54.5 9t-55.5 22zM1214 90v627h230q68 0 131 -20.5t112.5 -59.5t78 -94.5t28.5 -122.5q0 -57 -18.5 -115.5t-58.5 -106.5t-100.5 -78t-141.5 -30h-261z" />
    <glyph glyph-name="afii10059" unicode="&#x40a;" horiz-adv-x="2289" 
d="M246 0h186v717h766v-717h455q147 0 245.5 39t158 100.5t85 136t25.5 148.5q0 70 -28 139.5t-88 122.5t-155.5 87t-230.5 34h-281v627h-186v-627h-766v627h-186v-1434zM1384 90v627h230q76 0 140.5 -23.5t110.5 -65.5t71.5 -100.5t25.5 -126.5q0 -63 -23.5 -119.5
t-65.5 -99.5t-100.5 -67.5t-130.5 -24.5h-258z" />
    <glyph glyph-name="afii10060" unicode="&#x40b;" horiz-adv-x="1740" 
d="M41 1321h537v-1321h186v735q78 16 155.5 25.5t141.5 9.5q135 0 211 -22.5t110.5 -58.5t42 -82t7.5 -91v-516h186v571q0 51 -13.5 102.5t-60.5 92.5t-142 67.5t-257 26.5q-96 0 -192.5 -11t-188.5 -24v496h561v113h-1284v-113z" />
    <glyph glyph-name="afii10061" unicode="&#x40c;" horiz-adv-x="1482" 
d="M246 0h186v504l232 248l544 -752h213l-639 879l521 555h-103l-768 -807v807h-186v-1434zM565 1608l170 260h228l-318 -260h-80z" />
    <glyph glyph-name="afii10062" unicode="&#x40e;" horiz-adv-x="1351" 
d="M61 1434l641 -1039l-73 -155q-20 -41 -50 -72t-96 -31q-49 0 -90 31t-67 65l-86 -190q29 -25 85 -46.5t126 -21.5q31 0 64.5 6.5t65 27t62.5 56t59 95.5l588 1274h-106l-383 -832h-8l-512 832h-220zM367 1737q0 -76 41 -117t97 -59.5t115.5 -21.5t98.5 -3q37 0 97.5 3
t116.5 21.5t97 59.5t41 117v24h-197q2 -10 3.5 -19t1.5 -20q0 -43 -18.5 -67.5t-44 -36.5t-52.5 -14t-45 -2t-46 2t-53.5 14t-44 36.5t-18.5 67.5q0 10 1 19.5t3 19.5h-194v-24z" />
    <glyph glyph-name="afii10145" unicode="&#x40f;" horiz-adv-x="1722" 
d="M246 0h524v-215h186v215h521v1434h-187v-1321h-858v1321h-186v-1434z" />
    <glyph glyph-name="afii10017" unicode="&#x410;" horiz-adv-x="1499" 
d="M61 0h95l180 422h706l197 -422h199l-668 1434h-102zM375 514l295 690h8l321 -690h-624z" />
    <glyph glyph-name="afii10018" unicode="&#x411;" horiz-adv-x="1374" 
d="M246 0h471q162 0 265 37t162.5 95t83 130t23.5 144t-23.5 143.5t-84 128.5t-163.5 93t-263 36h-285v514h688v113h-874v-1434zM432 86v631h270q80 0 144.5 -24.5t108.5 -67.5t69 -103.5t25 -130.5q0 -74 -29 -131t-75 -95t-106.5 -58.5t-123.5 -20.5h-283z" />
    <glyph glyph-name="afii10019" unicode="&#x412;" horiz-adv-x="1312" 
d="M246 0h514q137 0 231 36t151.5 93t83 130t25.5 147q0 117 -50 186.5t-119.5 106t-143.5 49t-119 14.5v8q72 0 135.5 27.5t111.5 71.5t76.5 102.5t28.5 124.5q0 57 -24.5 116.5t-74.5 108.5t-129 81t-185 32h-512v-1434zM432 90v627h225q100 0 174 -26.5t122 -72
t72 -104.5t24 -125q0 -72 -26 -127t-69 -94t-101 -58.5t-124 -19.5h-297zM432 807v536h250q80 0 136 -22.5t92 -59t52.5 -84t16.5 -94.5q0 -59 -23.5 -110t-65.5 -88t-96.5 -57.5t-115.5 -20.5h-246z" />
    <glyph glyph-name="afii10020" unicode="&#x413;" horiz-adv-x="1181" 
d="M246 0h186v1321h688v113h-874v-1434z" />
    <glyph glyph-name="afii10021" unicode="&#x414;" horiz-adv-x="1722" 
d="M61 96v-311h177v215h1249v-215h174v311h-201l-567 1338h-125l-514 -1338h-193zM350 96l430 1114h8l476 -1114h-914z" />
    <glyph glyph-name="afii10022" unicode="&#x415;" 
d="M246 0h925v113h-739v596h635v98h-635v514h739v113h-925v-1434z" />
    <glyph glyph-name="afii10024" unicode="&#x416;" horiz-adv-x="2453" 
d="M61 2q82 -27 172 -27q31 0 60 3.5t56.5 14.5t55 32.5t56.5 56.5l440 680l238 -244v-518h176v518l237 244l441 -680q27 -35 55.5 -56.5t56 -32.5t56 -14.5t59.5 -3.5q90 0 172 27v82l-57 -4q-80 0 -133.5 32.5t-112.5 127.5l-420 643l531 551h-134l-751 -779v779h-176
v-779l-752 779h-133l530 -551l-419 -643q-31 -47 -58.5 -78t-56.5 -49.5t-60.5 -25.5t-70.5 -7l-58 4v-82z" />
    <glyph glyph-name="afii10025" unicode="&#x417;" horiz-adv-x="1359" 
d="M123 362q6 -193 130 -290t384 -97q170 0 285.5 39t185.5 100.5t99.5 137.5t29.5 149q0 82 -31.5 148.5t-83 115t-117 74t-133.5 25.5h-14v8q63 0 117.5 27.5t93.5 74t60.5 105.5t21.5 121q0 66 -26.5 130t-87 114.5t-155 82t-229.5 31.5q-104 0 -190 -20.5t-148.5 -63.5
t-99.5 -108.5t-39 -153.5h156q2 37 17.5 82t51 83t95 64.5t151.5 26.5q156 0 237 -77t81 -193q0 -31 -9.5 -80t-44 -96.5t-103.5 -81t-187 -33.5h-144v-90h144q92 0 167.5 -20.5t130 -60.5t84 -97.5t29.5 -128.5q0 -49 -17.5 -109.5t-60.5 -113t-116.5 -87t-186.5 -34.5
q-111 0 -176 33.5t-100 80.5t-46.5 97.5t-13.5 84.5h-192z" />
    <glyph glyph-name="afii10026" unicode="&#x418;" horiz-adv-x="1714" 
d="M246 0h186l850 1280v-1280h186v1434h-186l-850 -1266v1266h-186v-1434z" />
    <glyph glyph-name="afii10027" unicode="&#x419;" horiz-adv-x="1714" 
d="M246 -2h186l850 1280v-1280h186v1434h-186l-850 -1266v1266h-186v-1434zM494 1737q0 -76 40.5 -117t97 -59.5t116 -21.5t98.5 -3q37 0 97.5 3t116.5 21.5t97 59.5t41 117v24h-197q2 -10 3.5 -19t1.5 -20q0 -43 -18.5 -67.5t-44 -36.5t-52.5 -14t-45 -2t-46 2t-53.5 14
t-44 36.5t-18.5 67.5q0 10 1 19.5t3 19.5h-194v-24z" />
    <glyph glyph-name="afii10028" unicode="&#x41a;" horiz-adv-x="1482" 
d="M246 0h186v504l232 248l544 -752h213l-639 879l521 555h-103l-768 -807v807h-186v-1434z" />
    <glyph glyph-name="afii10029" unicode="&#x41b;" horiz-adv-x="1617" 
d="M61 0q35 -12 75 -18.5t81 -6.5q66 0 118 55.5t93 159.5l399 1014h9l518 -1204h202l-622 1434h-113l-442 -1131q-35 -92 -66.5 -147.5t-99.5 -55.5q-27 0 -51.5 14.5t-44.5 24.5z" />
    <glyph glyph-name="afii10030" unicode="&#x41c;" horiz-adv-x="2101" 
d="M246 0h90v1169h8l633 -1194h37l647 1186h8v-1161h186v1434h-141l-663 -1231h-9l-657 1231h-139v-1434z" />
    <glyph glyph-name="afii10031" unicode="&#x41d;" horiz-adv-x="1722" 
d="M246 0h186v713h858v-713h187v1434h-187v-627h-858v627h-186v-1434z" />
    <glyph glyph-name="afii10032" unicode="&#x41e;" horiz-adv-x="1771" 
d="M102 717q0 -115 44 -245t138.5 -240.5t240 -183.5t347.5 -73q137 0 249 34t201 91.5t154.5 132t107.5 157.5t63.5 167t21.5 160q0 115 -47 245t-145.5 240.5t-249 183t-355.5 72.5q-203 0 -348 -71.5t-239.5 -181t-138.5 -240.5t-44 -248zM303 717q0 143 44 263t121 206
t181.5 134t227.5 48q121 0 228 -48t188 -134t128 -206t47 -263t-47 -263t-128 -206t-188.5 -134t-227.5 -48q-123 0 -227.5 48t-181.5 134t-121 206t-44 263z" />
    <glyph glyph-name="afii10033" unicode="&#x41f;" horiz-adv-x="1722" 
d="M246 0h186v1321h858v-1321h187v1434h-1231v-1434z" />
    <glyph glyph-name="afii10034" unicode="&#x420;" horiz-adv-x="1316" 
d="M246 0h186v598q53 -14 114.5 -23.5t135.5 -9.5q125 0 221 35t160.5 95.5t97.5 139t33 169.5q0 86 -28.5 164.5t-87 137t-146.5 93.5t-207 35h-479v-1434zM432 682v661h215q86 0 151.5 -30.5t108.5 -80.5t64.5 -112.5t21.5 -124.5q0 -59 -19.5 -119.5t-62.5 -109.5
t-108.5 -80t-157.5 -31q-63 0 -116.5 5.5t-96.5 21.5z" />
    <glyph glyph-name="afii10035" unicode="&#x421;" horiz-adv-x="1599" 
d="M127 731q0 -143 46 -279.5t142.5 -242t246 -170t356.5 -64.5q131 0 234 25t180 60.5t128 76.5t78 72l-61 55q-209 -197 -496 -196q-160 0 -283 55t-204.5 147t-123.5 213t-42 252q0 139 44 255t123.5 200t189.5 131t239 47q88 0 160.5 -20.5t129 -53t92 -74.5t50.5 -85
h151q-31 70 -79 129t-119.5 102t-168 67.5t-218.5 24.5q-178 0 -324.5 -51t-251 -146.5t-162 -229.5t-57.5 -300z" />
    <glyph glyph-name="afii10036" unicode="&#x422;" horiz-adv-x="1366" 
d="M41 1321h549v-1321h186v1321h549v113h-1284v-113z" />
    <glyph glyph-name="afii10037" unicode="&#x423;" horiz-adv-x="1351" 
d="M61 1434l641 -1039l-73 -155q-20 -41 -50 -72t-96 -31q-49 0 -90 31t-67 65l-86 -190q29 -25 85 -46.5t126 -21.5q31 0 64.5 6.5t65 27t62.5 56t59 95.5l588 1274h-106l-383 -832h-8l-512 832h-220z" />
    <glyph glyph-name="afii10038" unicode="&#x424;" horiz-adv-x="1785" 
d="M123 723q0 -80 31.5 -175t106.5 -177t200 -137.5t311 -55.5h27v-178h186v178h29q186 0 310 55.5t199.5 137.5t107.5 177t32 175q0 104 -40 202.5t-116.5 176.5t-189.5 125t-260 47h-72v160h-186v-160h-70q-147 0 -261 -47t-190.5 -125t-115.5 -176.5t-39 -202.5zM319 723
q0 82 26 166t80 149.5t140 107.5t207 42h27v-928h-13q-104 0 -190 36t-147.5 98.5t-95.5 146.5t-34 182zM985 260v928h29q121 0 207 -42t140 -107.5t79.5 -149.5t25.5 -166q0 -98 -33.5 -182t-95 -146.5t-147.5 -98.5t-191 -36h-14z" />
    <glyph glyph-name="afii10039" unicode="&#x425;" horiz-adv-x="1431" 
d="M41 1434l559 -719l-549 -715h111l489 641h8l500 -641h232l-621 793l490 641h-109l-432 -564h-10l-439 564h-229z" />
    <glyph glyph-name="afii10040" unicode="&#x426;" horiz-adv-x="1767" 
d="M246 0h1224v-215h175v328h-175v1321h-186v-1321h-852v1321h-186v-1434z" />
    <glyph glyph-name="afii10041" unicode="&#x427;" horiz-adv-x="1449" 
d="M123 862q0 -51 13.5 -102t60.5 -93t141 -68t258 -26q96 0 213 11.5t209 23.5v-608h186v1434h-186v-736q-39 -8 -85 -14t-92 -11t-88 -7t-73 -2q-135 0 -211 22.5t-110.5 58t-42 80.5t-7.5 93v516h-186v-572z" />
    <glyph glyph-name="afii10042" unicode="&#x428;" horiz-adv-x="2328" 
d="M246 0h1837v1434h-189v-1321h-637v1321h-186v-1321h-639v1321h-186v-1434z" />
    <glyph glyph-name="afii10043" unicode="&#x429;" horiz-adv-x="2379" 
d="M246 0h1837v-215h174v328h-174v1321h-189v-1321h-637v1321h-186v-1321h-639v1321h-186v-1434z" />
    <glyph glyph-name="afii10044" unicode="&#x42a;" horiz-adv-x="1642" 
d="M61 1165h175v154h284v-1319h488q147 0 245.5 39t157.5 100.5t84 136t25 148.5q0 70 -28 139.5t-87 122.5t-154.5 87t-230.5 34h-313v627h-646v-269zM707 90v627h262q76 0 140.5 -23.5t110.5 -65.5t71.5 -100.5t25.5 -126.5q0 -63 -23.5 -119.5t-65.5 -99.5t-100.5 -67.5
t-130.5 -24.5h-290z" />
    <glyph glyph-name="afii10045" unicode="&#x42b;" horiz-adv-x="1884" 
d="M246 0h487q147 0 245.5 39t158 100.5t85 136t25.5 148.5q0 70 -27.5 139.5t-88 122.5t-155.5 87t-231 34h-313v627h-186v-1434zM432 90v627h262q76 0 140.5 -23.5t110.5 -65.5t71.5 -100.5t25.5 -126.5q0 -63 -23.5 -119.5t-65.5 -99.5t-100 -67.5t-130 -24.5h-291z
M1452 0h186v1434h-186v-1434z" />
    <glyph glyph-name="afii10046" unicode="&#x42c;" horiz-adv-x="1370" 
d="M246 0h487q147 0 245.5 39t158 100.5t85 136t25.5 148.5q0 70 -27.5 139.5t-88 122.5t-155.5 87t-231 34h-313v627h-186v-1434zM432 90v627h262q76 0 140.5 -23.5t110.5 -65.5t71.5 -100.5t25.5 -126.5q0 -63 -23.5 -119.5t-65.5 -99.5t-100 -67.5t-130 -24.5h-291z" />
    <glyph glyph-name="afii10047" unicode="&#x42d;" horiz-adv-x="1579" 
d="M61 258q51 -74 123 -127t155 -88t174 -51.5t183 -16.5q135 0 244 35t193 92.5t145 135t101 161.5t58.5 172t18.5 168q0 174 -58.5 308.5t-159.5 225.5t-237 138t-292 47q-201 0 -372 -67.5t-276 -214.5l105 -101q39 61 92 114.5t118.5 93.5t144.5 62.5t169 22.5
q141 0 245.5 -49t175.5 -129t105.5 -178.5t34.5 -196.5v-8h-682v-92h682v-10q0 -123 -38.5 -239t-111.5 -205t-178.5 -142t-240.5 -53q-90 0 -167 22.5t-141.5 62t-116.5 93t-91 114.5z" />
    <glyph glyph-name="afii10048" unicode="&#x42e;" horiz-adv-x="2359" 
d="M246 0h186v717h252q4 -197 74.5 -337t181.5 -230.5t249 -132.5t275 -42q168 0 310.5 59.5t245 161t159.5 236.5t57 287q0 119 -45 249t-138 238.5t-239.5 180t-349.5 71.5q-164 0 -299 -52t-236.5 -141t-164 -208t-80.5 -250h-252v627h-186v-1434zM887 719
q0 178 58.5 302t144.5 200.5t187 111.5t187 35q84 0 183.5 -34t184.5 -110.5t142.5 -200.5t57.5 -304q0 -178 -57.5 -303t-142.5 -203t-184.5 -112.5t-183.5 -34.5q-86 0 -187 34.5t-187 112.5t-144.5 203t-58.5 303z" />
    <glyph glyph-name="afii10049" unicode="&#x42f;" horiz-adv-x="1470" 
d="M61 0v76q10 -2 20.5 -3t20.5 -1q43 0 76 12t61.5 35.5t55.5 57.5t55 77q86 125 133 199.5t75 115.5t45.5 59.5t41.5 30.5l21 11v8q-98 6 -169 43t-116 92t-65.5 119.5t-20.5 126.5q0 55 21.5 120.5t73.5 122t142.5 94.5t227.5 38h465v-1434h-187v633h-90q-57 0 -95 -10.5
t-68.5 -35t-57.5 -63.5t-63 -96l-162 -240q-31 -47 -60.5 -86t-64.5 -66.5t-79 -44t-105 -16.5q-45 0 -74 4.5t-58 20.5zM492 1042q0 -55 21.5 -111.5t64.5 -102.5t105 -74.5t144 -28.5h211v618h-207q-78 0 -140 -22.5t-107 -62t-68.5 -95t-23.5 -121.5z" />
    <glyph glyph-name="afii10065" unicode="&#x430;" horiz-adv-x="1105" 
d="M82 322q0 66 24.5 131t73.5 117.5t121 85t164 32.5t175 -36t136 -101v88q0 168 -50 250t-183 82q-57 0 -100.5 -14.5t-77 -40t-62.5 -63.5t-57 -85l-107 106q29 31 60.5 62t78 55.5t110 40t153.5 15.5q150 0 231.5 -42t119.5 -110t44 -156t6 -180v-559h-166v100
q-59 -57 -151.5 -91t-184.5 -34q-88 0 -155.5 31t-112.5 80t-67.5 110.5t-22.5 125.5zM258 319q0 -66 23.5 -113.5t60.5 -81.5t82 -50.5t86 -16.5q39 0 79 14.5t75.5 40t64.5 60.5t47 76v158q-10 25 -29.5 57.5t-50 63t-73.5 52t-103 21.5q-59 0 -108.5 -23.5t-83 -61.5
t-52 -89t-18.5 -107z" />
    <glyph glyph-name="afii10066" unicode="&#x431;" horiz-adv-x="1271" 
d="M102 549q0 -78 20.5 -177.5t80 -187.5t169 -148.5t285.5 -60.5q137 0 234.5 48.5t159 126t90 174t28.5 194.5t-29.5 193.5t-91 169t-157.5 120t-232 46.5q-94 0 -167.5 -23t-129 -60.5t-94.5 -87t-61 -100.5h-8v10q0 129 45 241t118 169q84 63 179.5 74.5t210.5 11.5h252
l110 152h-285q-88 0 -174 -4.5t-165.5 -29t-150.5 -75.5t-126 -143q-41 -68 -63.5 -143.5t-33 -150.5t-12.5 -147.5t-2 -136.5v-55zM297 506q0 119 24.5 206t69.5 143t105.5 83t132.5 27q31 0 88 -8.5t114.5 -51.5t100.5 -136t43 -263q0 -141 -34 -229.5t-83 -136.5
t-104.5 -65.5t-96.5 -17.5q-53 0 -116.5 18.5t-117.5 69t-90 137.5t-36 224z" />
    <glyph glyph-name="afii10067" unicode="&#x432;" horiz-adv-x="1103" 
d="M164 0h463q100 0 171.5 23.5t117 61.5t65.5 86t20 99q0 78 -30.5 129.5t-76.5 81t-98.5 42t-95.5 14.5v14q41 8 82 25.5t73 47t51.5 69.5t19.5 91q0 29 -10.5 70t-45 79t-101.5 64.5t-177 26.5h-428v-1024zM338 82v407h180q33 0 83 -4t97 -24.5t81 -63.5t34 -118
q0 -74 -32.5 -114t-77 -58.5t-88.5 -21.5t-64 -3h-213zM338 559v383h203q70 0 111.5 -20.5t64 -49t30 -60.5t7.5 -56q0 -47 -19.5 -83t-52.5 -61.5t-76 -39t-90 -13.5h-178z" />
    <glyph glyph-name="afii10068" unicode="&#x433;" horiz-adv-x="856" 
d="M164 0h174v942h498v82h-672v-1024z" />
    <glyph glyph-name="afii10069" unicode="&#x434;" horiz-adv-x="1228" 
d="M20 82v-297h144v215h901v-215h143v297h-141l-393 942h-123l-383 -942h-148zM264 82l301 739h13l305 -739h-619z" />
    <glyph glyph-name="afii10070" unicode="&#x435;" horiz-adv-x="1175" 
d="M102 518q0 -102 32 -199.5t96.5 -174t164 -123t234.5 -46.5q131 0 241.5 46.5t192.5 132.5l-66 65q-43 -37 -80.5 -67.5t-76.5 -51t-81 -32t-93 -11.5q-57 0 -122 17.5t-120 62.5t-92 125t-37 205h778v43q0 137 -39 237.5t-105.5 166t-154.5 98t-186 32.5
q-104 0 -192.5 -35.5t-154 -104t-102.5 -166t-37 -220.5zM295 549q0 82 17.5 158.5t53 136t91 95.5t131.5 36q145 0 226 -113.5t81 -312.5h-600z" />
    <glyph glyph-name="afii10072" unicode="&#x436;" horiz-adv-x="1730" 
d="M41 0q27 -8 61.5 -16.5t71.5 -8.5q82 0 143.5 52.5t108.5 117.5l242 334l110 -119v-360h174v360l111 119l242 -334q47 -66 108.5 -118t142.5 -52q37 0 72 8.5t62 16.5v82h-58q-25 0 -52.5 14.5t-55 36t-52 48t-42.5 52.5l-259 357l404 434h-125l-498 -528v528h-174v-528
l-497 528h-125l403 -434l-258 -357q-18 -27 -44 -53t-53.5 -47.5t-54 -36t-51.5 -14.5h-57v-82z" />
    <glyph glyph-name="afii10073" unicode="&#x437;" horiz-adv-x="1056" 
d="M61 190q31 -55 66 -96t83 -66.5t112.5 -39t154.5 -13.5q139 0 231.5 28t146.5 71t76.5 94t22.5 98q0 49 -20.5 95.5t-58 83t-94 60t-130.5 23.5v15q86 8 133 40.5t70 70.5t28 74t5 48q0 43 -19.5 91t-63.5 88t-117 66t-177 26q-113 0 -188.5 -30t-120.5 -75t-65.5 -99.5
t-22.5 -101.5h123q8 68 30.5 111t55 68.5t73.5 35t86 9.5q123 0 181.5 -55.5t58.5 -141.5q0 -55 -21.5 -95t-58.5 -64.5t-84 -37t-96 -12.5h-70v-70h74q31 0 81 -5t98 -25.5t83 -62.5t35 -115q0 -109 -77 -171.5t-200 -62.5q-55 0 -107 14.5t-96 42t-77 69.5t-47 97z" />
    <glyph glyph-name="afii10074" unicode="&#x438;" horiz-adv-x="1228" 
d="M164 0h205l522 897v-897h174v1024h-205l-522 -903v903h-174v-1024z" />
    <glyph glyph-name="afii10075" unicode="&#x439;" horiz-adv-x="1228" 
d="M164 0h205l522 897v-897h174v1024h-205l-522 -903v903h-174v-1024zM264 1409q0 -76 41 -117t97.5 -59.5t115.5 -21.5t98 -3q37 0 97.5 3t117 21.5t97.5 59.5t41 117v25h-197q2 -10 3 -19.5t1 -19.5q0 -43 -18.5 -67.5t-44 -37t-52 -14.5t-45.5 -2q-18 0 -45.5 2t-53 14.5
t-44 37t-18.5 67.5q0 10 1 19t3 20h-195v-25z" />
    <glyph glyph-name="afii10076" unicode="&#x43a;" horiz-adv-x="1130" 
d="M164 0h174v360l113 119l254 -334q25 -31 51 -61.5t57 -55t66.5 -39t76.5 -14.5q37 0 72 8.5t62 16.5v82h-58q-25 0 -51.5 14.5t-54 38t-53 51t-46.5 54.5l-268 350l416 434h-129l-508 -528v528h-174v-1024z" />
    <glyph glyph-name="afii10077" unicode="&#x43b;" horiz-adv-x="1208" 
d="M41 23q47 -45 133 -46q39 0 69.5 11.5t57.5 41t52.5 78t54.5 121.5l235 592h12l328 -821h184l-415 1024h-123l-312 -772q-10 -23 -22 -52.5t-28.5 -56t-38 -44t-46.5 -17.5q-29 0 -59.5 16.5t-48.5 32.5z" />
    <glyph glyph-name="afii10078" unicode="&#x43c;" horiz-adv-x="1392" 
d="M164 0h69v809h9l405 -834h21l379 834h8v-809h174v1024h-158l-356 -782h-10l-379 782h-162v-1024z" />
    <glyph glyph-name="afii10079" unicode="&#x43d;" horiz-adv-x="1193" 
d="M164 0h174v489h518v-489h174v1024h-174v-465h-518v465h-174v-1024z" />
    <glyph glyph-name="afii10080" unicode="&#x43e;" horiz-adv-x="1265" 
d="M102 510q0 106 38 203.5t106.5 171t168 118t222.5 44.5q121 0 218 -44.5t166 -118t105.5 -171t36.5 -203.5t-36.5 -203.5t-105.5 -171.5t-166 -117t-218 -43q-123 0 -222.5 44t-168 118t-106.5 171.5t-38 201.5zM297 510q0 -141 31.5 -230.5t82 -138.5t110 -66.5
t114.5 -17.5t114.5 17.5t108.5 66.5t80 138.5t31 230.5q0 143 -31 232t-80 138.5t-108.5 67t-114.5 17.5t-114.5 -17.5t-110 -67t-82 -138.5t-31.5 -232z" />
    <glyph glyph-name="afii10081" unicode="&#x43f;" horiz-adv-x="1153" 
d="M164 0h174v942h477v-942h174v1024h-825v-1024z" />
    <glyph glyph-name="afii10082" unicode="&#x440;" horiz-adv-x="1236" 
d="M164 -512h174v680h8q20 -53 54 -90t77 -59.5t91 -33t98 -10.5q102 0 188 38t148.5 107.5t97.5 169t35 220.5q0 123 -35 221t-97.5 169t-148.5 109t-188 38q-244 0 -320 -189h-8v166h-174v-1536zM338 436v178q0 68 21.5 128.5t60.5 104.5t91 69.5t112 25.5
q63 0 121.5 -23.5t101.5 -74.5t68.5 -133t25.5 -197q0 -117 -25.5 -199t-69.5 -134t-101.5 -75.5t-120.5 -23.5q-57 0 -108.5 23.5t-90.5 69.5t-62.5 111.5t-23.5 149.5z" />
    <glyph glyph-name="afii10083" unicode="&#x441;" horiz-adv-x="1114" 
d="M102 518q0 -115 37 -214t105.5 -172t165 -115t217.5 -42q135 0 236.5 45.5t170.5 98.5l-59 78q-72 -59 -142.5 -87t-154.5 -28q-74 0 -142.5 22.5t-122 72.5t-85 133t-31.5 204q0 125 35 212t87 139.5t115.5 76t120.5 23.5q94 0 164 -49.5t92 -120.5h142
q-20 74 -65.5 122t-104 77.5t-125 41t-127.5 11.5q-129 0 -227.5 -42t-166 -114t-101.5 -168t-34 -205z" />
    <glyph glyph-name="afii10084" unicode="&#x442;" horiz-adv-x="1075" 
d="M41 942h410v-942h174v942h409v82h-993v-82z" />
    <glyph glyph-name="afii10085" unicode="&#x443;" horiz-adv-x="1052" 
d="M41 1024l459 -1012l-109 -266q-18 -47 -48 -75.5t-69 -28.5q-37 0 -70.5 21.5t-51.5 62.5l-91 -170q39 -35 86.5 -51.5t88.5 -16.5q57 0 100 28.5t75.5 75t57.5 102.5t47 111l496 1219h-101l-321 -784h-8l-355 784h-186z" />
    <glyph glyph-name="afii10086" unicode="&#x444;" horiz-adv-x="1767" 
d="M102 510q0 -78 16.5 -171t61.5 -174t126 -135.5t208 -54.5q66 0 114 14.5t80.5 37t52 49t27.5 51.5h9v-639h174v639h8q25 -68 95.5 -110t176.5 -42q129 0 210 54.5t126 135.5t61.5 174t16.5 171t-16.5 172t-61.5 175t-126 135.5t-210 54.5q-106 0 -176.5 -42t-95.5 -110
h-8v539h-174v-539h-9q-8 25 -27.5 51.5t-52 49t-80.5 37t-114 14.5q-127 0 -208 -54.5t-126 -135.5t-61.5 -175t-16.5 -172zM283 510q0 147 27.5 237.5t67.5 138.5t85 63.5t82 15.5q92 0 143 -49.5t74.5 -120t29 -149.5t5.5 -136t-5.5 -136t-29 -149.5t-74.5 -120
t-143 -49.5q-37 0 -82 15.5t-85 64.5t-67.5 138t-27.5 237zM971 510q0 57 5 136t28.5 149.5t74.5 120t144 49.5q45 0 91 -19.5t84 -70t62.5 -139.5t24.5 -226t-24.5 -225t-62.5 -139.5t-84 -71t-91 -19.5q-92 0 -143.5 50.5t-75 121t-28.5 148.5t-5 135z" />
    <glyph glyph-name="afii10087" unicode="&#x445;" horiz-adv-x="1087" 
d="M61 1024l383 -520l-381 -504h121l320 424l313 -424h209l-418 561l344 463h-118l-285 -383l-281 383h-207z" />
    <glyph glyph-name="afii10088" unicode="&#x446;" horiz-adv-x="1202" 
d="M164 0h874v-215h144v297h-185v942h-174v-942h-485v942h-174v-1024z" />
    <glyph glyph-name="afii10089" unicode="&#x447;" horiz-adv-x="1032" 
d="M102 645q0 -25 4.5 -69t30 -87t80.5 -73.5t158 -30.5q68 0 151.5 11.5t167.5 37.5v-434h174v1024h-174v-520q-16 -4 -42.5 -9.5t-56.5 -10.5t-59.5 -9t-52.5 -4q-78 0 -118.5 19.5t-61 47t-24 57.5t-3.5 50v379h-174v-379z" />
    <glyph glyph-name="afii10090" unicode="&#x448;" horiz-adv-x="1736" 
d="M164 0h1409v1024h-176v-942h-443v942h-174v-942h-442v942h-174v-1024z" />
    <glyph glyph-name="afii10091" unicode="&#x449;" horiz-adv-x="1773" 
d="M164 0h1452v-215h137v297h-180v942h-176v-942h-443v942h-174v-942h-442v942h-174v-1024z" />
    <glyph glyph-name="afii10092" unicode="&#x44a;" horiz-adv-x="1325" 
d="M20 807h150v137h213v-944h520q150 0 235 79t85 197q0 104 -47.5 161t-113 84.5t-134 32.5t-111.5 5h-258v463h-539v-215zM559 78v411h232q33 0 75.5 -6t79.5 -26.5t62.5 -59.5t25.5 -104q0 -35 -5 -66.5t-21 -58.5q-8 -12 -22.5 -27.5t-36 -29t-53.5 -23.5t-73 -10h-264z
" />
    <glyph glyph-name="afii10093" unicode="&#x44b;" horiz-adv-x="1552" 
d="M164 0h538q55 0 109.5 18.5t95.5 54.5t66.5 86t25.5 113q0 104 -46 162t-111.5 85.5t-137 33.5t-120.5 6h-246v465h-174v-1024zM338 78v411h235q18 0 57.5 -4t79.5 -25.5t70.5 -65.5t30.5 -124q0 -96 -60.5 -144t-140.5 -48h-272zM1214 0h175v1024h-175v-1024z" />
    <glyph glyph-name="afii10094" unicode="&#x44c;" horiz-adv-x="1101" 
d="M164 0h538q55 0 109.5 18.5t95.5 54.5t66.5 86t25.5 113q0 104 -46 162t-111.5 85.5t-137 33.5t-120.5 6h-246v465h-174v-1024zM338 82v407h235q18 0 57.5 -4t79.5 -25.5t70.5 -65.5t30.5 -124q0 -96 -60.5 -142t-140.5 -46h-272z" />
    <glyph glyph-name="afii10095" unicode="&#x44d;" horiz-adv-x="1101" 
d="M61 180q92 -119 196.5 -161t227.5 -42q63 0 127 10.5t123 39.5q45 23 92 61.5t86 99t62.5 141.5t23.5 187q0 123 -34.5 221.5t-100 167t-159 105.5t-209.5 37q-102 0 -179 -26t-130.5 -64.5t-81 -86t-29.5 -90.5h151q6 59 35 95t67 56.5t78.5 27t73.5 6.5
q51 0 107.5 -16.5t104.5 -60.5t79 -124t33 -205h-402v-74h402q0 -20 -3 -59t-13.5 -87t-32 -98.5t-57 -90t-90 -66.5t-132.5 -27q-70 0 -123 20.5t-93 52.5t-66.5 70t-42.5 70z" />
    <glyph glyph-name="afii10096" unicode="&#x44e;" horiz-adv-x="1667" 
d="M164 -2v1024h174v-463h170q2 113 45 204t113.5 153.5t166 96.5t203.5 34q123 0 220.5 -42t166 -115t105.5 -168t37 -200q0 -117 -36 -216t-103.5 -173t-166 -116t-223.5 -42q-123 0 -218 46.5t-161.5 120t-104.5 165.5t-44 182h-170v-491h-174zM702 522q0 -143 32 -234
t81 -142.5t108.5 -70t114.5 -18.5q98 0 163 42t102.5 109.5t53 150.5t15.5 165q0 141 -30.5 228.5t-80 134.5t-108.5 62.5t-115 15.5q-43 0 -100 -8.5t-109.5 -50.5t-89.5 -132t-37 -252z" />
    <glyph glyph-name="afii10097" unicode="&#x44f;" horiz-adv-x="1099" 
d="M20 0q55 -25 123 -25q76 0 132.5 40t103.5 120l207 354h176v-489h174v1024h-410q-43 0 -109.5 -7t-130 -35t-108.5 -83t-45 -154q0 -53 21.5 -99t60.5 -81t92 -55.5t115 -20.5h47v-8q-33 -12 -55.5 -30.5t-41 -42t-36 -52t-37.5 -61.5q-68 -111 -117 -162t-112 -51h-50
v-82zM319 750q0 72 31 110.5t70 57t77 21.5t52 3h213v-383h-168q-61 0 -111.5 9.5t-86.5 31t-56.5 58t-20.5 92.5z" />
    <glyph glyph-name="afii10071" unicode="&#x451;" horiz-adv-x="1185" 
d="M88 518q0 -102 32 -199.5t96.5 -174t163.5 -123t234 -46.5q131 0 242 46.5t193 132.5l-66 65q-43 -37 -81 -67.5t-77 -51t-81 -32t-93 -11.5q-57 0 -121.5 17.5t-120 62.5t-92 125t-36.5 205h778v43q0 137 -39 237.5t-105.5 166t-154.5 98t-187 32.5q-104 0 -192 -35.5
t-153.5 -104t-102.5 -166t-37 -220.5zM281 549q0 82 17 158.5t53 136t91.5 95.5t130.5 36q145 0 226.5 -113.5t81.5 -312.5h-600zM311 1352q0 -45 33 -78t78 -33t77.5 33t32.5 78t-32.5 77.5t-77.5 32.5t-78 -32.5t-33 -77.5zM594 1352q0 -45 32.5 -78t78.5 -33
q45 0 77.5 33t32.5 78t-32.5 77.5t-77.5 32.5t-78 -32.5t-33 -77.5z" />
    <glyph glyph-name="afii10099" unicode="&#x452;" horiz-adv-x="1236" 
d="M61 1184h170v-1184h175v590q0 41 7 101.5t34.5 115.5t83 95t153.5 40q113 0 163 -71.5t50 -225.5v-831q0 -47 -4 -92.5t-17.5 -80t-39 -57t-66.5 -22.5q-47 0 -75.5 24.5t-51.5 79.5l-100 -80q47 -59 105.5 -78.5t125.5 -19.5q45 0 97.5 17.5t97.5 63.5t74.5 128
t29.5 211v737q0 49 -9 119t-44 132t-103.5 107.5t-189.5 45.5q-72 0 -147.5 -32t-147.5 -110l-18 -20h-8v297h475v76h-475v174h-175v-174h-170v-76z" />
    <glyph glyph-name="afii10100" unicode="&#x453;" horiz-adv-x="856" 
d="M164 0h174v942h498v82h-672v-1024zM276 1198l170 260h228l-318 -260h-80z" />
    <glyph glyph-name="afii10101" unicode="&#x454;" horiz-adv-x="1101" 
d="M61 516q0 123 35 221.5t100.5 167t159 105.5t209.5 37q100 0 178 -26t131.5 -64.5t81 -86t29.5 -90.5h-151q-6 59 -35 95t-67 56.5t-78.5 27t-73.5 6.5q-51 0 -107.5 -16.5t-105 -60.5t-79 -124t-32.5 -205h401v-74h-401q0 -20 3 -59t13.5 -87t32 -98.5t57 -90t90 -66.5
t132.5 -27q70 0 123 20.5t93 52.5t66.5 70t42.5 70l90 -90q-92 -119 -196.5 -161t-227.5 -42q-63 0 -126.5 10.5t-122.5 39.5q-47 23 -93.5 61.5t-85 99t-62.5 141.5t-24 187z" />
    <glyph glyph-name="afii10102" unicode="&#x455;" horiz-adv-x="983" 
d="M68 279q0 -57 26.5 -111.5t80.5 -97.5t133 -69t184 -26q188 0 283 83t95 218q0 98 -46 158t-115.5 95.5t-150.5 58t-150.5 47t-115.5 59.5t-46 99q0 27 10 56.5t34.5 55t65.5 43t103 17.5q61 0 106 -17.5t76 -43t45 -56.5t14 -57h117q0 55 -28.5 102t-79 81t-117 53.5
t-141.5 19.5q-72 0 -134.5 -18.5t-108.5 -55.5t-72.5 -91.5t-26.5 -125.5q0 -98 45 -155.5t112.5 -92.5t146.5 -56.5t146.5 -47t112.5 -64.5t45 -107q0 -29 -9.5 -59.5t-34 -56t-67.5 -43t-108 -17.5q-82 0 -138.5 26t-92.5 61.5t-51 72.5t-15 62h-133z" />
    <glyph glyph-name="afii10103" unicode="&#x456;" horiz-adv-x="630" 
d="M205 1348q0 -45 32.5 -78t77.5 -33t78 33t33 78t-33 77.5t-78 32.5t-77.5 -32.5t-32.5 -77.5zM229 0h174v1024h-174v-1024z" />
    <glyph glyph-name="afii10104" unicode="&#x457;" horiz-adv-x="630" 
d="M63 1348q0 -45 33 -78t78 -33t78 33t33 78t-33 77.5t-78 32.5t-78 -32.5t-33 -77.5zM229 0h174v1024h-174v-1024zM346 1348q0 -45 33 -78t78 -33t77.5 33t32.5 78t-32.5 77.5t-77.5 32.5t-78 -32.5t-33 -77.5z" />
    <glyph glyph-name="afii10105" unicode="&#x458;" horiz-adv-x="595" 
d="M-123 -412q45 -59 105.5 -79.5t126.5 -20.5q45 0 97 16.5t97 62.5t75 127t30 210v1120h-177v-1212q0 -47 -4 -91.5t-17 -79t-39 -55t-67 -20.5q-51 0 -76.5 24.5t-47.5 77.5zM211 1348q0 -45 31.5 -78t79.5 -33q45 0 77.5 33t32.5 78t-32.5 77.5t-77.5 32.5
q-47 0 -79 -32.5t-32 -77.5z" />
    <glyph glyph-name="afii10106" unicode="&#x459;" horiz-adv-x="1632" 
d="M20 0q29 -6 53.5 -15.5t55.5 -9.5q41 0 76 13.5t65.5 43t62.5 76t66 113.5l346 660h9v-881h428q76 0 140 16.5t110.5 50t72 87t25.5 125.5q0 104 -44 161.5t-107.5 83t-133 30.5t-119.5 5h-198v465h-187l-411 -756q-41 -72 -88 -114.5t-95 -42.5q-29 0 -57.5 13t-50.5 30
zM928 80v409h188q33 0 75 -9t79 -31.5t61.5 -60.5t24.5 -97q0 -53 -12.5 -94t-59.5 -80q-43 -29 -76.5 -33t-79.5 -4h-200z" />
    <glyph glyph-name="afii10107" unicode="&#x45a;" horiz-adv-x="1701" 
d="M164 0h174v489h485v-489h486q57 0 110.5 19.5t93 55.5t63 87t23.5 114q0 104 -44 162t-107.5 84.5t-132 31.5t-119.5 5h-199v465h-174v-465h-485v465h-174v-1024zM997 78v411h189q20 0 60 -4t80 -23.5t69.5 -59.5t29.5 -109q0 -92 -54 -153.5t-171 -61.5h-203z" />
    <glyph glyph-name="afii10108" unicode="&#x45b;" 
d="M61 1184h170v-1184h175v592q0 41 6 100.5t33.5 114.5t83 95t153.5 40q70 0 112 -25.5t64.5 -68.5t29.5 -100.5t7 -118.5v-629h174v676q0 115 -32.5 187.5t-82 113.5t-108 55.5t-111.5 14.5q-72 0 -150.5 -28t-148.5 -106l-22 -28h-8v299h475v78h-475v172h-175v-172h-170
v-78z" />
    <glyph glyph-name="afii10109" unicode="&#x45c;" horiz-adv-x="1130" 
d="M164 0h174v360l113 119l254 -334q25 -31 51 -61.5t57 -55t66.5 -39t76.5 -14.5q37 0 72 8.5t62 16.5v82h-58q-25 0 -51.5 14.5t-54 38t-53 51t-46.5 54.5l-268 350l416 434h-129l-508 -528v528h-174v-1024zM395 1198l170 260h228l-318 -260h-80z" />
    <glyph glyph-name="afii10110" unicode="&#x45e;" horiz-adv-x="1052" 
d="M41 1024l459 -1012l-109 -266q-18 -47 -48 -75.5t-69 -28.5q-37 0 -70.5 21.5t-51.5 62.5l-91 -170q39 -35 86.5 -51.5t88.5 -16.5q57 0 100 28.5t75.5 75t57.5 102.5t47 111l496 1219h-101l-321 -784h-8l-355 784h-186zM219 1409q0 -76 41 -117t97.5 -59.5t115.5 -21.5
t98 -3q37 0 97.5 3t117 21.5t97.5 59.5t41 117v25h-197q2 -10 3 -19.5t1 -19.5q0 -43 -18.5 -67.5t-44 -37t-52 -14.5t-45.5 -2q-18 0 -45.5 2t-53.5 14.5t-44 37t-18 67.5q0 10 1 19t3 20h-195v-25z" />
    <glyph glyph-name="afii10193" unicode="&#x45f;" horiz-adv-x="1153" 
d="M164 0h328v-215h172v215h325v1024h-174v-942h-477v942h-174v-1024z" />
    <glyph glyph-name="afii10050" unicode="&#x490;" horiz-adv-x="1181" 
d="M246 0h186v1321h688v328h-174v-215h-700v-1434z" />
    <glyph glyph-name="afii10098" unicode="&#x491;" horiz-adv-x="856" 
d="M164 0h174v942h498v297h-144v-215h-528v-1024z" />
    <glyph glyph-name="uni2000" unicode="&#x2000;" horiz-adv-x="934" 
 />
    <glyph glyph-name="uni2001" unicode="&#x2001;" horiz-adv-x="1868" 
 />
    <glyph glyph-name="uni2002" unicode="&#x2002;" horiz-adv-x="934" 
 />
    <glyph glyph-name="uni2003" unicode="&#x2003;" horiz-adv-x="1868" 
 />
    <glyph glyph-name="uni2004" unicode="&#x2004;" horiz-adv-x="622" 
 />
    <glyph glyph-name="uni2005" unicode="&#x2005;" horiz-adv-x="467" 
 />
    <glyph glyph-name="uni2006" unicode="&#x2006;" horiz-adv-x="311" 
 />
    <glyph glyph-name="uni2007" unicode="&#x2007;" horiz-adv-x="311" 
 />
    <glyph glyph-name="uni2008" unicode="&#x2008;" horiz-adv-x="233" 
 />
    <glyph glyph-name="uni2009" unicode="&#x2009;" horiz-adv-x="373" 
 />
    <glyph glyph-name="uni200A" unicode="&#x200a;" horiz-adv-x="103" 
 />
    <glyph glyph-name="uni2010" unicode="&#x2010;" horiz-adv-x="751" 
d="M123 471v154h506v-154h-506z" />
    <glyph glyph-name="uni2011" unicode="&#x2011;" horiz-adv-x="751" 
d="M123 471v154h506v-154h-506z" />
    <glyph glyph-name="figuredash" unicode="&#x2012;" horiz-adv-x="751" 
d="M123 471v154h506v-154h-506z" />
    <glyph glyph-name="endash" unicode="&#x2013;" horiz-adv-x="1900" 
d="M246 471h1409v129h-1409v-129z" />
    <glyph glyph-name="emdash" unicode="&#x2014;" horiz-adv-x="2269" 
d="M82 471h2105v129h-2105v-129z" />
    <glyph glyph-name="quoteleft" unicode="&#x2018;" horiz-adv-x="399" 
d="M102 942h195v528h-72z" />
    <glyph glyph-name="quoteright" unicode="&#x2019;" horiz-adv-x="399" 
d="M102 942h74l121 528h-195v-528z" />
    <glyph glyph-name="quotesinglbase" unicode="&#x201a;" horiz-adv-x="356" 
d="M82 252v-528h70l122 528h-192z" />
    <glyph glyph-name="quotedblleft" unicode="&#x201c;" horiz-adv-x="817" 
d="M102 905h195v529h-72zM520 905h195v529h-74z" />
    <glyph glyph-name="quotedblright" unicode="&#x201d;" horiz-adv-x="817" 
d="M102 905h74l121 529h-195v-529zM520 905h72l123 529h-195v-529z" />
    <glyph glyph-name="quotedblbase" unicode="&#x201e;" horiz-adv-x="776" 
d="M82 250v-529h74l120 529h-194zM500 250v-529h71l123 529h-194z" />
    <glyph glyph-name="bullet" unicode="&#x2022;" horiz-adv-x="974" 
d="M246 670q0 -49 18.5 -92t51 -76t76.5 -51.5t95 -18.5q49 0 93.5 18.5t77 51.5t52 76t19.5 92q0 51 -19.5 96t-52 78t-76.5 51t-94 18q-51 0 -95 -18t-76.5 -51t-51 -78t-18.5 -96z" />
    <glyph glyph-name="ellipsis" unicode="&#x2026;" horiz-adv-x="1169" 
d="M82 88q0 -45 32.5 -78t78.5 -33q45 0 77.5 33t32.5 78t-32.5 78t-77.5 33t-78 -33t-33 -78zM475 88q0 -45 33 -78t78 -33t77.5 33t32.5 78t-32.5 78t-77.5 33t-78 -33t-33 -78zM866 88q0 -45 33 -78t78 -33t77.5 33t32.5 78t-32.5 78t-77.5 33t-78 -33t-33 -78z" />
    <glyph glyph-name="uni202F" unicode="&#x202f;" horiz-adv-x="373" 
 />
    <glyph glyph-name="guilsinglleft" unicode="&#x2039;" horiz-adv-x="712" 
d="M164 530l246 -405h139l-240 405l240 406h-139z" />
    <glyph glyph-name="guilsinglright" unicode="&#x203a;" horiz-adv-x="712" 
d="M164 125l239 405l-239 406h139l246 -406l-246 -405h-139z" />
    <glyph glyph-name="uni205F" unicode="&#x205f;" horiz-adv-x="467" 
 />
    <glyph glyph-name="Euro" unicode="&#x20ac;" horiz-adv-x="1222" 
d="M2 573h143q8 -117 47 -224t108 -190t163 -133.5t213 -50.5q139 0 242.5 55.5t187.5 180.5l-68 51q-12 -18 -36.5 -51t-66.5 -65.5t-100.5 -57.5t-138.5 -25q-98 0 -165.5 44.5t-109.5 117t-61.5 163.5t-19.5 185h410l47 91h-459v114h520l47 90h-567q4 86 20.5 174
t54.5 161t104.5 118t170.5 45q41 0 93.5 -10t99.5 -41t80.5 -86t39.5 -144h113q-20 102 -74 185q-23 35 -56.5 68.5t-78.5 59t-104 42t-135 16.5q-119 0 -211.5 -50t-157 -133t-103 -188.5t-51.5 -216.5h-92l-49 -90h135q-2 -12 -2 -24.5v-24.5v-32.5t2 -32.5h-86z" />
    <glyph glyph-name="trademark" unicode="&#x2122;" horiz-adv-x="1839" 
d="M123 1352h256v-647h131v647h254v82h-641v-82zM825 705h82v598l307 -598h76l309 593v-593h138v729h-152l-301 -574l-299 574h-160v-729z" />
    <glyph glyph-name="uniE000" unicode="&#xe000;" horiz-adv-x="1024" 
d="M0 0v1024h1024v-1024h-1024z" />
    </font>
</defs>
</svg>
