<?xml version="1.0" encoding="utf-8"?>
<!-- Generator: Adobe Illustrator 17.1.0, SVG Export Plug-In . SVG Version: 6.00 Build 0)  -->
<!DOCTYPE svg PUBLIC "-//W3C//DTD SVG 1.1//EN" "http://www.w3.org/Graphics/SVG/1.1/DTD/svg11.dtd">
<svg version="1.1" id="Layer_1" xmlns="http://www.w3.org/2000/svg" xmlns:xlink="http://www.w3.org/1999/xlink" x="0px" y="0px" viewBox="0 0 58.8 74" enable-background="new 0 0 58.8 74" xml:space="preserve" width='59' height='74'>
		<path fill-rule="evenodd" clip-rule="evenodd" fill="#1B1A19" d="M57.1,37L33,72.8c-0.3,0.3-0.3,0.7,0,1c0.3,0.3,0.7,0.3,1,0
			l24.6-36.3c0.1-0.1,0.2-0.3,0.2-0.5c0-0.2-0.1-0.3-0.2-0.5L33.9,0.2c-0.3-0.3-0.7-0.3-1,0c-0.3,0.3-0.3,0.7,0,1L57.1,37z"/>
		<path fill-rule="evenodd" clip-rule="evenodd" fill="#E7321F" d="M24.4,37L0.2,72.8c-0.3,0.3-0.3,0.7,0,1c0.3,0.3,0.7,0.3,1,0
			l24.6-36.3c0.1-0.1,0.2-0.3,0.2-0.5c0-0.2-0.1-0.3-0.2-0.5L1.2,0.2c-0.3-0.3-0.7-0.3-1,0c-0.3,0.3-0.3,0.7,0,1L24.4,37z"/>
</svg>
