<?xml version="1.0" encoding="utf-8"?>
<!-- Generator: Adobe Illustrator 17.1.0, SVG Export Plug-In . SVG Version: 6.00 Build 0)  -->
<!DOCTYPE svg PUBLIC "-//W3C//DTD SVG 1.1//EN" "http://www.w3.org/Graphics/SVG/1.1/DTD/svg11.dtd">
<svg version="1.1" id="Layer_1" xmlns="http://www.w3.org/2000/svg" xmlns:xlink="http://www.w3.org/1999/xlink" x="0px" y="0px" viewBox="0 0 28 28" enable-background="new 0 0 28 28" xml:space="preserve" width='28' height='28'>
		<path fill-rule="evenodd" clip-rule="evenodd" fill="#1B1A19" d="M14.8,14l13-13c0.2-0.2,0.2-0.6,0-0.8c-0.2-0.2-0.6-0.2-0.8,0
			l-13,13L1,0.2c-0.2-0.2-0.6-0.2-0.8,0c-0.2,0.2-0.2,0.6,0,0.8l13,13l-13,13c-0.2,0.2-0.2,0.6,0,0.8C0.3,28,0.4,28,0.6,28
			C0.7,28,0.9,28,1,27.8l13-13l13,13c0.1,0.1,0.3,0.2,0.4,0.2s0.3-0.1,0.4-0.2c0.2-0.2,0.2-0.6,0-0.8L14.8,14z"/>
</svg>
