<svg width="82" height="18" viewBox="0 0 82 18" fill="none" xmlns="http://www.w3.org/2000/svg">
<path fill-rule="evenodd" clip-rule="evenodd" d="M67.7197 0.21967C68.0126 -0.0732233 68.4874 -0.0732233 68.7803 0.21967C72.5858 4.02517 75.1714 5.82382 80.0628 8.06834L81.5483 8.75L80.0628 9.43166C75.1714 11.6762 72.5858 13.4748 68.7803 17.2803C68.4874 17.5732 68.0126 17.5732 67.7197 17.2803C67.4268 16.9874 67.4268 16.5126 67.7197 16.2197C70.8235 13.1158 73.1803 11.2775 76.5216 9.5H0.750551C0.750184 9.5 0.75 9.5 0.75 8.75C0.75 8 0.750184 8 0.750551 8H76.5216C73.1803 6.22251 70.8235 4.38416 67.7197 1.28033C67.4268 0.987437 67.4268 0.512563 67.7197 0.21967ZM0.75 8.75L0.750551 8C0.336337 8 0 8.33579 0 8.75C0 9.16421 0.336337 9.5 0.750551 9.5L0.75 8.75Z" fill="#544D46"/>
</svg>
