<svg width="17" height="34" viewBox="0 0 17 34" fill="none" xmlns="http://www.w3.org/2000/svg">
<path fill-rule="evenodd" clip-rule="evenodd" d="M16.6513 9.72121C16.8241 9.34474 16.6589 8.89951 16.2825 8.72676C14.423 7.87349 13.4589 7.20282 12.0122 5.75614C10.5655 4.30945 9.89484 3.34537 9.04157 1.48587L8.35991 0.000347137L7.67825 1.48587C6.82498 3.34537 6.15432 4.30945 4.70763 5.75614C3.26094 7.20282 2.29686 7.87349 0.437361 8.72676C0.0608912 8.89951 -0.104256 9.34474 0.0684948 9.72121C0.241245 10.0977 0.686477 10.2628 1.06295 10.0901C3.08429 9.16254 4.19569 8.38939 5.76829 6.8168C6.53553 6.04955 7.11248 5.39209 7.60991 4.68517L7.60991 32.6271C7.60991 32.6272 7.60991 32.6279 8.35991 32.6279C9.10991 32.6279 9.10991 32.6279 9.10991 32.6277L9.10991 4.68517C9.60734 5.39209 10.1843 6.04955 10.9515 6.8168C12.5241 8.38939 13.6355 9.16254 15.6569 10.0901C16.0333 10.2628 16.4786 10.0977 16.6513 9.72121ZM8.35991 32.6279L9.10991 32.6277C9.10991 33.0419 8.77412 33.3779 8.35991 33.3779C7.9457 33.3779 7.60991 33.0413 7.60991 32.6271L8.35991 32.6279Z" fill="#544D46"/>
</svg>
