<svg width="82" height="41" viewBox="0 0 82 41" fill="none" xmlns="http://www.w3.org/2000/svg">
<path fill-rule="evenodd" clip-rule="evenodd" d="M59.9372 0.068522C60.3137 -0.104229 60.7589 0.0609181 60.9317 0.437388C63.1762 5.32879 64.9748 7.91435 68.7803 11.7199C72.5858 15.5254 75.1714 17.324 80.0628 19.5685L81.5483 20.2502L80.0628 20.9318C75.1714 23.1764 72.5858 24.975 68.7803 28.7805C64.9748 32.586 63.1762 35.1716 60.9317 40.063C60.7589 40.4394 60.3137 40.6046 59.9372 40.4318C59.5607 40.2591 59.3956 39.8139 59.5683 39.4374C61.8871 34.3841 63.7883 31.6513 67.7197 27.7199C70.8235 24.616 73.1803 22.7777 76.5216 21.0002H0.750551C0.750184 21.0002 0.75 21.0002 0.75 20.2502C0.75 19.5002 0.750184 19.5002 0.750551 19.5002H76.5216C73.1803 17.7227 70.8235 15.8843 67.7197 12.7805C63.7883 8.8491 61.8871 6.11622 59.5683 1.06298C59.3956 0.686505 59.5607 0.241273 59.9372 0.068522ZM0.75 20.2502L0.750551 19.5002C0.336337 19.5002 0 19.836 0 20.2502C0 20.6644 0.336337 21.0002 0.750551 21.0002L0.75 20.2502Z" fill="#544D46"/>
</svg>
