<svg width="34" height="17" viewBox="0 0 34 17" fill="none" xmlns="http://www.w3.org/2000/svg">
<path fill-rule="evenodd" clip-rule="evenodd" d="M23.6567 0.068522C24.0332 -0.104229 24.4784 0.0609181 24.6512 0.437388C25.5044 2.29689 26.1751 3.26097 27.6218 4.70766C29.0685 6.15434 30.0326 6.82501 31.8921 7.67828L33.3776 8.35994L31.8921 9.0416C30.0326 9.89487 29.0685 10.5655 27.6218 12.0122C26.1751 13.4589 25.5044 14.423 24.6512 16.2825C24.4784 16.659 24.0332 16.8241 23.6567 16.6514C23.2802 16.4786 23.1151 16.0334 23.2879 15.6569C24.2154 13.6356 24.9885 12.5242 26.5611 10.9516C27.3284 10.1843 27.9858 9.60737 28.6928 9.10994H0.750859C0.750715 9.10994 0.75 9.10994 0.75 8.35994C0.75 7.60994 0.750072 7.60994 0.750215 7.60994H28.6928C27.9858 7.11251 27.3284 6.53556 26.5611 5.76832C24.9885 4.19572 24.2154 3.08431 23.2879 1.06298C23.1151 0.686505 23.2802 0.241273 23.6567 0.068522ZM0.75 8.35994L0.750215 7.60994C0.336001 7.60994 0 7.94572 0 8.35994C0 8.77415 0.336645 9.10994 0.750859 9.10994L0.75 8.35994Z" fill="#544D46"/>
</svg>
