<svg width="35" height="35" viewBox="0 0 35 35" fill="none" xmlns="http://www.w3.org/2000/svg">
<path fill-rule="evenodd" clip-rule="evenodd" d="M2.56066 0.43934C1.97487 -0.146447 1.02513 -0.146447 0.43934 0.43934C-0.146447 1.02513 -0.146447 1.97487 0.43934 2.56066L15.3786 17.4999L0.560549 32.318C-0.0252377 32.9038 -0.0252377 33.8535 0.560549 34.4393C1.14634 35.0251 2.09608 35.0251 2.68187 34.4393L17.4999 19.6213L32.2591 34.3805C32.8449 34.9663 33.7947 34.9663 34.3805 34.3805C34.9663 33.7947 34.9663 32.8449 34.3805 32.2591L19.6213 17.4999L34.5017 2.61951C35.0875 2.03372 35.0875 1.08398 34.5017 0.49819C33.9159 -0.0875968 32.9661 -0.0875968 32.3804 0.49819L17.4999 15.3786L2.56066 0.43934Z" fill="#544D46"/>
</svg>
