<svg width="20" height="19" viewBox="0 0 20 19" fill="none" xmlns="http://www.w3.org/2000/svg">
<path d="M14.67 1.5C17.5 1.5 18.5 3.82 18.5 5.81C18.5 9.26 13.81 14.36 10 17.17C6.19 14.36 1.5 9.26 1.5 5.81C1.5 3.81 2.5 1.5 5.33 1.5C6.03311 1.54655 6.7149 1.76052 7.31852 2.12408C7.92214 2.48765 8.43008 2.99026 8.8 3.59L10 5.18L11.2 3.59C11.5699 2.99026 12.0779 2.48765 12.6815 2.12408C13.2851 1.76052 13.9669 1.54655 14.67 1.5V1.5ZM14.67 0C13.7335 0.0436177 12.821 0.310527 12.0087 0.778465C11.1963 1.2464 10.5076 1.9018 10 2.69C9.49241 1.9018 8.8037 1.2464 7.99133 0.778465C7.17897 0.310527 6.26649 0.0436177 5.33 0C2 0 0 2.6 0 5.81C0 10.56 6.46 16.63 10 19C13.54 16.63 20 10.56 20 5.81C20 2.6 18 0 14.67 0Z" fill="#544D46"/>
</svg>
