<svg width="2" height="10" viewBox="0 0 2 10" fill="none" xmlns="http://www.w3.org/2000/svg">
<path d="M0 0.780142C0 0.98818 0.0756501 1.17258 0.22695 1.33333C0.387707 1.48463 0.572104 1.56028 0.780142 1.56028C0.997636 1.56028 1.18203 1.48463 1.33333 1.33333C1.48463 1.17258 1.56028 0.98818 1.56028 0.780142C1.56028 0.562648 1.48463 0.378251 1.33333 0.226951C1.18203 0.0756503 0.997636 0 0.780142 0C0.572104 0 0.387707 0.0756503 0.22695 0.226951C0.0756501 0.378251 0 0.562648 0 0.780142ZM0.780142 3.47518C0.466789 3.47518 0.212766 3.7292 0.212766 4.04255V9.43262C0.212766 9.74598 0.466789 10 0.780142 10V10C1.09349 10 1.34752 9.74598 1.34752 9.43262V4.04255C1.34752 3.7292 1.09349 3.47518 0.780142 3.47518V3.47518Z" fill="#544D46"/>
</svg>
