<svg width="140" height="120" viewBox="0 0 140 120" fill="none" xmlns="http://www.w3.org/2000/svg">
<path fill-rule="evenodd" clip-rule="evenodd" d="M67.5054 5.77921C82.7046 6.40123 98.4111 7.13121 109.928 17.0697C122.212 27.6703 128.731 43.2984 129.747 59.492C130.835 76.8312 128.822 96.3156 115.606 107.593C102.858 118.471 84.244 113.412 67.5054 112.603C52.0422 111.856 35.1987 113.676 23.8392 103.158C12.2034 92.3841 10.566 75.3442 10.1461 59.492C9.71095 43.0681 9.47018 24.6793 21.4627 13.4493C33.269 2.3935 51.3442 5.11782 67.5054 5.77921Z" fill="#F5F0E9"/>
<path d="M95.3168 110.4C94.6713 110.4 94.1214 109.879 94.1214 109.217C94.0975 107.016 94.0975 104.792 94.0975 102.544C92.8543 101.881 91.3241 101.313 88.8137 101.266C86.2794 101.219 84.7971 101.739 83.6256 102.354C83.1952 104.65 82.7649 106.921 82.3584 109.146C82.2389 109.785 81.6173 110.21 80.9717 110.092C80.3262 109.974 79.8959 109.359 80.0154 108.72C80.4218 106.519 80.8522 104.271 81.2826 101.999C80.0871 101.29 78.6287 100.674 76.4291 100.438C73.7036 100.154 72.1734 100.698 70.9302 101.337C70.9062 101.361 70.8584 101.361 70.8345 101.384C69.9977 103.632 69.137 105.904 68.2763 108.152C68.0372 108.767 67.3439 109.051 66.7462 108.838C66.1245 108.601 65.8137 107.915 66.0528 107.3C66.9374 105.028 67.7742 102.757 68.6349 100.461C67.3917 99.6568 66.005 99.0416 63.9967 98.7339C61.295 98.308 59.7649 98.8286 58.4977 99.4675C58.3782 99.5148 58.2586 99.5621 58.1391 99.5858C56.8241 101.928 55.5331 104.2 54.242 106.448C53.9073 107.016 53.19 107.205 52.6162 106.898C52.0424 106.566 51.8512 105.856 52.162 105.289C53.453 103.064 54.7441 100.769 56.0591 98.45C54.8397 97.5981 53.4769 96.9829 51.5404 96.628C49.0061 96.1784 47.4759 96.6043 46.2566 97.1959C42.5986 102.354 40.1838 105.691 40.0882 105.785C39.7056 106.306 38.9406 106.424 38.4146 106.046C37.8886 105.667 37.769 104.934 38.1516 104.389C38.3907 104.058 62.5861 70.8828 73.9665 50.2015C74.2774 49.6336 75.0185 49.4206 75.5923 49.7282C76.1661 50.0358 76.3813 50.7457 76.0705 51.3136C76.4052 51.2663 76.7638 51.2663 77.1464 51.3136C77.8636 51.3846 78.4613 51.5976 78.9634 51.8342C79.1308 51.4556 79.2981 51.0533 79.4416 50.6511C79.6807 50.0358 80.3979 49.7519 80.9956 50.0122C81.6173 50.2488 81.9042 50.9587 81.6412 51.5503C81.6173 51.6212 81.5694 51.6922 81.5455 51.7869C81.8085 51.7632 82.1193 51.7632 82.4302 51.7869C83.2191 51.8342 83.8647 52.0472 84.3907 52.3311C84.8927 50.5801 85.3948 48.829 85.8969 47.0543C86.0643 46.4154 86.7337 46.0605 87.3792 46.2261C88.0247 46.3918 88.3834 47.0543 88.216 47.6932C87.8096 49.1603 87.3792 50.6274 86.9728 52.0708C87.2119 52.0472 87.4749 52.0235 87.7378 52.0472C88.5985 52.0708 89.268 52.2838 89.8418 52.5678C90.2243 50.2961 90.583 47.9772 90.9655 45.6109C91.0611 44.972 91.6828 44.5461 92.3283 44.617C92.9738 44.7117 93.4281 45.3269 93.3324 45.9658C92.9977 48.0481 92.663 50.0832 92.3522 52.1182C92.5913 52.0708 92.8304 52.0708 93.0934 52.0472C93.9302 52.0472 94.6474 52.2128 95.2212 52.4968C95.2451 51.5739 95.2929 50.6511 95.3168 49.7045C95.3408 49.042 95.8907 48.5924 96.5601 48.5687C97.2295 48.5924 97.7316 49.1366 97.7077 49.7992C97.6838 50.5327 97.6599 51.2426 97.636 51.9525C97.8751 51.9052 98.162 51.8579 98.4489 51.8342C99.6204 51.7632 100.481 52.0708 101.127 52.4731L101.151 52.4494C101.796 51.9525 102.657 51.5266 103.828 51.4083C104.522 51.3373 105.095 51.4083 105.598 51.5503C105.598 51.006 105.98 50.5327 106.53 50.4144C107.128 50.2961 107.701 50.6037 107.917 51.148C108.299 50.9823 108.753 50.864 109.256 50.8167C109.71 50.7694 110.14 50.7694 110.499 50.8167C110.212 50.1068 109.949 49.3969 109.71 48.7107C109.495 48.0955 109.805 47.4093 110.427 47.1963C111.049 46.9833 111.742 47.2909 111.957 47.9062C119.967 69.7233 139.261 104.105 139.452 104.46C139.763 105.028 139.572 105.762 138.998 106.069C138.424 106.377 137.683 106.188 137.372 105.62C137.324 105.525 135.722 102.686 133.307 98.1897C133.188 98.166 133.044 98.1424 132.925 98.0714C131.562 97.4325 129.912 96.8883 127.091 97.3615C124.987 97.7165 123.553 98.4027 122.381 99.1599C123.338 101.692 124.27 104.082 125.155 106.33C125.394 106.945 125.083 107.631 124.485 107.868C123.864 108.104 123.17 107.797 122.931 107.205C122.07 105.005 121.162 102.686 120.23 100.225C120.158 100.201 120.086 100.177 119.99 100.13C118.652 99.4912 117.002 98.9469 114.181 99.3255C112.053 99.6095 110.618 100.248 109.447 100.958C109.925 103.49 110.379 105.88 110.833 108.104C110.953 108.743 110.547 109.359 109.901 109.501C109.256 109.643 108.634 109.217 108.49 108.578C108.06 106.472 107.606 104.2 107.175 101.786C105.837 101.124 104.211 100.556 101.437 100.769C99.19 100.958 97.7316 101.503 96.584 102.165C96.584 104.484 96.584 106.803 96.6079 109.098C96.5123 109.855 95.9624 110.4 95.3168 110.4ZM88.5029 98.9233C88.6225 98.9233 88.742 98.9233 88.8615 98.9233C91.1568 98.9706 92.8065 99.3965 94.1214 99.9408C94.1214 95.6105 94.1692 91.2328 94.241 86.7369C93.3085 86.1926 92.137 85.7431 90.2961 85.7431C88.5029 85.7431 87.4031 86.1217 86.4946 86.6186C85.7056 91.0909 84.9405 95.4212 84.1516 99.6095C85.2514 99.2072 86.662 98.9233 88.5029 98.9233ZM96.6079 86.5476C96.5362 90.9962 96.5123 95.3265 96.4884 99.6095C97.6838 99.0889 99.1661 98.663 101.151 98.521C103.494 98.3317 105.215 98.6393 106.554 99.1126C105.837 95.1609 105.095 90.8306 104.354 86.098C103.422 85.6247 102.25 85.2461 100.362 85.3881C98.6401 85.5301 97.5164 86.0033 96.6079 86.5476ZM74.9707 98.0241C75.4967 98.0241 76.0466 98.0477 76.6443 98.1187C78.82 98.3553 80.4218 98.9233 81.689 99.5622C82.478 95.3265 83.243 90.9725 84.0559 86.4766C83.0279 85.814 81.9042 85.3408 80.2306 85.1751C78.4613 85.0095 77.3376 85.3171 76.3335 85.885C74.899 90.097 73.4166 94.2617 71.8865 98.4263C72.7472 98.1897 73.7514 98.0241 74.9707 98.0241ZM106.721 85.7194C107.438 90.4046 108.18 94.6876 108.897 98.592C110.14 97.9294 111.694 97.3852 113.75 97.1012C115.998 96.7936 117.671 96.9829 119.01 97.3615C117.576 93.5045 116.117 89.3398 114.635 84.8439C113.535 84.2996 112.388 84.0157 110.57 84.2523C108.873 84.4889 107.749 85.0095 106.721 85.7194ZM62.1079 96.273C62.7774 96.273 63.4946 96.3203 64.3075 96.4623C66.5071 96.8173 68.109 97.4798 69.4 98.2607C70.9541 94.0014 72.4603 89.7421 73.9426 85.4591C72.9624 84.7492 71.8626 84.2286 70.2607 84.0157C68.4437 83.7554 67.2961 84.063 66.2202 84.6546C64.0684 88.7956 61.9406 92.7473 59.8127 96.557C60.506 96.3677 61.2472 96.273 62.1079 96.273ZM116.954 84.3233C118.46 88.8665 119.967 93.1022 121.401 97.0066C122.692 96.2257 124.342 95.5158 126.565 95.1372C128.621 94.7823 130.223 94.9006 131.514 95.2082C129.697 91.8007 127.593 87.7781 125.37 83.4241L125.322 83.4004C124.103 82.7615 122.859 82.4066 120.803 82.7142C119.13 82.9982 117.982 83.5661 116.954 84.3233ZM49.4842 94.1197C50.2015 94.1197 51.0144 94.1907 51.899 94.3563C54.1942 94.7586 55.8439 95.5631 57.1589 96.4387C59.3823 92.4396 61.6297 88.2986 63.9011 83.9683C62.9208 83.2348 61.821 82.6906 60.243 82.4303C58.3304 82.1226 57.1828 82.4303 56.0591 83.0218C53.2857 87.0918 50.6557 90.8779 48.3366 94.1907C48.6952 94.1434 49.0778 94.1197 49.4842 94.1197ZM90.1048 83.3768C90.1526 83.3768 90.2243 83.3768 90.2721 83.3768C91.9457 83.4004 93.2129 83.7081 94.241 84.134C94.3127 79.8747 94.4083 75.497 94.5279 71.0248C93.7628 70.5042 92.9499 70.1729 91.6828 70.1729C90.6069 70.1729 89.8418 70.4095 89.1963 70.8118C88.4312 75.2841 87.69 79.638 86.9489 83.85C87.8096 83.5424 88.8376 83.3768 90.1048 83.3768ZM79.346 82.7615C79.7046 82.7615 80.0632 82.7852 80.4697 82.8089C82.1911 82.9745 83.4821 83.4241 84.5102 83.9683C85.2514 79.7327 86.0164 75.3551 86.7576 70.8591C86.0164 70.2912 85.2274 69.9363 83.9842 69.8416C82.8605 69.7706 82.0954 69.9836 81.4021 70.3859C80.0632 74.6452 78.7004 78.8098 77.2898 82.9508C77.8875 82.8562 78.557 82.7615 79.346 82.7615ZM96.9187 70.6698C96.7992 75.1894 96.7035 79.5671 96.6318 83.8737C97.5642 83.4714 98.7119 83.1638 100.194 83.0455C101.772 82.9272 102.968 83.0928 103.948 83.4004C103.35 79.4014 102.776 75.1184 102.226 70.5279C101.485 70.0783 100.696 69.7943 99.4291 69.889C98.3532 69.9363 97.5882 70.2439 96.9187 70.6698ZM104.593 70.1256C105.143 74.7635 105.741 79.1175 106.339 83.1875C107.343 82.6432 108.586 82.17 110.212 81.9333C111.622 81.744 112.746 81.815 113.679 82.028C112.411 78.1 111.168 73.959 109.949 69.5813C109.232 69.1791 108.443 68.9661 107.223 69.1081C106.1 69.2264 105.311 69.605 104.593 70.1256ZM69.0892 81.5311C69.5674 81.5311 70.0695 81.5547 70.6193 81.6494C72.3886 81.9097 73.7035 82.4776 74.7316 83.1165C76.1661 78.8572 77.5767 74.5742 78.9634 70.1966C78.2701 69.6523 77.4811 69.2737 76.3574 69.1317C75.1142 68.9898 74.373 69.2264 73.6318 69.6996C71.6952 73.8406 69.7347 77.7923 67.7981 81.6021C68.1807 81.5547 68.611 81.5311 69.0892 81.5311ZM112.34 69.1791C113.607 73.6987 114.898 77.9343 116.189 81.957C117.265 81.2708 118.604 80.6792 120.445 80.3952C121.784 80.1823 122.907 80.2059 123.84 80.3952C121.927 76.5855 119.967 72.6102 118.078 68.6112C117.241 68.0906 116.428 67.8303 115.041 68.0196C113.87 68.1852 113.057 68.6112 112.34 69.1791ZM58.8324 79.922C59.3823 79.922 59.9562 79.9693 60.6256 80.0876C62.5383 80.3953 63.925 81.0815 65.0008 81.8387C67.0809 77.7923 69.1609 73.5804 71.241 69.1791C70.5715 68.6585 69.8304 68.2799 68.7784 68.1379C67.4156 67.9486 66.6505 68.2326 65.8137 68.8005C65.6703 68.8951 65.5029 68.9661 65.3595 68.9898C62.9686 72.6812 60.53 76.3962 58.1152 79.993C58.3543 79.9457 58.5934 79.922 58.8324 79.922ZM91.6828 67.783C92.9021 67.783 93.8345 68.0196 94.5996 68.3509C94.7191 64.1625 94.8626 59.8796 95.006 55.4546C94.9582 55.4073 94.8865 55.36 94.8387 55.3126C94.3127 54.8157 93.8584 54.5318 93.0216 54.5318C92.5435 54.5318 92.1609 54.6501 91.8262 54.8394C91.085 59.359 90.3678 63.7603 89.6505 68.0196C90.2243 67.8776 90.8938 67.783 91.6828 67.783ZM83.5539 67.4753C83.7451 67.4753 83.9364 67.4753 84.1516 67.499C85.4187 67.5937 86.399 67.9249 87.188 68.3509C87.9052 64.1152 88.6225 59.7613 89.3636 55.289C88.8855 54.8157 88.4073 54.5318 87.6183 54.5081C86.9489 54.4608 86.5185 54.6737 86.1121 54.9814C84.8688 59.2643 83.6017 63.4763 82.3106 67.5937C82.6692 67.5227 83.0996 67.4753 83.5539 67.4753ZM97.4447 54.6028C97.2773 59.1933 97.1339 63.6656 97.0144 67.9959C97.6599 67.7593 98.401 67.5937 99.2857 67.5227C100.338 67.4517 101.198 67.57 101.94 67.783C101.485 63.8313 101.055 59.6429 100.648 55.2417C100.529 55.1943 100.409 55.1233 100.314 55.0287C99.7877 54.5554 99.3335 54.3188 98.4967 54.3425C98.0663 54.3425 97.7316 54.4371 97.4447 54.6028ZM75.7358 66.7181C76.0227 66.7181 76.3335 66.7418 76.6443 66.7655C77.9354 66.9311 78.9395 67.3097 79.7285 67.8066C81.0674 63.5473 82.3584 59.217 83.6734 54.7684C83.2909 54.4371 82.8366 54.2478 82.2389 54.2005C81.426 54.1295 80.9717 54.3898 80.4218 54.863C80.3501 54.934 80.2784 54.9814 80.1828 55.0287C78.4613 59.0987 76.7399 63.0031 75.0185 66.7655C75.2337 66.7418 75.4728 66.7181 75.7358 66.7181ZM102.944 54.1768C103.35 58.8857 103.828 63.3107 104.306 67.5227C105.024 67.1677 105.884 66.8601 106.96 66.7418C107.845 66.6471 108.562 66.6708 109.208 66.7891C108.156 62.9321 107.152 58.9094 106.171 54.7211C106.028 54.6737 105.884 54.6028 105.765 54.4844C105.263 54.0585 104.785 53.7982 103.972 53.8929C103.565 53.9402 103.231 54.0349 102.944 54.1768ZM68.0372 65.7006C68.3719 65.7006 68.7545 65.7243 69.137 65.7716C70.4759 65.9609 71.4801 66.4342 72.269 66.9548C74.1817 62.8611 76.0705 58.5781 77.9593 54.1058C77.6484 53.8929 77.2898 53.7746 76.8117 53.7272C75.9988 53.6562 75.5445 53.8692 75.0424 54.3188C74.8033 54.5318 74.4925 54.6264 74.1817 54.6028C72.1734 58.1049 69.8543 61.8909 67.4156 65.7243C67.6308 65.7006 67.8221 65.7006 68.0372 65.7006ZM108.371 53.6326C109.423 58.2232 110.523 62.5771 111.67 66.7655C112.459 66.2685 113.44 65.8663 114.707 65.677C115.472 65.5587 116.117 65.5587 116.715 65.6296C114.874 61.6543 113.153 57.7499 111.646 54.0348C111.503 53.9875 111.383 53.9165 111.264 53.8219C110.738 53.396 110.307 53.2066 109.447 53.3013C109.016 53.3486 108.682 53.4669 108.371 53.6326ZM124.39 46.6284C121.114 46.6284 119.441 45.043 117.982 43.6469C116.619 42.3454 115.543 41.3279 113.224 41.3279C110.905 41.3279 109.829 42.3454 108.467 43.6469C106.984 45.043 105.335 46.6284 102.059 46.6284C98.7836 46.6284 97.1339 45.043 95.6516 43.6469C94.2888 42.3454 93.2129 41.3279 90.8938 41.3279C88.5747 41.3279 87.4988 42.3454 86.136 43.6469C84.6776 45.043 83.004 46.6284 79.7285 46.6284C76.453 46.6284 74.8033 45.043 73.321 43.6469C71.9582 42.3454 70.8823 41.3279 68.5632 41.3279C66.2441 41.3279 65.1682 42.3454 63.8054 43.6469C62.347 45.043 60.6734 46.6284 57.3979 46.6284C54.1225 46.6284 52.4489 45.043 50.9905 43.6469C49.6277 42.3454 48.5518 41.3279 46.2327 41.3279C43.9135 41.3279 42.8376 42.3454 41.4749 43.6469C40.0164 45.043 38.3428 46.6284 35.0674 46.6284C31.7919 46.6284 30.1422 45.043 28.6599 43.6469C27.2971 42.3454 26.2212 41.3279 23.9021 41.3279C21.583 41.3279 20.5071 42.3454 19.1443 43.6469C17.6859 45.043 16.0123 46.6284 12.7368 46.6284C9.46135 46.6284 7.81167 45.043 6.32934 43.6469C4.96655 42.3454 3.89067 41.3279 1.59545 41.3279C0.926012 41.3279 0.400024 40.8073 0.400024 40.1448C0.400024 39.4822 0.926012 38.9616 1.59545 38.9616C4.87092 38.9616 6.52061 40.547 8.00293 41.9431C9.36572 43.2446 10.4416 44.2621 12.7368 44.2621C15.0559 44.2621 16.1318 43.2446 17.4946 41.9431C18.953 40.547 20.6266 38.9616 23.9021 38.9616C27.1776 38.9616 28.8273 40.547 30.3096 41.9431C31.6724 43.2446 32.7483 44.2621 35.0674 44.2621C37.3626 44.2621 38.4624 43.2446 39.8252 41.9431C41.2836 40.547 42.9572 38.9616 46.2327 38.9616C49.5081 38.9616 51.1578 40.547 52.6401 41.9431C54.0029 43.2446 55.0788 44.2621 57.3979 44.2621C59.7171 44.2621 60.7929 43.2446 62.1557 41.9431C63.6142 40.547 65.2878 38.9616 68.5632 38.9616C71.8387 38.9616 73.5123 40.547 74.9707 41.9431C75.7597 42.7004 76.4769 43.3629 77.3855 43.7888C77.3855 43.5995 77.4333 43.4102 77.5289 43.2209C80.6848 37.5655 85.2992 29.3545 89.1724 22.5159H16.5383V40.1448C16.5383 40.8073 16.0123 41.3279 15.3428 41.3279C14.6734 41.3279 14.1474 40.8073 14.1474 40.1448V21.3328C14.1474 20.6702 14.6734 20.1497 15.3428 20.1497H16.9447V15.0622C16.9447 14.5179 16.4905 14.0683 15.9406 14.0683H6.54451C5.99462 14.0683 5.54036 14.5179 5.54036 15.0622V26.4676C5.54036 27.0119 5.99462 27.4615 6.54451 27.4615H11.2545C11.9239 27.4615 12.4499 27.9821 12.4499 28.6446C12.4499 29.3072 11.9239 29.8278 11.2545 29.8278H6.54451C4.67965 29.8278 3.1495 28.3133 3.1495 26.4676V15.0622C3.1495 13.2164 4.67965 11.702 6.54451 11.702H15.9645C17.8293 11.702 19.3595 13.2164 19.3595 15.0622V20.1497H89.9613C90.1287 20.1497 90.2961 20.197 90.4634 20.2443C93.7389 14.4233 96.2015 10.093 96.2015 10.093C96.3449 9.90365 96.5362 9.76167 96.7753 9.66702C97.3969 9.45406 98.0902 9.76167 98.3054 10.3769L99.5008 13.666C99.5008 13.666 105.813 31.0346 109.016 40.0264L109.04 40.0738C110.116 39.4112 111.431 38.9143 113.224 38.9143C116.5 38.9143 118.173 40.4997 119.632 41.8958C120.995 43.1973 122.07 44.2148 124.39 44.2148C126.709 44.2148 127.785 43.1973 129.147 41.8958C130.63 40.4997 132.279 38.9143 135.555 38.9143C136.224 38.9143 136.75 39.4349 136.75 40.0974C136.75 40.76 136.224 41.2806 135.555 41.2806C133.236 41.2806 132.16 42.2981 130.797 43.5995C129.315 45.043 127.665 46.6284 124.39 46.6284ZM90.8699 38.9616C94.1453 38.9616 95.795 40.547 97.2773 41.9431C98.6401 43.2446 99.716 44.2621 102.035 44.2621C104.354 44.2621 105.43 43.2446 106.793 41.9431C106.96 41.8012 107.104 41.6355 107.271 41.4935C107.032 41.3516 106.841 41.1386 106.745 40.8546C104.689 35.0336 101.294 25.6868 99.19 19.842C99.19 25.7341 99.1661 34.0871 99.1183 39.6242C99.1183 40.2631 98.5684 40.8073 97.9229 40.8073C97.2534 40.8073 96.7275 40.2631 96.7275 39.6242C96.7753 33.7558 96.7992 24.6693 96.7992 18.7772C96.7992 18.1147 97.3252 17.5941 97.9946 17.5941C98.1381 17.5941 98.2576 17.6177 98.3771 17.6651C98.0424 16.7422 97.7555 15.985 97.5642 15.4408C95.2451 21.7351 91.348 32.3833 88.9572 39.2219C89.531 39.0326 90.1526 38.9616 90.8699 38.9616ZM79.6807 44.2621H79.7285C82.0476 44.2621 83.1235 43.2446 84.4863 41.9431C85.2036 41.2569 85.9686 40.547 86.925 39.9791C86.5663 39.6715 86.4229 39.1746 86.5902 38.7013C88.4073 33.5665 91.1089 26.089 93.3564 19.984C89.2202 27.2722 83.4343 37.5418 79.6807 44.2621ZM119.178 37.6838C118.938 37.6838 118.723 37.6128 118.508 37.4945C117.958 37.1396 117.815 36.406 118.173 35.8618L127.235 22.5396H105.621C104.952 22.5396 104.426 22.019 104.426 21.3565C104.426 20.6939 104.952 20.1733 105.621 20.1733H129.482C129.912 20.1733 130.319 20.41 130.534 20.8122C130.749 21.1908 130.725 21.6641 130.462 22.019L120.158 37.1869C119.943 37.4945 119.56 37.6838 119.178 37.6838Z" fill="#544D46"/>
</svg>
