<svg width="121" height="120" viewBox="0 0 121 120" fill="none" xmlns="http://www.w3.org/2000/svg">
<path fill-rule="evenodd" clip-rule="evenodd" d="M66.0569 1.98037C82.7047 1.86448 100.886 3.47972 112.065 15.8156C122.942 27.8163 120.78 45.6357 120.292 61.8242C119.826 77.2968 120.551 94.4319 109.373 105.141C98.3209 115.729 81.314 112.562 66.0569 113.784C48.486 115.191 28.965 123.692 15.2003 112.681C0.919977 101.257 0.0632331 80.0819 1.10375 61.8242C2.07808 44.7278 8.09064 28.0549 20.6844 16.4518C32.8213 5.26959 49.5544 2.09526 66.0569 1.98037Z" fill="#F5F0E9"/>
<path d="M77.7766 109.6H74.6552C74.0833 109.6 73.6067 109.195 73.4876 108.647L72.4869 103.576C70.7475 103.957 68.9366 104.147 67.1257 104.147C59.2389 104.147 51.7571 100.338 47.1107 93.9569C46.8963 93.6712 46.8248 93.2902 46.9201 92.9569C47.0154 92.5997 47.2537 92.314 47.5873 92.1712C54.4972 89.0045 62.67 89.2188 69.3178 92.6712C69.3416 90.5045 69.6276 88.3378 70.1756 86.2188C71.1525 82.5045 72.8681 79.1235 75.2985 76.1712C75.5129 75.8855 75.8704 75.7426 76.2278 75.7426C76.5852 75.7426 76.9188 75.9093 77.157 76.1712C80.9694 80.8378 83.0901 86.695 83.1377 92.6712C83.1377 94.9093 82.6135 97.1474 81.5651 99.0997C81.2553 99.6712 80.5406 99.9093 79.9449 99.5997C79.373 99.2902 79.1347 98.5759 79.4444 97.9807C80.3022 96.3616 80.755 94.5283 80.755 92.6712C80.7312 87.7426 79.1347 82.8854 76.2516 78.8616C74.536 81.2664 73.2732 83.9331 72.5107 86.814C71.8436 89.3855 71.6053 92.0283 71.7959 94.6712C71.8197 95.1236 71.6053 95.5521 71.224 95.7902C70.8428 96.0283 70.3424 96.0045 69.9612 95.7664C64.0997 92.0283 56.5226 91.2664 50.0177 93.7426C54.259 98.7902 60.5493 101.743 67.1734 101.743C69.2225 101.743 71.224 101.481 73.1302 100.933C73.44 100.838 73.7973 100.885 74.0833 101.076C74.3692 101.243 74.5599 101.528 74.6313 101.862L75.6797 107.195H76.7996L77.848 101.862C77.9195 101.528 78.1102 101.243 78.3961 101.076C78.682 100.909 79.0156 100.862 79.3492 100.933C81.303 101.481 83.3045 101.743 85.306 101.743C91.93 101.743 98.2204 98.7664 102.462 93.7426C96.8861 91.6236 90.548 91.8378 85.1154 94.3378C84.5197 94.6236 83.8048 94.3616 83.5427 93.7664C83.2568 93.1712 83.519 92.4569 84.1147 92.195C90.6434 89.1712 98.2919 89.1712 104.868 92.1712C105.202 92.314 105.44 92.5997 105.535 92.9569C105.631 93.2902 105.559 93.6712 105.345 93.9569C100.699 100.338 93.2167 104.147 85.3298 104.147C83.5189 104.147 81.7319 103.957 79.9686 103.552L78.9679 108.624C78.825 109.219 78.3484 109.6 77.7766 109.6ZM48.0638 91.8616C47.897 91.8616 47.7064 91.814 47.5396 91.7426C41.0586 88.5997 37.0079 82.1712 37.0079 74.9569C37.0079 66.814 42.2261 59.6712 49.9938 57.195C50.6372 57.0045 51.2805 57.3378 51.495 57.9569C51.6856 58.5759 51.352 59.2426 50.7325 59.4569C43.9655 61.6235 39.4145 67.8378 39.4145 74.9569C39.4145 81.2426 42.9409 86.8616 48.588 89.5997C49.1837 89.8855 49.422 90.5997 49.1361 91.195C48.9455 91.5997 48.5165 91.8616 48.0638 91.8616ZM105.655 91.1712C105.249 91.1712 104.844 90.9569 104.63 90.5759C104.296 90.0045 104.487 89.2902 105.035 88.9569C109.967 86.0283 113.017 80.6712 113.017 74.9569C113.017 66.7188 106.846 59.8616 98.8638 58.8378H98.8161C97.4579 58.6712 96.0045 58.6712 94.6463 58.8378C93.9791 58.9331 93.4073 58.4569 93.312 57.814C93.2167 57.1712 93.6932 56.5521 94.3365 56.4807C95.3135 56.3616 96.3381 56.314 97.3388 56.3378C94.2651 47.3854 85.8064 41.2664 76.2039 41.2664C70.1518 41.2664 64.4809 43.6474 60.2396 47.9569C55.9983 52.2664 53.7347 57.9807 53.8539 64.0521C53.8777 64.7188 53.3535 65.2426 52.6863 65.2664C52.043 65.195 51.495 64.7664 51.4711 64.0997C51.3282 57.4093 53.8539 51.0759 58.5479 46.2902C63.2419 41.5045 69.5085 38.8854 76.2039 38.8854C87.1884 38.8854 96.8384 46.1235 99.936 56.5997C108.704 58.1235 115.4 65.7902 115.4 74.9807C115.4 81.5283 111.897 87.6712 106.25 91.0283C106.083 91.0997 105.869 91.1712 105.655 91.1712ZM33.3862 77.0997H19.1136C14.3005 77.0997 10.0115 74.6235 7.60493 70.4569C5.19836 66.2902 5.19836 61.3378 7.60493 57.195L16.9453 41.0283L12.2037 42.2902C11.5603 42.4569 10.9169 42.0759 10.7502 41.4569C10.5834 40.814 10.9646 40.1712 11.5841 40.0045L19.1136 37.9807C19.2566 37.9569 19.4233 37.9331 19.5663 37.9569C19.7093 37.9807 19.8284 38.0045 19.9713 38.0759C19.9713 38.0759 20.019 38.0997 20.0667 38.1235C20.1858 38.195 20.2811 38.2902 20.3526 38.3854C20.4479 38.5045 20.5194 38.6474 20.567 38.7902V38.814L22.5924 46.3378C22.7592 46.9807 22.3779 47.6235 21.7584 47.7902C21.1151 47.9569 20.4717 47.5759 20.305 46.9569L19.0421 42.2188L9.70175 58.3854C7.72407 61.7902 7.72407 65.8616 9.70175 69.2664C11.6794 72.6712 15.2058 74.7188 19.1374 74.7188H33.41C34.0772 74.7188 34.6014 75.2426 34.6014 75.9093C34.6014 76.5759 34.0295 77.0997 33.3862 77.0997ZM96.1474 74.3616C95.5279 74.3616 95.0276 73.8855 94.9561 73.2664C94.1221 63.6474 85.8779 56.1235 76.2278 56.1235C69.3179 56.1235 62.9798 59.8855 59.6916 65.9569C59.3818 66.5283 58.6432 66.7426 58.0714 66.4331C57.4995 66.1235 57.285 65.3854 57.5948 64.814C61.3118 57.9807 68.4601 53.7426 76.2278 53.7426C87.1169 53.7426 96.3857 62.2188 97.3388 73.0521C97.3865 73.7188 96.91 74.2902 96.2666 74.3378C96.219 74.3616 96.1713 74.3616 96.1474 74.3616ZM41.1301 54.5283C40.4629 54.5283 39.9387 54.0045 39.9387 53.3378V49.0521H35.6498C34.9826 49.0521 34.4584 48.5283 34.4584 47.8616C34.4584 47.195 34.9826 46.6712 35.6498 46.6712H39.9387V42.3854C39.9387 41.7188 40.4629 41.195 41.1301 41.195C41.7972 41.195 42.3214 41.7188 42.3214 42.3854V46.695H46.6103C47.2775 46.695 47.8017 47.2188 47.8017 47.8854C47.8017 48.5521 47.2775 49.0759 46.6103 49.0759H42.3214V53.3616C42.3214 54.0045 41.7972 54.5283 41.1301 54.5283ZM86.4974 50.8616C86.2591 50.8616 85.997 50.7902 85.7825 50.6235C84.9009 49.9569 83.9478 49.4093 82.9471 48.9331C82.3514 48.6474 82.0893 47.9569 82.3752 47.3616C82.6612 46.7664 83.3522 46.5045 83.9478 46.7902C85.0916 47.314 86.1876 47.9569 87.1883 48.7188C87.7125 49.0997 87.8317 49.8616 87.4266 50.3854C87.2122 50.695 86.8548 50.8616 86.4974 50.8616ZM65.3625 39.0759C65.2672 39.0759 65.1719 39.0759 65.0528 39.0283L57.5233 37.0045C56.88 36.8378 56.4987 36.1712 56.6893 35.5521C56.8561 34.9093 57.5233 34.5521 58.1428 34.7188L62.8845 35.9807L52.186 17.4331C50.2083 14.0283 46.6818 11.9807 42.7503 11.9807C38.8188 11.9807 35.2924 14.0045 33.3147 17.4331L25.5708 30.814C25.2372 31.3854 24.5224 31.5759 23.9505 31.2426C23.3787 30.9093 23.1881 30.195 23.5217 29.6235L31.2656 16.2426C33.6721 12.0759 37.961 9.59973 42.7742 9.59973C47.5873 9.59973 51.8762 12.0759 54.2827 16.2426L64.9813 34.7664L66.2441 30.0283C66.4109 29.3854 67.078 29.0283 67.6976 29.195C68.3409 29.3616 68.7222 30.0283 68.5315 30.6474L66.5062 38.1712C66.4585 38.3378 66.3871 38.4569 66.2918 38.5759C66.1964 38.695 66.0773 38.814 65.9344 38.8854C65.7914 38.9569 65.6484 39.0045 65.5055 39.0283C65.4817 39.0759 65.434 39.0759 65.3625 39.0759Z" fill="#544D46"/>
</svg>
