<svg width="120" height="120" viewBox="0 0 120 120" fill="none" xmlns="http://www.w3.org/2000/svg">
<path fill-rule="evenodd" clip-rule="evenodd" d="M58.6929 6.06364C74.3092 5.25766 91.3098 -2.35378 103.808 7.04382C117.083 17.0257 119.852 35.5502 119.996 52.1589C120.142 68.9364 116.179 85.9233 104.598 98.0637C92.7725 110.46 75.7395 118.136 58.6929 116.425C42.8053 114.83 31.9273 101.482 21.1635 89.6882C11.1038 78.6656 0.642905 67.0698 0.0409951 52.1589C-0.58064 36.7594 5.88855 20.9956 18.0062 11.4722C29.1888 2.68362 44.4889 6.79673 58.6929 6.06364Z" fill="#F5F0E9"/>
<path d="M72.8044 100.8H72.2318C71.5639 100.8 71.039 100.277 71.039 99.612C71.039 98.9469 71.5639 98.4243 72.2318 98.4243H72.8044C73.4723 98.4243 73.9972 98.9469 73.9972 99.612C73.9972 100.277 73.4723 100.8 72.8044 100.8ZM87.4759 95.7638H83.9213C83.3011 95.7638 82.7762 95.2887 82.7285 94.6474L82.5616 92.1294L80.1998 90.7754L77.9096 91.8918C77.337 92.1769 76.6691 91.9631 76.359 91.4167L74.5697 88.3524C74.2596 87.8061 74.4266 87.1172 74.9276 86.7609L77.0508 85.3356V82.6038L74.9276 81.1786C74.4027 80.8223 74.2358 80.1334 74.5697 79.587L76.359 76.5227C76.6691 75.9763 77.3609 75.7863 77.9096 76.0476L80.1998 77.1641L82.5616 75.8101L82.7285 73.2921C82.7762 72.6745 83.3011 72.1756 83.9213 72.1756H87.4759C88.0962 72.1756 88.621 72.6507 88.6687 73.2921L88.8357 75.8101L91.1975 77.1641L93.4877 76.0476C94.0602 75.7863 94.7282 75.9763 95.0383 76.5227L96.8275 79.587C97.1376 80.1334 96.9707 80.8223 96.4697 81.1786L94.3465 82.6038V85.3356L96.4697 86.7609C96.9945 87.1172 97.1615 87.8061 96.8275 88.3524L95.0383 91.4167C94.7282 91.9631 94.0602 92.1769 93.4877 91.8918L91.1975 90.7754L88.8357 92.1294L88.6687 94.6474C88.621 95.2887 88.0962 95.7638 87.4759 95.7638ZM85.0187 93.3884H86.3547L86.4978 91.3455C86.5217 90.9417 86.7364 90.5853 87.0942 90.3953L90.5533 88.3999C90.9112 88.2099 91.3167 88.1861 91.6746 88.3524L93.5354 89.2551L94.2033 88.0911L92.4857 86.9509C92.1517 86.7371 91.9608 86.357 91.9608 85.9532V81.9625C91.9608 81.5586 92.1517 81.2023 92.4857 80.9648L94.2033 79.8246L93.5592 78.7081L91.6985 79.6108C91.3406 79.7771 90.9112 79.7771 90.5772 79.5633L87.1181 77.5679C86.7841 77.3779 86.5455 77.0215 86.5217 76.6177L86.3785 74.5748H85.0426L84.8995 76.6177C84.8756 77.0215 84.6609 77.3779 84.303 77.5679L80.8439 79.5633C80.5099 79.7533 80.0805 79.7771 79.7227 79.6108L77.8619 78.7081L77.1939 79.8721L78.9116 81.0123C79.2456 81.2261 79.4364 81.6061 79.4364 82.01V86.0007C79.4364 86.4046 79.2456 86.7609 78.9116 86.9984L77.1939 88.1386L77.8619 89.3026L79.7227 88.3999C80.0805 88.2337 80.5099 88.2337 80.8439 88.4474L84.303 90.4428C84.637 90.6329 84.8756 90.9892 84.8995 91.393L85.0187 93.3884ZM35.9705 95.7638H32.416C31.7957 95.7638 31.2709 95.2887 31.2232 94.6474L31.0561 92.1294L28.6944 90.7754L26.4042 91.8918C25.8317 92.1769 25.1637 91.9631 24.8536 91.4167L23.0644 88.3524C22.7542 87.8061 22.9212 87.1172 23.4222 86.7609L25.5454 85.3356V82.6038L23.4222 81.1786C22.8974 80.8223 22.7304 80.1334 23.0644 79.587L24.8536 76.5227C25.1637 75.9763 25.8555 75.7863 26.4042 76.0476L28.6944 77.1641L31.0561 75.8101L31.2232 73.2921C31.2709 72.6745 31.7957 72.1756 32.416 72.1756H35.9705C36.5908 72.1756 37.1156 72.6507 37.1633 73.2921L37.3303 75.8101L39.6921 77.1641L41.9823 76.0476C42.5548 75.7863 43.2228 75.9763 43.5329 76.5227L45.3221 79.587C45.6323 80.1334 45.4653 80.8223 44.9643 81.1786L42.8411 82.6038V85.3356L44.9643 86.7609C45.4891 87.1172 45.6561 87.8061 45.3221 88.3524L43.5329 91.4167C43.2228 91.9631 42.5309 92.1769 41.9823 91.8918L39.6921 90.7754L37.3303 92.1294L37.1633 94.6474C37.1156 95.2887 36.5908 95.7638 35.9705 95.7638ZM33.5133 93.3884H34.8493L34.9924 91.3455C35.0163 90.9417 35.231 90.5853 35.5888 90.3953L39.048 88.3999C39.4058 88.2099 39.8114 88.1861 40.1692 88.3524L42.03 89.2551L42.6979 88.0911L40.9803 86.9509C40.6463 86.7371 40.4555 86.357 40.4555 85.9532V81.9625C40.4555 81.5586 40.6463 81.2023 40.9803 80.9648L42.6979 79.8246L42.03 78.7081L40.1692 79.6108C39.8114 79.7771 39.382 79.7771 39.048 79.5633L35.5888 77.5679C35.2548 77.3779 35.0163 77.0215 34.9924 76.6177L34.8493 74.5748H33.5133L33.3702 76.6177C33.3463 77.0215 33.1316 77.3779 32.7738 77.5679L29.3147 79.5633C28.9807 79.7533 28.5513 79.7771 28.1934 79.6108L26.3326 78.7081L25.6647 79.8721L27.3823 81.0123C27.7163 81.2261 27.9072 81.6061 27.9072 82.01V86.0007C27.9072 86.4046 27.7163 86.7609 27.3823 86.9984L25.6647 88.1386L26.3326 89.3026L28.1934 88.3999C28.5513 88.2337 28.9807 88.2337 29.3147 88.4474L32.7738 90.4428C33.1078 90.6329 33.3463 90.9892 33.3702 91.393L33.5133 93.3884ZM63.6914 95.2412C63.3097 95.2412 62.928 95.0512 62.6894 94.7186L61.258 92.6045H58.5146L57.0832 94.7186C56.7253 95.2412 56.0335 95.4075 55.4848 95.0749L52.4074 93.2934C51.8587 92.9846 51.6678 92.2957 51.9303 91.7493L53.0515 89.4689L51.6917 87.1172L49.163 86.9509C48.5427 86.9034 48.0417 86.3808 48.0417 85.7632V82.2238C48.0417 81.6061 48.5189 81.0835 49.163 81.036L51.6917 80.8698L53.0515 78.5181L51.9303 76.2376C51.644 75.6675 51.8587 75.0024 52.4074 74.6936L55.4848 72.912C56.0335 72.6032 56.7253 72.7695 57.0832 73.2683L58.5146 75.3825H61.258L62.6894 73.2683C63.0472 72.7457 63.7391 72.5794 64.2878 72.912L67.3652 74.6936C67.9139 75.0024 68.1047 75.6913 67.8423 76.2376L66.7211 78.5181L68.0809 80.8698L70.6096 81.036C71.2299 81.0835 71.7309 81.6061 71.7309 82.2238V85.7632C71.7309 86.3808 71.2537 86.9034 70.6096 86.9509L68.0809 87.1172L66.7211 89.4689L67.8423 91.7493C68.1286 92.3194 67.9139 92.9846 67.3652 93.2934L64.2878 95.0749C64.0969 95.1937 63.8822 95.2412 63.6914 95.2412ZM54.6022 91.7968L55.7711 92.462L56.9162 90.7516C57.1309 90.4191 57.5126 90.229 57.9182 90.229H61.926C62.3315 90.229 62.6894 90.4191 62.9279 90.7516L64.0731 92.462L65.242 91.7968L64.3355 89.944C64.1685 89.5877 64.1685 89.1601 64.3832 88.8275L66.3871 85.3831C66.578 85.0506 66.9358 84.813 67.3413 84.7893L69.393 84.6467V83.3165L67.3413 83.174C66.9358 83.1502 66.578 82.9364 66.3871 82.5801L64.3832 79.1357C64.1923 78.8031 64.1685 78.3755 64.3355 78.0192L65.242 76.1664L64.0731 75.5012L62.9279 77.2116C62.7132 77.5441 62.3315 77.7342 61.926 77.7342H57.9182C57.5126 77.7342 57.1548 77.5441 56.9162 77.2116L55.7711 75.5012L54.6022 76.1664L55.5087 78.0192C55.6757 78.3755 55.6757 78.8031 55.461 79.1357L53.4571 82.5801C53.2662 82.9127 52.9084 83.1502 52.5028 83.174L50.4512 83.3165V84.6467L52.5028 84.7893C52.9084 84.813 53.2423 85.0268 53.4571 85.3831L55.461 88.8275C55.6518 89.1601 55.6757 89.5877 55.5087 89.944L54.6022 91.7968ZM72.8044 93.2221H72.2318C71.5639 93.2221 71.039 92.6995 71.039 92.0344C71.039 91.3692 71.5639 90.8466 72.2318 90.8466H72.8044C73.4723 90.8466 73.9972 91.3692 73.9972 92.0344C73.9972 92.6995 73.4723 93.2221 72.8044 93.2221ZM47.9463 93.2221H47.3738C46.7058 93.2221 46.181 92.6995 46.181 92.0344C46.181 91.3692 46.7058 90.8466 47.3738 90.8466H47.9463C48.6143 90.8466 49.1391 91.3692 49.1391 92.0344C49.1391 92.6995 48.5904 93.2221 47.9463 93.2221ZM108.374 87.5923C106.37 87.5923 104.748 85.977 104.748 83.9816C104.748 81.9862 106.37 80.3709 108.374 80.3709C110.378 80.3709 112 81.9862 112 83.9816C112 85.977 110.378 87.5923 108.374 87.5923ZM108.374 82.7464C107.706 82.7464 107.133 83.2927 107.133 83.9816C107.133 84.6705 107.682 85.2168 108.374 85.2168C109.066 85.2168 109.614 84.6705 109.614 83.9816C109.614 83.2927 109.066 82.7464 108.374 82.7464ZM10.8262 87.5923C8.82224 87.5923 7.20001 85.977 7.20001 83.9816C7.20001 81.9862 8.82224 80.3709 10.8262 80.3709C12.8301 80.3709 14.4523 81.9862 14.4523 83.9816C14.4523 85.977 12.8301 87.5923 10.8262 87.5923ZM10.8262 82.7464C10.1582 82.7464 9.58563 83.2927 9.58563 83.9816C9.58563 84.6705 10.1343 85.2168 10.8262 85.2168C11.518 85.2168 12.0667 84.6705 12.0667 83.9816C12.0667 83.2927 11.518 82.7464 10.8262 82.7464ZM85.7105 85.6207C84.804 85.6207 84.0645 84.8843 84.0645 83.9816C84.0645 83.0789 84.804 82.3425 85.7105 82.3425C86.6171 82.3425 87.3566 83.0789 87.3566 83.9816C87.3566 84.8843 86.6171 85.6207 85.7105 85.6207ZM85.7105 83.2452C85.305 83.2452 84.971 83.5778 84.971 83.9816C84.971 84.3854 85.305 84.718 85.7105 84.718C86.1161 84.718 86.4501 84.3854 86.4501 83.9816C86.4501 83.5778 86.1161 83.2452 85.7105 83.2452ZM34.1813 85.6207C33.2748 85.6207 32.5352 84.8843 32.5352 83.9816C32.5352 83.0789 33.2748 82.3425 34.1813 82.3425C35.0879 82.3425 35.8274 83.0789 35.8274 83.9816C35.8274 84.8843 35.0879 85.6207 34.1813 85.6207ZM34.1813 83.2452C33.7758 83.2452 33.4418 83.5778 33.4418 83.9816C33.4418 84.3854 33.7758 84.718 34.1813 84.718C34.5869 84.718 34.9209 84.3854 34.9209 83.9816C34.9209 83.5778 34.5869 83.2452 34.1813 83.2452ZM59.9221 85.6207C59.3495 85.6207 58.8008 85.3356 58.4907 84.813C58.0374 84.0291 58.2998 83.0314 59.0871 82.5801C59.4688 82.3663 59.9221 82.295 60.3276 82.4138C60.757 82.5326 61.1149 82.7939 61.3296 83.174C61.7828 83.9578 61.5204 84.9555 60.7332 85.4069C60.4708 85.5494 60.1845 85.6207 59.9221 85.6207ZM59.278 84.3379C59.3734 84.5042 59.5404 84.623 59.7312 84.6942C59.9221 84.7417 60.1129 84.718 60.2799 84.623C60.4469 84.528 60.5901 84.3617 60.6378 84.1716C60.6855 83.9816 60.6616 83.7916 60.5662 83.6253L60.3276 83.7678L60.5662 83.6253C60.3754 83.269 59.9221 83.1502 59.5643 83.364C59.1826 83.554 59.0632 84.0053 59.278 84.3379ZM59.278 84.3379H59.3018H59.278ZM59.0155 72.1994C58.6338 72.1994 58.276 72.0331 58.0375 71.7005L54.4829 66.6646L49.7355 68.3749C44.5587 70.2515 38.5947 68.7787 34.9447 64.788L30.5075 66.4033C30.2212 66.4983 29.8872 66.4983 29.6009 66.3558C29.3146 66.2132 29.1 65.9757 28.9807 65.6906L26.4997 58.8731C26.3804 58.5881 26.4042 58.2555 26.5473 57.9704C26.6905 57.6854 26.929 57.4716 27.2153 57.3528L31.6049 55.7613C31.6526 53.9559 32.082 52.1506 32.8454 50.4878C34.3483 47.2809 36.9963 44.858 40.3362 43.6465L62.26 35.7125L58.3476 30.1302C56.6776 27.7547 54.1966 26.1869 51.31 25.6643C49.5924 25.3555 47.8032 25.4743 46.1571 25.9969C46.1094 26.0207 46.0378 26.0444 45.9901 26.0444C45.0836 26.3532 44.2247 26.757 43.4375 27.2796C43.4136 27.3034 43.2466 27.3984 43.1751 27.4459C42.2685 28.0873 41.4813 28.8474 40.8133 29.7501C38.5709 32.7669 38.046 36.8765 39.4535 40.4871C39.6921 41.1048 39.382 41.7936 38.7617 42.0312C38.1414 42.2687 37.4496 41.9599 37.211 41.3423C35.6365 37.2565 36.0898 32.6244 38.4038 29.0612L35.6842 25.213C35.4934 24.9517 35.4218 24.6429 35.4934 24.3341C35.5411 24.0253 35.732 23.7402 35.9944 23.5739L41.9584 19.4169C42.2208 19.2269 42.5309 19.1556 42.8411 19.2269C43.1512 19.2744 43.4375 19.4644 43.6045 19.7257L46.2764 23.5502C48.0417 23.1226 49.9025 23.0513 51.7156 23.3839C55.1986 24.0015 58.2521 25.9256 60.2799 28.8237L64.5502 34.9286L83.5635 28.0398C84.2076 27.8022 84.8995 27.826 85.4959 28.1111C86.1161 28.3961 86.5694 28.8949 86.808 29.5363L87.5713 31.603C88.0484 32.9095 87.3566 34.3585 86.0445 34.8336L86.6171 36.8527C88.12 36.4726 89.5753 37.1378 90.0524 38.4443L90.8873 40.7247C91.1259 41.3661 91.0782 42.0549 90.7919 42.6488C90.5056 43.2427 90.0047 43.7178 89.3605 43.9553L89.9331 45.9744C91.436 45.5944 92.8913 46.2595 93.3684 47.566L94.1079 49.6089C94.585 50.9154 93.9171 52.3881 92.5811 52.8632L56.7492 65.8332L59.9221 70.3703C60.3038 70.9166 60.1607 71.653 59.6358 72.0331C59.4927 72.1281 59.2541 72.1994 59.0155 72.1994ZM36.233 62.6263C39.1911 66.3083 44.4156 67.7573 48.9244 66.1182L91.8416 50.5828L91.1975 48.3261C89.6707 48.7299 88.2393 48.0411 87.7622 46.7346L87.0942 44.9055C86.8557 44.2641 86.8795 43.5752 87.1896 42.9576C87.4759 42.34 87.9769 41.8887 88.621 41.6511L87.8815 39.1806C86.3547 39.5607 84.9233 38.8956 84.4462 37.5891L83.7782 35.76C83.5396 35.1186 83.5635 34.4297 83.8498 33.8359C84.136 33.2183 84.637 32.7669 85.2812 32.5294L84.6132 30.2727L71.7309 34.8811L76.7645 48.6587C76.9792 49.2763 76.6691 49.9652 76.0488 50.179C75.4286 50.3928 74.7367 50.084 74.522 49.4663L69.4884 35.6887L60.1845 39.0144L65.2181 52.8395C65.4328 53.4571 65.1227 54.146 64.5025 54.3598C63.8822 54.5735 63.1904 54.2647 62.9757 53.6471L57.9182 39.822L48.6143 43.1476L53.6718 56.9965C53.8865 57.6141 53.5764 58.303 52.9561 58.5168C52.3358 58.7306 51.644 58.4218 51.4293 57.8042L46.3718 43.9553L41.1473 45.8319C38.4277 46.8296 36.2329 48.8012 35.0163 51.438C34.2767 53.0295 33.9189 54.7636 33.9905 56.4739C34.0382 57.5429 34.229 58.5643 34.5869 59.562C34.6107 59.6095 34.6107 59.657 34.6346 59.7045C34.9924 60.7972 35.5411 61.7712 36.233 62.6263ZM29.1238 59.1582L30.7937 63.7428L33.4418 62.7926C33.0123 62.1037 32.6545 61.3673 32.3921 60.5834C32.1058 59.8233 31.915 59.0156 31.7718 58.208L29.1238 59.1582ZM38.3084 24.8092L39.9306 27.1134C40.4793 26.5433 41.0757 26.0444 41.7198 25.5693C41.7437 25.5456 41.7675 25.5218 41.7914 25.5218C42.4594 25.0467 43.1751 24.6429 43.9146 24.3103L42.3162 22.0299L38.3084 24.8092ZM82.8001 71.558C82.657 71.558 82.49 71.5342 82.3468 71.5105C81.6789 71.3917 81.1063 71.0117 80.7008 70.4653L79.2456 71.2967C78.6969 71.6768 77.9573 71.5342 77.5756 71.0117C77.1939 70.4653 77.3371 69.7289 77.8619 69.3488L79.1024 68.4699C80.2475 67.6623 81.8459 67.9473 82.6331 69.0875L84.637 67.8761L79.8181 60.7735C79.4364 60.2271 79.5795 59.4907 80.1044 59.1107C80.6531 58.7306 81.3926 58.8731 81.7743 59.3957L86.6171 66.2845C86.9988 66.8309 87.1658 67.5197 87.0465 68.1611C86.9272 68.8262 86.5694 69.3963 85.9968 69.8002L84.1838 71.0592C83.8021 71.3917 83.3011 71.558 82.8001 71.558Z" fill="#544D46"/>
</svg>
