<svg width="120" height="120" viewBox="0 0 120 120" fill="none" xmlns="http://www.w3.org/2000/svg">
<path fill-rule="evenodd" clip-rule="evenodd" d="M59.3058 117.896C43.683 116.396 28.6104 111.077 17.8514 99.6507C7.39853 88.5494 4.66589 73.363 3.09341 58.1963C1.25997 40.5126 -5.0246 18.9654 8.26113 7.1516C21.4821 -4.60464 41.6366 7.31559 59.3058 8.2117C75.3219 9.02396 93.093 1.82501 105.423 12.0792C118.262 22.7571 118.691 41.5124 119.408 58.1963C120.171 75.9273 122.159 95.9507 109.567 108.458C96.9945 120.946 76.9458 119.59 59.3058 117.896Z" fill="#F5F0E9"/>
<path d="M59.6118 116C47.3009 116 40.6246 113.166 40.3405 113.047C39.7723 112.809 39.4882 112.166 39.6776 111.595L54.7822 65.1188C54.9953 64.4998 55.6581 64.1664 56.2736 64.3569C56.8892 64.5712 57.2443 65.2379 57.0313 65.8569L42.2819 111.238C44.531 112 50.4734 113.619 59.5882 113.619C71.3546 113.619 77.8415 110.881 77.9125 110.857C78.528 110.595 79.2146 110.881 79.4751 111.476C79.7355 112.071 79.4514 112.785 78.8595 113.047C78.5991 113.166 71.9227 116 59.6118 116ZM77.3917 109.976C76.8945 109.976 76.421 109.666 76.2552 109.166L62.1924 65.8569C61.9793 65.2379 62.3344 64.5712 62.95 64.3569C63.5655 64.1664 64.2284 64.4998 64.4415 65.1188L78.5044 108.428C78.7174 109.047 78.3623 109.714 77.7468 109.928C77.6284 109.952 77.51 109.976 77.3917 109.976ZM81.1086 109.595C80.5878 109.595 80.1143 109.238 79.9722 108.714C79.8065 108.071 80.1853 107.428 80.8008 107.262C85.6068 105.952 88.5662 104.428 92.4725 101.095L69.6026 64.6426C69.2475 64.095 69.4132 63.3569 69.9814 62.9998C70.5259 62.6426 71.2599 62.8093 71.615 63.3807L95.0294 100.69C95.3372 101.19 95.2425 101.833 94.8163 102.214C90.2471 106.214 86.8853 108.071 81.44 109.547C81.3217 109.595 81.2033 109.595 81.1086 109.595ZM37.0734 109.309C36.955 109.309 36.8603 109.285 36.7419 109.262C31.9359 107.833 28.7162 106 24.431 102.238C23.9812 101.857 23.8865 101.214 24.2179 100.714L47.6323 63.4045C47.9875 62.8569 48.7214 62.6902 49.2659 63.0236C49.8104 63.3807 49.9762 64.1188 49.6447 64.6664L26.7748 101.119C30.4207 104.214 33.2144 105.738 37.4285 106.976C38.044 107.166 38.4228 107.833 38.2334 108.452C38.044 108.976 37.5705 109.309 37.0734 109.309ZM95.5266 98.0712C95.1715 98.0712 94.7927 97.9045 94.5559 97.5712C94.1771 97.0474 94.2955 96.2855 94.8163 95.9045C96.5919 94.6188 97.9888 93.4045 98.8648 92.4045C90.2945 83.2617 81.156 71.0712 70.2419 54.214C67.2588 55.3093 63.3524 55.9283 59.6118 55.9283C56.8419 55.9283 54.0482 55.595 51.4914 54.9521C50.8521 54.7855 50.4733 54.1426 50.6154 53.5236C50.7811 52.8807 51.3967 52.4998 52.0359 52.6426C54.4034 53.2379 57.0313 53.5474 59.5882 53.5474C63.4472 53.5474 67.4246 52.8331 70.2419 51.6426C70.7627 51.4283 71.3782 51.6188 71.686 52.095C83.0499 69.7141 92.4489 82.2379 101.28 91.4998C101.658 91.9045 101.706 92.5236 101.398 92.9998C100.238 94.714 97.9178 96.5712 96.1895 97.8331C96.0001 97.9998 95.7633 98.0712 95.5266 98.0712ZM23.4366 97.8807C23.1999 97.8807 22.9395 97.8093 22.7264 97.6426C21.0928 96.4521 18.9147 94.6664 17.802 93.0236C17.4942 92.5712 17.5416 91.9283 17.9204 91.5236C26.7275 82.2617 36.1264 69.7379 47.514 52.1188C47.8691 51.5712 48.603 51.4045 49.1476 51.7617C49.6921 52.1188 49.8578 52.8569 49.5027 53.4045C38.3518 70.6902 29.0713 83.1188 20.3589 92.4045C21.1875 93.3569 22.4897 94.4998 24.1232 95.6902C24.6441 96.0712 24.7624 96.8331 24.3836 97.3569C24.1469 97.7141 23.7918 97.8807 23.4366 97.8807ZM69.0107 50.7855H68.9397C68.2768 50.7379 67.7796 50.1902 67.827 49.5236C67.8507 49.0712 68.4426 38.9998 72.5146 34.214L70.4786 31.3331C70.1471 30.8807 70.1945 30.2379 70.5733 29.8331L70.597 29.7855L70.6443 29.7379L75.4977 24.595C74.4086 23.4045 72.0648 21.3093 69.6973 22.1902C66.8327 25.5474 61.9083 30.8807 59.5882 30.8807C57.2681 30.8807 52.3436 25.5474 49.479 22.1902C47.0878 21.3093 44.7677 23.4045 43.6787 24.595L48.6267 29.8331C49.0292 30.2379 49.0529 30.8807 48.7214 31.3331L46.6854 34.214C50.7574 38.976 51.3493 49.0712 51.373 49.5236C51.4204 50.1902 50.8995 50.7379 50.2603 50.7855C49.6447 50.8569 49.0529 50.3093 49.0055 49.6664C49.0055 49.5712 48.3663 38.9283 44.3416 35.214C43.8917 34.8093 43.8207 34.1426 44.1758 33.6426L46.2118 30.7379L42.4475 26.7617C40.9323 27.4998 39.3461 28.3807 38.1624 29.3807H43.5129C44.1758 29.3807 44.6967 29.9045 44.6967 30.5712C44.6967 31.2379 44.1758 31.7617 43.5129 31.7617H35.6529C35.2504 31.7617 34.8479 31.5474 34.6349 31.1902C34.4218 30.8331 34.3981 30.4045 34.5875 30.0236C35.7239 27.8093 38.3045 26.1902 40.9087 24.8569C40.8377 24.5474 40.9087 24.214 41.1218 23.9283C41.3112 23.6664 45.5963 17.8331 50.6627 20.095C50.7811 20.1426 50.8758 20.214 50.9705 20.2855C53.9062 18.8569 57.1497 16.9283 58.3334 14.4283L58.357 13.4521C58.3807 11.714 60.4878 10.095 60.7482 9.92833C61.2454 9.57119 61.5532 8.97595 61.5532 8.33309C61.5532 7.26166 60.6772 6.38071 59.6118 6.38071C58.5464 6.38071 57.6705 7.26166 57.6705 8.33309C57.6705 8.99976 57.1497 9.52357 56.4868 9.52357C55.8239 9.52357 55.303 8.97595 55.303 8.33309C55.303 5.95214 57.2443 3.99976 59.6118 3.99976C61.9793 3.99976 63.9207 5.95214 63.9207 8.33309C63.9207 9.71404 63.2578 11.0236 62.145 11.8331C61.4348 12.3569 60.7719 13.1902 60.7245 13.4998L60.7009 14.714C60.7009 14.8569 60.6772 15.0236 60.6062 15.1664C59.3041 18.2855 55.9896 20.4283 52.6041 22.1426C55.4924 25.3569 58.6648 28.3569 59.6118 28.4998C60.5115 28.3569 63.6366 25.3807 66.5249 22.214C63.7786 20.8331 61.8846 19.5474 60.5115 18.1664C60.038 17.714 60.038 16.9521 60.5115 16.4759C60.985 15.9998 61.7189 15.9998 62.1924 16.4759C63.4708 17.7617 65.3411 18.9759 68.1821 20.3569C68.2768 20.2617 68.4189 20.1664 68.5373 20.1188C73.6037 17.8331 77.8888 23.6902 78.0782 23.9521C78.4097 24.4045 78.3623 25.0474 77.9835 25.476L74.2666 29.4045H80.8956C80.2327 28.8331 79.3803 28.2617 78.3386 27.6902C77.7704 27.3807 77.5574 26.6426 77.8888 26.0712C78.1966 25.4998 78.9306 25.2855 79.4987 25.6188C82.0793 27.0712 83.6418 28.4759 84.4704 30.0712C84.6598 30.4521 84.6362 30.8807 84.4231 31.2379C84.21 31.595 83.8312 31.8093 83.4051 31.8093H73.6984L75.0242 33.6902C75.3793 34.1902 75.3082 34.8569 74.8584 35.2617C70.8337 38.9521 70.2182 49.595 70.1945 49.714C70.1708 50.2855 69.65 50.7855 69.0107 50.7855Z" fill="#544D46"/>
</svg>
