<svg width="120" height="120" viewBox="0 0 120 120" fill="none" xmlns="http://www.w3.org/2000/svg">
<path fill-rule="evenodd" clip-rule="evenodd" d="M69.0902 4.0048C86.0351 3.92195 105.715 4.8307 115.812 18.4396C125.462 31.4474 115.565 49.0019 114.462 65.1612C113.494 79.3399 119.513 95.4991 109.842 105.913C100.044 116.462 83.3661 115.882 69.0902 114.014C56.7572 112.401 47.897 103.703 37.7689 96.4825C24.0453 86.6993 3.74794 81.7106 0.560063 65.1612C-2.80532 47.6903 9.54845 30.7407 22.8232 18.8942C35.3894 7.68019 52.2481 4.08715 69.0902 4.0048Z" fill="#F5F0E9"/>
<path d="M54.6269 111.2C44.4452 111.2 33.3401 109.308 27.018 106.459C23.1584 104.712 21.1931 102.677 21.1931 100.378C21.1931 99.253 21.6193 97.6011 23.7267 96.2364C31.4695 91.2088 58.7706 93.2677 73.2144 99.9952C73.8064 100.283 74.0668 100.977 73.8064 101.575C73.5459 102.174 72.8356 102.437 72.2436 102.174C58.6285 95.8294 32.1324 93.6508 25.0289 98.2714C23.5609 99.2291 23.5846 100.091 23.5846 100.378C23.5846 101.575 25.1947 103.012 28.0124 104.281C39.8753 109.644 67.0344 110.745 73.8774 104.568C75.3455 103.227 75.748 101.719 75.1561 99.8037C74.5641 97.9363 72.9303 96.2364 71.2017 94.4408C69.047 92.2143 66.7976 89.892 66.4661 86.9233C66.395 86.2769 66.8686 85.6783 67.5079 85.6065C68.1709 85.5347 68.7393 86.0135 68.8103 86.6599C69.0471 88.8146 70.9177 90.7299 72.883 92.7649C74.7299 94.6803 76.6478 96.6674 77.4055 99.0854C78.2816 101.887 77.5949 104.4 75.4402 106.364C71.6043 109.787 63.4589 111.2 54.6269 111.2ZM93.4358 107.609C87.9424 107.609 83.2067 106.747 78.992 104.999C78.3763 104.76 78.0922 104.041 78.3527 103.443C78.5894 102.844 79.2998 102.533 79.8917 102.796C86.9479 105.717 95.6852 106.004 107.382 103.682C108.022 103.539 108.637 103.969 108.779 104.616C108.898 105.262 108.495 105.885 107.856 106.028C102.481 107.082 97.7215 107.609 93.4358 107.609ZM46.6237 89.1019C46.0791 89.1019 45.5818 88.6949 45.4634 88.1443C43.5691 78.2326 49.7018 70.8826 56.6396 68.0096C63.6247 65.0888 73.2618 66.0704 79.0393 74.809C79.3945 75.3596 79.2524 76.1018 78.7078 76.4609C78.1632 76.82 77.4292 76.6764 77.074 76.1257C71.699 67.9857 63.1985 67.866 57.5394 70.2122C51.5014 72.7261 46.1501 79.0945 47.7839 87.6894C47.9023 88.3358 47.4998 88.9583 46.8368 89.1019C46.7657 89.1019 46.6947 89.1019 46.6237 89.1019ZM53.7982 89.0062C53.2773 89.0062 52.78 88.647 52.6616 88.0964C50.9331 81.2971 55.0531 76.2694 59.6231 74.4738C64.1693 72.6782 70.5151 73.588 73.7828 79.7648C74.0906 80.3394 73.8774 81.0816 73.2855 81.3928C72.6935 81.7041 71.9832 81.4886 71.6753 80.8901C69.0707 75.9821 64.1693 75.2399 60.4755 76.7003C56.7343 78.1608 53.5851 82.0871 54.9584 87.4979C55.1242 88.1443 54.7453 88.7907 54.106 88.9583C53.9876 89.0062 53.8929 89.0062 53.7982 89.0062ZM39.3307 87.7612C38.6677 87.7612 38.1468 87.2345 38.1468 86.5641C38.1468 74.2823 44.4453 64.6579 54.9821 60.8512C65.3533 57.1163 76.5057 60.2048 83.4435 68.7518C83.846 69.2546 83.775 70.0207 83.2777 70.4277C82.7805 70.8347 82.0228 70.7629 81.6203 70.2601C75.3455 62.5031 65.1875 59.702 55.7872 63.1017C46.2211 66.5492 40.5146 75.3117 40.5146 86.5402C40.5146 87.2345 39.97 87.7612 39.3307 87.7612ZM60.7597 87.5936C60.2861 87.5936 59.8362 87.3063 59.6468 86.8275C59.0548 85.2234 59.2915 83.6194 60.2624 82.4223C61.2805 81.1774 62.9617 80.5549 64.5481 80.8422C66.0399 81.1055 67.2001 82.159 67.7447 83.6912C67.9578 84.3137 67.65 85.008 67.0107 85.2234C66.3951 85.4389 65.7084 85.1277 65.4953 84.4813C65.1875 83.5715 64.5718 83.2842 64.1219 83.2124C63.3879 83.0927 62.5355 83.38 62.0619 83.9546C61.612 84.4813 61.541 85.1756 61.8488 85.9656C62.0856 86.5881 61.7778 87.2824 61.1621 87.4979C61.0438 87.5697 60.9017 87.5936 60.7597 87.5936ZM32.2982 84.984H32.2509C31.5879 84.9601 31.0906 84.3855 31.1143 83.7391C31.6826 70.5235 39.5911 59.3429 51.8092 54.5307C64.0746 49.6945 77.4529 52.4717 86.7111 61.8088C87.1847 62.2877 87.1847 63.0299 86.7111 63.5087C86.2612 63.9875 85.5035 63.9875 85.03 63.5087C76.4347 54.8659 64.0509 52.2802 52.6616 56.7572C41.3434 61.2343 34.0031 71.6008 33.4821 83.8348C33.4348 84.4813 32.9139 84.984 32.2982 84.984ZM79.9628 82.5181C79.4655 82.5181 78.992 82.5181 78.5184 82.4702C77.8554 82.4223 77.3582 81.8717 77.4055 81.2013C77.4529 80.5309 78.0212 80.0282 78.6605 80.0761C79.0867 80.1 79.5366 80.1239 79.9628 80.1239C92.1335 80.1239 102.031 70.1165 102.031 57.8106C102.031 49.91 97.84 42.5361 91.0916 38.5379C90.5233 38.2027 90.3339 37.4605 90.6654 36.9099C90.9969 36.3353 91.7309 36.1438 92.2756 36.4789C99.7342 40.9081 104.375 49.0721 104.375 57.8106C104.399 71.4333 93.4358 82.5181 79.9628 82.5181ZM25.5736 80.5788C25.5262 80.5788 25.4552 80.5788 25.4078 80.5549C24.7685 80.4591 24.3186 79.8606 24.4133 79.1902C26.5444 64.8015 35.85 53.0703 49.2993 47.7792C62.7723 42.4882 77.4765 44.7866 88.6054 53.9082C89.1026 54.3152 89.1973 55.0813 88.7711 55.5841C88.3686 56.0869 87.6109 56.1826 87.1136 55.7517C76.6478 47.1807 62.8196 45.002 50.1517 49.9818C37.5075 54.9377 28.7464 65.9746 26.7338 79.5015C26.6391 80.1479 26.1418 80.5788 25.5736 80.5788ZM18.4464 72.9176C18.2096 72.9176 17.9728 72.8458 17.7597 72.7021C17.2388 72.3191 17.0967 71.5769 17.4755 71.0262C25.1236 60.1569 23.0873 45.026 12.8346 36.5508C12.3373 36.1438 12.2426 35.3776 12.6688 34.8749C13.095 34.3721 13.8291 34.2763 14.3263 34.7073C25.5262 43.9726 27.752 60.54 19.3935 72.4148C19.1804 72.7261 18.8015 72.9176 18.4464 72.9176ZM14.3026 65.5197C14.1369 65.5197 13.9712 65.4958 13.8054 65.4C13.2135 65.1127 12.953 64.4184 13.2372 63.8199C16.1496 57.4994 15.1314 49.9579 10.6799 44.6429C10.2536 44.1402 10.3247 43.374 10.8219 42.9431C11.3192 42.5121 12.0769 42.584 12.4794 43.0867C17.5466 49.1199 18.6832 57.667 15.3919 64.8254C15.1788 65.2803 14.7525 65.5197 14.3026 65.5197ZM30.546 59.2471H30.475C29.812 59.2232 29.3148 58.6486 29.3621 58.0022C29.9304 46.9174 24.9816 36.3832 16.1022 29.8472C15.5813 29.4641 15.4629 28.698 15.8418 28.1713C16.2206 27.6446 16.9783 27.5249 17.4992 27.908C27.0179 34.9228 32.3219 46.2231 31.73 58.1219C31.6826 58.7683 31.1617 59.2471 30.546 59.2471ZM37.5548 52.6154C36.9629 52.6154 36.4419 52.1605 36.3709 51.562C35.0923 40.5968 29.2911 30.5415 20.459 23.9576C19.9381 23.5746 19.8197 22.8085 20.1986 22.2817C20.5775 21.755 21.3351 21.6353 21.856 22.0184C31.2327 28.9853 37.3654 39.6631 38.715 51.2747C38.7861 51.9211 38.3362 52.5196 37.6732 52.6154C37.6496 52.6154 37.6022 52.6154 37.5548 52.6154ZM44.2795 48.4496C43.7112 48.4496 43.214 48.0426 43.1192 47.468C41.0119 36.1677 34.9028 26.0166 25.8577 18.8821C25.3368 18.4751 25.2421 17.7329 25.6446 17.2062C26.0471 16.6795 26.7812 16.5837 27.3021 16.9907C36.7735 24.4604 43.214 35.1382 45.416 47.0131C45.5344 47.6595 45.1082 48.282 44.4689 48.4017C44.4216 48.4496 44.3505 48.4496 44.2795 48.4496ZM84.5327 48.0187C84.3906 48.0187 84.2486 47.9947 84.1302 47.9468C83.5145 47.7074 83.2067 47.0371 83.4198 46.4146C84.5327 43.374 85.3851 40.2138 85.9297 37.0296C86.0481 36.3832 86.6638 35.9283 87.3031 36.048C87.9424 36.1677 88.3686 36.7902 88.2739 37.4366C87.6819 40.7644 86.8058 44.0683 85.6456 47.2525C85.4798 47.7074 85.0299 48.0187 84.5327 48.0187ZM51.0988 45.5527C50.5542 45.5527 50.057 45.1696 49.9386 44.619C47.4761 33.1032 41.225 22.5212 32.3692 14.836C31.872 14.4051 31.8247 13.6389 32.2509 13.1362C32.6771 12.6334 33.4348 12.5855 33.932 13.0165C43.1666 21.0368 49.6781 32.0977 52.2591 44.0923C52.4011 44.7387 51.9987 45.3851 51.3593 45.5048C51.2646 45.5288 51.1936 45.5527 51.0988 45.5527ZM77.808 45.3372C77.666 45.3372 77.5239 45.3133 77.4055 45.2654C76.7899 45.026 76.482 44.3556 76.6951 43.7332C78.7788 37.9872 79.726 31.9301 79.5129 25.7532C79.4892 25.0829 80.0101 24.5322 80.6495 24.5083C81.2888 24.4843 81.857 25.0111 81.8807 25.6575C82.0938 32.1456 81.0993 38.514 78.9209 44.5472C78.7315 45.026 78.2816 45.3372 77.808 45.3372ZM62.6066 43.8768C62.4171 43.8768 62.2514 43.8289 62.0619 43.7571C61.47 43.4698 61.2332 42.7276 61.541 42.153C66.0399 33.175 66.1346 22.3536 61.8251 13.2319C61.541 12.6334 61.8014 11.9152 62.3934 11.6279C62.9854 11.3406 63.6957 11.6039 63.9799 12.2025C68.6208 21.9945 68.5024 33.606 63.672 43.2304C63.4589 43.6374 63.0328 43.8768 62.6066 43.8768ZM70.8466 43.1586C70.7045 43.1586 70.5625 43.1346 70.4204 43.0867C69.8048 42.8473 69.4969 42.153 69.7337 41.5545C72.5988 33.8933 73.0487 25.3462 71.0361 17.4935C70.8703 16.8471 71.2491 16.2007 71.8884 16.0331C72.5278 15.8655 73.1671 16.2485 73.3329 16.895C75.4639 25.2265 74.9666 34.2763 71.9358 42.3924C71.77 42.8473 71.3202 43.1586 70.8466 43.1586ZM55.1005 42.4403C54.8874 42.4403 54.6743 42.3924 54.4848 42.2727C53.9165 41.9376 53.7508 41.1954 54.0823 40.6208C59.5284 31.5949 58.8417 19.9594 52.3538 11.6758C51.9513 11.149 52.046 10.4069 52.5433 9.99986C53.0642 9.59286 53.7982 9.68862 54.2007 10.1914C61.3042 19.2651 62.0383 32.0019 56.0713 41.8897C55.8819 42.2249 55.503 42.4403 55.1005 42.4403ZM51.1462 33.1032C51.0515 33.1032 50.9568 33.1032 50.862 33.0793C50.2227 32.9117 49.8439 32.2892 49.986 31.6428C51.2883 26.1842 50.791 18.2357 41.0592 11.3166C40.7277 11.0772 40.5146 10.9096 40.4436 10.8378C39.9937 10.359 39.9937 9.6168 40.4673 9.13797C40.9408 8.68309 41.6749 8.68309 42.1484 9.16191C42.1484 9.16191 42.2905 9.25768 42.4326 9.35344C53.2536 17.0625 53.7745 26.0405 52.3065 32.2174C52.1644 32.7441 51.6908 33.1032 51.1462 33.1032Z" fill="#544D46"/>
</svg>
