<svg width="128" height="120" viewBox="0 0 128 120" fill="none" xmlns="http://www.w3.org/2000/svg">
<path fill-rule="evenodd" clip-rule="evenodd" d="M63.8041 4.20018C76.8665 4.55215 89.0322 8.98899 99.2057 17.1896C110.841 26.5684 124.106 37.649 123.837 52.5912C123.57 67.4373 108.259 76.0503 97.9535 86.7406C87.3137 97.778 79.0071 112.894 63.8041 114.868C47.3673 117.002 30.9371 108.893 19.4617 96.9336C8.1992 85.1956 2.66542 68.7993 4.05013 52.5912C5.33496 37.552 14.712 24.7282 26.4419 15.229C36.9324 6.73338 50.3099 3.83658 63.8041 4.20018Z" fill="#F5F0E9"/>
<path d="M33.604 113.6C29.603 113.6 25.7925 111.826 23.2442 108.799L15.123 111.211C14.6705 111.329 14.1704 111.211 13.8846 110.833C13.575 110.478 13.5035 109.981 13.7179 109.555C14.3609 108.255 14.6705 106.883 14.6705 105.511C14.6705 104.139 14.3371 102.791 13.7179 101.467C13.5035 101.041 13.575 100.544 13.8846 100.19C14.1942 99.8349 14.6943 99.693 15.123 99.8113L23.2442 102.224C25.7925 99.1964 29.603 97.4225 33.604 97.4225C36.3667 97.4225 39.034 98.2503 41.3203 99.8113C42.535 100.639 43.6305 101.703 44.5117 102.886C44.988 103.548 45.4166 104.234 45.7977 104.967C45.9644 105.298 45.9644 105.677 45.7977 106.008C43.4876 110.691 38.8435 113.6 33.604 113.6ZM23.6967 106.244C24.0777 106.244 24.435 106.41 24.6493 106.717C26.7213 109.532 30.0793 111.211 33.604 111.211C34.7472 111.211 35.8427 111.045 36.8906 110.738C36.0332 109.153 35.5807 107.356 35.5807 105.511C35.5807 105.227 35.5807 104.944 35.6046 104.66C35.6522 103.998 36.2 103.477 36.8906 103.572C37.5575 103.619 38.0338 104.187 37.9861 104.849C37.9623 105.062 37.9623 105.298 37.9623 105.535C37.9623 107.072 38.3434 108.538 39.1055 109.816C40.8678 108.822 42.3444 107.356 43.3685 105.535C43.1303 105.109 42.8684 104.707 42.5826 104.329C41.8681 103.359 40.9631 102.484 39.9628 101.798C38.1052 100.521 35.8904 99.8349 33.604 99.8349C30.0793 99.8349 26.7213 101.514 24.6493 104.329C24.3635 104.731 23.8396 104.896 23.3394 104.754L16.6948 102.791C16.933 103.69 17.0283 104.612 17.0283 105.535C17.0283 106.457 16.9092 107.38 16.6948 108.278L23.3394 106.315C23.4585 106.268 23.5776 106.244 23.6967 106.244ZM93.1434 99.8113C84.4507 99.8113 76.7106 95.0102 72.9239 87.2527C72.7571 86.9215 72.7571 86.5431 72.9239 86.212C73.5192 85.0058 74.2337 83.8233 75.0435 82.7353C75.4245 82.215 76.1866 82.0968 76.7106 82.4752C77.2345 82.8536 77.3536 83.6104 76.9725 84.1307C76.3533 84.9585 75.8056 85.81 75.3293 86.7323C77.306 90.4928 80.3544 93.4255 83.9982 95.2703C85.6415 92.7397 86.4988 89.807 86.4988 86.7323C86.4988 84.3436 85.9749 82.0731 84.9746 79.9445C84.6889 79.3533 84.9508 78.6437 85.5462 78.3599C86.1416 78.0761 86.8561 78.3363 87.1419 78.9275C88.3088 81.3636 88.9043 83.9888 88.9043 86.7323C88.9043 90.1381 87.9754 93.3782 86.2131 96.24C88.4041 97.0205 90.738 97.4462 93.1673 97.4462C99.5499 97.4462 105.575 94.4189 109.338 89.3339C109.553 89.0265 109.91 88.8609 110.291 88.8609C110.648 88.7427 111.029 89.0265 111.243 89.3339C114.339 93.4965 118.912 96.2873 123.985 97.1387C123.056 93.7567 122.58 90.2563 122.58 86.7323C122.58 83.2084 123.056 79.708 123.985 76.3259C118.912 77.201 114.339 79.9682 111.243 84.1307C111.029 84.4382 110.6 84.5565 110.291 84.6038C109.91 84.6038 109.553 84.4146 109.338 84.1307C105.599 79.0458 99.5499 76.0185 93.1673 76.0185C89.4282 76.0185 85.8082 77.0355 82.6407 78.9512C82.7598 79.306 82.8312 79.6844 82.8312 80.0864C82.8312 81.9076 81.3308 83.3976 79.497 83.3976C77.6632 83.3976 76.1628 81.9076 76.1628 80.0864C76.1628 78.2653 77.6632 76.7753 79.497 76.7753C80.0448 76.7753 80.5687 76.9172 81.045 77.1537C84.665 74.8596 88.8328 73.6534 93.1434 73.6534C99.7642 73.6534 106.052 76.5625 110.267 81.5291C114.101 77.0355 119.603 74.221 125.533 73.748C125.938 73.7243 126.319 73.8899 126.557 74.1974C126.795 74.5048 126.89 74.9305 126.747 75.2853C125.557 78.9748 124.937 82.8299 124.937 86.7323C124.937 90.6347 125.557 94.4898 126.747 98.1794C126.867 98.5578 126.795 98.9599 126.557 99.2673C126.319 99.5748 125.914 99.7403 125.533 99.7167C119.579 99.2437 114.101 96.4292 110.267 91.9355C106.052 96.9022 99.7642 99.8113 93.1434 99.8113ZM79.497 79.1641C78.9731 79.1641 78.5444 79.5898 78.5444 80.1101C78.5444 80.6304 78.9731 81.0561 79.497 81.0561C80.021 81.0561 80.4496 80.6304 80.4496 80.1101C80.4496 79.5898 80.021 79.1641 79.497 79.1641ZM32.2942 78.6201C32.1989 78.6201 32.0798 78.5964 31.9846 78.5728L15.3373 74.1501C15.0277 74.0555 14.7658 73.8662 14.6229 73.6061C14.5276 73.4169 14.4562 73.2277 14.4562 73.0148C14.4562 72.9202 14.48 72.8019 14.5038 72.7074L20.9817 48.678C21.0531 48.3706 21.2675 48.1104 21.5295 47.9685C21.7914 47.8029 22.1248 47.7793 22.4344 47.8502L39.0817 52.273C39.3913 52.3676 39.6532 52.5568 39.7961 52.8169C39.8914 53.0061 39.9628 53.1954 39.9628 53.4082C39.9628 53.5028 39.939 53.6211 39.9152 53.7157L38.01 60.74L33.4135 77.7214C33.2944 78.2653 32.8181 78.6201 32.2942 78.6201ZM17.1235 72.1634L31.4606 75.9712L35.4378 61.2603L27.6263 59.179C26.9833 59.0135 26.6022 58.3512 26.7927 57.7363C26.9594 57.0978 27.6263 56.743 28.2455 56.9085L36.0571 58.9898L37.3431 54.236L22.9822 50.4282L17.1235 72.1634ZM68.899 72.2816C68.0178 72.2816 67.1605 71.8323 66.6841 71.0045L50.2036 42.6707C49.8702 42.1031 50.0607 41.3935 50.6323 41.0624C51.2039 40.7313 51.9184 40.9205 52.2518 41.4881L68.7323 69.8219C68.7799 69.9165 68.8752 69.9402 68.9704 69.8929L70.8995 68.7813C70.971 68.734 70.9948 68.6394 70.9472 68.5448C70.2565 67.3386 70.6614 65.7776 71.876 65.0918L73.5907 64.1221C74.8053 63.4125 76.3772 63.8383 77.0678 65.0445C77.1154 65.1391 77.2107 65.1627 77.306 65.1154L79.4494 63.8856C79.5208 63.8383 79.5446 63.7437 79.497 63.6491C79.1636 63.0578 79.0683 62.3719 79.235 61.7333C79.4017 61.0711 79.8304 60.5271 80.4258 60.196L82.1406 59.2263C82.736 58.8952 83.4266 58.8006 84.0696 58.9662C84.7365 59.1317 85.2842 59.5574 85.6177 60.1487L85.8558 60.2197L87.7849 59.1081L87.8325 58.8716L80.9736 47.0698L67.9464 54.5434C67.3748 54.8746 66.6365 54.6854 66.3269 54.1177C65.9935 53.5501 66.184 52.8406 66.7556 52.5095L79.8066 45.0358C79.6399 44.5155 79.8542 43.9478 80.3544 43.664C80.926 43.3329 81.6404 43.5221 81.9739 44.0897L89.9045 57.7127C90.2379 58.3039 90.3332 58.9898 90.1665 59.652C89.9998 60.3143 89.5711 60.8582 88.9757 61.1894L87.0942 62.2537C86.4988 62.5848 85.832 62.6794 85.1652 62.5138C84.4983 62.3483 83.9506 61.9225 83.6171 61.3313C83.5695 61.2603 83.4504 61.2367 83.379 61.284L81.6643 62.2537C81.5928 62.3009 81.5452 62.4192 81.5928 62.4902C82.3073 63.6964 81.8786 65.2573 80.664 65.9432L78.5206 67.173C77.306 67.8589 75.7341 67.4569 75.0435 66.2507C74.9958 66.1561 74.9006 66.156 74.8053 66.2034L73.0906 67.173C72.9953 67.2203 72.9715 67.3149 73.0191 67.4095C73.7336 68.6157 73.3049 70.1767 72.0903 70.8626L70.1612 71.9742C69.7802 72.187 69.3277 72.2816 68.899 72.2816ZM28.4122 48.6544C28.3169 48.6544 28.1979 48.6307 28.1026 48.6071C27.4596 48.4415 27.1023 47.7793 27.269 47.1644L28.1026 44.0661C28.174 43.7586 28.3884 43.4985 28.6504 43.3566C28.9123 43.191 29.2457 43.1674 29.5554 43.2383L35.2473 44.752C35.8903 44.9175 36.2476 45.5798 36.0809 46.1947L35.7236 47.4718C35.5569 48.1104 34.8901 48.4652 34.2709 48.2996C33.6279 48.1341 33.2468 47.4718 33.4373 46.8569L33.485 46.715L30.1031 45.8163L29.5792 47.7793C29.4125 48.2996 28.9362 48.6544 28.4122 48.6544ZM115.626 38.1297C112.553 38.1297 110.981 36.6397 109.6 35.3153C108.338 34.1091 107.338 33.163 105.218 33.163C103.098 33.163 102.098 34.1091 100.836 35.3153C99.4546 36.6397 97.8828 38.1297 94.8105 38.1297C91.7383 38.1297 90.1665 36.6397 88.7852 35.3153C87.5229 34.1091 86.5227 33.163 84.4031 33.163C82.2834 33.163 81.2832 34.1091 80.021 35.3153C78.6396 36.6397 77.0678 38.1297 73.9956 38.1297C70.9233 38.1297 69.3515 36.6397 67.9702 35.3153C66.708 34.1091 65.7077 33.163 63.5881 33.163C61.4685 33.163 60.4682 34.1091 59.206 35.3153C57.8247 36.6397 56.2528 38.1297 53.1806 38.1297C50.1084 38.1297 48.5365 36.6397 47.1552 35.3153C46.6074 34.7949 46.1073 34.2983 45.5357 33.9435C45.3214 33.8962 45.1309 33.7779 44.988 33.636C44.3926 33.3522 43.7019 33.1867 42.7969 33.1867C40.6773 33.1867 39.6771 34.1327 38.4148 35.3389C37.0335 36.6634 35.4617 38.1534 32.3894 38.1534C29.3172 38.1534 27.7454 36.6634 26.364 35.3389C25.1018 34.1327 24.1015 33.1867 21.9819 33.1867C19.8623 33.1867 18.8621 34.1327 17.5998 35.3389C16.2185 36.6634 14.6467 38.1534 11.5745 38.1534C8.50223 38.1534 6.93037 36.6634 5.54906 35.3389C4.28682 34.1327 3.28658 33.1867 1.19079 33.1867C0.523947 33.1867 0 32.6664 0 32.0041C0 31.3419 0.523947 30.8216 1.19079 30.8216C4.26302 30.8216 5.83486 32.3116 7.21617 33.636C8.47841 34.8422 9.47867 35.7883 11.5745 35.7883C13.6941 35.7883 14.6943 34.8422 15.9566 33.636C17.3379 32.3116 18.9097 30.8216 21.9819 30.8216C25.0542 30.8216 26.626 32.3116 28.0073 33.636C29.2696 34.8422 30.2698 35.7883 32.3894 35.7883C34.509 35.7883 35.5093 34.8422 36.7715 33.636C38.1528 32.3116 39.7247 30.8216 42.7969 30.8216C42.9875 30.8216 43.1542 30.8216 43.3209 30.8452C40.7964 26.1151 41.2965 20.1787 44.5355 15.9688L42.1301 11.8299C41.7966 11.2623 41.9872 10.5528 42.5588 10.2216L48.9414 6.55575C49.2272 6.39019 49.5368 6.36654 49.8464 6.43749C50.156 6.50845 50.418 6.7213 50.5609 6.98146L52.9424 11.0731C54.7524 10.7893 56.6577 10.9075 58.4439 11.3805C61.921 12.3029 64.8027 14.5025 66.6127 17.5771L76.7344 34.9841C77.306 34.6057 77.8061 34.1327 78.3538 33.6124C79.7352 32.2879 81.307 30.7979 84.3792 30.7979C87.4515 30.7979 89.0233 32.2879 90.4046 33.6124C91.6669 34.8186 92.6671 35.7646 94.7867 35.7646C96.9063 35.7646 97.9066 34.8186 99.1688 33.6124C100.55 32.2879 102.122 30.7979 105.194 30.7979C108.266 30.7979 109.838 32.2879 111.22 33.6124C112.482 34.8186 113.482 35.7646 115.602 35.7646C117.721 35.7646 118.722 34.8186 119.984 33.6124C121.365 32.2879 122.937 30.7979 126.009 30.7979C126.676 30.7979 127.2 31.3183 127.2 31.9805C127.2 32.6427 126.676 33.163 126.009 33.163C123.89 33.163 122.889 34.1091 121.627 35.3153C120.293 36.6397 118.722 38.1297 115.626 38.1297ZM63.5881 30.7979C66.6603 30.7979 68.2321 32.2879 69.6135 33.6124C70.8757 34.8186 71.876 35.7646 73.9956 35.7646C74.1385 35.7646 74.3052 35.7646 74.4243 35.741L68.5656 25.6657L55.5384 33.1394C54.9668 33.4705 54.2285 33.2813 53.9189 32.7137C53.5855 32.146 53.776 31.4365 54.3476 31.1054L67.3748 23.6317L64.5407 18.7833C63.0641 16.2526 60.6826 14.4315 57.8247 13.6747C56.1099 13.2253 54.2999 13.178 52.5852 13.5564C51.6087 13.7693 50.7038 14.1004 49.8226 14.5498C49.7035 14.6207 49.5606 14.6917 49.4415 14.7626C48.4651 15.3302 47.5839 16.0398 46.8456 16.8675C43.6543 20.4625 43.1542 25.8785 45.5834 30.0648L46.6312 31.8622C47.4886 32.3825 48.1555 33.0211 48.7985 33.636C50.0607 34.8422 51.061 35.7883 53.1806 35.7883C55.3002 35.7883 56.3005 34.8422 57.5627 33.636C58.944 32.2879 60.5158 30.7979 63.5881 30.7979ZM44.7974 11.6643L46.2502 14.1477C46.8456 13.6274 47.4886 13.178 48.1555 12.7759C48.2031 12.7523 48.2507 12.7286 48.2745 12.705C48.989 12.2793 49.7511 11.9482 50.5609 11.6643L49.1319 9.181L44.7974 11.6643Z" fill="#544D46"/>
</svg>
