<svg width="21" height="21" viewBox="0 0 21 21" fill="none" xmlns="http://www.w3.org/2000/svg">
<path d="M20.002 19.002L14.162 13.102C15.4737 11.5177 16.1248 9.48918 15.9802 7.43749C15.8356 5.3858 14.9063 3.46864 13.3853 2.08408C11.8644 0.699524 9.86857 -0.0460389 7.81236 0.00220323C5.75615 0.0504453 3.79751 0.888786 2.34315 2.34315C0.888786 3.79751 0.0504453 5.75615 0.00220323 7.81236C-0.0460389 9.86857 0.699524 11.8644 2.08408 13.3853C3.46864 14.9063 5.3858 15.8356 7.43749 15.9802C9.48918 16.1248 11.5177 15.4737 13.102 14.162L19.002 20.002L20.002 19.002ZM1.50197 8.00197C1.50197 6.7164 1.88319 5.45969 2.59742 4.39077C3.31165 3.32185 4.32681 2.48873 5.51453 1.99676C6.70225 1.50479 8.00918 1.37607 9.27006 1.62687C10.5309 1.87767 11.6891 2.49674 12.5982 3.40578C13.5072 4.31482 14.1263 5.47301 14.3771 6.73389C14.6279 7.99476 14.4992 9.3017 14.0072 10.4894C13.5152 11.6771 12.6821 12.6923 11.6132 13.4065C10.5443 14.1208 9.28755 14.502 8.00197 14.502C6.27888 14.4993 4.62711 13.8137 3.4087 12.5952C2.19029 11.3768 1.50462 9.72507 1.50197 8.00197Z" fill="#544D46"/>
</svg>
