<svg width="24" height="24" viewBox="0 0 24 24" fill="none" xmlns="http://www.w3.org/2000/svg">
<path fill-rule="evenodd" clip-rule="evenodd" d="M7.0524 0.0720005C8.3328 0.0144005 8.7408 0 12 0C15.2592 0 15.6672 0.0144005 16.9476 0.0720005C18.2244 0.130801 19.0968 0.3336 19.86 0.63C20.661 0.931048 21.3867 1.40323 21.9864 2.0136C22.5968 2.61333 23.069 3.339 23.37 4.14C23.6664 4.9032 23.8692 5.7756 23.928 7.0524C23.9856 8.3328 24 8.7408 24 12C24 15.2592 23.9856 15.6672 23.928 16.9476C23.8692 18.2244 23.6664 19.0968 23.37 19.86C23.069 20.661 22.5968 21.3867 21.9864 21.9864C21.3867 22.5968 20.661 23.069 19.86 23.37C19.0968 23.6664 18.2244 23.8692 16.9476 23.928C15.6672 23.9868 15.2592 24 12 24C8.7408 24 8.3328 23.9868 7.0524 23.928C5.7756 23.8692 4.9032 23.6664 4.14 23.37C3.339 23.069 2.61333 22.5968 2.0136 21.9864C1.40323 21.3867 0.931048 20.661 0.63 19.86C0.3336 19.0968 0.130801 18.2244 0.0720005 16.9476C0.0132005 15.6672 0 15.2592 0 12C0 8.7408 0.0132005 8.3328 0.0720005 7.0524C0.130801 5.7756 0.3336 4.9032 0.63 4.14C0.931048 3.339 1.40323 2.61333 2.0136 2.0136C2.61333 1.40323 3.339 0.931048 4.14 0.63C4.9032 0.3336 5.7756 0.130801 7.0524 0.0720005V0.0720005ZM12 6C10.4087 6 8.88258 6.63214 7.75736 7.75736C6.63214 8.88258 6 10.4087 6 12C6 13.5913 6.63214 15.1174 7.75736 16.2426C8.88258 17.3679 10.4087 18 12 18C13.5913 18 15.1174 17.3679 16.2426 16.2426C17.3679 15.1174 18 13.5913 18 12C18 10.4087 17.3679 8.88258 16.2426 7.75736C15.1174 6.63214 13.5913 6 12 6ZM8.4 12C8.4 11.0452 8.77928 10.1295 9.45442 9.45442C10.1295 8.77928 11.0452 8.4 12 8.4C12.9548 8.4 13.8705 8.77928 14.5456 9.45442C15.2207 10.1295 15.6 11.0452 15.6 12C15.6 12.9548 15.2207 13.8705 14.5456 14.5456C13.8705 15.2207 12.9548 15.6 12 15.6C11.0452 15.6 10.1295 15.2207 9.45442 14.5456C8.77928 13.8705 8.4 12.9548 8.4 12ZM19.2 6C19.5183 6 19.8235 5.87357 20.0485 5.64853C20.2736 5.42348 20.4 5.11826 20.4 4.8C20.4 4.48174 20.2736 4.17652 20.0485 3.95147C19.8235 3.72643 19.5183 3.6 19.2 3.6C18.8817 3.6 18.5765 3.72643 18.3515 3.95147C18.1264 4.17652 18 4.48174 18 4.8C18 5.11826 18.1264 5.42348 18.3515 5.64853C18.5765 5.87357 18.8817 6 19.2 6Z" fill="#544D46"/>
</svg>
