<svg width="32" height="20" viewBox="0 0 32 20" fill="none" xmlns="http://www.w3.org/2000/svg">
<path fill-rule="evenodd" clip-rule="evenodd" d="M31.2657 1.9536C31.4881 1.21182 31.2657 0.666748 30.207 0.666748H26.7062C25.8161 0.666748 25.4057 1.13761 25.1831 1.65683C25.1831 1.65683 23.4029 5.99622 20.8808 8.81494C20.0649 9.63087 19.694 9.89048 19.2489 9.89048C19.0264 9.89048 18.7043 9.63087 18.7043 8.88915V1.9536C18.7043 1.06346 18.446 0.666748 17.7041 0.666748H12.2028C11.6466 0.666748 11.312 1.07988 11.312 1.47143C11.312 2.31526 12.573 2.50986 12.703 4.88357V10.0389C12.703 11.1692 12.4988 11.3741 12.0538 11.3741C10.867 11.3741 7.98009 7.01533 6.26791 2.02775C5.93236 1.05834 5.59581 0.666748 4.7011 0.666748H1.20029C0.200057 0.666748 0 1.13761 0 1.65683C0 2.58407 1.18685 7.18308 5.52618 13.2656C8.41905 17.4195 12.4949 19.6712 16.2038 19.6712C18.4291 19.6712 18.7043 19.171 18.7043 18.3096V15.1701C18.7043 14.1699 18.9152 13.9703 19.6198 13.9703C20.1391 13.9703 21.0292 14.2299 23.1062 16.2327C25.4798 18.6063 25.8712 19.6712 27.2063 19.6712H30.7071C31.7074 19.6712 32.2075 19.171 31.919 18.1841C31.6033 17.2004 30.47 15.7733 28.9662 14.0815C28.1502 13.1172 26.9263 12.0788 26.5554 11.5594C26.0362 10.8919 26.1845 10.5952 26.5554 10.0018C26.5554 10.0018 30.8206 3.99343 31.2657 1.9536V1.9536Z" fill="#544D46"/>
</svg>
