<svg width="29" height="32" viewBox="0 0 29 32" fill="none" xmlns="http://www.w3.org/2000/svg">
<path d="M15.4187 0H20.8906C20.8906 0 20.587 7.02962 28.4904 7.52297V12.9569C28.4904 12.9569 24.2726 13.2217 20.8906 10.6393L20.9498 21.8585C20.9498 23.8642 20.355 25.825 19.2407 27.4927C18.1263 29.1604 16.5425 30.4603 14.6894 31.2279C12.8364 31.9955 10.7973 32.1964 8.83004 31.8052C6.8628 31.4139 5.05575 30.4481 3.63739 29.0299C2.21904 27.6117 1.25308 25.8047 0.861666 23.8375C0.470253 21.8703 0.670963 19.8312 1.43842 17.9781C2.20587 16.1249 3.5056 14.541 5.17325 13.4265C6.8409 12.312 8.80158 11.7171 10.8073 11.7169H12.23V17.157V17.2727C11.3028 16.9835 10.3079 16.9946 9.38738 17.3044C8.46682 17.6141 7.66759 18.2067 7.10371 18.9975C6.53982 19.7883 6.24009 20.737 6.24727 21.7082C6.25444 22.6795 6.56816 23.6237 7.14367 24.4061C7.71918 25.1885 8.52708 25.7691 9.45211 26.0652C10.3771 26.3613 11.3721 26.3577 12.2949 26.0549C13.2178 25.7522 14.0215 25.1657 14.5913 24.3791C15.1611 23.5926 15.468 22.6461 15.4682 21.6749L15.4187 0Z" fill="#544D46"/>
</svg>
