<svg width="22" height="22" viewBox="0 0 275 298" fill="none" xmlns="http://www.w3.org/2000/svg">
<path d="M78.9579 297.7C78.9579 297.7 37.8579 224.5 20.5579 192.8C-2.44214 150.6 -6.24214 132.8 9.65786 124C19.5579 118.5 33.2579 120.8 41.6579 135.4L61.2579 166.6V44.3C61.2579 44.3 60.0579 12 83.0579 12C107.558 12 105.458 44.3 105.458 44.3V103.7C105.458 103.7 118.358 94.4 133.458 98.6C141.158 100.7 150.158 104.4 154.958 116.6C154.958 116.6 185.658 101.7 200.958 133.4C200.958 133.4 236.358 126.4 236.358 163.1C236.358 199.8 192.158 297.7 192.158 297.7H78.9579ZM231.658 0L221.058 10.6L245.158 34.4H140.258V49.4H245.258L221.058 73.3L231.658 83.9L274.158 41.9L231.658 0Z" fill="#bebebe"/>
</svg>
