<svg width="22" height="22" viewBox="0 0 22 22" fill="none" xmlns="http://www.w3.org/2000/svg">
<path d="M7.00003 14.9999C4.71695 12.6939 3.14159 9.78256 2.46003 6.6099C2.3314 5.90019 2.46276 5.16789 2.83007 4.54714C3.19737 3.9264 3.77603 3.45876 4.46003 3.2299L6.08003 2.7099L7.93003 6.1799L6.27003 7.8499L5.50003 8.6199L5.99003 9.6199C7.40297 12.3709 9.65026 14.6042 12.41 15.9999L13.41 16.4899L14.18 15.7199L15.85 14.0599L19.32 15.8699L18.8 17.4899C18.5712 18.1739 18.1035 18.7526 17.4828 19.1199C16.862 19.4872 16.1297 19.6185 15.42 19.4899C12.2423 18.8278 9.32047 17.2697 7.00003 14.9999ZM6.00003 15.9999C8.4908 18.4999 11.645 20.2348 15.09 20.9999C16.1615 21.2145 17.2746 21.0274 18.217 20.4741C19.1594 19.9208 19.8652 19.0402 20.2 17.9999L21.1 15.1799L15.53 12.2699L13.09 14.7099C10.5997 13.4416 8.58111 11.4089 7.33003 8.9099L9.77003 6.4699L6.86003 0.899902L4.00003 1.7999C2.95568 2.13498 2.07186 2.84394 1.51819 3.79073C0.964514 4.73751 0.779991 5.85541 1.00003 6.9299C1.76864 10.3678 3.50337 13.5146 6.00003 15.9999Z" fill="#544D46"/>
</svg>
