<svg width="16" height="19" viewBox="0 0 16 19" fill="none" xmlns="http://www.w3.org/2000/svg">
<path d="M8 1.5C8.49445 1.5 8.9778 1.64662 9.38893 1.92133C9.80005 2.19603 10.1205 2.58648 10.3097 3.04329C10.4989 3.50011 10.5484 4.00277 10.452 4.48773C10.3555 4.97268 10.1174 5.41814 9.76777 5.76777C9.41814 6.1174 8.97268 6.3555 8.48773 6.45196C8.00277 6.54843 7.50011 6.49892 7.04329 6.3097C6.58648 6.12048 6.19603 5.80005 5.92133 5.38893C5.64662 4.9778 5.5 4.49445 5.5 4C5.5 3.33696 5.76339 2.70107 6.23223 2.23223C6.70107 1.76339 7.33696 1.5 8 1.5ZM8 11.5C10.4222 11.4891 12.7535 12.4216 14.5 14.1V17.5H1.5V14.12C3.24648 12.4416 5.57779 11.5091 8 11.52V11.5ZM8 0C7.20887 0 6.43552 0.234596 5.77772 0.674122C5.11992 1.11365 4.60723 1.73836 4.30448 2.46927C4.00173 3.20017 3.92252 4.00444 4.07686 4.78036C4.2312 5.55629 4.61216 6.26902 5.17157 6.82843C5.73098 7.38784 6.44371 7.7688 7.21964 7.92314C7.99556 8.07748 8.79983 7.99827 9.53073 7.69552C10.2616 7.39277 10.8864 6.88008 11.3259 6.22228C11.7654 5.56448 12 4.79113 12 4C12 2.93913 11.5786 1.92172 10.8284 1.17157C10.0783 0.421427 9.06087 0 8 0ZM8 10C6.56764 10.0006 5.14946 10.2836 3.82653 10.8327C2.50359 11.3818 1.30185 12.1862 0.29 13.2L0 13.5V19H16V13.5L15.71 13.2C14.6982 12.1862 13.4964 11.3818 12.1735 10.8327C10.8505 10.2836 9.43236 10.0006 8 10Z" fill="#544D46"/>
</svg>
