<svg xmlns="http://www.w3.org/2000/svg" viewBox="0 0 332.29 328.22"><defs><style>.cls-1{fill:none;stroke:#818d58;stroke-miterlimit:10;}.cls-2{fill:#818d58;}</style></defs><title>EcoGif2_1Ресурс 1</title><g id="Слой_2" data-name="Слой 2"><g id="Слой_1-2" data-name="Слой 1"><g id="Слой_1-2-2" data-name="Слой 1-2"><circle class="cls-1" cx="302.01" cy="243.58" r="2.43"/><circle class="cls-1" cx="26.86" cy="241.19" r="2.43"/><circle class="cls-1" cx="165.13" cy="2.93" r="2.43"/><path class="cls-2" d="M11.72,202.94A3.1,3.1,0,0,0,13,200.87a3.18,3.18,0,0,0-.06-1.23,3.84,3.84,0,0,0-.46-1.13,3.67,3.67,0,0,0-.7-.82,4.24,4.24,0,0,0-.84-.56l1.82-.45a4,4,0,0,1,1,1,4.68,4.68,0,0,1,.66,1.6,4.84,4.84,0,0,1,.12,1.93,4.62,4.62,0,0,1-.59,1.73,4.41,4.41,0,0,1-1.18,1.4,5.19,5.19,0,0,1-1.8.83,5,5,0,0,1-2,.11,4.67,4.67,0,0,1-1.73-.62,4.84,4.84,0,0,1-2.13-3,5.25,5.25,0,0,1-.17-1.72,4,4,0,0,1,.41-1.4l1.82-.45a3.67,3.67,0,0,0-.49.89A3.45,3.45,0,0,0,6.41,200a3.68,3.68,0,0,0,.11,1.19A3.23,3.23,0,0,0,7,202.33a3.06,3.06,0,0,0,.89.83,3.11,3.11,0,0,0,1.18.43,3.72,3.72,0,0,0,1.37-.08A3.51,3.51,0,0,0,11.72,202.94Z"/><path class="cls-2" d="M6.72,196.13A4.29,4.29,0,0,1,5,195.4a4.52,4.52,0,0,1-1.32-1.33A5.25,5.25,0,0,1,3,190.3a5,5,0,0,1,.71-1.7,4.24,4.24,0,0,1,1.32-1.28,5.23,5.23,0,0,1,1.83-.7,5.18,5.18,0,0,1,2,0,4.58,4.58,0,0,1,1.7.72,4.77,4.77,0,0,1,1.29,1.32,5.09,5.09,0,0,1,.7,1.84,4.81,4.81,0,0,1,0,2,4.55,4.55,0,0,1-.73,1.69,4.67,4.67,0,0,1-1.34,1.28,4.91,4.91,0,0,1-1.82.69A5,5,0,0,1,6.72,196.13ZM9.64,194a2.89,2.89,0,0,0,.91-.83,3,3,0,0,0,.5-2.41,3.51,3.51,0,0,0-.47-1.21,3.24,3.24,0,0,0-.87-.86,3.2,3.2,0,0,0-1.15-.46,3.77,3.77,0,0,0-1.34,0,3.82,3.82,0,0,0-1.26.46,3,3,0,0,0-1.42,2,3.12,3.12,0,0,0,0,1.29,3,3,0,0,0,1.33,2.08,3.07,3.07,0,0,0,1.16.46,3.77,3.77,0,0,0,1.34,0A3.76,3.76,0,0,0,9.61,194Z"/><path class="cls-2" d="M9.16,178.44l-7.81.9-.18-1.58L9,176.87l-.14-1.25,3-.35.17,1.44-1.59.18.87,7.6L2,185.55,1.86,184l7.81-.89Z"/><path class="cls-2" d="M9.79,165.79l.08,1.54-8,.38L0,166.22Zm.87,8.31H8.5L0,166.22H2.18Zm-1.83-1.46,1.83,1.46-9.77.47L.82,173Z"/><path class="cls-2" d="M6.55,161.79h.34l2.9,1.33v1.77L0,160.22l9.88-4.42v1.77L7,158.8H6.65l-3.48,1.43Zm-.48.66.06-4.31,1.33-.29-.06,4.92Z"/><path class="cls-2" d="M10.46,147.7l-.12,1.6-7.84-.56-.26,3.7,4.37.31a4.81,4.81,0,0,1,1.79.44,2.62,2.62,0,0,1,1.16,1,2.73,2.73,0,0,1,.32,1.63l-1.34-.1a.91.91,0,0,0-.13-.56,1.21,1.21,0,0,0-.43-.44,2.52,2.52,0,0,0-.69-.31,7,7,0,0,0-.9-.15l-5.7-.4L1.17,147Z"/><path class="cls-2" d="M1.62,143.08l9.24,1.14-.14,1.57-9.24-1.16ZM5,144.15l.23-1.86a4.37,4.37,0,0,1,.57-1.72,2.8,2.8,0,0,1,1.13-1,2.85,2.85,0,0,1,1.58-.22A2.77,2.77,0,0,1,10,140a2.63,2.63,0,0,1,.85,1.27A4.06,4.06,0,0,1,11,143l-.23,1.86-1.37-.17.23-1.86a2.26,2.26,0,0,0-.05-1,1.58,1.58,0,0,0-.43-.68A1.68,1.68,0,0,0,7.5,141a1.34,1.34,0,0,0-.57.56,2.31,2.31,0,0,0-.29.92l-.23,1.86Z"/><path class="cls-2" d="M2.72,135.13l9.16,1.66-.28,1.55-9.16-1.67ZM3.83,129,13,130.64l-.27,1.58-9.16-1.67Zm2.25,7.72,1.19-6.54,1.43.26L7.51,137Z"/><path class="cls-2" d="M7,127.41a4.58,4.58,0,0,1-1.84-3.1,4.88,4.88,0,0,1,.12-1.94,5.13,5.13,0,0,1,.81-1.78,4.88,4.88,0,0,1,1.35-1.25,4.67,4.67,0,0,1,1.73-.62,5.18,5.18,0,0,1,2,.12,5,5,0,0,1,1.77.81,4.65,4.65,0,0,1,1.87,3.1,4.82,4.82,0,0,1-.11,2,4.94,4.94,0,0,1-.82,1.79,4.74,4.74,0,0,1-1.37,1.23,4.47,4.47,0,0,1-1.74.61,4.93,4.93,0,0,1-2-.16A5.17,5.17,0,0,1,7,127.41Zm3.52-.71a3.15,3.15,0,0,0,1.23-.38,3,3,0,0,0,.92-.81,3.42,3.42,0,0,0,.61-2.46,2.87,2.87,0,0,0-.43-1.14A3,3,0,0,0,12,121a3.9,3.9,0,0,0-1.23-.55,4,4,0,0,0-1.34-.1,3.27,3.27,0,0,0-1.18.38,2.83,2.83,0,0,0-.91.81,3,3,0,0,0-.59,1.17,3.17,3.17,0,0,0-.07,1.3,3,3,0,0,0,.42,1.15,3.35,3.35,0,0,0,.87.89,3.64,3.64,0,0,0,1.22.55A3.71,3.71,0,0,0,10.49,126.7Z"/><path class="cls-2" d="M10.59,118l1.13-3.73,1.76.53-1.12,3.73Z"/><path class="cls-2" d="M10.9,112.88a4.54,4.54,0,0,1-1.1-1.47,4.76,4.76,0,0,1-.44-1.78,4.88,4.88,0,0,1,.3-1.93,5,5,0,0,1,1-1.69,4.46,4.46,0,0,1,1.46-1.12,4.24,4.24,0,0,1,1.78-.46,4.89,4.89,0,0,1,1.93.31,5.08,5.08,0,0,1,1.69,1,4.58,4.58,0,0,1,1.1,1.48,4.65,4.65,0,0,1,.46,1.79,5.12,5.12,0,0,1-.3,1.94,5,5,0,0,1-1,1.7,4.54,4.54,0,0,1-1.47,1.1,4.45,4.45,0,0,1-1.79.44,5.34,5.34,0,0,1-3.63-1.27Zm3.57-.37a3.18,3.18,0,0,0,1.25-.29,2.82,2.82,0,0,0,1-.71,3.4,3.4,0,0,0,.84-2.4,2.89,2.89,0,0,0-.32-1.18,3.27,3.27,0,0,0-.77-1,3.45,3.45,0,0,0-1.17-.65,3.71,3.71,0,0,0-1.32-.23,3.32,3.32,0,0,0-1.21.26,3,3,0,0,0-1.69,1.91,3.14,3.14,0,0,0-.19,1.29,3,3,0,0,0,.31,1.18,3.3,3.3,0,0,0,.78,1,3.47,3.47,0,0,0,1.17.66A3.69,3.69,0,0,0,14.47,112.51Z"/><path class="cls-2" d="M11.64,102.72l2.48-6,1.34.55-.94,2.27,7.27,3L21.18,104l-7.26-3L13,103.27Z"/><path class="cls-2" d="M18.59,95.92l.64-1.36a1.85,1.85,0,0,0,.19-.76,1.14,1.14,0,0,0-.16-.65,1.19,1.19,0,0,0-1.51-.45,1.76,1.76,0,0,0-.74.83l-.48,1,6.1,2.86.55-1.18a2.51,2.51,0,0,0,.24-.93,1.43,1.43,0,0,0-.19-.81,1.48,1.48,0,0,0-.68-.58,1.37,1.37,0,0,0-.66-.16,1.2,1.2,0,0,0-.59.15,1.64,1.64,0,0,0-.5.41,2.69,2.69,0,0,0-.39.62l-.69,1.53-.78-.37.75-1.6a5.39,5.39,0,0,1,.67-1.1,3.41,3.41,0,0,1,.87-.78,2.24,2.24,0,0,1,1-.33,2.41,2.41,0,0,1,1.15.25,2.53,2.53,0,0,1,1.19,1A2.62,2.62,0,0,1,24.86,95a4.74,4.74,0,0,1-.47,1.69l-1.26,2.69-8.43-4,1.19-2.54a5,5,0,0,1,.64-1,2.86,2.86,0,0,1,.8-.67,1.94,1.94,0,0,1,.91-.25,2.31,2.31,0,0,1,1,.25,1.91,1.91,0,0,1,.91.84,2.38,2.38,0,0,1,.22,1.26,4.27,4.27,0,0,1-.43,1.52l-.65,1.47Z"/><path class="cls-2" d="M19,86.58l8.23,4.36L26.5,92.3l-8.23-4.36Zm-.27.5,2.2-4.14,1.23.64L20,87.73ZM22,88.79,24,84.88l1.2.63-2.08,3.92Zm3.78,2,2.2-4.15,1.22.65L27,91.44Z"/><path class="cls-2" d="M21.54,81.82l3.3-5.6,1.25.73-1.25,2.12,6.77,4-.81,1.37-6.77-4-1.24,2.1Z"/><path class="cls-2" d="M31,77.68a2.93,2.93,0,0,0,1.25,0,3,3,0,0,0,1.11-.46,3.14,3.14,0,0,0,.86-.88,4.09,4.09,0,0,0,.47-1.12,3.53,3.53,0,0,0,.13-1.07,4.26,4.26,0,0,0-.16-1l1.57,1a4.43,4.43,0,0,1-.07,1.45,4.75,4.75,0,0,1-.69,1.62,5.07,5.07,0,0,1-1.33,1.4,4.83,4.83,0,0,1-1.67.74,4.39,4.39,0,0,1-1.84,0,5.34,5.34,0,0,1-3.26-2.14,4.57,4.57,0,0,1-.68-1.7,4.7,4.7,0,0,1,0-1.83,5.48,5.48,0,0,1,1.89-3.08,4.18,4.18,0,0,1,1.3-.65l1.57,1a3.86,3.86,0,0,0-1,.25,3.74,3.74,0,0,0-.92.55,3.93,3.93,0,0,0-.8.92,3.17,3.17,0,0,0-.47,1.14,3.08,3.08,0,0,0,0,1.21,3,3,0,0,0,.48,1.19,3.4,3.4,0,0,0,1,1A3.54,3.54,0,0,0,31,77.68Z"/><path class="cls-2" d="M29.72,68.79l3.81-5.26,1.17.85-1.44,2L39.63,71l-.91,1.23-6.37-4.6-1.43,2Z"/><path class="cls-2" d="M38,63.8,39,62.62a1.82,1.82,0,0,0,.37-.7,1.23,1.23,0,0,0,0-.66,1.19,1.19,0,0,0-.4-.56,1.1,1.1,0,0,0-1-.24,1.65,1.65,0,0,0-.91.64l-.7.88,5.29,4.24.81-1a2.69,2.69,0,0,0,.46-.85,1.38,1.38,0,0,0-.53-1.55,1.38,1.38,0,0,0-.6-.31,1.26,1.26,0,0,0-.61,0,1.73,1.73,0,0,0-.58.28,2.61,2.61,0,0,0-.53.52l-1,1.31-.68-.54,1.1-1.38a5.66,5.66,0,0,1,.91-.92,3.26,3.26,0,0,1,1-.55,2.12,2.12,0,0,1,1.06-.09,2.23,2.23,0,0,1,1.06.51,2.38,2.38,0,0,1,.88,2.75,4.87,4.87,0,0,1-.86,1.54l-1.86,2.28-7.28-5.79,1.75-2.21a5,5,0,0,1,.86-.86,3,3,0,0,1,.93-.47,1.89,1.89,0,0,1,1,0,2.38,2.38,0,0,1,.94.47,2,2,0,0,1,.69,1,2.39,2.39,0,0,1-.07,1.27A4.6,4.6,0,0,1,39.69,63l-1,1.26Z"/><path class="cls-2" d="M40.59,54.81l7,6.15-1,1.16-7-6.15Zm-.38.43,3.1-3.52,1,.91-3.1,3.53ZM43,57.65l2.92-3.33,1,.9L44,58.54Zm3.21,2.83L49.26,57l1,.91-3.1,3.53Z"/><path class="cls-2" d="M45.94,48.91l6.65,6.52-1.1,1.12L44.84,50Zm1.9,3.18,4.66-4.74,1,1L48.85,53.1Zm2.48-7.65L57,51l-1.1,1.11-6.64-6.52Z"/><path class="cls-2" d="M53.25,41.71l6.23,6.92-1.17,1-6.23-6.92ZM55,45l4.94-4.45,1,1.08-5,4.44Zm3-7.48,6.22,6.92-1.16,1-6.29-6.88Z"/><path class="cls-2" d="M61,35l5.73,7.32-1.2.94-5.8-7.29Zm1.73,3.17L64.19,37a4.06,4.06,0,0,1,1.53-.82,2.62,2.62,0,0,1,2.8,1,2.71,2.71,0,0,1,.63,1.46,2.64,2.64,0,0,1-.28,1.51,4.28,4.28,0,0,1-1.15,1.39l-1.48,1.16-.85-1.09,1.47-1.16a2.17,2.17,0,0,0,.63-.72,1.36,1.36,0,0,0,.18-.79,1.67,1.67,0,0,0-1-1.31,1.33,1.33,0,0,0-.79,0,2.67,2.67,0,0,0-.85.45l-1.5,1.17Zm4-7.69,5.76,7.32-1.25,1-5.77-7.31Z"/><path class="cls-2" d="M74.54,34.73l-.28,2.32L68.72,29,70,28.11ZM70,24.73a.89.89,0,0,0,.32.29.86.86,0,0,0,.47.11,1,1,0,0,0,.59-.23,1.22,1.22,0,0,0,.43-.47A.88.88,0,0,0,71.9,24a1.38,1.38,0,0,0-.15-.4l.9-.61a2,2,0,0,1,.32.9,2,2,0,0,1-.2,1,2.27,2.27,0,0,1-.82.89,2.3,2.3,0,0,1-1.12.43,1.82,1.82,0,0,1-1-.17,2,2,0,0,1-.72-.63Zm4.24,12.34L73.1,35.22l2.26-11.34,1.16,1.81ZM80.88,32l-1.28.87-4.5-6.62.26-2.35Z"/><path class="cls-2" d="M87.72,17.22l.67,1.21-3.55,2,3.84,6.93-1.39.78-4.57-8.21Zm-2.65,5.6,2.24-1.25a3.64,3.64,0,0,1,1.58-.48,2.83,2.83,0,0,1,1.46.31,2.65,2.65,0,0,1,1.1,1.1A2.78,2.78,0,0,1,91.81,24a2.91,2.91,0,0,1-.51,1.42,3.61,3.61,0,0,1-1.24,1.09l-2.25,1.24-.67-1.21,2.07-1.15a2.36,2.36,0,0,0,.74-.59,1.34,1.34,0,0,0,.31-.72,1.65,1.65,0,0,0-.8-1.43,1.37,1.37,0,0,0-.77-.13,2.62,2.62,0,0,0-.9.32L85.72,24Z"/><path class="cls-2" d="M91.39,15.31l4.1,8.35-1.41.69L90,16Zm-.58.28,1.69-.83a4.06,4.06,0,0,1,1.74-.46,2.65,2.65,0,0,1,1.48.39,2.78,2.78,0,0,1,1,1.2,2.65,2.65,0,0,1-.29,3A4,4,0,0,1,95,20l-1.69.83-.6-1.24,1.68-.83a2.67,2.67,0,0,0,.77-.56,1.45,1.45,0,0,0,.34-.73,1.48,1.48,0,0,0-.16-.85,1.41,1.41,0,0,0-.58-.65,1.52,1.52,0,0,0-.78-.18,2.27,2.27,0,0,0-.92.26l-1.69.83Z"/><path class="cls-2" d="M98.61,11.91l3.69,8.54-1.41.61-3.7-8.54Zm-.53.22,4.31-1.86.55,1.27L98.63,13.4Zm1.45,3.35,4.07-1.76.53,1.25-4.06,1.75Zm1.7,3.93,4.31-1.86.55,1.27-4.31,1.86Z"/><path class="cls-2" d="M106,8.87l3.22,8.73-1.48.54-3.21-8.73Zm.36,3.69,6.24-2.29.5,1.36-6.24,2.29Zm5.51-5.85L115,15.44l-1.47.55-3.22-8.77Z"/><path class="cls-2" d="M117.72,14.56l.41,1.41-1.44.42-.81-2.75,9.51-2.8.81,2.76-1.43.42-.41-1.41Zm1-.7-1.69.5L118.3,4.22l6.56,7.84-1.68.5-4-5.3Z"/><path class="cls-2" d="M207.89,9.53a3,3,0,0,0,.37,1.19,3.17,3.17,0,0,0,.79.92,3,3,0,0,0,1.1.57,4,4,0,0,0,1.2.17,3.48,3.48,0,0,0,1.06-.19,4.25,4.25,0,0,0,.91-.44l-.53,1.8a4.12,4.12,0,0,1-1.42.35,5,5,0,0,1-1.71-.24,5.08,5.08,0,0,1-1.72-.87,4.71,4.71,0,0,1-1.2-1.39,4.53,4.53,0,0,1-.55-1.75,5,5,0,0,1,.2-2,5.2,5.2,0,0,1,.9-1.77,4.54,4.54,0,0,1,1.43-1.14,5,5,0,0,1,1.76-.52,5.55,5.55,0,0,1,3.49.93,4.34,4.34,0,0,1,1,1L214.44,8a3.59,3.59,0,0,0-.52-.86,3.43,3.43,0,0,0-.79-.73,3.83,3.83,0,0,0-1.11-.5,2.86,2.86,0,0,0-1.23-.12,3.13,3.13,0,0,0-1.16.35,2.88,2.88,0,0,0-1,.8,3.49,3.49,0,0,0-.74,2.59Z"/><path class="cls-2" d="M216.31,8.63a4.66,4.66,0,0,1,1.48-1.09,4.78,4.78,0,0,1,1.79-.41,5.35,5.35,0,0,1,3.6,1.31,4.84,4.84,0,0,1,1.11,1.47,4.61,4.61,0,0,1,.43,1.79,5.25,5.25,0,0,1-1.32,3.61,4.61,4.61,0,0,1-3.27,1.54,5.32,5.32,0,0,1-3.63-1.32A4.73,4.73,0,0,1,215,12.24a5,5,0,0,1,.33-1.92A5.05,5.05,0,0,1,216.31,8.63Zm.33,3.58a3.32,3.32,0,0,0,.26,1.21,2.82,2.82,0,0,0,.71,1,3.09,3.09,0,0,0,1.11.67,3.14,3.14,0,0,0,2.46-.1,3.09,3.09,0,0,0,1-.76,3.62,3.62,0,0,0,.68-1.17,3.72,3.72,0,0,0,.24-1.32,3,3,0,0,0-.26-1.21,2.92,2.92,0,0,0-.7-1,3.43,3.43,0,0,0-2.4-.88,3.05,3.05,0,0,0-2.16,1.07,3.5,3.5,0,0,0-.67,1.17,3.76,3.76,0,0,0-.27,1.33Z"/><path class="cls-2" d="M230.31,19.71l3.19-7.19,1.44.64-3.22,7.19,1.16.51-1.16,2.79-1.32-.59.65-1.46-7-3.09L227.82,10l1.45.64-3.18,7.19Z"/><path class="cls-2" d="M235.49,22.36l-2.18.84,4.53-8.66,1.37.72Zm-2.18.84,1.06-1.88L245.45,18l-1.06,1.88Zm7.6,3.46-1.37-.72,3.71-7.06,2.2-.88Z"/><path class="cls-2" d="M246,25.88l-.2.29L243.19,28l-1.47-.91,9-6.06-1.19,10.76L248,30.87l.38-3.08.17-.35.52-3.72Zm-.33-.74,3.69,2.23-.43,1.3-4.21-2.55Z"/><path class="cls-2" d="M256.17,36.38l-1.31-.9L259.3,29l-3.06-2.1-2.47,3.61a5,5,0,0,1-1.29,1.33,2.65,2.65,0,0,1-1.46.48,2.69,2.69,0,0,1-1.57-.55l.76-1.11a.91.91,0,0,0,.55.18,1.27,1.27,0,0,0,.6-.15,2.47,2.47,0,0,0,.61-.45,4.24,4.24,0,0,0,.58-.69l3.24-4.72,5.65,3.87Z"/><path class="cls-2" d="M264.64,31.11,259,38.49l-1.25-1,5.67-7.38ZM262,33.51l1.49,1.14A4.1,4.1,0,0,1,264.66,36a2.78,2.78,0,0,1,.31,1.5A3.18,3.18,0,0,1,263.09,40a2.66,2.66,0,0,1-1.53.09,4.07,4.07,0,0,1-1.61-.8l-1.49-1.14.84-1.1,1.49,1.15a2.28,2.28,0,0,0,.85.43,1.4,1.4,0,0,0,.81,0,1.43,1.43,0,0,0,.69-.52,1.49,1.49,0,0,0,.33-.81,1.39,1.39,0,0,0-.2-.77,2.42,2.42,0,0,0-.64-.71l-1.49-1.14Z"/><path class="cls-2" d="M270.92,36.09l-6.07,7.06-1.19-1,6.07-7Zm-3.05,2.13,5,4.33-.95,1.1-5-4.34Zm7.79,2-6.07,7-1.19-1,6.07-7.06Z"/><path class="cls-2" d="M275.44,43.65a4.47,4.47,0,0,1,1.8-.38,4.63,4.63,0,0,1,1.8.36,5,5,0,0,1,1.62,1.08,5.3,5.3,0,0,1,1.12,1.61,4.58,4.58,0,0,1,.4,1.79,4.49,4.49,0,0,1-.35,1.81,4.88,4.88,0,0,1-1.11,1.62,4.83,4.83,0,0,1-1.6,1.12,4.53,4.53,0,0,1-3.61.05,5.24,5.24,0,0,1-2.76-2.7,4.64,4.64,0,0,1,0-3.62,5.37,5.37,0,0,1,1.09-1.62A5.25,5.25,0,0,1,275.44,43.65ZM274.27,47a3.14,3.14,0,0,0-.27,1.21,3.09,3.09,0,0,0,.23,1.2,3.16,3.16,0,0,0,.74,1.07,3.22,3.22,0,0,0,1.08.71,3,3,0,0,0,2.41-.08,3.86,3.86,0,0,0,1.85-1.89,2.8,2.8,0,0,0,.27-1.2,2.92,2.92,0,0,0-.23-1.2,3.24,3.24,0,0,0-.73-1.06,3.37,3.37,0,0,0-1.09-.73,3.07,3.07,0,0,0-1.2-.21,3.35,3.35,0,0,0-1.21.29A3.86,3.86,0,0,0,274.27,47Z"/><path class="cls-2" d="M281.72,51.52l2.65,2.86L283,55.63l-2.65-2.85Z"/><path class="cls-2" d="M286,54.39a4.32,4.32,0,0,1,1.82-.21,4.73,4.73,0,0,1,1.76.53,5.31,5.31,0,0,1,2.48,2.93,4.73,4.73,0,0,1,.22,1.83,4.32,4.32,0,0,1-.55,1.75,5.54,5.54,0,0,1-2.93,2.51A4.59,4.59,0,0,1,287,64a4.75,4.75,0,0,1-1.77-.51,4.9,4.9,0,0,1-1.46-1.22,5.17,5.17,0,0,1-1-1.71,4.72,4.72,0,0,1-.21-1.83,4.78,4.78,0,0,1,.53-1.77A5.66,5.66,0,0,1,286,54.39Zm-1.49,3.27a2.88,2.88,0,0,0-.38,1.18,3.07,3.07,0,0,0,.75,2.34,3.4,3.4,0,0,0,1,.81,3,3,0,0,0,1.17.33,3.2,3.2,0,0,0,1.23-.18,3.48,3.48,0,0,0,1.16-.68,3.78,3.78,0,0,0,.87-1,3.23,3.23,0,0,0-1.33-4.4,2.8,2.8,0,0,0-1.17-.32,3,3,0,0,0-1.23.17,3.48,3.48,0,0,0-1.16.68A3.6,3.6,0,0,0,284.5,57.66Z"/><path class="cls-2" d="M294.37,60.22l3.93,5.18-1.16.87-1.49-2L289.39,69l-1-1.26L294.72,63l-1.48-2Z"/><path class="cls-2" d="M296.72,69.6l.85,1.24a2.13,2.13,0,0,0,.56.56,1.2,1.2,0,0,0,.64.19,1.26,1.26,0,0,0,.65-.22,1.09,1.09,0,0,0,.51-.86,1.65,1.65,0,0,0-.34-1.05l-.64-.93-5.55,3.81.74,1.07a2.45,2.45,0,0,0,.68.68,1.6,1.6,0,0,0,.79.25,1.44,1.44,0,0,0,.85-.3,1.54,1.54,0,0,0,.47-.48,1.22,1.22,0,0,0,.17-.59,2,2,0,0,0-.1-.64,3.09,3.09,0,0,0-.34-.65l-.94-1.38.71-.49,1,1.46a6.2,6.2,0,0,1,.6,1.14,3.19,3.19,0,0,1,.24,1.14,2.17,2.17,0,0,1-.24,1,2.14,2.14,0,0,1-.79.87,2.5,2.5,0,0,1-1.49.5,2.61,2.61,0,0,1-1.4-.47,4.92,4.92,0,0,1-1.22-1.23l-1.68-2.45,7.67-5.27,1.6,2.31a5.58,5.58,0,0,1,.57,1.08,3.39,3.39,0,0,1,.18,1,1.72,1.72,0,0,1-.26.91,2.34,2.34,0,0,1-.73.77,1.85,1.85,0,0,1-1.18.35,2.28,2.28,0,0,1-1.2-.44A4.38,4.38,0,0,1,297,71.34L296.1,70Z"/><path class="cls-2" d="M304.57,74.68l-7.92,4.89-.81-1.35,7.88-4.85Zm-7,3.67,2.46,4-1.18.73-2.46-4Zm3.64-2.24,2.33,3.76-1.16.72L300,76.82Zm3.1-1.92,2.41,4-1.18.72-2.46-4Z"/><path class="cls-2" d="M307.39,79.28,310.54,85l-1.26.7-1.2-2.15-6.87,3.82L300.44,86l6.87-3.82L306.12,80Z"/><path class="cls-2" d="M306.16,89.56a3.16,3.16,0,0,0-.43,3.49,3.64,3.64,0,0,0,.69,1,3.42,3.42,0,0,0,.86.65,4,4,0,0,0,.94.36l-1.68.84a4.52,4.52,0,0,1-1.22-.8,5.37,5.37,0,0,1-1-1.42,5.23,5.23,0,0,1-.53-1.86A4.88,4.88,0,0,1,304,90a4.43,4.43,0,0,1,.91-1.59,5,5,0,0,1,1.58-1.2,5.3,5.3,0,0,1,1.91-.54,4.67,4.67,0,0,1,1.82.24,4.83,4.83,0,0,1,1.57.94,5.45,5.45,0,0,1,1.7,3.18,4.22,4.22,0,0,1-.1,1.46l-1.67.83a3.89,3.89,0,0,0,.28-2.08,4.2,4.2,0,0,0-.38-1.15,3.21,3.21,0,0,0-.75-1,3.18,3.18,0,0,0-2.29-.78,3.58,3.58,0,0,0-1.32.38A3.41,3.41,0,0,0,306.16,89.56Z"/><path class="cls-2" d="M314.5,92.92l2.61,5.94-1.33.58-1-2.25-7.2,3.16L307,98.9l7.19-3.16-1-2.24Z"/><path class="cls-2" d="M314.58,102.64l.55,1.4a1.88,1.88,0,0,0,.41.66,1.11,1.11,0,0,0,.58.34,1.23,1.23,0,0,0,1.37-.78,1.67,1.67,0,0,0-.08-1.1L317,102.1l-6.28,2.42.47,1.22a2.66,2.66,0,0,0,.5.82,1.6,1.6,0,0,0,.72.42,1.36,1.36,0,0,0,.89-.09,1.58,1.58,0,0,0,.58-.36,1.2,1.2,0,0,0,.29-.53,1.77,1.77,0,0,0,.05-.65,2.94,2.94,0,0,0-.17-.71l-.61-1.56.81-.32.64,1.65a5.34,5.34,0,0,1,.32,1.25,3.29,3.29,0,0,1,0,1.17,2.09,2.09,0,0,1-.46,1,2.65,2.65,0,0,1-3.82,0,4.94,4.94,0,0,1-.89-1.52L309,103.56l8.68-3.35,1,2.62A4.87,4.87,0,0,1,319,104a2.82,2.82,0,0,1-.06,1,2,2,0,0,1-.46.83,2.27,2.27,0,0,1-.89.57,1.82,1.82,0,0,1-1.24.07,2.3,2.3,0,0,1-1.06-.7,4.4,4.4,0,0,1-.8-1.37l-.57-1.5Z"/><path class="cls-2" d="M321,109.38l-8.84,2.92-.48-1.47,8.84-2.92Zm-7.7,1.94,1.47,4.46-1.31.43L312,111.76ZM317.4,110l1.39,4.2-1.29.43-1.38-4.21Zm3.46-1.14,1.48,4.45-1.32.44-1.47-4.46Z"/><path class="cls-2" d="M323.43,117l-9,2.43L314,117.9l9-2.43Zm1.63,6-9,2.43-.41-1.51,9-2.43Zm-5.34-6,1.73,6.42-1.4.38-1.73-6.42Z"/><path class="cls-2" d="M325.94,126.93l-9.12,1.87-.32-1.53,9.12-1.87Zm1.25,6.13-9.12,1.87-.31-1.54,9.12-1.87Zm-5-6.33,1.34,6.51-1.42.29L320.77,127Z"/><path class="cls-2" d="M327.84,137l-9.22,1.27-.22-1.55,9.22-1.27Zm-3.58-.15.26,1.86a4.21,4.21,0,0,1-.11,1.8,2.74,2.74,0,0,1-.83,1.28,2.84,2.84,0,0,1-1.47.62,2.77,2.77,0,0,1-1.58-.2,2.65,2.65,0,0,1-1.15-1,4.13,4.13,0,0,1-.6-1.7l-.25-1.86,1.37-.19.25,1.86a2.44,2.44,0,0,0,.3.91,1.39,1.39,0,0,0,.6.55,1.65,1.65,0,0,0,1.65-.23,1.41,1.41,0,0,0,.41-.68,2.41,2.41,0,0,0,0-1l-.25-1.86Zm4.57,7.39-9.22,1.27-.22-1.58,9.23-1.27Z"/><path class="cls-2" d="M321.19,148.83l-1.86-1.42,9.75-.68.11,1.54Zm-1.86-1.42,2.15-.08,8.64,7.69-2.15.08Zm1,8.29-.11-1.54,8-.56,1.9,1.42Zm11.74-5.7a1,1,0,0,0-.41.13.8.8,0,0,0-.33.35,1.37,1.37,0,0,0,.08,1.23.93.93,0,0,0,.38.3.87.87,0,0,0,.42.07l.08,1.09a1.91,1.91,0,0,1-.94-.18,1.8,1.8,0,0,1-.75-.67,2.23,2.23,0,0,1-.36-1.15,2.31,2.31,0,0,1,.19-1.19,1.8,1.8,0,0,1,.66-.76,1.94,1.94,0,0,1,.9-.31Z"/><path class="cls-2" d="M326.13,163.93l-.06,2.57a3.61,3.61,0,0,1-.39,1.61,2.79,2.79,0,0,1-1,1.1,2.67,2.67,0,0,1-1.51.39,2.71,2.71,0,0,1-2.45-1.61,3.66,3.66,0,0,1-.32-1.63l.07-2.56h1.38l-.06,2.37a2.45,2.45,0,0,0,.14.93,1.33,1.33,0,0,0,.47.63,1.45,1.45,0,0,0,.81.24,1.39,1.39,0,0,0,.82-.2,1.27,1.27,0,0,0,.51-.61,2.39,2.39,0,0,0,.18-.92l0-2.37Zm3.52,5.12h-1.38l.1-4-7.93-.19v-1.6l9.31.23Z"/><path class="cls-2" d="M329.41,173.22l-9.28-.69.11-1.57,9.29.69Zm0-.64-.14,1.87a4.08,4.08,0,0,1-.48,1.74,2.78,2.78,0,0,1-1.12,1,2.75,2.75,0,0,1-1.57.29,2.65,2.65,0,0,1-2.41-1.75,4,4,0,0,1-.22-1.79l.14-1.87,1.38.11-.14,1.86a2.25,2.25,0,0,0,.1,1,1.37,1.37,0,0,0,.45.66,1.51,1.51,0,0,0,.82.29,1.48,1.48,0,0,0,.85-.17,1.41,1.41,0,0,0,.6-.63,2.51,2.51,0,0,0,.24-.93l.14-1.87Z"/><path class="cls-2" d="M320.89,179.6l-.57,4.62-1.38-.17.58-4.66Zm7.8,1.54L319.45,180l.19-1.53,9.24,1.14Zm-3.55-1-.54,4.4-1.35-.17.55-4.39Zm3.62.45-.58,4.66-1.37-.17.58-4.66Z"/><path class="cls-2" d="M326.49,195.16l-9.17-1.65.28-1.54,9.17,1.65Zm1.1-6.15-9.16-1.65.28-1.54,9.16,1.64Zm-3.36-1.57L323.05,194l-1.43-.26,1.18-6.54Z"/><path class="cls-2" d="M316.72,196.29l-1.42-.35.37-1.46,2.79.7-2.4,9.61-2.79-.7.36-1.44,1.42.35Zm.12,1.2.43-1.72,8.1,6.25-10.08,1.69.42-1.71,6.59-.75Z"/><path class="cls-2" d="M275.31,277.33a3.11,3.11,0,0,0-3.46.6,3.86,3.86,0,0,0-.75,1,3.28,3.28,0,0,0-.38,1,4.21,4.21,0,0,0-.07,1l-1.29-1.37a4.54,4.54,0,0,1,.41-1.39,5.55,5.55,0,0,1,2.7-2.41,4.59,4.59,0,0,1,1.79-.33,4.25,4.25,0,0,1,1.79.4,5.3,5.3,0,0,1,2.68,2.83,4.31,4.31,0,0,1,.3,1.81,5,5,0,0,1-.43,1.78,5.32,5.32,0,0,1-1.14,1.56,5.07,5.07,0,0,1-1.42,1,4.33,4.33,0,0,1-1.42.33l-1.28-1.36a4.18,4.18,0,0,0,1,0,3.89,3.89,0,0,0,1-.32,4.42,4.42,0,0,0,1-.71,3.12,3.12,0,0,0,.72-1,3.19,3.19,0,0,0,.28-1.18,2.88,2.88,0,0,0-.21-1.23,3.54,3.54,0,0,0-.74-1.16A3.31,3.31,0,0,0,275.31,277.33Z"/><path class="cls-2" d="M271.84,285.06a4.5,4.5,0,0,1,.2,1.82,4.94,4.94,0,0,1-.54,1.76,4.86,4.86,0,0,1-1.24,1.5,5.22,5.22,0,0,1-1.71.95,4.73,4.73,0,0,1-1.83.22,4.34,4.34,0,0,1-1.76-.53,5.42,5.42,0,0,1-2.46-2.95,4.77,4.77,0,0,1-.21-1.84,4.34,4.34,0,0,1,.53-1.76,4.72,4.72,0,0,1,1.25-1.52,4.89,4.89,0,0,1,1.72-1,4.62,4.62,0,0,1,3.59.35,5.2,5.2,0,0,1,1.51,1.25A5.05,5.05,0,0,1,271.84,285.06Zm-3.26-1.52a2.88,2.88,0,0,0-1.18-.38,2.91,2.91,0,0,0-1.21.11,3.43,3.43,0,0,0-2,1.62,3.07,3.07,0,0,0-.33,1.18,3.21,3.21,0,0,0,.16,1.23,3.74,3.74,0,0,0,.67,1.16,3.78,3.78,0,0,0,1,.87,3,3,0,0,0,2.39.29,3.5,3.5,0,0,0,2-1.64,3,3,0,0,0,.33-1.17,3.21,3.21,0,0,0-.16-1.23,4,4,0,0,0-1.67-2Z"/><path class="cls-2" d="M255.22,291.58l4.61,6.37-1.28.93-4.61-6.37-1,.74-1.79-2.46,1.17-.85.94,1.29,6.19-4.49,5.46,7.54-1.28.93L259,288.85Z"/><path class="cls-2" d="M243.89,297.22l1.3-.82,4.25,6.76-.36,2.34Zm6.81-4.83,1.09,1.86-2.71,11.25L248,303.64Zm-.37,2.31.37-2.31,5.2,8.28-1.31.82Z"/><path class="cls-2" d="M242,302l-.14-.31-.26-3.18,1.55-.85.72,10.81-8.71-6.44,1.57-.84,2.47,1.88.21.32,3,2.32Zm.81.09-3.78,2.1-.91-1,4.32-2.36Z"/><path class="cls-2" d="M227.8,305.54l1.44-.68,3.37,7.1,3.35-1.59-1.87-3.95a4.84,4.84,0,0,1-.5-1.78,2.57,2.57,0,0,1,.32-1.51,2.76,2.76,0,0,1,1.26-1.08l.55,1.17a1,1,0,0,0-.42.39,1.4,1.4,0,0,0-.18.6,2.7,2.7,0,0,0,.08.75,5.08,5.08,0,0,0,.31.85L238,311l-6.19,2.93Z"/><path class="cls-2" d="M227.36,312l-1.74.71a4.14,4.14,0,0,1-1.77.34,2.72,2.72,0,0,1-1.44-.48,3.07,3.07,0,0,1-1.17-2.85,2.67,2.67,0,0,1,.69-1.37,4.12,4.12,0,0,1,1.5-1l1.74-.71.52,1.28-1.73.71a2.25,2.25,0,0,0-.81.52,1.35,1.35,0,0,0-.28,1.57,1.33,1.33,0,0,0,1.29.91,2.78,2.78,0,0,0,.94-.2l1.74-.71Zm.74,3.5-3.52-8.62,1.45-.59,3.53,8.61Z"/><path class="cls-2" d="M214.72,320.48l-3-8.8,1.48-.51,3.05,8.8Zm5.62-5.74-6.28,2.17-.48-1.37,6.29-2.17Zm.28,3.7-3-8.8,1.48-.51,3.05,8.79Z"/><path class="cls-2" d="M211.82,318.54a4.31,4.31,0,0,1-.57,1.74,4.87,4.87,0,0,1-1.22,1.38,5.33,5.33,0,0,1-3.7,1,4.67,4.67,0,0,1-1.75-.56,4.46,4.46,0,0,1-1.39-1.2,5.22,5.22,0,0,1-.85-1.76,4.94,4.94,0,0,1-.16-1.95,4.67,4.67,0,0,1,.56-1.75A4.78,4.78,0,0,1,204,314a4.85,4.85,0,0,1,1.77-.82,5,5,0,0,1,2-.16,4.48,4.48,0,0,1,1.74.58,4.78,4.78,0,0,1,1.39,1.22,5.22,5.22,0,0,1,.85,1.76A4.79,4.79,0,0,1,211.82,318.54Zm-2.34-2.72a3,3,0,0,0-2.06-1.24,3.13,3.13,0,0,0-1.29.09,3.42,3.42,0,0,0-1.16.58,2.92,2.92,0,0,0-.78.93,3.11,3.11,0,0,0-.36,1.19,3.86,3.86,0,0,0,.69,2.55,3,3,0,0,0,.91.84,2.92,2.92,0,0,0,1.15.4,3.13,3.13,0,0,0,1.29-.09,3.29,3.29,0,0,0,1.17-.58,3.08,3.08,0,0,0,.79-.93,3.28,3.28,0,0,0,.35-1.19,3.37,3.37,0,0,0-.12-1.34,3.57,3.57,0,0,0-.58-1.21Z"/><path class="cls-2" d="M201.87,320l-3.81.86-.4-1.8,3.8-.86Z"/><path class="cls-2" d="M197.24,322.22a4.53,4.53,0,0,1-2.08,2.93,4.91,4.91,0,0,1-1.82.69,5.18,5.18,0,0,1-2,0,5,5,0,0,1-1.69-.72,4.6,4.6,0,0,1-1.27-1.33,5.58,5.58,0,0,1-.68-3.83,4.53,4.53,0,0,1,.72-1.69,4.67,4.67,0,0,1,1.34-1.28,5.07,5.07,0,0,1,1.84-.69,4.81,4.81,0,0,1,2,0,4.66,4.66,0,0,1,2.94,2.09,5,5,0,0,1,.69,1.83A5.18,5.18,0,0,1,197.24,322.22Zm-2.08-2.93a3.21,3.21,0,0,0-.83-.93,3.1,3.1,0,0,0-2.4-.52,3.3,3.3,0,0,0-1.21.46,3.06,3.06,0,0,0-.87.85,3.2,3.2,0,0,0-.46,1.15,3.36,3.36,0,0,0,0,1.34,3.57,3.57,0,0,0,.45,1.27,3.14,3.14,0,0,0,.82.92,3.21,3.21,0,0,0,1.11.51,3.12,3.12,0,0,0,1.29,0,3.4,3.4,0,0,0,1.23-.46,2.94,2.94,0,0,0,.86-.86,2.89,2.89,0,0,0,.47-1.15,3.36,3.36,0,0,0,0-1.34,3.49,3.49,0,0,0-.46-1.21Z"/><path class="cls-2" d="M188,326.59l-6.44.78-.18-1.44,2.44-.3-1-7.8,1.57-.19,1,7.8,2.42-.29Z"/><path class="cls-2" d="M178.72,323.87l-1.5.11a2,2,0,0,0-.76.2,1.32,1.32,0,0,0-.48.46,1.2,1.2,0,0,0-.14.67,1.08,1.08,0,0,0,.48.87,1.7,1.7,0,0,0,1.08.24l1.13-.09-.5-6.71-1.3.1a2.34,2.34,0,0,0-.93.25,1.38,1.38,0,0,0-.61.56,1.51,1.51,0,0,0-.18.88,1.48,1.48,0,0,0,.19.65,1.18,1.18,0,0,0,.42.44,1.82,1.82,0,0,0,.6.23,2.3,2.3,0,0,0,.74,0l1.67-.12.06.86-1.76.13a5.07,5.07,0,0,1-1.29-.05,3,3,0,0,1-1.1-.37,2.13,2.13,0,0,1-.79-.73,2.34,2.34,0,0,1-.35-1.12,2.37,2.37,0,0,1,1.43-2.51,4.83,4.83,0,0,1,1.71-.42l3-.22.69,9.28-2.8.21a4.47,4.47,0,0,1-1.21-.05,3,3,0,0,1-1-.36,2,2,0,0,1-.66-.68,2.36,2.36,0,0,1-.29-1,1.76,1.76,0,0,1,.29-1.2,2.33,2.33,0,0,1,1-.81,4.34,4.34,0,0,1,1.54-.37l1.6-.12Z"/><path class="cls-2" d="M170.72,320.16l-4.69.12V318.9l4.7-.12Zm.2,7.93-4.69.11v-1.38l4.69-.12Zm-.09-3.65-4.43.12V323.2l4.43-.11Zm-.48,3.66-.23-9.31h1.54l.24,9.31Z"/><path class="cls-2" d="M165,328.22l-6.49-.13v-1.45l2.46.05.16-7.86h1.58l-.15,7.86,2.44.05Z"/><path class="cls-2" d="M156.72,322a2.87,2.87,0,0,0-.63-1.08,3.17,3.17,0,0,0-2.16-1,4.1,4.1,0,0,0-1.21.09,3.64,3.64,0,0,0-1,.41,4.68,4.68,0,0,0-.78.63l.12-1.87a4.18,4.18,0,0,1,1.3-.65,5.23,5.23,0,0,1,1.72-.14,5.12,5.12,0,0,1,1.88.48,4.51,4.51,0,0,1,1.47,1.09,4.45,4.45,0,0,1,.92,1.59,5.19,5.19,0,0,1,.24,2,5.1,5.1,0,0,1-.5,1.92,4.46,4.46,0,0,1-1.12,1.46,4.81,4.81,0,0,1-1.6.88,5.59,5.59,0,0,1-3.61-.13,4.45,4.45,0,0,1-1.2-.81l.12-1.88a3.51,3.51,0,0,0,.7.74,3.73,3.73,0,0,0,.93.53,4,4,0,0,0,1.19.25,3.19,3.19,0,0,0,1.22-.27,3.1,3.1,0,0,0,1.06-.6,3.27,3.27,0,0,0,.77-1,3.63,3.63,0,0,0,.34-1.33A3.43,3.43,0,0,0,156.72,322Z"/><path class="cls-2" d="M149.6,327.5l-6.45-.73.16-1.45,2.45.28.89-7.81,1.57.18-.89,7.81,2.43.28Z"/><path class="cls-2" d="M141.16,322.69l-1.49-.24a1.71,1.71,0,0,0-.78,0,1.12,1.12,0,0,0-.87.95,1.08,1.08,0,0,0,.26,1,1.73,1.73,0,0,0,1,.49l1.12.17,1.07-6.64-1.29-.21a2.41,2.41,0,0,0-1,0,1.45,1.45,0,0,0-.72.41,1.48,1.48,0,0,0-.38.82,1.56,1.56,0,0,0,0,.68,1.36,1.36,0,0,0,.3.52,2,2,0,0,0,.54.36,2.16,2.16,0,0,0,.71.21l1.65.27-.14.85-1.74-.28a5,5,0,0,1-1.25-.35,3.2,3.2,0,0,1-1-.61,2.16,2.16,0,0,1-.6-.89,2.22,2.22,0,0,1-.08-1.17,2.39,2.39,0,0,1,2-2.12,4.73,4.73,0,0,1,1.76,0l2.93.47-1.47,9.2-2.78-.45a4.36,4.36,0,0,1-1.17-.34,2.93,2.93,0,0,1-.86-.57,1.83,1.83,0,0,1-.49-.81,2.37,2.37,0,0,1,0-1.06,1.87,1.87,0,0,1,.57-1.1,2.37,2.37,0,0,1,1.14-.57,4.66,4.66,0,0,1,1.58,0l1.59.25Z"/><path class="cls-2" d="M132.64,325l-4.6-1,.29-1.35,4.59,1Zm.75-3.56-4.33-.92.28-1.33,4.33.92Zm.89-4.19-4.6-1,.29-1.36,4.59,1Zm-2.2,7.63,1.92-9.11,1.51.32-1.92,9.14Z"/><path class="cls-2" d="M118.27,321.48l2.42-9,1.51.41-2.42,9Zm7.88-1.59-6.43-1.73.38-1.4,6.42,1.73Zm-1.85,3.22,2.43-9,1.51.41-2.42,9Z"/><path class="cls-2" d="M108.52,318.28l3-8.83,1.49.5-3,8.83Zm8-1.11-6.31-2.12.47-1.38,6.3,2.13Zm-2,3.1,3-8.82,1.49.5-3,8.82Z"/><path class="cls-2" d="M98,314.06l3.54-8.61,1.48.61-3.55,8.61Zm8.68-.24-1.73-.71a4.12,4.12,0,0,1-1.5-1,2.67,2.67,0,0,1-.69-1.37,2.73,2.73,0,0,1,.2-1.57,2.83,2.83,0,0,1,1-1.27,2.71,2.71,0,0,1,1.45-.49,4,4,0,0,1,1.77.35l1.73.71-.52,1.28-1.74-.71a2.37,2.37,0,0,0-.94-.2,1.42,1.42,0,0,0-.77.23,1.66,1.66,0,0,0-.63,1.55,1.35,1.35,0,0,0,.38.69,2.55,2.55,0,0,0,.81.52l1.74.71Zm-1.93,3,3.54-8.61,1.45.6-3.54,8.61Z"/><path class="cls-2" d="M92.39,301l1.38.68-3.52,7.16-2.18.93Zm7.68,3.27-1,1.9-11,3.6,1-1.91ZM91.41,314a1,1,0,0,0,.09-.42.94.94,0,0,0-.13-.46,1.15,1.15,0,0,0-.49-.41,1.2,1.2,0,0,0-.62-.14.93.93,0,0,0-.46.18,1.18,1.18,0,0,0-.27.32l-1-.48a1.8,1.8,0,0,1,.62-.72,2,2,0,0,1,1-.31,2.21,2.21,0,0,1,1.18.27,2.37,2.37,0,0,1,.93.76,1.9,1.9,0,0,1,.33,1,2,2,0,0,1-.19.94Zm6.51-8.85,2.15-.89L95.72,313l-1.38-.69Z"/><path class="cls-2" d="M76.18,302.29l.73-1.18,3.45,2.11,4.16-6.75,1.35.83L81,305.22Zm6.19-.47-2.18-1.34a3.84,3.84,0,0,1-1.2-1.14,2.9,2.9,0,0,1-.45-1.43,2.62,2.62,0,0,1,.43-1.49,2.65,2.65,0,0,1,1.14-1.06,2.83,2.83,0,0,1,1.49-.26,3.61,3.61,0,0,1,1.56.55L85.34,297l-.72,1.22-2-1.24a2.58,2.58,0,0,0-.88-.35,1.3,1.3,0,0,0-.78.09,1.63,1.63,0,0,0-.85,1.39,1.31,1.31,0,0,0,.27.74,2.66,2.66,0,0,0,.71.63l2,1.24Z"/><path class="cls-2" d="M73.25,300.36l-1.53-1.06A4.08,4.08,0,0,1,70.46,298a2.65,2.65,0,0,1-.39-1.48A2.84,2.84,0,0,1,70.6,295a2.81,2.81,0,0,1,1.21-1,2.73,2.73,0,0,1,1.52-.17,4,4,0,0,1,1.66.71l1.54,1.06-.81,1.11-1.54-1.06a2.35,2.35,0,0,0-.88-.4,1.36,1.36,0,0,0-.8.07,1.35,1.35,0,0,0-.65.55,1.43,1.43,0,0,0-.29.82,1.42,1.42,0,0,0,.23.77,2.45,2.45,0,0,0,.68.68L74,299.22Zm-.52-.36L78,292.32l1.3.89L74,300.89Z"/><path class="cls-2" d="M66.72,295.72,63,292.88l.83-1.1,3.74,2.84Zm2.2-2.9-3.53-2.68.82-1.08,3.51,2.68Zm-2.66,2.56L71.89,288l1.23.94-5.63,7.41Zm5.25-6-3.79-2.81.84-1.1,3.74,2.84Z"/><path class="cls-2" d="M55.21,286.42l6-7.09,1.2,1-6,7.09Zm7.8,1.93L58,284l.94-1.11L64,287.22Zm-3,2.12,6-7.09,1.2,1-6,7.09Z"/><path class="cls-2" d="M58.06,276.9l1.27,1.23L49.85,282l3.61-9.56,1.26,1.22-2.66,6.08Zm1.09.5,1-1,1.07,1-2,2.06-7.1-6.91,2-2.06,1.07,1-1,1.05Z"/></g></g></g></svg>