<svg width="217" height="217" viewBox="0 0 217 217" fill="none" xmlns="http://www.w3.org/2000/svg">
<path d="M102.664 213.874L98.6657 213.575L98.6159 214.242L102.614 214.541L102.664 213.874ZM98.9162 216.61L99.3523 210.779L98.6443 210.726L98.2082 216.557L98.9162 216.61ZM102.831 216.902L103.267 211.072L102.559 211.019L102.123 216.849L102.831 216.902Z" fill="white"/>
<path d="M94.1004 213.14C94.0487 213.464 93.9488 213.756 93.8005 214.014C93.6459 214.277 93.4534 214.494 93.223 214.666C92.9927 214.838 92.7368 214.958 92.4553 215.026C92.1674 215.099 91.8668 215.11 91.5533 215.06C91.2398 215.01 90.9603 214.907 90.7147 214.749C90.4627 214.596 90.254 214.402 90.0884 214.167C89.9228 213.932 89.81 213.666 89.7502 213.369C89.684 213.077 89.6767 212.768 89.7283 212.444C89.7799 212.119 89.8831 211.826 90.0377 211.563C90.1859 211.304 90.3752 211.089 90.6056 210.917C90.836 210.745 91.0951 210.623 91.3829 210.55C91.6644 210.482 91.9619 210.473 92.2753 210.523C92.5888 210.573 92.8715 210.674 93.1235 210.827C93.3691 210.985 93.5747 211.181 93.7403 211.416C93.9059 211.651 94.0218 211.915 94.088 212.207C94.1479 212.504 94.152 212.815 94.1004 213.14ZM94.8428 213.258C94.9093 212.84 94.8999 212.438 94.8147 212.052C94.724 211.666 94.5681 211.317 94.347 211.005C94.125 210.699 93.8476 210.441 93.5146 210.23C93.1808 210.024 92.8049 209.889 92.3869 209.822C91.9635 209.755 91.5639 209.767 91.1884 209.86C90.8064 209.957 90.4624 210.116 90.1564 210.338C89.8496 210.566 89.5958 210.85 89.395 211.19C89.1888 211.529 89.0524 211.908 88.9859 212.326C88.9185 212.749 88.9306 213.151 89.0222 213.533C89.1074 213.918 89.261 214.264 89.483 214.57C89.704 214.882 89.9815 215.14 90.3153 215.345C90.6428 215.555 91.0183 215.694 91.4417 215.761C91.8597 215.828 92.2596 215.813 92.6416 215.716C93.0227 215.624 93.3667 215.464 93.6735 215.237C93.9795 215.015 94.2356 214.734 94.4419 214.395C94.6418 214.06 94.7754 213.681 94.8428 213.258Z" fill="white"/>
<path d="M85.0973 211.658L84.1793 211.438C83.8381 211.356 83.5313 211.334 83.2589 211.372C82.981 211.409 82.749 211.505 82.5628 211.661C82.3766 211.817 82.2518 212.027 82.1883 212.293C82.13 212.537 82.12 212.757 82.1585 212.956C82.197 213.154 82.2784 213.328 82.4028 213.478C82.5205 213.632 82.6758 213.761 82.8687 213.864C83.0602 213.973 83.2832 214.058 83.5378 214.119L85 214.469L86.3609 208.782L84.8174 208.413C84.4491 208.325 84.1072 208.306 83.7917 208.356C83.4694 208.411 83.1952 208.54 82.969 208.743C82.7361 208.951 82.5749 209.242 82.4855 209.615C82.4232 209.875 82.4182 210.112 82.4703 210.325C82.5224 210.538 82.6236 210.725 82.7738 210.887C82.9173 211.053 83.0984 211.194 83.317 211.309C83.5356 211.424 83.783 211.515 84.0592 211.581L85.0584 211.82L85.1498 211.438L84.1506 211.199C83.9665 211.155 83.8044 211.091 83.6644 211.006C83.5231 210.926 83.4094 210.827 83.3231 210.709C83.2314 210.59 83.172 210.455 83.1448 210.306C83.1176 210.156 83.1248 209.995 83.1662 209.821C83.222 209.588 83.3234 209.404 83.4706 209.267C83.6124 209.129 83.7885 209.04 83.9987 208.999C84.2036 208.956 84.4279 208.964 84.6716 209.022L85.5246 209.226L84.4553 213.694L83.6836 213.51C83.3966 213.441 83.1764 213.308 83.0231 213.111C82.8686 212.919 82.8237 212.688 82.8885 212.417C82.9313 212.239 83.0109 212.097 83.1274 211.994C83.2438 211.89 83.3857 211.824 83.5528 211.795C83.72 211.766 83.8984 211.774 84.088 211.82L85.0059 212.04L85.0973 211.658Z" fill="white"/>
<path d="M78.4378 208.531L75.4925 207.594L75.5288 208.307L77.9965 209.092L78.4378 208.531ZM76.1406 210.71L75.8993 208.162L75.8862 207.982L75.6819 205.814L74.9257 205.573L75.652 212.247L80.0997 207.219L79.3435 206.978L77.8929 208.673L77.7837 208.796L76.1406 210.71Z" fill="white"/>
<path d="M68.8011 206.319L69.5377 206.614L72.5477 204.715L71.7335 204.389L68.8011 206.319ZM66.7293 208.684L67.3884 208.948L69.5623 203.52L68.9032 203.256L66.7293 208.684ZM67.3267 208.248L67.0937 208.83L68.2026 209.274C68.549 209.412 68.8886 209.47 69.2216 209.448C69.5525 209.43 69.8493 209.333 70.1121 209.157C70.3696 208.978 70.5657 208.72 70.7003 208.384C70.8328 208.054 70.8686 207.732 70.8077 207.42C70.7396 207.11 70.5929 206.833 70.3676 206.587C70.1402 206.345 69.8533 206.156 69.507 206.017L68.3981 205.573L68.1652 206.154L69.274 206.598C69.5067 206.692 69.6969 206.816 69.8447 206.971C69.9873 207.124 70.0793 207.299 70.1205 207.495C70.1566 207.69 70.1302 207.898 70.0412 208.12C69.9521 208.343 69.8275 208.512 69.6671 208.627C69.5016 208.741 69.3144 208.804 69.1055 208.816C68.8915 208.827 68.6681 208.785 68.4355 208.692L67.3267 208.248Z" fill="white"/>
<path d="M58.5856 204.893L61.3608 199.746L60.7358 199.41L57.9607 204.556L58.5856 204.893ZM55.9388 203.466L59.4601 202.233L58.6037 198.26L57.8317 197.844L58.6949 201.839L55.1668 203.05L55.9388 203.466Z" fill="white"/>
<path d="M53.2451 198.533C53.0674 198.809 52.8587 199.036 52.6191 199.213C52.3717 199.392 52.1081 199.513 51.828 199.578C51.5479 199.643 51.2654 199.65 50.9803 199.599C50.6876 199.55 50.4077 199.439 50.1408 199.267C49.8738 199.096 49.6596 198.888 49.498 198.645C49.3288 198.404 49.2156 198.143 49.1585 197.861C49.1013 197.579 49.1051 197.29 49.1697 196.994C49.2267 196.7 49.3441 196.414 49.5218 196.138C49.6995 195.862 49.9121 195.634 50.1594 195.456C50.399 195.279 50.6588 195.158 50.9389 195.093C51.219 195.028 51.5054 195.02 51.7981 195.07C52.0832 195.121 52.3592 195.232 52.6261 195.404C52.8931 195.575 53.1112 195.782 53.2804 196.023C53.442 196.266 53.5513 196.528 53.6084 196.81C53.6656 197.092 53.6657 197.38 53.6087 197.674C53.544 197.971 53.4228 198.257 53.2451 198.533ZM53.8773 198.94C54.1063 198.584 54.2593 198.212 54.3364 197.825C54.4088 197.434 54.4064 197.052 54.3292 196.678C54.249 196.308 54.0988 195.96 53.8788 195.633C53.6557 195.311 53.3662 195.035 53.0102 194.807C52.6496 194.575 52.2788 194.425 51.8977 194.359C51.5089 194.294 51.1298 194.302 50.7604 194.382C50.388 194.467 50.0415 194.625 49.7209 194.856C49.3956 195.084 49.1185 195.375 48.8895 195.731C48.6576 196.092 48.5069 196.465 48.4375 196.851C48.3605 197.238 48.362 197.617 48.4422 197.986C48.5194 198.36 48.6696 198.708 48.8926 199.031C49.108 199.355 49.396 199.633 49.7567 199.865C50.1126 200.094 50.4849 200.24 50.8737 200.305C51.2595 200.374 51.6386 200.367 52.011 200.282C52.3804 200.202 52.7277 200.048 53.053 199.82C53.3706 199.594 53.6454 199.3 53.8773 198.94Z" fill="white"/>
<path d="M41.051 193.557L44.203 195.967L46.4353 193.047C46.5706 192.87 46.709 192.717 46.8505 192.587C46.9921 192.457 47.1334 192.354 47.2744 192.28C47.412 192.21 47.5421 192.173 47.6647 192.168C47.7872 192.164 47.8994 192.201 48.0011 192.278L48.3715 191.794C48.1193 191.601 47.8534 191.514 47.5737 191.531C47.2895 191.545 47.0124 191.642 46.7423 191.821C46.4678 191.996 46.2224 192.226 46.0059 192.509L44.078 195.03L42.0209 193.458L45.1664 189.344L44.6024 188.912L41.051 193.557Z" fill="white"/>
<path d="M34.7027 188.114L37.6598 190.759L40.1103 188.02C40.2588 187.854 40.4086 187.711 40.5597 187.593C40.7109 187.474 40.8596 187.383 41.006 187.319C41.1486 187.26 41.2812 187.233 41.4037 187.238C41.5262 187.243 41.6352 187.288 41.7307 187.374L42.1372 186.919C41.9007 186.708 41.6423 186.6 41.362 186.596C41.0777 186.588 40.7939 186.663 40.5109 186.82C40.2237 186.974 39.9612 187.184 39.7236 187.45L37.6073 189.815L35.6774 188.089L39.1304 184.229L38.6012 183.756L34.7027 188.114Z" fill="white"/>
<path d="M35.6263 180.865L33.5737 178.748L33.094 179.214L35.1465 181.33L35.6263 180.865ZM31.9082 184.47L29.8557 182.353L29.3759 182.819L31.4285 184.936L31.9082 184.47ZM33.5874 182.842L31.6511 180.845L31.1713 181.31L33.1076 183.307L33.5874 182.842ZM31.7018 185.217L35.8996 181.147L35.4053 180.637L31.2075 184.708L31.7018 185.217Z" fill="white"/>
<path d="M26.8784 180.07L31.339 176.29L30.88 175.748L26.4194 179.529L26.8784 180.07ZM24.9342 177.776L28.6627 177.912L29.3139 173.9L28.7468 173.231L28.0937 177.267L24.3672 177.107L24.9342 177.776Z" fill="white"/>
<path d="M25.8811 170.643L21.6842 173.677L22.1001 174.252L26.8386 170.827L24.0736 167.002L24.8183 166.464L24.4512 165.956L23.1651 166.886L23.581 167.461L19.3841 170.495L19.8001 171.071L23.997 168.037L25.8811 170.643Z" fill="white"/>
<path d="M14.8772 161.888L13.9247 162.411L21.1309 164.028L22.0833 163.504L14.8772 161.888ZM16.4544 166.056L16.8199 166.665L22.0833 163.504L20.9301 163.369L16.4544 166.056ZM13.9247 162.411L15.0779 162.547L19.5536 159.859L19.1881 159.251L13.9247 162.411Z" fill="white"/>
<path d="M13.8657 155.307L14.2206 156.017L17.7321 156.596L17.3398 155.812L13.8657 155.307ZM10.7465 155.7L11.0641 156.335L16.2937 153.72L15.9762 153.085L10.7465 155.7ZM11.4824 155.771L10.9221 156.051L11.4563 157.119C11.6232 157.453 11.8386 157.722 12.1026 157.926C12.3616 158.133 12.648 158.257 12.9618 158.3C13.2731 158.337 13.5906 158.275 13.9144 158.113C14.2331 157.953 14.4734 157.737 14.6353 157.463C14.7897 157.186 14.8644 156.881 14.8594 156.548C14.8494 156.216 14.761 155.884 14.5941 155.55L14.0599 154.482L13.4996 154.762L14.0338 155.83C14.1459 156.054 14.2057 156.274 14.2132 156.488C14.2181 156.697 14.1708 156.889 14.0712 157.063C13.9691 157.232 13.811 157.371 13.5968 157.478C13.3827 157.585 13.1772 157.628 12.9805 157.608C12.7812 157.584 12.5994 157.506 12.4351 157.377C12.2682 157.242 12.1287 157.063 12.0167 156.839L11.4824 155.771Z" fill="white"/>
<path d="M3.02469 104.509L3.25555 100.507L2.58842 100.468L2.35756 104.471L3.02469 104.509ZM0.226053 100.809L6.06343 101.145L6.10431 100.437L0.266934 100.1L0.226053 100.809ZM0 104.728L5.83738 105.065L5.87826 104.356L0.0408819 104.019L0 104.728Z" fill="white"/>
<path d="M3.61335 95.9344C3.28805 95.8883 2.99499 95.7934 2.73415 95.6495C2.46859 95.4994 2.24787 95.3107 2.072 95.0833C1.89612 94.8559 1.7718 94.602 1.69904 94.3217C1.62154 94.0352 1.60506 93.7347 1.64959 93.4205C1.69413 93.1062 1.79304 92.825 1.94633 92.5767C2.09489 92.3222 2.28523 92.1101 2.51736 91.9405C2.74949 91.771 3.01358 91.6537 3.30962 91.5888C3.60092 91.5176 3.90922 91.5051 4.23452 91.5511C4.55982 91.5973 4.85525 91.6954 5.12082 91.8455C5.38165 91.9893 5.6 92.1749 5.77588 92.4023C5.95175 92.6297 6.07844 92.8867 6.15594 93.1733C6.2287 93.4535 6.24282 93.7508 6.19828 94.0651C6.15374 94.3794 6.0572 94.6638 5.90864 94.9183C5.75535 95.1665 5.56264 95.3755 5.33051 95.545C5.09838 95.7146 4.83666 95.835 4.54536 95.9062C4.24932 95.9711 3.93865 95.9805 3.61335 95.9344ZM3.50787 96.6788C3.9269 96.7381 4.32852 96.7219 4.71273 96.6302C5.09772 96.5329 5.44405 96.371 5.75172 96.1447C6.05388 95.9175 6.30754 95.6357 6.51271 95.2992C6.71236 94.9619 6.84188 94.5837 6.90126 94.1647C6.96142 93.7402 6.94207 93.3409 6.84321 92.9669C6.73962 92.5867 6.57425 92.2455 6.34711 91.9433C6.11445 91.6404 5.82633 91.3915 5.48275 91.1965C5.13995 90.9961 4.75903 90.8662 4.34 90.8068C3.91546 90.7467 3.51345 90.7656 3.13397 90.8637C2.74976 90.9555 2.40658 91.1149 2.10442 91.3421C1.79675 91.5685 1.54309 91.8503 1.34344 92.1876C1.13905 92.5185 1.00678 92.8963 0.946616 93.3209C0.887233 93.7399 0.909338 94.1395 1.01293 94.5198C1.11101 94.8993 1.27638 95.2405 1.50904 95.5434C1.73618 95.8456 2.02116 96.0969 2.36396 96.2973C2.70202 96.4914 3.08333 96.6186 3.50787 96.6788Z" fill="white"/>
<path d="M4.94162 86.9075L5.14563 85.9859C5.22145 85.6434 5.23811 85.3362 5.19561 85.0644C5.15431 84.7872 5.05416 84.5569 4.89516 84.3734C4.73616 84.1899 4.52345 84.0687 4.25704 84.0097C4.01237 83.9555 3.7913 83.9494 3.59382 83.9912C3.39635 84.0331 3.22367 84.1175 3.07579 84.2444C2.92368 84.3647 2.79757 84.5222 2.69747 84.7168C2.59192 84.9101 2.51087 85.1346 2.4543 85.3901L2.12933 86.8581L7.83821 88.1219L8.18123 86.5723C8.26307 86.2026 8.27608 85.8604 8.22026 85.5458C8.1602 85.2245 8.02649 84.9525 7.81914 84.7298C7.60755 84.5005 7.31418 84.3443 6.93902 84.2612C6.67805 84.2034 6.44158 84.2024 6.22962 84.2582C6.01766 84.3139 5.83201 84.4182 5.67268 84.5712C5.50911 84.7175 5.37155 84.9009 5.25998 85.1215C5.14842 85.342 5.06195 85.5909 5.00057 85.8682L4.77851 86.8714L5.16182 86.9562L5.38388 85.9531C5.4248 85.7682 5.48658 85.6051 5.56921 85.4637C5.64641 85.3211 5.74326 85.2056 5.85976 85.1174C5.97746 85.0236 6.1109 84.9619 6.26006 84.9322C6.40923 84.9025 6.5708 84.9069 6.74479 84.9454C6.97858 84.9972 7.165 85.0955 7.30403 85.2403C7.44428 85.3797 7.53683 85.5542 7.5817 85.7637C7.62777 85.9679 7.62372 86.1923 7.56956 86.4369L7.38 87.2933L2.89445 86.3003L3.06596 85.5255C3.12975 85.2374 3.25883 85.015 3.45319 84.8584C3.64212 84.7006 3.87251 84.6518 4.14436 84.712C4.32378 84.7517 4.46639 84.8289 4.57218 84.9435C4.67797 85.0582 4.74664 85.1989 4.77819 85.3656C4.80973 85.5323 4.80444 85.7107 4.76232 85.901L4.55831 86.8226L4.94162 86.9075Z" fill="white"/>
<path d="M7.95449 80.1955L8.84085 77.2347L8.12882 77.2831L7.38619 79.7638L7.95449 80.1955ZM5.73619 77.9358L8.28024 77.6511L8.45945 77.635L10.6243 77.3937L10.8519 76.6335L4.19179 77.4734L9.29476 81.8349L9.52234 81.0747L7.80296 79.6532L7.67809 79.546L5.73619 77.9358Z" fill="white"/>
<path d="M10.0018 70.5226L9.71937 71.2641L11.6692 74.2413L11.9814 73.4217L10.0018 70.5226ZM7.60231 68.4914L7.3496 69.1549L12.8138 71.236L13.0665 70.5725L7.60231 68.4914ZM8.04803 69.0812L7.46258 68.8583L7.03744 69.9745C6.90464 70.3232 6.85239 70.6638 6.88066 70.9964C6.90373 71.3269 7.00585 71.622 7.18701 71.8817C7.37016 72.1362 7.63086 72.3279 7.96912 72.4567C8.30218 72.5835 8.62432 72.6139 8.93555 72.5477C9.24357 72.4743 9.51874 72.3229 9.76107 72.0934C9.9982 71.8619 10.1832 71.5719 10.316 71.2232L10.7411 70.1069L10.1556 69.884L9.7305 71.0002C9.64131 71.2344 9.5204 71.4267 9.36777 71.5771C9.21712 71.7224 9.04391 71.8173 8.84815 71.8619C8.65437 71.9013 8.4456 71.8784 8.22183 71.7932C7.99806 71.7079 7.82694 71.5862 7.70848 71.4278C7.592 71.2643 7.52582 71.0782 7.50994 70.8696C7.49605 70.6557 7.5337 70.4317 7.62289 70.1975L8.04803 69.0812Z" fill="white"/>
<path d="M11.2536 60.2842L16.4467 62.9712L16.7729 62.3406L11.5798 59.6536L11.2536 60.2842ZM12.6355 57.6135L13.9282 61.1132L17.8861 60.1892L18.2892 59.4103L14.3088 60.3414L13.0385 56.8345L12.6355 57.6135Z" fill="white"/>
<path d="M17.5216 54.8362C17.2423 54.6632 17.0122 54.4584 16.8312 54.2219C16.6484 53.9776 16.5222 53.7161 16.4526 53.4371C16.383 53.1582 16.3712 52.8758 16.4173 52.5899C16.4616 52.2964 16.5673 52.0147 16.7344 51.7449C16.9016 51.475 17.1052 51.2573 17.3454 51.0916C17.5838 50.9183 17.8433 50.8007 18.124 50.7387C18.4048 50.6768 18.6937 50.6756 18.9908 50.7352C19.2862 50.7872 19.5735 50.8996 19.8528 51.0726C20.1321 51.2456 20.3632 51.4543 20.546 51.6985C20.727 51.9351 20.8523 52.1928 20.9219 52.4717C20.9915 52.7506 21.0041 53.0369 20.9599 53.3304C20.9138 53.6163 20.8072 53.8942 20.64 54.164C20.4729 54.4339 20.2701 54.6554 20.0318 54.8288C19.7916 54.9944 19.5312 55.1082 19.2504 55.1701C18.9697 55.2321 18.6817 55.2371 18.3863 55.1851C18.0892 55.1255 17.8009 55.0092 17.5216 54.8362ZM17.1258 55.4753C17.4856 55.6982 17.8598 55.8448 18.2485 55.9153C18.6401 55.981 19.0223 55.9721 19.395 55.8885C19.763 55.802 20.1086 55.646 20.4317 55.4204C20.7501 55.1918 21.0208 54.8977 21.2436 54.5379C21.4694 54.1734 21.6122 53.8 21.6721 53.4179C21.7301 53.0281 21.7159 52.6492 21.6294 52.2812C21.5382 51.9102 21.3745 51.5665 21.1383 51.2499C20.905 50.9285 20.6085 50.6564 20.2487 50.4335C19.8842 50.2078 19.5085 50.0635 19.1216 50.0007C18.7329 49.9302 18.3546 49.9383 17.9866 50.0247C17.6138 50.1083 17.2683 50.2643 16.9499 50.4929C16.6296 50.7138 16.3566 51.0065 16.1308 51.371C15.908 51.7308 15.7675 52.1056 15.7095 52.4954C15.6467 52.8823 15.6609 53.2612 15.7521 53.6321C15.8386 54.0001 15.9985 54.3448 16.2318 54.6661C16.4633 54.9798 16.7612 55.2495 17.1258 55.4753Z" fill="white"/>
<path d="M22.2886 42.5589L19.9328 45.7515L22.8902 47.9337C23.0694 48.066 23.2253 48.2018 23.3578 48.3411C23.4903 48.4804 23.595 48.6199 23.6718 48.7596C23.7441 48.8961 23.7836 49.0255 23.7901 49.148C23.7966 49.2704 23.7619 49.3832 23.6858 49.4862L24.1765 49.8483C24.3649 49.5929 24.4481 49.3255 24.4258 49.0461C24.4069 48.7622 24.3056 48.4868 24.122 48.2198C23.9417 47.9484 23.7081 47.7068 23.4214 47.4952L20.8673 45.6106L22.4048 43.527L26.5719 46.6019L26.9935 46.0306L22.2886 42.5589Z" fill="white"/>
<path d="M27.6235 36.1188L25.0289 39.1205L27.8094 41.524C27.9779 41.6696 28.1229 41.817 28.2443 41.9661C28.3657 42.1152 28.4593 42.2624 28.5251 42.4076C28.5868 42.5492 28.6161 42.6813 28.6132 42.8039C28.6103 42.9265 28.5669 43.0362 28.4832 43.1331L28.9445 43.5319C29.152 43.2918 29.2555 43.0316 29.2549 42.7513C29.2579 42.4668 29.1781 42.1844 29.0156 41.9041C28.8567 41.6195 28.6424 41.3607 28.3728 41.1277L25.9714 39.052L27.6648 37.093L31.5828 40.4796L32.0471 39.9425L27.6235 36.1188Z" fill="white"/>
<path d="M34.8865 36.9188L36.9681 34.8305L36.4948 34.3587L34.4132 36.4471L34.8865 36.9188ZM31.2186 33.2628L33.3002 31.1744L32.8269 30.7027L30.7453 32.791L31.2186 33.2628ZM32.875 34.9139L34.8387 32.9439L34.3654 32.4721L32.4018 34.4422L32.875 34.9139ZM30.4681 33.0691L34.6093 37.1969L35.1106 36.694L30.9694 32.5662L30.4681 33.0691Z" fill="white"/>
<path d="M35.5322 28.1586L39.388 32.5542L39.9218 32.086L36.0659 27.6904L35.5322 28.1586ZM37.7928 26.1756L37.7204 29.9058L41.7428 30.4886L42.4021 29.9102L38.3562 29.3259L38.4521 25.5973L37.7928 26.1756Z" fill="white"/>
<path d="M44.9414 27.0008L41.8362 22.8562L41.268 23.2819L44.7739 27.9613L48.5508 25.1315L49.1017 25.8669L49.6031 25.4912L48.6515 24.2211L48.0833 24.6468L44.9781 20.5022L44.4098 20.9279L47.5151 25.0726L44.9414 27.0008Z" fill="white"/>
<path d="M53.5073 15.8492L52.9679 14.9058L51.4747 22.1385L52.014 23.0819L53.5073 15.8492ZM49.3666 17.4973L48.7643 17.8731L52.014 23.0819L52.1301 21.9265L49.3666 17.4973ZM52.9679 14.9058L52.8519 16.0612L55.6153 20.4905L56.2177 20.1146L52.9679 14.9058Z" fill="white"/>
<path d="M60.0698 14.7257L59.3663 15.0926L58.8473 18.6134L59.625 18.2078L60.0698 14.7257ZM59.6244 11.6136L58.9949 11.9419L61.6987 17.1263L62.3282 16.798L59.6244 11.6136ZM59.566 12.3506L59.2763 11.7952L58.2172 12.3475C57.8864 12.5201 57.6212 12.74 57.4215 13.0075C57.2192 13.27 57.0996 13.5584 57.0627 13.8729C57.0306 14.1848 57.0983 14.5012 57.2657 14.8221C57.4305 15.1381 57.6512 15.3747 57.9279 15.5319C58.2069 15.6816 58.5132 15.751 58.8468 15.7404C59.1778 15.7247 59.5087 15.6307 59.8395 15.4581L60.8986 14.9058L60.6089 14.3503L59.5498 14.9027C59.3276 15.0186 59.1095 15.0821 58.8955 15.0932C58.6864 15.1017 58.4939 15.0577 58.3179 14.9611C58.1468 14.8619 58.0059 14.7061 57.8952 14.4938C57.7845 14.2815 57.7374 14.0768 57.754 13.8798C57.7755 13.6801 57.8495 13.4971 57.9762 13.3305C58.1078 13.1614 58.2847 13.0189 58.5069 12.903L59.566 12.3506Z" fill="white"/>
<path d="M110.676 3.02052L114.682 3.18313L114.709 2.51544L110.703 2.35283L110.676 3.02052ZM114.328 0.159222L114.091 6.00149L114.8 6.03029L115.037 0.188017L114.328 0.159222ZM110.405 0L110.168 5.84227L110.878 5.87106L111.115 0.0287954L110.405 0Z" fill="white"/>
<path d="M119.259 3.46304C119.3 3.137 119.39 2.84235 119.529 2.57911C119.675 2.31102 119.86 2.08712 120.084 1.9074C120.309 1.72767 120.56 1.59905 120.839 1.52151C121.124 1.43914 121.424 1.41754 121.739 1.45672C122.054 1.49589 122.337 1.59 122.588 1.73903C122.845 1.88323 123.06 2.06993 123.234 2.29914C123.408 2.52834 123.529 2.79039 123.599 3.08528C123.675 3.37533 123.693 3.68337 123.653 4.00941C123.612 4.33545 123.519 4.63251 123.373 4.90059C123.234 5.16384 123.052 5.38532 122.828 5.56505C122.603 5.74477 122.349 5.87582 122.063 5.95819C121.784 6.03572 121.487 6.0549 121.172 6.01573C120.857 5.97655 120.571 5.88487 120.314 5.74067C120.064 5.59164 119.851 5.40251 119.678 5.17331C119.504 4.9441 119.38 4.68447 119.303 4.39442C119.234 4.09954 119.219 3.78907 119.259 3.46304ZM118.513 3.37025C118.461 3.79024 118.484 4.19152 118.582 4.57411C118.686 4.95739 118.854 5.30091 119.086 5.60468C119.318 5.90292 119.604 6.15174 119.944 6.35114C120.285 6.54502 120.665 6.66807 121.085 6.7203C121.51 6.77322 121.909 6.74707 122.281 6.64185C122.66 6.5318 122.998 6.36064 123.296 6.12837C123.595 5.89058 123.839 5.59826 124.028 5.25141C124.223 4.90525 124.346 4.52217 124.399 4.10219C124.452 3.67668 124.426 3.27505 124.321 2.8973C124.223 2.51471 124.058 2.1743 123.825 1.87606C123.594 1.57229 123.308 1.32347 122.967 1.12959C122.633 0.930879 122.253 0.805062 121.827 0.752143C121.407 0.69991 121.008 0.728823 120.629 0.838881C120.252 0.943413 119.913 1.11457 119.614 1.35236C119.316 1.58463 119.07 1.87384 118.875 2.22C118.687 2.56133 118.566 2.94475 118.513 3.37025Z" fill="white"/>
<path d="M128.308 4.63724L129.233 4.82551C129.576 4.89549 129.884 4.90691 130.155 4.85979C130.431 4.81377 130.66 4.70971 130.841 4.5476C131.021 4.38549 131.139 4.17075 131.193 3.90337C131.243 3.65782 131.246 3.43667 131.201 3.23994C131.155 3.04321 131.068 2.87199 130.939 2.7263C130.816 2.57626 130.656 2.45285 130.46 2.35608C130.265 2.25385 130.039 2.17663 129.782 2.12442L128.309 1.82452L127.143 7.5541L128.698 7.87067C129.069 7.9462 129.411 7.95337 129.725 7.89219C130.045 7.82667 130.315 7.68835 130.534 7.47723C130.76 7.26176 130.911 6.96577 130.988 6.58925C131.041 6.32733 131.038 6.09088 130.979 5.8799C130.919 5.66892 130.812 5.48508 130.656 5.32837C130.507 5.16733 130.321 5.03291 130.099 4.92512C129.876 4.81733 129.626 4.73512 129.348 4.67847L128.341 4.47354L128.263 4.85824L129.27 5.06317C129.455 5.10094 129.619 5.15992 129.762 5.24014C129.906 5.31489 130.023 5.40976 130.113 5.52474C130.209 5.64083 130.273 5.77319 130.305 5.92183C130.337 6.07047 130.336 6.23209 130.3 6.40671C130.252 6.64135 130.157 6.82941 130.015 6.9709C129.878 7.1135 129.705 7.20901 129.496 7.25744C129.293 7.30699 129.069 7.30677 128.823 7.25678L127.964 7.08184L128.88 2.58002L129.658 2.73831C129.947 2.79718 130.171 2.92244 130.331 3.11411C130.492 3.30032 130.545 3.52984 130.489 3.80268C130.453 3.98275 130.378 4.12665 130.265 4.23438C130.152 4.34212 130.013 4.41317 129.847 4.44755C129.68 4.48193 129.502 4.47969 129.311 4.44081L128.386 4.25254L128.308 4.63724Z" fill="white"/>
<path d="M135.07 7.53534L138.046 8.37111L137.985 7.66L135.492 6.95976L135.07 7.53534ZM137.292 5.27884L137.62 7.81768L137.639 7.99659L137.917 10.157L138.681 10.3716L137.728 3.72679L133.454 8.90335L134.218 9.11794L135.61 7.37459L135.715 7.24791L137.292 5.27884Z" fill="white"/>
<path d="M144.776 9.41744L144.03 9.14769L141.087 11.148L141.912 11.4461L144.776 9.41744ZM146.766 6.98368L146.099 6.74232L144.111 12.2412L144.779 12.4825L146.766 6.98368ZM146.184 7.43938L146.397 6.85022L145.274 6.44416C144.923 6.31733 144.582 6.27088 144.25 6.30482C143.919 6.33353 143.626 6.44066 143.37 6.62622C143.118 6.81368 142.931 7.07761 142.808 7.41801C142.687 7.75318 142.662 8.0758 142.733 8.38586C142.812 8.69257 142.968 8.96513 143.202 9.20351C143.437 9.43666 143.73 9.61665 144.081 9.74348L145.205 10.1495L145.418 9.56037L144.294 9.15432C144.059 9.06913 143.864 8.95152 143.711 8.80147C143.563 8.65331 143.466 8.48175 143.418 8.28678C143.375 8.0937 143.394 7.88457 143.476 7.65938C143.557 7.43418 143.676 7.26102 143.832 7.13987C143.994 7.02062 144.179 6.95128 144.387 6.93185C144.601 6.91432 144.825 6.94814 145.061 7.03333L146.184 7.43938Z" fill="white"/>
<path d="M155.035 10.4944L152.436 15.7326L153.072 16.0481L155.671 10.8099L155.035 10.4944ZM157.728 11.8306L154.251 13.1828L155.243 17.1244L156.028 17.5142L155.029 13.5502L158.514 12.2204L157.728 11.8306Z" fill="white"/>
<path d="M160.589 16.6687C160.757 16.3865 160.958 16.1529 161.191 15.9679C161.432 15.781 161.692 15.6504 161.969 15.576C162.247 15.5017 162.529 15.4851 162.816 15.5263C163.11 15.5656 163.393 15.6665 163.666 15.829C163.939 15.9915 164.16 16.1914 164.33 16.4287C164.507 16.6641 164.629 16.9216 164.696 17.2012C164.762 17.4808 164.769 17.7697 164.714 18.0678C164.667 18.364 164.56 18.6532 164.391 18.9355C164.223 19.2177 164.019 19.4522 163.777 19.6392C163.544 19.8242 163.288 19.9538 163.011 20.0282C162.733 20.1025 162.447 20.1201 162.153 20.0808C161.866 20.0396 161.587 19.9378 161.314 19.7752C161.041 19.6127 160.816 19.4138 160.639 19.1784C160.469 18.9411 160.351 18.6826 160.284 18.403C160.217 18.1234 160.208 17.8354 160.255 17.5393C160.309 17.2411 160.42 16.951 160.589 16.6687ZM159.943 16.2838C159.726 16.6474 159.586 17.024 159.522 17.4139C159.463 17.8066 159.479 18.1885 159.568 18.5598C159.661 18.9262 159.823 19.2691 160.054 19.5884C160.288 19.9028 160.587 20.1684 160.95 20.3851C161.319 20.6047 161.694 20.7411 162.077 20.7944C162.468 20.8458 162.847 20.8251 163.213 20.7324C163.583 20.6349 163.924 20.4653 164.236 20.2238C164.553 19.985 164.82 19.6839 165.037 19.3204C165.257 18.9521 165.395 18.5739 165.451 18.186C165.515 17.7962 165.5 17.4181 165.407 17.0516C165.317 16.6804 165.156 16.3375 164.922 16.023C164.695 15.7066 164.398 15.4386 164.03 15.2191C163.666 15.0024 163.289 14.8684 162.898 14.817C162.51 14.7608 162.132 14.7815 161.762 14.879C161.396 14.9717 161.054 15.1375 160.737 15.3762C160.427 15.613 160.162 15.9155 159.943 16.2838Z" fill="white"/>
<path d="M172.945 21.226L169.713 18.9249L167.582 21.919C167.452 22.1005 167.319 22.2587 167.182 22.3935C167.045 22.5284 166.908 22.6354 166.769 22.7146C166.634 22.7893 166.505 22.8309 166.383 22.8395C166.261 22.8481 166.147 22.8153 166.043 22.741L165.689 23.2378C165.948 23.4219 166.217 23.5004 166.496 23.4734C166.779 23.4497 167.053 23.3437 167.317 23.1556C167.585 22.9707 167.822 22.733 168.029 22.4427L169.87 19.8569L171.979 21.3586L168.976 25.5776L169.554 25.9893L172.945 21.226Z" fill="white"/>
<path d="M179.475 26.4502L176.43 23.9071L174.074 26.7282C173.931 26.8991 173.787 27.0466 173.64 27.1705C173.493 27.2944 173.347 27.3905 173.203 27.4588C173.062 27.5229 172.931 27.5545 172.808 27.5536C172.686 27.5528 172.575 27.5113 172.477 27.4292L172.086 27.8973C172.33 28.1007 172.592 28.1997 172.872 28.1943C173.156 28.1924 173.437 28.1079 173.715 27.9406C173.997 27.7769 174.252 27.5583 174.48 27.2847L176.515 24.8483L178.502 26.508L175.183 30.4832L175.728 30.9383L179.475 26.4502Z" fill="white"/>
<path d="M178.799 33.7258L180.923 35.7715L181.387 35.2902L179.263 33.2445L178.799 33.7258ZM182.392 29.9961L184.516 32.0418L184.98 31.5605L182.856 29.5148L182.392 29.9961ZM180.77 31.6805L182.773 33.6103L183.237 33.129L181.233 31.1992L180.77 31.6805ZM182.573 29.2425L178.517 33.4534L179.028 33.946L183.085 29.7351L182.573 29.2425Z" fill="white"/>
<path d="M187.569 34.2221L183.24 38.1523L183.717 38.678L188.047 34.7478L187.569 34.2221ZM189.591 36.4486L185.86 36.4398L185.346 40.4715L185.935 41.1209L186.45 37.0656L190.18 37.098L189.591 36.4486Z" fill="white"/>
<path d="M188.887 43.6103L192.979 40.4349L192.543 39.874L187.924 43.4591L190.818 47.1873L190.092 47.7507L190.476 48.2456L191.73 47.2725L191.295 46.7116L195.386 43.5362L194.95 42.9753L190.859 46.1507L188.887 43.6103Z" fill="white"/>
<path d="M200.183 51.9848L201.117 51.4294L193.86 50.0597L192.926 50.615L200.183 51.9848ZM198.465 47.8728L198.079 47.277L192.926 50.615L194.083 50.7113L198.465 47.8728ZM201.117 51.4294L199.96 51.3331L195.579 54.1716L195.965 54.7675L201.117 51.4294Z" fill="white"/>
<path d="M201.419 58.5272L201.04 57.83L197.511 57.3711L197.929 58.1418L201.419 58.5272ZM204.523 58.0288L204.184 57.405L199.046 60.1968L199.385 60.8206L204.523 58.0288ZM203.785 57.983L204.335 57.6839L203.765 56.6343C203.587 56.3065 203.362 56.0451 203.091 55.85C202.826 55.6522 202.535 55.5376 202.22 55.506C201.908 55.4792 201.592 55.5523 201.274 55.7251C200.961 55.8953 200.728 56.12 200.576 56.3993C200.431 56.6809 200.367 56.9883 200.383 57.3217C200.404 57.6523 200.504 57.9816 200.682 58.3094L201.253 59.359L201.803 59.0598L201.233 58.0103C201.113 57.7901 201.046 57.5731 201.031 57.3593C201.019 57.1505 201.06 56.9572 201.153 56.7796C201.25 56.6068 201.403 56.4633 201.613 56.349C201.824 56.2346 202.028 56.1841 202.225 56.1973C202.425 56.2154 202.609 56.2863 202.778 56.4101C202.949 56.5388 203.095 56.7133 203.214 56.9335L203.785 57.983Z" fill="white"/>
<path d="M213.985 108.926L213.89 112.935L214.558 112.95L214.653 108.942L213.985 108.926ZM216.908 112.529L211.062 112.392L211.046 113.102L216.891 113.239L216.908 112.529ZM217 108.605L211.155 108.467L211.138 109.177L216.983 109.314L217 108.605Z" fill="white"/>
<path d="M213.688 117.516C214.015 117.551 214.311 117.636 214.577 117.771C214.847 117.912 215.074 118.093 215.258 118.314C215.441 118.536 215.574 118.785 215.656 119.063C215.744 119.347 215.77 119.646 215.736 119.962C215.703 120.277 215.613 120.562 215.469 120.815C215.329 121.075 215.146 121.293 214.92 121.47C214.693 121.648 214.434 121.774 214.14 121.849C213.851 121.93 213.543 121.953 213.217 121.918C212.89 121.883 212.591 121.795 212.321 121.654C212.055 121.519 211.831 121.341 211.647 121.12C211.464 120.899 211.328 120.646 211.241 120.362C211.159 120.085 211.135 119.788 211.168 119.473C211.202 119.157 211.289 118.869 211.429 118.61C211.574 118.357 211.759 118.141 211.985 117.964C212.212 117.787 212.469 117.657 212.758 117.576C213.051 117.501 213.362 117.481 213.688 117.516ZM213.768 116.769C213.347 116.724 212.947 116.754 212.566 116.858C212.184 116.969 211.844 117.142 211.544 117.379C211.25 117.616 211.006 117.907 210.812 118.25C210.624 118.594 210.508 118.976 210.463 119.397C210.417 119.823 210.45 120.222 210.561 120.592C210.678 120.969 210.855 121.304 211.092 121.598C211.335 121.893 211.631 122.132 211.981 122.315C212.331 122.504 212.716 122.621 213.137 122.666C213.563 122.711 213.964 122.679 214.34 122.568C214.721 122.463 215.059 122.292 215.353 122.054C215.653 121.818 215.896 121.527 216.084 121.184C216.277 120.846 216.397 120.464 216.442 120.037C216.488 119.617 216.452 119.218 216.335 118.841C216.224 118.466 216.047 118.13 215.805 117.835C215.567 117.541 215.274 117.3 214.924 117.111C214.58 116.928 214.195 116.814 213.768 116.769Z" fill="white"/>
<path d="M212.669 126.583L212.496 127.511C212.432 127.856 212.426 128.164 212.477 128.434C212.528 128.709 212.636 128.936 212.801 129.114C212.966 129.292 213.183 129.406 213.451 129.456C213.698 129.502 213.919 129.5 214.115 129.452C214.311 129.403 214.481 129.313 214.624 129.181C214.772 129.056 214.893 128.894 214.986 128.696C215.085 128.499 215.158 128.272 215.206 128.015L215.481 126.537L209.732 125.468L209.442 127.029C209.373 127.401 209.372 127.743 209.438 128.056C209.509 128.375 209.652 128.642 209.867 128.858C210.086 129.08 210.385 129.226 210.762 129.296C211.025 129.345 211.262 129.338 211.472 129.275C211.682 129.212 211.863 129.101 212.018 128.943C212.176 128.791 212.307 128.603 212.411 128.379C212.515 128.155 212.593 127.903 212.645 127.624L212.833 126.614L212.447 126.542L212.259 127.552C212.224 127.738 212.168 127.903 212.091 128.048C212.018 128.193 211.925 128.311 211.812 128.404C211.697 128.501 211.566 128.568 211.418 128.602C211.27 128.637 211.108 128.638 210.933 128.606C210.698 128.562 210.508 128.47 210.364 128.33C210.219 128.195 210.121 128.024 210.069 127.816C210.016 127.614 210.012 127.389 210.058 127.143L210.218 126.281L214.735 127.12L214.59 127.9C214.536 128.191 214.415 128.417 214.226 128.58C214.043 128.745 213.814 128.801 213.54 128.75C213.359 128.717 213.214 128.644 213.105 128.533C212.995 128.422 212.922 128.284 212.884 128.119C212.847 127.953 212.846 127.775 212.882 127.583L213.055 126.655L212.669 126.583Z" fill="white"/>
<path d="M209.886 133.394L209.101 136.383L209.811 136.311L210.469 133.806L209.886 133.394ZM212.18 135.577L209.647 135.948L209.469 135.97L207.313 136.285L207.112 137.053L213.739 135.986L208.491 131.801L208.289 132.569L210.056 133.931L210.184 134.034L212.18 135.577Z" fill="white"/>
<path d="M208.17 143.131L208.427 142.38L206.376 139.471L206.092 140.301L208.17 143.131ZM210.637 145.079L210.867 144.408L205.335 142.514L205.105 143.186L210.637 145.079ZM210.171 144.505L210.764 144.708L211.151 143.578C211.272 143.225 211.312 142.883 211.273 142.551C211.238 142.222 211.126 141.93 210.936 141.677C210.745 141.429 210.478 141.246 210.135 141.129C209.798 141.013 209.475 140.994 209.166 141.071C208.861 141.155 208.591 141.315 208.357 141.553C208.127 141.792 207.952 142.089 207.832 142.442L207.445 143.572L208.038 143.775L208.424 142.644C208.506 142.407 208.62 142.211 208.767 142.056C208.913 141.905 209.083 141.804 209.277 141.753C209.469 141.707 209.679 141.723 209.905 141.801C210.132 141.878 210.307 141.994 210.431 142.148C210.553 142.308 210.625 142.491 210.648 142.699C210.669 142.913 210.639 143.138 210.558 143.375L210.171 144.505Z" fill="white"/>
<path d="M207.268 153.406L201.986 150.898L201.681 151.539L206.963 154.048L207.268 153.406ZM205.977 156.122L204.566 152.669L200.642 153.727L200.266 154.519L204.212 153.453L205.601 156.915L205.977 156.122Z" fill="white"/>
<path d="M201.189 159.065C201.474 159.228 201.711 159.425 201.9 159.655C202.091 159.893 202.226 160.15 202.305 160.426C202.384 160.703 202.405 160.985 202.369 161.272C202.335 161.567 202.239 161.852 202.081 162.127C201.923 162.403 201.727 162.627 201.493 162.801C201.26 162.982 201.005 163.109 200.726 163.18C200.448 163.252 200.159 163.263 199.86 163.213C199.563 163.171 199.272 163.069 198.987 162.905C198.702 162.742 198.464 162.541 198.273 162.304C198.084 162.073 197.95 161.82 197.871 161.544C197.792 161.267 197.77 160.982 197.804 160.687C197.84 160.399 197.937 160.118 198.095 159.843C198.253 159.567 198.448 159.339 198.68 159.158C198.915 158.984 199.171 158.861 199.45 158.79C199.728 158.718 200.016 158.704 200.313 158.745C200.612 158.795 200.904 158.901 201.189 159.065ZM201.563 158.412C201.196 158.202 200.817 158.068 200.426 158.011C200.032 157.959 199.65 157.981 199.281 158.077C198.916 158.176 198.576 158.343 198.261 158.58C197.95 158.819 197.69 159.122 197.479 159.49C197.266 159.862 197.136 160.24 197.089 160.624C197.044 161.015 197.072 161.393 197.171 161.758C197.274 162.126 197.45 162.464 197.697 162.772C197.941 163.085 198.246 163.347 198.613 163.558C198.985 163.771 199.366 163.902 199.755 163.952C200.146 164.009 200.523 163.988 200.888 163.889C201.258 163.793 201.598 163.625 201.908 163.386C202.221 163.154 202.484 162.852 202.697 162.48C202.907 162.113 203.035 161.734 203.08 161.342C203.129 160.953 203.102 160.575 202.998 160.208C202.899 159.843 202.728 159.504 202.484 159.191C202.242 158.885 201.935 158.626 201.563 158.412Z" fill="white"/>
<path d="M196.843 171.497L199.089 168.226L196.059 166.146C195.875 166.02 195.714 165.89 195.577 165.755C195.44 165.62 195.331 165.484 195.249 165.347C195.172 165.213 195.128 165.085 195.118 164.963C195.107 164.841 195.138 164.727 195.21 164.622L194.708 164.276C194.528 164.538 194.454 164.808 194.486 165.087C194.514 165.37 194.625 165.642 194.818 165.902C195.007 166.167 195.249 166.401 195.543 166.602L198.159 168.399L196.694 170.534L192.424 167.603L192.022 168.188L196.843 171.497Z" fill="white"/>
<path d="M191.731 178.115L194.222 175.027L191.361 172.72C191.187 172.58 191.037 172.438 190.911 172.293C190.785 172.148 190.686 172.004 190.615 171.861C190.549 171.722 190.515 171.591 190.514 171.468C190.513 171.345 190.552 171.234 190.633 171.134L190.158 170.752C189.959 170.999 189.864 171.262 189.874 171.542C189.881 171.827 189.97 172.106 190.142 172.381C190.311 172.66 190.534 172.911 190.811 173.135L193.282 175.128L191.656 177.143L187.625 173.892L187.179 174.445L191.731 178.115Z" fill="white"/>
<path d="M184.445 177.563L182.435 179.721L182.924 180.177L184.934 178.019L184.445 177.563ZM188.235 181.092L186.226 183.25L186.715 183.706L188.724 181.548L188.235 181.092ZM186.523 179.499L184.628 181.534L185.117 181.99L187.012 179.954L186.523 179.499ZM188.992 181.26L184.712 177.276L184.228 177.796L188.508 181.78L188.992 181.26Z" fill="white"/>
<path d="M184.098 186.34L180.094 182.079L179.577 182.565L183.58 186.827L184.098 186.34ZM181.906 188.399L181.851 184.669L177.811 184.224L177.172 184.824L181.236 185.27L181.267 189L181.906 188.399Z" fill="white"/>
<path d="M174.733 187.818L177.978 191.855L178.532 191.41L174.868 186.853L171.19 189.81L170.614 189.093L170.126 189.486L171.12 190.723L171.674 190.278L174.918 194.314L175.472 193.87L172.227 189.833L174.733 187.818Z" fill="white"/>
<path d="M166.553 199.255L167.124 200.18L168.37 192.9L167.799 191.976L166.553 199.255ZM170.635 197.467L171.224 197.071L167.799 191.976L167.722 193.135L170.635 197.467ZM167.124 200.18L167.201 199.021L164.288 194.689L163.699 195.085L167.124 200.18Z" fill="white"/>
<path d="M160.032 200.602L160.723 200.211L161.122 196.675L160.358 197.107L160.032 200.602ZM160.584 203.697L161.202 203.347L158.323 198.258L157.705 198.608L160.584 203.697ZM160.617 202.958L160.925 203.504L161.965 202.916C162.29 202.732 162.547 202.503 162.738 202.229C162.931 201.96 163.041 201.667 163.067 201.352C163.088 201.039 163.01 200.725 162.832 200.41C162.656 200.1 162.427 199.871 162.146 199.723C161.862 199.583 161.553 199.524 161.22 199.546C160.89 199.573 160.562 199.678 160.238 199.862L159.198 200.45L159.506 200.995L160.546 200.407C160.764 200.284 160.98 200.213 161.193 200.195C161.402 200.179 161.596 200.216 161.775 200.307C161.95 200.4 162.096 200.551 162.214 200.76C162.332 200.968 162.386 201.171 162.376 201.368C162.361 201.569 162.293 201.754 162.172 201.925C162.047 202.098 161.875 202.247 161.656 202.37L160.617 202.958Z" fill="white"/>
<path d="M85.2348 6.61286C85.2348 7.20655 84.7566 7.68543 84.1697 7.68543C83.5828 7.68543 83.1045 7.20655 83.1045 6.61286C83.1045 6.01916 83.5828 5.54028 84.1697 5.54028C84.7566 5.54028 85.2348 6.01916 85.2348 6.61286Z" stroke="white" stroke-width="0.5"/>
<path d="M211.489 80.6771C211.489 81.2708 211.011 81.7496 210.424 81.7496C209.837 81.7496 209.359 81.2708 209.359 80.6771C209.359 80.0834 209.837 79.6045 210.424 79.6045C211.011 79.6045 211.489 80.0834 211.489 80.6771Z" stroke="white" stroke-width="0.5"/>
<path d="M135.211 211.612C135.211 212.206 134.732 212.685 134.145 212.685C133.559 212.685 133.08 212.206 133.08 211.612C133.08 211.018 133.559 210.54 134.145 210.54C134.732 210.54 135.211 211.018 135.211 211.612Z" stroke="white" stroke-width="0.5"/>
<path d="M6.32576 129.612C6.32576 130.206 5.84755 130.685 5.26061 130.685C4.67366 130.685 4.19545 130.206 4.19545 129.612C4.19545 129.019 4.67366 128.54 5.26061 128.54C5.84755 128.54 6.32576 129.019 6.32576 129.612Z" stroke="white" stroke-width="0.5"/>
</svg>
