<svg width="75" height="23" viewBox="0 0 75 23" fill="none" xmlns="http://www.w3.org/2000/svg">
<path d="M6.19211 0.69242C4.80011 0.69242 2.30411 2.91288 0.000106812 5.66433L0.384107 6.0505C1.34411 4.94027 3.64811 2.91288 5.23211 2.04401C3.98411 8.85021 2.68811 15.6564 1.39211 22.4626H4.94411L5.42411 19.9043C6.86411 12.2775 12.2881 2.3819 15.3121 2.3819C16.5601 2.3819 16.9921 3.29905 16.9921 4.50583C16.9921 5.32643 16.8001 6.34012 16.6081 7.25727L13.8241 19.6146C13.7281 20.0973 13.6321 20.5318 13.6321 20.918C13.6321 22.3661 14.4001 22.9936 15.8401 22.9936C17.2801 22.9936 19.6321 21.0145 22.1281 18.3596L21.7441 17.9734C20.8321 18.9388 18.1441 21.0628 16.9921 21.5937L20.1121 7.209C20.2561 6.53321 20.4001 5.08508 20.4001 4.5541C20.4001 2.47845 19.5361 0.788962 16.8001 0.788962C14.5921 0.788962 10.4641 3.49214 6.48011 14.1117H6.38411C7.29611 10.6845 8.59211 4.50583 8.59211 3.00943C8.59211 1.60957 7.82411 0.69242 6.19211 0.69242Z" fill="white"/>
<path d="M32.0919 22.9936C36.2679 22.9936 39.5319 20.0973 41.3079 17.9734L40.9239 17.6355C38.6679 20.0008 36.1719 21.4489 33.7239 21.4489C30.7479 21.4489 28.9239 19.1802 28.9239 14.8841C28.9239 14.4014 28.9719 13.7739 29.0679 13.2429C36.3159 12.2292 42.5079 9.57428 42.5079 5.27816C42.5079 2.43018 40.4919 0.788962 37.2759 0.788962C28.7799 0.788962 25.1319 8.80194 25.1319 15.3668C25.1319 20.1456 27.8199 22.9936 32.0919 22.9936ZM29.1159 12.4705C30.2199 5.90568 32.8119 1.60957 36.4119 1.60957C37.8519 1.60957 38.8119 2.62326 38.8119 4.45756C38.8119 8.07788 35.7879 11.843 29.1159 12.4705Z" fill="white"/>
<path d="M60.1782 0.788962C58.1142 0.788962 55.8582 4.69891 54.8502 6.53321C54.9942 6.67802 55.1382 6.72629 55.2822 6.8711C56.5302 4.98854 57.6342 3.39559 59.0742 2.18882C59.2662 3.58868 59.5062 5.51952 59.6982 7.59517C57.8742 11.2155 54.8502 15.753 52.6422 18.5044C52.4022 12.6636 51.7302 6.48494 51.3942 3.92658C51.1542 2.3819 50.7702 0.788962 48.7062 0.788962C46.6422 0.788962 44.3862 4.69891 43.3302 6.58148C43.4742 6.67802 43.6182 6.77456 43.7622 6.91937C45.0582 5.03681 46.1622 3.44387 47.6022 2.23709C48.2742 6.82283 49.1382 16.6218 49.3782 22.8488H50.1462C52.5942 20.0491 57.2022 13.629 59.8422 8.89848C60.2742 13.4842 60.7062 18.8906 60.8502 22.8488H61.6182C66.5142 16.6218 74.0022 8.65713 74.0022 3.15424C74.0022 1.41649 72.9942 0.547607 71.6982 0.547607C70.1622 0.547607 69.7302 1.99574 69.7302 2.76807C69.7302 4.65064 71.5062 5.66433 72.6582 5.80914C71.1702 9.91217 67.6662 14.4014 64.1622 18.6009H64.0182C63.8262 12.8084 63.2502 6.53321 62.9142 3.97485C62.7222 2.3819 62.2422 0.788962 60.1782 0.788962Z" fill="white"/>
</svg>
