<svg xmlns="http://www.w3.org/2000/svg" viewBox="0 0 100.55 22.28"><defs><style>.cls-1{fill:#544d46;}.cls-2{fill:none;stroke:#544d46;}</style></defs><title>ecoOlskaРесурс 1</title><g id="Слой_2" data-name="Слой 2"><g id="Слой_1-2" data-name="Слой 1"><g id="Слой_2-2" data-name="Слой 2"><g id="Слой_1-2-2" data-name="Слой 1-2"><path class="cls-1" d="M90.14,11.09h.3a3.35,3.35,0,0,1,1.41-1.45,4.22,4.22,0,0,1,2-.51,2.82,2.82,0,0,1,1.4.31,2.68,2.68,0,0,1,.94.8,3.29,3.29,0,0,1,.52,1.16,5.4,5.4,0,0,1,.17,1.39,2.42,2.42,0,0,1-.08.71.81.81,0,0,1-.48.48,5.34,5.34,0,0,1-1.23.39c-.56.13-1.34.27-2.33.45a5.45,5.45,0,0,0-2.84,1.27,3.44,3.44,0,0,0-1,2.7,3.3,3.3,0,0,0,.32,1.49,3.77,3.77,0,0,0,.82,1.12,2.91,2.91,0,0,0,1.17.67,4.43,4.43,0,0,0,1.35.21A5.1,5.1,0,0,0,95,21.79a7.37,7.37,0,0,0,1.94-1.53,2,2,0,0,0,.56,1.23A1.83,1.83,0,0,0,98.8,22a5.55,5.55,0,0,0,1-.09,2.83,2.83,0,0,0,.75-.23V21a.63.63,0,0,1-.29.1H100a.83.83,0,0,1-.62-.21A1.19,1.19,0,0,1,99,20.4a2.07,2.07,0,0,1-.13-.7V12.2a4.44,4.44,0,0,0-.33-1.76,4.21,4.21,0,0,0-.91-1.37,3.88,3.88,0,0,0-1.41-.87,5.07,5.07,0,0,0-1.81-.31,6.81,6.81,0,0,0-2.15.34,7.93,7.93,0,0,0-2.16,1.35Zm6.7,8a4.21,4.21,0,0,1-1.33,1.42,3.2,3.2,0,0,1-1.91.61,2.38,2.38,0,0,1-1.65-.7,2.72,2.72,0,0,1-.75-2.07A2.77,2.77,0,0,1,91.48,17a2.67,2.67,0,0,1,.77-.87,4.2,4.2,0,0,1,1.1-.55c.41-.13.83-.24,1.25-.33L95.85,15a8.34,8.34,0,0,0,1.09-.29ZM76,8.41v9.7c0,.75,0,1.47-.06,2.15S75.83,21.5,75.8,22q.63-.06,1.23-.06a8.65,8.65,0,0,1,1.24.06c-.09-.83-.15-1.66-.18-2.48s0-1.67,0-2.54V15.19c0-.24.09-.35.27-.35a.36.36,0,0,1,.22.09.61.61,0,0,1,.19.2c.33.37.73.83,1.19,1.4l1.45,1.8c.51.64,1,1.29,1.53,1.93s1,1.22,1.38,1.71a4.52,4.52,0,0,1,.74-.06h1.39a4.35,4.35,0,0,1,.84.06c-1.16-1.3-2.3-2.61-3.41-4s-2.19-2.68-3.24-4q1.42-1.47,3-2.91c1-1,2.16-1.93,3.31-2.91l-.77.1a3.11,3.11,0,0,1-.61,0,4.24,4.24,0,0,1-1-.15c-.42.53-.89,1.08-1.4,1.66s-1,1.12-1.49,1.63l-1.44,1.42a10.21,10.21,0,0,1-.84.78c-.22.18-.41.33-.59.46a.78.78,0,0,1-.48.21c-.22,0-.33-.19-.33-.56V4c0-.75,0-1.48.07-2.17s.05-1.27.09-1.75A7.36,7.36,0,0,1,76.92.2,6.47,6.47,0,0,1,75.68.05c0,.48.07,1.07.1,1.76s.06,1.41.08,2.16,0,1.52,0,2.29V8.41M64.51,19.22h-.37A4.35,4.35,0,0,1,64,20.3a7.36,7.36,0,0,1-.34,1,6.25,6.25,0,0,0,1.43.62,7.21,7.21,0,0,0,2.12.26,5.38,5.38,0,0,0,2.06-.35,4.59,4.59,0,0,0,2.53-2.48,4,4,0,0,0,.37-1.64,3.09,3.09,0,0,0-1.67-3,6.67,6.67,0,0,0-1.57-.62,10.66,10.66,0,0,1-1.57-.51,3.33,3.33,0,0,1-1.2-.8,2,2,0,0,1-.48-1.44,2.46,2.46,0,0,1,.22-1.1,2.29,2.29,0,0,1,.54-.76A2.44,2.44,0,0,1,68,8.91a2.32,2.32,0,0,1,1.57.55,2.77,2.77,0,0,1,.85,1.25h.33a8.6,8.6,0,0,1,.25-1,7.24,7.24,0,0,1,.41-1c-.42-.15-.87-.33-1.34-.52a4.22,4.22,0,0,0-1.72-.3,5.26,5.26,0,0,0-2,.33,4.11,4.11,0,0,0-1.42.91A3.79,3.79,0,0,0,64,10.51a5,5,0,0,0-.3,1.76,3.22,3.22,0,0,0,.49,1.91,3.7,3.7,0,0,0,1.2,1.13A6,6,0,0,0,67,16a14.38,14.38,0,0,1,1.56.54,3.85,3.85,0,0,1,1.2.79,1.88,1.88,0,0,1,.49,1.38,2.64,2.64,0,0,1-.17,1,2.53,2.53,0,0,1-.59.82,2.77,2.77,0,0,1-.85.49,3.09,3.09,0,0,1-1,.17A2.93,2.93,0,0,1,66.54,21a3.54,3.54,0,0,1-.91-.51,3.88,3.88,0,0,1-.69-.65,4,4,0,0,1-.43-.64M57.28,8.37v9.7c0,.76,0,1.47-.06,2.14s-.08,1.24-.08,1.69q.63-.06,1.23-.06a7.43,7.43,0,0,1,1.24.07c0-.45-.07-1-.1-1.69s0-1.39-.07-2.15,0-1.52,0-2.29,0-1.49,0-2.15V3.93c0-.75,0-1.48.06-2.16s.06-1.28.1-1.76a7.36,7.36,0,0,1-1.24.14A6.47,6.47,0,0,1,57.07,0c0,.49.07,1.07.1,1.76s.06,1.41.08,2.16,0,1.52,0,2.3V8.37m-16.38,10a6.25,6.25,0,0,0,1.56,2.24,5.63,5.63,0,0,0,2.16,1.21,8.31,8.31,0,0,0,2.38.35,8.14,8.14,0,0,0,2.4-.34,5.74,5.74,0,0,0,2.14-1.2,6.35,6.35,0,0,0,1.63-2.24A8.73,8.73,0,0,0,53.72,15a8.4,8.4,0,0,0-.6-3.36,6.25,6.25,0,0,0-1.56-2.24,6,6,0,0,0-2.15-1.25,7.4,7.4,0,0,0-4.77,0,5.8,5.8,0,0,0-2.15,1.24,6.07,6.07,0,0,0-1.55,2.23A8.49,8.49,0,0,0,40.35,15a8.77,8.77,0,0,0,.6,3.36m2-5.7a6.44,6.44,0,0,1,.7-2A3.85,3.85,0,0,1,45,9.26a4.07,4.07,0,0,1,4,0,3.84,3.84,0,0,1,1.36,1.44,6.72,6.72,0,0,1,.71,2,13.25,13.25,0,0,1,.21,2.35,14.25,14.25,0,0,1-.2,2.35,6.44,6.44,0,0,1-.7,2A3.82,3.82,0,0,1,49,20.81a4.21,4.21,0,0,1-4.07,0,4,4,0,0,1-1.33-1.41,6.44,6.44,0,0,1-.7-2,13.25,13.25,0,0,1,0-4.7M25.2,18.32a6.25,6.25,0,0,0,1.56,2.24,5.51,5.51,0,0,0,2.16,1.21,8.31,8.31,0,0,0,2.38.35,8.08,8.08,0,0,0,2.39-.34,5.45,5.45,0,0,0,2.15-1.2,6.16,6.16,0,0,0,1.54-2.23A8.49,8.49,0,0,0,38,15a8.77,8.77,0,0,0-.6-3.36,6,6,0,0,0-3.71-3.49,7.4,7.4,0,0,0-4.77,0,6.06,6.06,0,0,0-2.16,1.24,6.16,6.16,0,0,0-1.54,2.23A8.49,8.49,0,0,0,24.6,15a8.77,8.77,0,0,0,.6,3.36m2-5.7a6.44,6.44,0,0,1,.7-2,3.85,3.85,0,0,1,1.32-1.4,4.19,4.19,0,0,1,4.06,0,3.83,3.83,0,0,1,1.33,1.41,6.72,6.72,0,0,1,.71,2A15.43,15.43,0,0,1,35.53,15a14.25,14.25,0,0,1-.2,2.35,6.44,6.44,0,0,1-.7,2,3.88,3.88,0,0,1-1.32,1.41,3.8,3.8,0,0,1-2,.51,3.71,3.71,0,0,1-2-.53A3.88,3.88,0,0,1,28,19.31a6.72,6.72,0,0,1-.71-2,13.74,13.74,0,0,1,0-4.7M12.33,18.27a6.34,6.34,0,0,0,1.56,2.23,5.63,5.63,0,0,0,2.16,1.21,8,8,0,0,0,2.38.37A7,7,0,0,0,21,21.6a7.51,7.51,0,0,0,2-1.19A9.66,9.66,0,0,1,23.14,19L23,18.91a4.9,4.9,0,0,1-.83.81,5.91,5.91,0,0,1-1,.65A5.72,5.72,0,0,1,20,20.8a3.84,3.84,0,0,1-1.12.16,4.27,4.27,0,0,1-3.56-1.53,7.18,7.18,0,0,1-1.22-4.52,11.48,11.48,0,0,1,.26-2.48,5.64,5.64,0,0,1,.82-2,4,4,0,0,1,1.45-1.32,4.48,4.48,0,0,1,2.13-.47A3.13,3.13,0,0,1,20,8.86a4.24,4.24,0,0,1,1,.55,4.5,4.5,0,0,1,.78.73,4.57,4.57,0,0,1,.53.77h.22c.07-.34.16-.67.26-1a8.79,8.79,0,0,1,.34-.9,4.71,4.71,0,0,0-1.72-.89,8.32,8.32,0,0,0-2.71-.4,8.45,8.45,0,0,0-2.59.41,6.18,6.18,0,0,0-2.23,1.3,6.49,6.49,0,0,0-1.56,2.28,8.05,8.05,0,0,0-.6,3.25,8.67,8.67,0,0,0,.6,3.34M.2,9.3v5c0,1.28,0,2.53-.06,3.76S.05,20.53,0,21.77c.84,0,1.68-.06,2.5-.06h5q1.23,0,2.46.06A3.19,3.19,0,0,1,9.88,21v-.45a2.34,2.34,0,0,1,.07-.45,13.42,13.42,0,0,1-1.55.21c-.6.05-1.23.08-1.9.11s-1.35,0-2,0h-2V11.92H5.65A14.94,14.94,0,0,1,7.54,12c.63.08,1.19.09,1.67.15a6.4,6.4,0,0,1-.09-.88,5.47,5.47,0,0,1,.08-.9l-1.27.1-1.48.09c-.53,0-1.11,0-1.75.06s-1.37,0-2.18,0V4.87c0-.56,0-1.15.07-1.77H4.9l1.77.1,1.54.12,1.61.12a4.27,4.27,0,0,1-.08-.87,3.66,3.66,0,0,1,.08-.87l-2.45.1H2.46C1.64,1.8.82,1.74,0,1.69.06,2.93.11,4.17.16,5.41s.07,2.5.08,3.78"/><path class="cls-2" d="M46.81,4.85a1.81,1.81,0,0,0,1.81-1.79h0A1.82,1.82,0,0,0,46.8,1.24,1.79,1.79,0,0,0,45,3V3a1.81,1.81,0,0,0,1.81,1.81Z"/></g></g></g></g></svg>