<svg width="350" height="350" viewBox="0 0 350 350" fill="none" xmlns="http://www.w3.org/2000/svg">
<g clip-path="url(#clip0)">
<path d="M291.93 304.346H54.2856C23.2784 304.346 -1.94434 279.124 -1.94434 248.116V98.0908C-1.94434 67.0875 23.2823 41.8608 54.2856 41.8608H291.93C322.933 41.8608 348.156 67.0875 348.156 98.0908V248.116C348.156 279.124 322.933 304.346 291.93 304.346ZM54.2856 58.3039C32.346 58.3039 14.4987 76.1512 14.4987 98.0908V248.116C14.4987 270.056 32.346 287.907 54.2856 287.907H291.93C313.869 287.907 331.717 270.056 331.717 248.116V98.0908C331.717 76.1512 313.869 58.3039 291.93 58.3039H54.2856V58.3039Z" fill="#818D58"/>
<path d="M41.0168 98.8727C83.0444 139.827 125.072 180.777 167.1 221.731C174.934 229.363 186.958 217.366 179.112 209.718C137.084 168.768 95.0567 127.814 53.0291 86.8643C45.1947 79.2282 33.1707 91.2289 41.0168 98.8727Z" fill="#818D58"/>
<path d="M179.112 221.731C221.139 180.781 263.167 139.827 305.194 98.8766C313.037 91.2327 301.02 79.2282 293.182 86.8643C251.155 127.814 209.127 168.768 167.099 209.718C159.257 217.362 171.273 229.367 179.112 221.731Z" fill="#818D58"/>
<path d="M304.732 250.719C276.766 224.197 248.797 197.679 220.832 171.157C212.9 163.637 200.869 175.626 208.82 183.169C236.785 209.691 264.754 236.209 292.719 262.731C300.651 270.251 312.683 258.258 304.732 250.719Z" fill="#818D58"/>
<path d="M54.2506 262.727C82.2158 236.205 110.185 209.687 138.15 183.165C146.097 175.626 134.073 163.63 126.138 171.153C98.1726 197.675 70.2035 224.193 42.2383 250.715C34.291 258.254 46.315 270.254 54.2506 262.727Z" fill="#818D58"/>
</g>
<defs>
<clipPath id="clip0">
<rect width="350" height="350" fill="white"/>
</clipPath>
</defs>
</svg>
