<svg width="349" height="264" viewBox="0 0 349 264" fill="none" xmlns="http://www.w3.org/2000/svg">
<path d="M291.93 263.346H54.2856C23.2784 263.346 -1.94434 238.124 -1.94434 207.116V57.0908C-1.94434 26.0875 23.2823 0.86084 54.2856 0.86084H291.93C322.933 0.86084 348.156 26.0875 348.156 57.0908V207.116C348.156 238.124 322.933 263.346 291.93 263.346ZM54.2856 17.3039C32.346 17.3039 14.4987 35.1512 14.4987 57.0908V207.116C14.4987 229.056 32.346 246.907 54.2856 246.907H291.93C313.869 246.907 331.717 229.056 331.717 207.116V57.0908C331.717 35.1512 313.869 17.3039 291.93 17.3039H54.2856Z" fill="#544D46"/>
<path d="M41.0168 57.8727C83.0444 98.8266 125.072 139.777 167.1 180.731C174.934 188.363 186.958 176.366 179.112 168.718C137.084 127.768 95.0567 86.8143 53.0291 45.8643C45.1947 38.2282 33.1707 50.2289 41.0168 57.8727Z" fill="#544D46"/>
<path d="M179.112 180.731C221.139 139.781 263.167 98.8266 305.194 57.8766C313.037 50.2327 301.02 38.2282 293.182 45.8643C251.155 86.8143 209.127 127.768 167.099 168.718C159.257 176.362 171.273 188.367 179.112 180.731Z" fill="#544D46"/>
<path d="M304.732 209.719C276.766 183.197 248.797 156.679 220.832 130.157C212.9 122.637 200.869 134.626 208.82 142.169C236.785 168.691 264.754 195.209 292.719 221.731C300.651 229.251 312.683 217.258 304.732 209.719Z" fill="#544D46"/>
<path d="M54.2506 221.727C82.2158 195.205 110.185 168.687 138.15 142.165C146.097 134.626 134.073 122.63 126.138 130.153C98.1726 156.675 70.2035 183.193 42.2383 209.715C34.291 217.254 46.315 229.254 54.2506 221.727Z" fill="#544D46"/>
</svg>
