<svg width="217" height="217" viewBox="0 0 217 217" fill="none" xmlns="http://www.w3.org/2000/svg">
<path d="M51.0603 46.5979C50.8274 47.3435 50.5653 55.4566 50.2059 74.0843C50.1194 78.3268 50.0147 86.9992 49.9984 89.9729C49.9858 97.7014 49.9577 99.8082 49.851 106.203C49.5887 121.315 49.2034 135.062 48.9951 136.414C48.731 138.116 48.2043 139.195 47.6001 139.302C46.4145 139.511 44.1571 136.375 42.9177 132.812C42.7281 132.27 42.4069 132.315 41.9902 132.952C41.3334 133.96 41.0939 138.535 41.3385 145.256C41.3951 146.643 41.4152 146.757 41.6183 146.909C42.0742 147.228 42.1407 146.805 42.0531 143.908C41.965 140.742 41.9758 138.403 42.0756 136.636C42.1518 135.202 42.3319 133.89 42.4345 133.872C42.4801 133.864 42.7167 134.339 42.9733 134.928C43.9127 137.122 45.6353 139.425 46.694 139.896C48.1308 140.512 49.1517 139.568 49.6171 137.208C49.8408 136.077 49.9934 132.61 50.2242 123.985C50.5209 112.402 50.7321 100 50.7462 93.4811C50.7469 91.2852 50.7489 89.4296 50.7616 89.3686C50.761 89.2983 51.1312 91.0648 51.557 93.2794C54.0588 106.201 60.6729 125.713 65.2315 133.633C66.3688 135.617 67.2554 137.245 67.1984 137.255C67.1642 137.261 67.0288 137.226 66.88 137.182C66.418 137.029 66.1215 137.281 65.902 138.036C65.5811 139.149 64.9252 139.629 63.7584 139.611C62.546 139.602 62.1365 139.146 61.1951 136.74C60.5559 135.115 60.2972 134.715 59.8982 134.785C59.4194 134.869 59.3475 135.328 59.2982 138.648C59.2885 139.66 59.2123 140.894 59.1504 141.41C59.0362 142.229 59.0469 142.356 59.2212 142.478C59.612 142.761 59.7435 142.574 59.8914 141.479C59.9935 140.792 60.099 138.19 60.0726 136.774C60.072 136.504 60.1023 136.275 60.1365 136.269C60.1821 136.261 60.4307 136.805 60.69 137.475C60.9747 138.224 61.3392 138.958 61.6322 139.352C62.0658 139.945 62.1999 140.039 62.8315 140.221C64.379 140.664 65.8618 140.074 66.4436 138.774C66.5852 138.444 66.7134 138.104 66.7221 138.02C66.7402 137.923 66.9347 137.959 67.3055 138.129C67.7392 138.322 67.9196 138.478 68.1153 138.855C68.2453 139.126 69.5875 141.871 71.108 144.962C76.5467 156.074 78.8764 159.819 83.1175 164.273C86.2922 167.612 88.7949 169.273 90.4572 169.167C91.8534 169.086 92.7048 167.515 92.5251 165.362C92.4423 164.426 92.0589 163.718 91.4917 163.501C90.7964 163.225 90.4516 163.802 91.1187 164.119C91.5317 164.328 91.7709 164.885 91.7827 165.752C91.8099 166.639 91.4521 167.876 91.112 168.148C89.9349 169.072 87.2351 167.493 83.7225 163.838C79.5316 159.469 77.1188 155.585 71.9918 145.041C71.0335 143.072 69.9667 140.889 69.6061 140.177C69.257 139.464 68.9622 138.858 68.9541 138.813C68.928 138.665 70.139 138.933 70.5466 139.178C71.3826 139.653 71.8419 139.724 72.9591 139.527C74.35 139.282 74.7806 138.924 75.2349 137.635L75.4262 137.12L75.8947 140.043C76.4254 143.319 76.5272 143.63 77.0302 143.483C77.3205 143.396 77.3595 143.284 77.6067 141.819C78.1697 138.479 79.1192 134.331 79.3244 134.295C79.484 134.267 79.6824 134.526 80.3761 135.66C81.5409 137.533 82.1737 138.055 83.4022 138.156C84.3563 138.234 85.7613 137.669 86.5629 136.882C86.793 136.654 87.0177 136.461 87.0519 136.455C87.0975 136.447 87.369 136.587 87.6694 136.757C88.3257 137.147 88.9909 137.252 89.3007 137.01C89.4141 136.919 89.5409 136.838 89.5637 136.834C89.5865 136.83 90.0109 138.904 90.4949 141.449C91.7789 148.198 92.9069 152.062 94.7597 156.103C97.0748 161.167 100.185 164.34 103.33 164.843C104.212 164.981 105.257 164.773 105.876 164.347C107.717 163.059 109.383 158.574 110.36 152.248C110.525 151.116 110.717 150.272 110.767 150.357C110.994 150.775 112.275 156.842 112.966 160.83C113.826 165.704 113.956 167.043 113.989 170.96C114.032 176.342 113.413 179.363 112.164 179.877C111.889 179.984 111.746 179.974 111.507 179.816C110.882 179.41 110.548 178.048 110.065 173.906C109.758 171.166 109.554 170.474 109.109 170.552C108.824 170.602 108.826 170.614 108.982 171.631C109.069 172.191 109.292 173.854 109.465 175.303C109.723 177.301 109.874 178.155 110.077 178.777C110.613 180.35 111.26 180.882 112.254 180.589C114.076 180.056 114.783 177.266 114.723 170.795C114.691 166.808 114.616 166.117 113.582 160.252C112.887 156.312 112.416 153.976 111.797 151.396L110.956 147.893L111.181 145.105C111.502 141.256 111.765 134.552 111.708 131.826C111.7 131.651 111.941 131.48 112.729 131.082C115.877 129.47 118.446 127.644 120.391 125.61C121.045 124.919 121.078 124.902 121.262 125.08C121.375 125.19 121.528 125.456 121.602 125.678C121.835 126.33 121.913 126.375 122.367 126.013C123.111 125.435 123.345 125.03 123.542 124.009L123.677 123.245L123.769 123.699C123.909 124.426 124.44 125.636 124.877 126.251C125.45 127.031 126.323 127.652 126.756 127.576C127.176 127.49 127.391 127.241 127.942 126.098C128.461 125.044 128.699 124.791 129.012 124.97C129.129 125.032 129.756 125.591 130.392 126.195C132.016 127.74 132.909 128.135 133.961 127.773C134.529 127.591 135.02 127.046 135.294 126.329C135.526 125.712 135.813 125.274 135.984 125.244C136.064 125.23 136.78 126.09 137.591 127.156C139.799 130.078 140.882 130.956 142.022 130.755C143.835 130.435 144.735 128.409 145.462 123.068C146.053 118.619 146.565 112.787 147.965 94.5978C148.917 82.1947 149.085 79.617 149.197 75.6519C149.264 73.6321 149.33 72.0706 149.346 72.1617C149.373 72.2508 149.457 73.4573 149.545 74.8272C149.801 79.0093 150.091 81.1892 150.983 85.8462C151.431 88.1861 151.996 90.8577 152.219 91.7928C155.791 106.181 159.611 116.381 164.599 124.872C167.704 130.148 170.548 133.944 173.447 136.651C175.854 138.903 177.779 140.22 179.548 140.788C180.772 141.195 181.677 141.259 182.896 141.043C184.128 140.826 184.924 140.475 186.111 139.608C187.245 138.774 187.735 138.218 187.584 137.962C187.418 137.686 187.072 137.794 186.573 138.293C185.511 139.338 184.03 140.139 182.776 140.36C180.3 140.785 177.852 139.632 174.094 136.255C170.404 132.925 165.476 125.645 161.895 118.198C158.596 111.358 155.212 101.164 152.683 90.4195C151.825 86.8249 150.711 80.3049 150.489 77.7137C150.151 73.5932 149.923 68.3024 149.767 61.085C149.747 60.1726 149.684 59.35 149.634 59.2649C149.57 59.1705 149.397 59.1189 149.249 59.145C148.884 59.2093 148.91 58.9581 148.749 65.0455C148.666 67.7726 148.57 71.4295 148.527 73.1867C148.374 79.0496 148.301 80.2366 147.671 88.6612C145.099 122.474 144.589 126.979 143.062 129.186C142.35 130.216 141.706 130.294 140.65 129.506C139.989 129.023 139.664 128.646 138.082 126.541C137.313 125.515 136.601 124.677 136.406 124.571C135.849 124.281 135.214 124.675 134.822 125.59C134.698 125.882 134.468 126.31 134.31 126.549C134.06 126.933 133.934 127.015 133.512 127.089C132.782 127.218 132.181 126.877 130.88 125.627C129.58 124.389 129.141 124.102 128.628 124.192C128.149 124.277 127.825 124.639 127.355 125.638C127.138 126.076 126.891 126.542 126.784 126.666C126.602 126.898 126.579 126.902 126.218 126.59C125.24 125.776 124.589 124.353 124.208 122.189C124.116 121.665 123.968 121.163 123.88 121.061C123.76 120.918 123.795 120.712 124.047 120.01C125.594 115.85 125.565 106.955 123.998 100.268C123.05 96.2903 122.127 93.7876 120.476 90.7558C118.685 87.4667 116.945 85.3311 114.973 84.0115C114.067 83.408 113.604 83.1843 112.677 82.925C112.045 82.7429 111.326 82.5995 111.09 82.5942C110.704 82.6036 110.637 82.5567 110.587 82.272C110.517 81.8734 110.015 74.5642 109.698 69.2305C109.077 58.8425 108.901 56.6426 108.49 54.1788C108.055 51.6486 107.551 50.5868 106.628 50.2211C105.73 49.8627 104.215 50.4704 102.876 51.7399C98.137 56.2625 96.7234 69.1112 98.7481 89.1268C98.8457 90.0138 98.9293 90.821 98.9453 90.9121C98.9634 91.0146 98.5629 91.7428 98.0449 92.5386C95.1051 97.1315 92.6565 102.577 91.2004 107.719C89.0864 115.195 88.4151 123.921 89.2363 132.911C89.5504 136.226 89.2954 136.846 87.9485 136.074C87.0341 135.554 86.9408 135.559 86.146 136.251C85.3116 136.985 84.9347 137.181 84.0569 137.336C82.8257 137.553 82.1177 137.137 81.2726 135.678C80.3967 134.177 79.9194 133.603 79.4501 133.475L79.0169 133.351L78.717 133.85C78.3816 134.414 77.7994 136.713 77.2916 139.433C77.1069 140.452 76.9209 141.33 76.8739 141.397C76.7874 141.506 76.299 138.069 76.0764 135.807C75.9588 134.607 75.9691 133.865 76.0942 132.575C76.4225 129.37 76.5833 123.283 76.7329 108.332C76.7939 102.145 76.7058 101.045 76.0849 100.791C75.8174 100.673 75.3392 100.828 75.193 101.065C74.514 102.148 74.1245 108.205 74.2151 116.585C74.273 122.046 74.5401 127.495 75.0446 133.288C75.1976 135.023 74.7455 137.392 74.1082 138.244C73.7755 138.691 72.3303 139.028 71.6699 138.815C70.8338 138.54 70.8338 138.54 71.025 138.224C71.2913 137.802 71.096 136.427 70.7032 135.933C70.297 135.429 69.8545 135.319 69.4708 135.61C69.0154 135.96 68.873 136.619 69.0954 137.414L69.2709 138.076L68.8773 137.91C68.65 137.821 68.4261 137.685 68.3664 137.613C67.9777 137.141 64.7682 131.273 63.9916 129.601C59.0624 119.045 52.3297 96.9946 51.5865 89.047C51.1609 84.3665 51.2073 75.5634 51.7898 55.135C51.9533 49.329 51.9447 46.7473 51.7765 46.4599C51.6431 46.2368 51.1549 46.3346 51.0603 46.5979ZM106.508 51.0055C107.084 51.4088 107.315 52.0492 107.735 54.4293C108.175 56.9937 108.214 57.3507 108.867 67.8506C109.138 72.3235 109.456 77.2579 109.567 78.8234C109.679 80.389 109.788 81.8728 109.8 82.1407L109.814 82.6197L108.834 82.8629C106.041 83.555 103.457 85.5018 100.543 89.104C99.7315 90.1041 99.6409 90.1906 99.5948 89.9286C99.5687 89.7806 99.4557 88.6733 99.338 87.4728C97.4935 68.0125 99.1196 55.5022 103.976 51.7807C105.137 50.8951 105.983 50.6284 106.508 51.0055ZM109.892 83.6627C109.974 84.1296 110.596 92.721 110.769 95.6377C111.076 101.044 111.121 104.3 111.015 112.033C110.932 118.025 110.915 120.4 110.957 125.371C110.997 130.131 110.988 130.943 110.882 131.079C110.789 131.213 108.466 132.174 107.652 132.424L107.048 132.601L106.586 130.78C105.459 126.387 104.8 123.051 102.922 112.462C101.07 101.963 100.663 99.3218 99.9786 93.3719L99.7512 91.4158L100.431 90.4739C103.162 86.6929 106.536 84.0313 109.361 83.451C109.815 83.3593 109.842 83.378 109.892 83.6627ZM111.94 83.4777C113.36 83.7322 115.113 84.8087 116.499 86.267C118.488 88.3469 120.926 92.7078 122.103 96.3165C124.252 102.842 124.959 110.185 124.08 116.599C123.745 119.03 123.13 120.676 121.825 122.609C121.089 123.702 121.02 123.773 120.654 123.767C120.173 123.769 120.048 123.862 118.828 125.275C117.82 126.427 117.221 127.026 117.027 127.06C116.879 127.086 116.871 126.313 117.028 125.134C117.147 124.209 117.144 124.057 116.971 123.946C116.623 123.703 116.426 123.984 116.301 124.945C116.111 126.4 116.117 127.303 116.335 127.605C116.432 127.752 116.513 127.879 116.517 127.902C116.551 128.095 111.936 130.788 111.787 130.673C111.677 130.587 111.664 119.246 111.758 112.313C111.9 102.249 111.767 98.1625 111.016 88.3727C110.593 82.9754 110.597 83.3271 110.987 83.3405C111.166 83.3558 111.598 83.4088 111.94 83.4777ZM99.4054 94.7881C100.072 100.366 100.667 104.276 102.085 112.316C103.615 120.994 104.777 126.719 105.782 130.616C106.082 131.785 106.302 132.767 106.276 132.819C106.142 132.995 104.095 133.25 103.4 133.173C102.763 133.098 102.546 132.995 101.321 132.119C99.8062 131.059 99.1646 130.82 98.4591 131.086C97.8314 131.325 97.5764 131.946 97.2545 133.987C97.1 134.977 96.8978 135.964 96.8025 136.157C96.5469 136.707 96.0486 136.748 94.65 136.348C93.362 135.977 92.1813 135.281 91.1081 134.261C90.7414 133.914 90.3486 133.619 90.2265 133.594C90.0341 133.569 89.9952 133.482 89.9726 133.087C89.9606 132.819 89.9152 132.228 89.8731 131.789C89.4942 127.641 89.5745 121.896 90.0654 117.547C91.0814 108.644 93.544 101.411 98.1558 93.8342C98.6188 93.0598 99.0394 92.4455 99.0662 92.4642C99.1044 92.481 99.255 93.5347 99.4054 94.7881ZM75.9221 102.534C75.9689 103.066 76.0066 104.679 76.0027 106.124C75.9778 110.849 75.7668 124.719 75.6789 126.953C75.6309 128.148 75.6024 129.186 75.6125 129.243C75.6225 129.3 75.5923 129.329 75.5521 129.301C75.4428 129.214 75.1967 125.218 75.0785 121.482C74.8102 113.227 74.9803 105.659 75.5177 102.64C75.6151 102.059 75.7192 101.583 75.7534 101.577C75.7876 101.571 75.8639 102.004 75.9221 102.534ZM122.881 122.998C122.887 123.831 122.523 125.034 122.25 125.082C122.204 125.09 122.054 124.906 121.905 124.662L121.642 124.238L122.223 123.396C122.54 122.929 122.824 122.539 122.833 122.525C122.856 122.521 122.881 122.728 122.881 122.998ZM70.1813 136.506C70.4387 136.966 70.5237 137.514 70.3854 137.797C70.2714 138.017 70.2466 138.009 70.0093 137.664C69.699 137.237 69.6353 136.943 69.7475 136.512C69.8522 136.106 69.9568 136.1 70.1813 136.506ZM99.6182 131.926C99.8703 132.023 100.481 132.42 100.983 132.801C101.485 133.182 102.132 133.585 102.421 133.687C103.175 133.965 104.416 134.004 105.55 133.769L106.526 133.573L107.358 136.82C107.814 138.607 108.643 141.842 109.19 144.012L110.182 147.97L109.994 149.507C109.536 153.11 109.068 155.588 108.328 158.125C107.279 161.774 105.98 163.871 104.602 164.125C104.066 164.22 102.858 164.033 102.147 163.736C101.234 163.357 99.5207 162.039 98.703 161.067C95.7288 157.599 93.5459 152.219 91.6436 143.63C90.9445 140.466 90.0652 134.879 90.2342 134.638C90.2832 134.582 90.4515 134.67 90.6204 134.828C91.2177 135.415 92.5679 136.34 93.3208 136.677C94.2152 137.083 95.8955 137.479 96.3857 137.393C96.8759 137.306 97.3475 136.847 97.5777 136.22C97.6777 135.92 97.8691 135.006 97.9813 134.176C98.3154 131.804 98.5428 131.494 99.6182 131.926ZM110.944 134.027C110.874 138.232 110.51 145.564 110.374 145.459C110.307 145.412 107.256 133.445 107.305 133.389C107.312 133.364 107.775 133.189 108.318 132.999C108.858 132.798 109.573 132.519 109.901 132.379C111.067 131.857 110.982 131.707 110.944 134.027Z" fill="#818D58"/>
</svg>
