<svg xmlns="http://www.w3.org/2000/svg" viewBox="0 0 332.96 327.62"><defs><style>.cls-1{fill:none;stroke:#818d58;stroke-miterlimit:10;}.cls-2{fill:#818d58;}</style></defs><title>round_text</title><g id="Слой_2" data-name="Слой 2"><g id="Слой_1-2" data-name="Слой 1"><circle class="cls-1" cx="302.67" cy="243.58" r="2.43"/><path class="cls-2" d="M276.15,276.8a3.53,3.53,0,0,0-2.63-.11,3.34,3.34,0,0,0-1.13.7,4,4,0,0,0-.75.94,3.73,3.73,0,0,0-.4,1,3.33,3.33,0,0,0-.06,1l-1-1.07a4,4,0,0,1,.4-1.42,5.2,5.2,0,0,1,1.06-1.34,4.76,4.76,0,0,1,1.54-1,4.54,4.54,0,0,1,3.49.14,5.05,5.05,0,0,1,1.55,1.13,4.88,4.88,0,0,1,1,1.62,4.54,4.54,0,0,1,.32,1.77,4.46,4.46,0,0,1-.4,1.72,4.59,4.59,0,0,1-1.06,1.48,5,5,0,0,1-1.41,1,3.79,3.79,0,0,1-1.44.31l-1-1.07a3,3,0,0,0,1,0,3.37,3.37,0,0,0,1-.33,3.86,3.86,0,0,0,1-.69,3.22,3.22,0,0,0,.76-1.08,3.45,3.45,0,0,0,.06-2.63,3.89,3.89,0,0,0-.8-1.26A3.94,3.94,0,0,0,276.15,276.8Z"/><path class="cls-2" d="M272,285.23a4.48,4.48,0,0,1,.2,1.77,4.64,4.64,0,0,1-.52,1.71,4.55,4.55,0,0,1-1.19,1.45,4.81,4.81,0,0,1-1.67.91,4.62,4.62,0,0,1-1.77.16,4.55,4.55,0,0,1-1.7-.53,4.81,4.81,0,0,1-1.46-1.22,4.94,4.94,0,0,1-.91-1.66,4.35,4.35,0,0,1-.2-1.78,4.5,4.5,0,0,1,.5-1.71,4.89,4.89,0,0,1,1.21-1.46,4.59,4.59,0,0,1,1.65-.89,4.34,4.34,0,0,1,1.78-.17,4.6,4.6,0,0,1,1.71.53,4.94,4.94,0,0,1,1.45,1.22A4.84,4.84,0,0,1,272,285.23ZM269,283.37a3.23,3.23,0,0,0-1.29-.43,3.33,3.33,0,0,0-2.57.8,3.34,3.34,0,0,0-1.11,3.72,4.08,4.08,0,0,0,1.82,2.21,3.23,3.23,0,0,0,1.29.43,3.38,3.38,0,0,0,1.34-.12,3.85,3.85,0,0,0,1.24-.67,3.72,3.72,0,0,0,.9-1.09,3.42,3.42,0,0,0,.21-2.64,4.16,4.16,0,0,0-1.83-2.21Z"/><path class="cls-2" d="M254.85,291.61l4.72,6.62-.9.65-4.73-6.62-.9.65-1.45-2,.8-.57.84,1.17,6-4.3,5.33,7.47-.91.65L259,288.68Z"/><path class="cls-2" d="M243.8,297.42l.95-.58,4.29,7-.2,1.81Zm6.63-4.61.83,1.48-2.42,11.34-.83-1.48Zm-.2,1.81.2-1.81,5,8.21-1,.58Z"/><path class="cls-2" d="M241.61,302.57l0-.26-.31-3.49,1.11-.58.74,10.51-8.28-6.53,1.1-.58,2.66,2.16.21.18,3.12,2.53Zm.56.08-3.59,1.91-.84-.75,4.29-2.27Z"/><path class="cls-2" d="M227.43,305.63l1-.46,3.37,7.4,3.7-1.69-2.07-4.54a4.6,4.6,0,0,1-.41-1.52,2.57,2.57,0,0,1,.21-1.37,1.86,1.86,0,0,1,1-.91l.4.87a.78.78,0,0,0-.4.38,1.39,1.39,0,0,0-.13.63,2.67,2.67,0,0,0,.11.81,4.89,4.89,0,0,0,.33.92l2.39,5.25L231.24,314Z"/><path class="cls-2" d="M226.44,312l-1.75.69a3.58,3.58,0,0,1-1.61.27,2.76,2.76,0,0,1-1.38-.48,2.82,2.82,0,0,1-1.07-2.73,2.62,2.62,0,0,1,.69-1.3,3.58,3.58,0,0,1,1.36-.89l1.74-.69.39,1-1.75.69a2.64,2.64,0,0,0-.9.55,1.48,1.48,0,0,0-.45.79,1.71,1.71,0,0,0,.1,1,1.66,1.66,0,0,0,.59.78,1.45,1.45,0,0,0,.87.27,2.73,2.73,0,0,0,1-.2l1.74-.68Zm.87,3.6L224,307.05l1-.41,3.35,8.55Z"/><path class="cls-2" d="M213.75,320.41l-2.87-8.72,1.06-.35,2.87,8.72Zm5.18-5.57-6,2-.33-1,6-2Zm.67,3.65-2.86-8.72,1.06-.35,2.86,8.72Z"/><path class="cls-2" d="M210.15,318.65a4.5,4.5,0,0,1-.57,1.7,4.69,4.69,0,0,1-1.19,1.33,4.78,4.78,0,0,1-1.7.81,4.66,4.66,0,0,1-1.88.12,4.82,4.82,0,0,1-1.68-.6,4.6,4.6,0,0,1-1.32-1.21,4.7,4.7,0,0,1-.8-1.72,4.87,4.87,0,0,1-.13-1.89,4.55,4.55,0,0,1,3.46-3.84,4.64,4.64,0,0,1,1.88-.12,4.45,4.45,0,0,1,1.68.6,4.6,4.6,0,0,1,1.32,1.21,4.77,4.77,0,0,1,.8,1.72A4.89,4.89,0,0,1,210.15,318.65Zm-1.88-2.92a3.13,3.13,0,0,0-1-.93,3.24,3.24,0,0,0-1.26-.46,3.41,3.41,0,0,0-1.41.09,3.47,3.47,0,0,0-1.27.6,3.4,3.4,0,0,0-.88,1,3.17,3.17,0,0,0-.42,1.29,4.1,4.1,0,0,0,.72,2.78,3.13,3.13,0,0,0,1,.93,3.24,3.24,0,0,0,1.26.46,3.53,3.53,0,0,0,1.4-.09,3.6,3.6,0,0,0,1.28-.6,3.4,3.4,0,0,0,.88-1,3.17,3.17,0,0,0,.42-1.29,4.1,4.1,0,0,0-.72-2.78Z"/><path class="cls-2" d="M194.54,322.3a4.41,4.41,0,0,1-.74,1.63,4.47,4.47,0,0,1-1.31,1.21,4.52,4.52,0,0,1-1.77.64,4.6,4.6,0,0,1-1.89-.07,4.58,4.58,0,0,1-2.81-2.08,5.2,5.2,0,0,1-.63-1.8,5,5,0,0,1,.06-1.89,4.53,4.53,0,0,1,.74-1.64,4.7,4.7,0,0,1,1.3-1.21,4.84,4.84,0,0,1,1.78-.64,4.55,4.55,0,0,1,1.88.08,4.62,4.62,0,0,1,1.62.75,4.55,4.55,0,0,1,1.2,1.34,5.24,5.24,0,0,1,.63,1.78A5,5,0,0,1,194.54,322.3ZM193,319.2a3.41,3.41,0,0,0-.9-1,3.29,3.29,0,0,0-1.21-.57,3.33,3.33,0,0,0-1.41-.05,3.41,3.41,0,0,0-1.32.47,3.2,3.2,0,0,0-1,.92,3.23,3.23,0,0,0-.55,1.24,4,4,0,0,0,0,1.46A4.1,4.1,0,0,0,187,323a3.41,3.41,0,0,0,.9,1,3.31,3.31,0,0,0,1.21.58,3.5,3.5,0,0,0,1.41.05,3.37,3.37,0,0,0,1.33-.48,3.24,3.24,0,0,0,1-.91,3.28,3.28,0,0,0,.55-1.25,4,4,0,0,0,0-1.46A4.1,4.1,0,0,0,193,319.2Z"/><path class="cls-2" d="M184.83,326.49l-5.81.58-.11-1,2.35-.24-.81-8.09,1.11-.11.81,8.09,2.35-.24Z"/><path class="cls-2" d="M175.79,323.57l-1.48.08a2.3,2.3,0,0,0-.82.2,1.31,1.31,0,0,0-.55.49,1.23,1.23,0,0,0-.17.75,1.25,1.25,0,0,0,.51,1,1.87,1.87,0,0,0,1.17.3l1.25-.07-.39-7.2-1.37.07a2.34,2.34,0,0,0-1,.27,1.62,1.62,0,0,0-.68.64,1.76,1.76,0,0,0-.2,1,1.67,1.67,0,0,0,.18.73,1.53,1.53,0,0,0,.44.53,1.81,1.81,0,0,0,.66.3,2.7,2.7,0,0,0,.82.07l1.61-.09,0,.62-1.61.09a5.47,5.47,0,0,1-1.24-.08,3.13,3.13,0,0,1-1-.39,1.93,1.93,0,0,1-.7-.72,2.21,2.21,0,0,1-.3-1.07,2.62,2.62,0,0,1,.33-1.52,2.53,2.53,0,0,1,1.07-.95,4.08,4.08,0,0,1,1.57-.38l2.49-.14.5,9.17-2.36.13a4.41,4.41,0,0,1-1.12-.08,2.41,2.41,0,0,1-.88-.37,2,2,0,0,1-.6-.69,2.5,2.5,0,0,1-.25-1,1.82,1.82,0,0,1,.28-1.12,2.18,2.18,0,0,1,.91-.74,4,4,0,0,1,1.43-.31l1.48-.08Z"/><path class="cls-2" d="M167.9,319.47h-4.63v-1.05h4.63Zm0,8.13-4.63,0v-1.05l4.63,0Zm0-3.67h-4.37v-1.05h4.36Zm-.49,3.67,0-9.18h1.12l0,9.18Z"/><path class="cls-2" d="M159.68,321.47a3.33,3.33,0,0,0-.7-1.18,3.29,3.29,0,0,0-2.32-1.13,4.26,4.26,0,0,0-1.21.11,3.5,3.5,0,0,0-1,.43,3.07,3.07,0,0,0-.8.67l.08-1.47a3.85,3.85,0,0,1,1.29-.69,5,5,0,0,1,1.71-.16,4.53,4.53,0,0,1,1.77.44,4.44,4.44,0,0,1,1.41,1.06,4.68,4.68,0,0,1,.9,1.55,5,5,0,0,1,.25,1.91,4.71,4.71,0,0,1-.45,1.86,4.57,4.57,0,0,1-1.06,1.45,4.65,4.65,0,0,1-1.51.91,4.73,4.73,0,0,1-1.81.25,5.14,5.14,0,0,1-1.68-.34,3.87,3.87,0,0,1-1.21-.82l.07-1.47a3.65,3.65,0,0,0,1.69,1.28,4.33,4.33,0,0,0,1.19.24,3.42,3.42,0,0,0,3.24-2,3.73,3.73,0,0,0,.36-1.45A3.91,3.91,0,0,0,159.68,321.47Z"/><path class="cls-2" d="M151.61,327.05l-5.81-.6.11-1,2.35.24.83-8.09,1.11.11-.84,8.09,2.35.24Z"/><path class="cls-2" d="M143.36,322.37l-1.47-.22a2.13,2.13,0,0,0-.84,0,1.28,1.28,0,0,0-.63.36,1.23,1.23,0,0,0-.32.7,1.21,1.21,0,0,0,.3,1.07,1.79,1.79,0,0,0,1.09.53l1.23.19,1.07-7.14-1.36-.2a2.48,2.48,0,0,0-1.06.05,1.66,1.66,0,0,0-.79.49,1.77,1.77,0,0,0-.4.91,1.73,1.73,0,0,0,0,.76,1.56,1.56,0,0,0,.32.61,1.92,1.92,0,0,0,.58.42,2.7,2.7,0,0,0,.79.23l1.59.24-.09.61-1.59-.24a4.79,4.79,0,0,1-1.2-.32,3.09,3.09,0,0,1-.91-.58,2.08,2.08,0,0,1-.55-.85,2.37,2.37,0,0,1-.07-1.11,2.56,2.56,0,0,1,.63-1.42,2.51,2.51,0,0,1,1.24-.72,4.14,4.14,0,0,1,1.62,0l2.46.37-1.36,9.07-2.34-.35a4.26,4.26,0,0,1-1.08-.3,2.51,2.51,0,0,1-.79-.54,1.92,1.92,0,0,1-.44-.79,2.38,2.38,0,0,1,0-1,1.79,1.79,0,0,1,.5-1,2.13,2.13,0,0,1,1-.55,4.16,4.16,0,0,1,1.46,0l1.46.22Z"/><path class="cls-2" d="M134.83,324.73l-4.54-.92.21-1,4.54.91Zm.73-3.6-4.28-.86.21-1,4.28.87Zm.89-4.37-4.54-.92.21-1,4.53.91Zm-2.11,7.87,1.83-9,1.09.23-1.82,9Z"/><path class="cls-2" d="M120.33,321.32l2.32-8.88,1.08.28-2.32,8.88Zm7.37-1.87-6.09-1.59.27-1,6.09,1.6Zm-1.41,3.43,2.33-8.88,1.08.28-2.33,8.88Z"/><path class="cls-2" d="M110.32,318.11l2.89-8.71,1.06.35-2.89,8.71Zm7.48-1.39-6-2,.33-1,6,2Zm-1.63,3.33,2.89-8.71,1.06.35-2.89,8.71Z"/><path class="cls-2" d="M100,314l3.44-8.51,1,.42L101,314.46Zm8.16-.65-1.74-.71a3.54,3.54,0,0,1-1.35-.91,2.7,2.7,0,0,1-.68-1.29,2.61,2.61,0,0,1,.17-1.52,2.57,2.57,0,0,1,.93-1.2,2.72,2.72,0,0,1,1.4-.47,3.59,3.59,0,0,1,1.6.29l1.74.7-.4,1-1.74-.71a2.5,2.5,0,0,0-1-.21,1.51,1.51,0,0,0-.87.26,1.83,1.83,0,0,0-.71,1.75,1.53,1.53,0,0,0,.44.79,2.73,2.73,0,0,0,.89.57l1.74.7Zm-1.84,3.21,3.44-8.51,1,.42L107.33,317Z"/><path class="cls-2" d="M93.78,300.94l1,.49L91.2,308.8l-1.64.81Zm7.45,3.12-.8,1.5-10.87,4.05.81-1.5Zm-8.31,9.66a1.25,1.25,0,0,0,.09-.4.92.92,0,0,0-.13-.51,1.22,1.22,0,0,0-.56-.47,1.13,1.13,0,0,0-.72-.15.89.89,0,0,0-.48.21,1.18,1.18,0,0,0-.26.32l-.83-.4a1.82,1.82,0,0,1,.58-.69,1.73,1.73,0,0,1,.93-.32,2.22,2.22,0,0,1,1.15.26,2.27,2.27,0,0,1,.92.75,1.79,1.79,0,0,1,.32.92,1.87,1.87,0,0,1-.18.89Zm6.68-8.85,1.63-.81L97,312.73l-1-.49Z"/><path class="cls-2" d="M78.58,302.82l.54-.9,3.26,2,4.18-7,1,.58-4.72,7.87Zm5.58-.94-1.61-1a3.79,3.79,0,0,1-1.2-1.11,2.71,2.71,0,0,1-.46-1.39,2.56,2.56,0,0,1,.4-1.47,2.61,2.61,0,0,1,1.1-1,2.76,2.76,0,0,1,1.45-.25,3.73,3.73,0,0,1,1.54.53l1.61,1-.54.9-1.61-1a2.81,2.81,0,0,0-1-.37,1.46,1.46,0,0,0-.9.13,1.62,1.62,0,0,0-.71.67,1.67,1.67,0,0,0-.26,1,1.55,1.55,0,0,0,.31.85,2.76,2.76,0,0,0,.8.7l1.61,1Z"/><path class="cls-2" d="M75.29,300.72l-1.56-1a3.59,3.59,0,0,1-1.13-1.17,2.57,2.57,0,0,1,.07-2.86,2.59,2.59,0,0,1,1.16-1,2.77,2.77,0,0,1,1.46-.18,3.79,3.79,0,0,1,1.51.61l1.56,1-.59.88-1.56-1a2.56,2.56,0,0,0-1-.42,1.61,1.61,0,0,0-.9.08,1.66,1.66,0,0,0-.74.64,1.69,1.69,0,0,0-.31.93,1.54,1.54,0,0,0,.27.87,2.69,2.69,0,0,0,.76.74l1.56,1Zm-.41-.28,5.1-7.63.93.63-5.11,7.63Z"/><path class="cls-2" d="M68.55,296.08l-3.72-2.76.63-.84,3.71,2.76Zm2.19-2.95-3.51-2.6.63-.85,3.5,2.61Zm-2.59,2.65,5.47-7.37.9.67L69,296.45Zm5.25-6.23-3.72-2.76.63-.84L74,288.71Z"/><path class="cls-2" d="M56.87,286.81l5.88-7,.86.71-5.89,7Zm7.47,1.46-4.84-4,.68-.8,4.83,4Zm-2.74,2.5,5.88-7,.86.71-5.88,7.05Z"/><path class="cls-2" d="M59.38,277.23l.85.82-9.09,4.1,3.68-9.27.86.82-2.79,6.62Zm1.08.49,1-1.05.71.68-1.72,1.81-6.73-6.43,1.72-1.81.71.68-1,1Z"/><path class="cls-2" d="M12.05,204.05a3.52,3.52,0,0,0,1.37-2.25,3.27,3.27,0,0,0-.06-1.32,4,4,0,0,0-.46-1.12,3.44,3.44,0,0,0-.71-.84,3.49,3.49,0,0,0-.88-.57l1.42-.36a3.85,3.85,0,0,1,1,1,5.11,5.11,0,0,1,.66,1.57,4.55,4.55,0,0,1,.1,1.83,4.35,4.35,0,0,1-.59,1.66A4.6,4.6,0,0,1,12.74,205a5,5,0,0,1-1.75.81,4.81,4.81,0,0,1-1.91.12,4.48,4.48,0,0,1-3-1.76,4.48,4.48,0,0,1-.77-1.65,4.85,4.85,0,0,1-.18-1.7,3.9,3.9,0,0,1,.43-1.41L7,199.06a3.21,3.21,0,0,0-.5.91,3.52,3.52,0,0,0-.22,1.08,4,4,0,0,0,.13,1.21,3.16,3.16,0,0,0,.57,1.18,3.48,3.48,0,0,0,1,.88,3.41,3.41,0,0,0,1.29.45,4,4,0,0,0,1.48-.1A3.81,3.81,0,0,0,12.05,204.05Z"/><path class="cls-2" d="M6.72,196.32a4.32,4.32,0,0,1-1.65-.69,4.45,4.45,0,0,1-1.25-1.27,4.91,4.91,0,0,1-.7-1.75,4.79,4.79,0,0,1,0-1.89,4.55,4.55,0,0,1,.71-1.64,4.46,4.46,0,0,1,1.29-1.23,5.11,5.11,0,0,1,1.77-.69,5.06,5.06,0,0,1,1.9,0,4.66,4.66,0,0,1,1.65.69,4.58,4.58,0,0,1,1.25,1.27,4.88,4.88,0,0,1,.68,3.64,4.55,4.55,0,0,1-.71,1.64,4.63,4.63,0,0,1-1.29,1.24,5.2,5.2,0,0,1-3.67.68Zm3.05-1.68a3.23,3.23,0,0,0,1-.92,3.4,3.4,0,0,0,.54-1.23,3.52,3.52,0,0,0,0-1.41,3.44,3.44,0,0,0-1.46-2.26,3.49,3.49,0,0,0-1.26-.51,4.22,4.22,0,0,0-1.46,0,4.1,4.1,0,0,0-1.37.52,3.39,3.39,0,0,0-1,.93A3.28,3.28,0,0,0,4.23,191a3.52,3.52,0,0,0,0,1.41,3.37,3.37,0,0,0,.52,1.31,3.27,3.27,0,0,0,.94.95,3.49,3.49,0,0,0,1.26.51,4,4,0,0,0,1.46,0A4.1,4.1,0,0,0,9.77,194.64Z"/><path class="cls-2" d="M9.38,178.26l-8.07.94-.13-1.1,8.08-.94-.13-1.11,2.47-.29.12,1-1.44.17.86,7.36L2,185.33l-.13-1.11,8.08-.94Z"/><path class="cls-2" d="M9.63,165.79l0,1.11-8.19.39-1.49-1Zm.84,8-1.71,0L0,166.25l1.71,0Zm-1.49-1,1.49,1-9.63.46,0-1.11Z"/><path class="cls-2" d="M6.18,161.38l.23.11,3.21,1.41,0,1.25L0,159.73l9.71-4.11,0,1.25-3.17,1.29-.27.1-3.72,1.51Zm-.35.45.07-4.07,1-.37-.08,4.85Z"/><path class="cls-2" d="M10.34,147.46l-.09,1.11L2.15,148l-.31,4,5,.38a4.71,4.71,0,0,1,1.53.37,2.71,2.71,0,0,1,1.1.85,1.85,1.85,0,0,1,.33,1.28l-.95-.07a.8.8,0,0,0-.15-.54,1.68,1.68,0,0,0-.48-.42,3.09,3.09,0,0,0-.76-.29,5.67,5.67,0,0,0-1-.15L.71,153l.47-6.21Z"/><path class="cls-2" d="M1.67,142.55l9.1,1.19-.14,1.11-9.1-1.19Zm3.58,1,.24-1.86A3.67,3.67,0,0,1,6,140.13a2.66,2.66,0,0,1,1.09-1,2.51,2.51,0,0,1,1.51-.21,2.58,2.58,0,0,1,1.39.59,2.69,2.69,0,0,1,.81,1.24,3.61,3.61,0,0,1,.12,1.62l-.24,1.86-1-.14.24-1.86a2.64,2.64,0,0,0-.05-1.06,1.57,1.57,0,0,0-.47-.77,1.61,1.61,0,0,0-.91-.38,1.63,1.63,0,0,0-1,.13,1.58,1.58,0,0,0-.65.63,2.56,2.56,0,0,0-.33,1l-.24,1.86Z"/><path class="cls-2" d="M2.86,134.39l9,1.71-.2,1.1-9-1.71Zm1.15-6,9,1.71-.21,1.09-9-1.71Zm2.37,7.23,1.17-6.19,1,.2-1.17,6.18Z"/><path class="cls-2" d="M7.29,126.05a4.31,4.31,0,0,1-1.2-1.32,4.45,4.45,0,0,1-.6-1.68,5,5,0,0,1,.94-3.59,4.48,4.48,0,0,1,3-1.75,4.94,4.94,0,0,1,1.9.14,4.94,4.94,0,0,1,1.72.8,4.55,4.55,0,0,1,1.8,3,4.7,4.7,0,0,1-.12,1.89,4.87,4.87,0,0,1-.81,1.7,4.56,4.56,0,0,1-1.34,1.18,4.5,4.5,0,0,1-1.7.57A5.07,5.07,0,0,1,9,126.86,4.88,4.88,0,0,1,7.29,126.05Zm3.47-.22a3.38,3.38,0,0,0,2.3-1.3,3.48,3.48,0,0,0,.61-1.27,3.39,3.39,0,0,0,.09-1.41,3.46,3.46,0,0,0-.45-1.26,3.37,3.37,0,0,0-.93-1,4,4,0,0,0-1.33-.61,4,4,0,0,0-1.45-.12,3.5,3.5,0,0,0-1.29.42,3.28,3.28,0,0,0-1,.88,3.45,3.45,0,0,0-.61,1.28,3.35,3.35,0,0,0-.09,1.4,3.51,3.51,0,0,0,.45,1.27,3.64,3.64,0,0,0,.93,1,4.15,4.15,0,0,0,1.33.61A4,4,0,0,0,10.76,125.83Z"/><path class="cls-2" d="M11.67,110.62a4.55,4.55,0,0,1-1.49-3.16A4.9,4.9,0,0,1,11.46,104a4.53,4.53,0,0,1,3.19-1.44,4.76,4.76,0,0,1,1.87.32,4.84,4.84,0,0,1,1.63,1,4.37,4.37,0,0,1,1.07,1.43,4.46,4.46,0,0,1,.43,1.73,4.9,4.9,0,0,1-1.28,3.48,4.46,4.46,0,0,1-1.45,1,4.28,4.28,0,0,1-1.75.4,4.85,4.85,0,0,1-1.86-.31A5,5,0,0,1,11.67,110.62Zm3.48.12a3.3,3.3,0,0,0,1.33-.28,3.63,3.63,0,0,0,1.09-.78,3.49,3.49,0,0,0,.63-3.9,3.2,3.2,0,0,0-.83-1.08,3.78,3.78,0,0,0-1.25-.73,3.92,3.92,0,0,0-1.44-.26,3.31,3.31,0,0,0-1.33.29,3.44,3.44,0,0,0-1.09.77,3.75,3.75,0,0,0-1,2.6,3.37,3.37,0,0,0,.33,1.3,3.2,3.2,0,0,0,.83,1.08,4,4,0,0,0,1.25.74A3.91,3.91,0,0,0,15.15,110.74Z"/><path class="cls-2" d="M12.74,100.09,15,94.73l1,.41-.93,2.17,7.47,3.22-.44,1-7.47-3.21-.93,2.17Z"/><path class="cls-2" d="M19.66,93.61l.65-1.33a2,2,0,0,0,.22-.81,1.32,1.32,0,0,0-.16-.72,1.3,1.3,0,0,0-.57-.51,1.21,1.21,0,0,0-1.11,0,1.79,1.79,0,0,0-.83.88l-.55,1.12,6.49,3.15.6-1.24a2.51,2.51,0,0,0,.27-1,1.64,1.64,0,0,0-.23-.9,1.71,1.71,0,0,0-.75-.64,1.75,1.75,0,0,0-.74-.2,1.39,1.39,0,0,0-.67.13,1.69,1.69,0,0,0-.58.42,2.68,2.68,0,0,0-.46.69L20.54,94,20,93.77l.71-1.45a5,5,0,0,1,.67-1,3.15,3.15,0,0,1,.82-.7,2,2,0,0,1,1-.26,2.31,2.31,0,0,1,1.08.26,2.5,2.5,0,0,1,1.17,1A2.45,2.45,0,0,1,25.72,93a4.07,4.07,0,0,1-.43,1.56L24.2,96.79l-8.26-4,1-2.12a4.24,4.24,0,0,1,.61-.94,2.34,2.34,0,0,1,.76-.59,1.77,1.77,0,0,1,.88-.19,2.35,2.35,0,0,1,1,.27,1.71,1.71,0,0,1,.84.79,2,2,0,0,1,.21,1.16,3.87,3.87,0,0,1-.41,1.39l-.65,1.33Z"/><path class="cls-2" d="M20.18,84.36l8.05,4.42-.54,1-8-4.42Zm-.24.44,2.23-4.06.92.51-2.23,4.06Zm3.22,1.77,2.1-3.83.92.51-2.1,3.82Zm3.91,2.15,2.23-4.06.92.5L28,89.22Z"/><path class="cls-2" d="M29.31,80.53a3.5,3.5,0,0,0,1.37,0,3.43,3.43,0,0,0,1.2-.54,3.17,3.17,0,0,0,.91-.95,3.79,3.79,0,0,0,.61-2.21,3.43,3.43,0,0,0-.21-1l1.25.78a4,4,0,0,1,0,1.47,5,5,0,0,1-.69,1.57,4.52,4.52,0,0,1-1.24,1.33,4.49,4.49,0,0,1-3.4.76A4.82,4.82,0,0,1,27.3,81a5.08,5.08,0,0,1-1.42-1.3,4.73,4.73,0,0,1-.75-1.63,4.35,4.35,0,0,1-.06-1.76,4.42,4.42,0,0,1,.65-1.71,4.92,4.92,0,0,1,1.11-1.3,3.87,3.87,0,0,1,1.31-.67l1.24.78a3,3,0,0,0-1,.27,3.46,3.46,0,0,0-.93.58,4,4,0,0,0-.78.93,3,3,0,0,0-.46,1.24A3.47,3.47,0,0,0,26.83,79a3.63,3.63,0,0,0,1.09,1A3.59,3.59,0,0,0,29.31,80.53Z"/><path class="cls-2" d="M28.31,70.8,31.63,66l.87.6-1.35,1.94,6.68,4.64-.63.91-6.68-4.63L29.17,71.4Z"/><path class="cls-2" d="M36.41,65.8l.9-1.18a2,2,0,0,0,.38-.75,1.29,1.29,0,0,0,0-.73,1.22,1.22,0,0,0-.45-.62,1.23,1.23,0,0,0-1.09-.25,1.81,1.81,0,0,0-1,.7l-.75,1,5.73,4.38L41,67.25a2.52,2.52,0,0,0,.47-1,1.72,1.72,0,0,0-.05-.93,2,2,0,0,0-1.29-1.12,1.42,1.42,0,0,0-.68,0,1.78,1.78,0,0,0-.66.3,2.89,2.89,0,0,0-.58.58l-1,1.28L36.69,66l1-1.28a5.3,5.3,0,0,1,.86-.9,3.31,3.31,0,0,1,.95-.52,2.16,2.16,0,0,1,1-.06,2.34,2.34,0,0,1,1,.47A2.62,2.62,0,0,1,42.44,65a2.57,2.57,0,0,1,0,1.43,4.12,4.12,0,0,1-.74,1.44l-1.51,2-7.29-5.58,1.43-1.87a4,4,0,0,1,.79-.8,2.44,2.44,0,0,1,.85-.43,1.87,1.87,0,0,1,.91,0,2.41,2.41,0,0,1,.93.47,1.81,1.81,0,0,1,.67.94,2.07,2.07,0,0,1,0,1.18A4.1,4.1,0,0,1,37.8,65l-.9,1.18Z"/><path class="cls-2" d="M38.75,56.85l7,5.93-.72.85L38,57.7Zm-.32.38,3-3.53.8.67-3,3.54Zm2.8,2.37,2.83-3.33.8.68L42,60.28Zm3.41,2.88,3-3.53.8.68-3,3.53Z"/><path class="cls-2" d="M44.19,50.62l6.66,6.32-.77.8-6.66-6.32Zm2.32,2.89,4.33-4.57.77.72-4.34,4.57Zm1.92-7.37,6.66,6.33-.76.8L47.67,47Z"/><path class="cls-2" d="M51.53,43.14l6.24,6.73-.82.76L50.71,43.9Zm2.13,3,4.61-4.28.72.77-4.62,4.28ZM56.05,39l6.24,6.73-.82.76L55.23,39.7Z"/><path class="cls-2" d="M59.34,36.12l5.79,7.13-.87.7-5.78-7.13Zm1.93,3.16,1.46-1.18a3.67,3.67,0,0,1,1.44-.74,2.81,2.81,0,0,1,1.47,0,2.8,2.8,0,0,1,1.85,2.28,2.74,2.74,0,0,1-.27,1.45,3.74,3.74,0,0,1-1,1.26l-1.46,1.18-.66-.81,1.46-1.19a2.71,2.71,0,0,0,.69-.8,1.67,1.67,0,0,0,.19-.89,1.92,1.92,0,0,0-1.19-1.47,1.57,1.57,0,0,0-.91,0,2.53,2.53,0,0,0-.93.51L61.93,40.1Zm3.37-7.46L70.42,39l-.86.7-5.79-7.13Z"/><path class="cls-2" d="M72.83,35.94l-.08,1.82L67.2,29.88l.91-.64ZM68.31,25.81a1,1,0,0,0,.3.27.94.94,0,0,0,.52.14,1.27,1.27,0,0,0,.68-.26,1.17,1.17,0,0,0,.47-.55.91.91,0,0,0,0-.53,1,1,0,0,0-.16-.38l.77-.54a1.85,1.85,0,0,1,.31.84,1.83,1.83,0,0,1-.16,1,2.24,2.24,0,0,1-.79.88,2.17,2.17,0,0,1-1.09.44,1.74,1.74,0,0,1-1-.16,1.88,1.88,0,0,1-.69-.58Zm4.44,12-.93-1.43,1.71-11.47.93,1.43Zm6.33-5-.91.65-4.72-6.71.08-1.82Z"/><path class="cls-2" d="M84.79,18.53l.53.91L82,21.35l4.07,7-1,.55L80.54,21Zm-1.88,5.34,1.62-.94a3.64,3.64,0,0,1,1.55-.51,2.79,2.79,0,0,1,1.44.26,2.63,2.63,0,0,1,1.1,1.07A2.56,2.56,0,0,1,89,25.22a2.66,2.66,0,0,1-.49,1.39,3.57,3.57,0,0,1-1.21,1.09l-1.62.94-.53-.91,1.63-.94a2.61,2.61,0,0,0,.8-.69,1.53,1.53,0,0,0,.33-.85A1.88,1.88,0,0,0,87,23.62a1.54,1.54,0,0,0-.9-.14,2.58,2.58,0,0,0-1,.36l-1.62.94Z"/><path class="cls-2" d="M88.66,16.45l4.2,8.16-1,.51L87.67,17Zm-.44.23,1.67-.86a3.6,3.6,0,0,1,1.57-.43,2.64,2.64,0,0,1,1.42.33,2.58,2.58,0,0,1,1,1.12,2.53,2.53,0,0,1,.3,1.49,2.66,2.66,0,0,1-.55,1.36,3.59,3.59,0,0,1-1.26,1l-1.67.86-.48-.94,1.67-.85a2.69,2.69,0,0,0,.84-.65,1.6,1.6,0,0,0,.37-.83,1.75,1.75,0,0,0-.21-1,1.66,1.66,0,0,0-.66-.72,1.49,1.49,0,0,0-.89-.18,2.58,2.58,0,0,0-1,.3l-1.67.86Z"/><path class="cls-2" d="M96,12.81l3.78,8.37-1,.46L95,13.27Zm-.46.21,4.22-1.91.43,1L96,14Zm1.52,3.35,4-1.8.43.95-4,1.8Zm1.83,4.06,4.22-1.91.43,1-4.21,1.91Z"/><path class="cls-2" d="M103.6,9.52l3.3,8.57-1,.4-3.3-8.57Zm.86,3.61,5.87-2.27.38,1-5.88,2.27Zm4.89-5.83,3.31,8.57-1,.4L108.31,7.7Z"/><path class="cls-2" d="M115.56,14.86l.43,1.37-.94.3-.74-2.38,8.89-2.77.74,2.38-.94.29-.43-1.38Zm1-.71-1.13.35.82-9.94,6.32,7.72-1.13.35L117,7Z"/><path class="cls-2" d="M207.91,9.25a3.58,3.58,0,0,0,.4,1.31,3.48,3.48,0,0,0,.84,1,3.15,3.15,0,0,0,1.16.61,3.72,3.72,0,0,0,1.2.18,4,4,0,0,0,1.09-.18,3.39,3.39,0,0,0,.93-.47l-.42,1.41a3.83,3.83,0,0,1-1.42.37,5,5,0,0,1-1.69-.24,4.55,4.55,0,0,1-1.62-.84,4.31,4.31,0,0,1-1.13-1.35,4.78,4.78,0,0,1-.52-1.72,4.86,4.86,0,0,1,.2-1.91,4.77,4.77,0,0,1,.87-1.71,4.62,4.62,0,0,1,1.37-1.17A4.47,4.47,0,0,1,210.85,4a4.67,4.67,0,0,1,1.81.17,5.16,5.16,0,0,1,1.56.72,3.84,3.84,0,0,1,1,1.09l-.42,1.41a3.44,3.44,0,0,0-1.34-1.64,4.14,4.14,0,0,0-1.1-.51A3.43,3.43,0,0,0,211,5.16a3.57,3.57,0,0,0-1.26.4,3.5,3.5,0,0,0-1,.89,3.76,3.76,0,0,0-.68,1.32A3.82,3.82,0,0,0,207.91,9.25Z"/><path class="cls-2" d="M217.3,8.61a4.63,4.63,0,0,1,1.44-1.06,4.41,4.41,0,0,1,1.73-.43,4.66,4.66,0,0,1,1.86.3,4.72,4.72,0,0,1,1.62,1,4.57,4.57,0,0,1,1,1.44,4.52,4.52,0,0,1,.4,1.74,5,5,0,0,1-.31,1.88,5.23,5.23,0,0,1-1,1.63,4.51,4.51,0,0,1-1.44,1.07,4.79,4.79,0,0,1-1.73.43,4.55,4.55,0,0,1-1.86-.31,4.6,4.6,0,0,1-2.66-2.42,4.43,4.43,0,0,1-.4-1.74,4.9,4.9,0,0,1,.31-1.87A5.05,5.05,0,0,1,217.3,8.61Zm-.11,3.48a3.15,3.15,0,0,0,.29,1.33,3.22,3.22,0,0,0,.78,1.09,3.45,3.45,0,0,0,1.2.73,3.4,3.4,0,0,0,1.39.22,3.36,3.36,0,0,0,1.3-.32,3.33,3.33,0,0,0,1.08-.83,4.15,4.15,0,0,0,.74-1.26,3.84,3.84,0,0,0,.25-1.44,3.26,3.26,0,0,0-.29-1.32,3.12,3.12,0,0,0-.78-1.09,3.31,3.31,0,0,0-1.2-.73,3.59,3.59,0,0,0-1.39-.23,3.35,3.35,0,0,0-2.38,1.16,3.75,3.75,0,0,0-.74,1.26A3.82,3.82,0,0,0,217.19,12.09Z"/><path class="cls-2" d="M231.45,20.12l3.32-7.43,1,.46-3.31,7.42,1,.46-1,2.27-.9-.4.59-1.32-6.76-3,3.74-8.38,1,.46-3.32,7.42Z"/><path class="cls-2" d="M236.38,22.57l-1.66.75,4.51-8.52,1,.52Zm-1.66.75.85-1.48,11-3.67-.85,1.48Zm7.34,3.37-1-.52,3.84-7.24,1.66-.76Z"/><path class="cls-2" d="M247.61,26l-.21.14-2.85,2-1.06-.65,8.67-6L250.75,32l-1.06-.65.51-3.39.05-.27.59-4Zm-.21-.53,3.46,2.12-.21,1.1-4.13-2.53Z"/><path class="cls-2" d="M257.47,36.62l-.91-.63,4.65-6.67L257.88,27,255,31.08a4.42,4.42,0,0,1-1.11,1.13,2.55,2.55,0,0,1-1.28.51,1.82,1.82,0,0,1-1.28-.36l.55-.78a.89.89,0,0,0,.54.15,1.64,1.64,0,0,0,.61-.21,3.1,3.1,0,0,0,.64-.51,5.38,5.38,0,0,0,.62-.75l3.3-4.73,5.11,3.57Z"/><path class="cls-2" d="M266.1,31.65l-5.65,7.23-.88-.69L265.22,31Zm-2.66,2.58,1.48,1.16A3.59,3.59,0,0,1,266,36.63a2.82,2.82,0,0,1,.3,1.44,2.81,2.81,0,0,1-1.81,2.31,2.71,2.71,0,0,1-1.47.07,3.9,3.9,0,0,1-1.46-.72l-1.48-1.16.65-.82,1.48,1.15a2.58,2.58,0,0,0,.94.49,1.57,1.57,0,0,0,.91,0,1.6,1.6,0,0,0,.78-.59,1.62,1.62,0,0,0,.38-.9A1.55,1.55,0,0,0,265,37a2.73,2.73,0,0,0-.7-.8l-1.48-1.15Z"/><path class="cls-2" d="M272.52,36.81l-6,6.91-.84-.74,6.05-6.9Zm-2.8,2.44,4.74,4.15-.69.78L269,40Zm7.44,1.62-6.05,6.91-.84-.73,6.05-6.91Z"/><path class="cls-2" d="M277.46,44.86a4.43,4.43,0,0,1,3.5,0,4.57,4.57,0,0,1,1.56,1,4.69,4.69,0,0,1,1.06,1.57,4.62,4.62,0,0,1,.34,1.75,4.7,4.7,0,0,1-.37,1.75,5.23,5.23,0,0,1-2.64,2.63,4.33,4.33,0,0,1-1.75.37,4.62,4.62,0,0,1-1.75-.34,4.72,4.72,0,0,1-3-4.37,4.47,4.47,0,0,1,.37-1.75,5,5,0,0,1,1.07-1.57A5,5,0,0,1,277.46,44.86ZM275.89,48a3.32,3.32,0,0,0-.29,1.33,3.2,3.2,0,0,0,.25,1.32,3.65,3.65,0,0,0,1.95,2,3.56,3.56,0,0,0,1.32.25,3.43,3.43,0,0,0,1.32-.3,4,4,0,0,0,1.2-.83,4.15,4.15,0,0,0,.84-1.2,3.24,3.24,0,0,0,.29-1.32,3.14,3.14,0,0,0-.25-1.32,3.43,3.43,0,0,0-.78-1.17,3.67,3.67,0,0,0-1.17-.79,3.37,3.37,0,0,0-1.32-.25,3.24,3.24,0,0,0-1.32.29,3.9,3.9,0,0,0-1.2.84A3.81,3.81,0,0,0,275.89,48Z"/><path class="cls-2" d="M288.54,56.47a4.5,4.5,0,0,1,1.78-.19,4.64,4.64,0,0,1,1.71.52,4.89,4.89,0,0,1,2.34,2.86,4.48,4.48,0,0,1,.16,1.78,4.55,4.55,0,0,1-.53,1.7,5.21,5.21,0,0,1-2.89,2.36,4.55,4.55,0,0,1-1.78.2A4.56,4.56,0,0,1,286.17,64a4.91,4.91,0,0,1-.9-1.66,4.69,4.69,0,0,1-.16-1.78,4.49,4.49,0,0,1,.54-1.71,5,5,0,0,1,1.22-1.44A4.93,4.93,0,0,1,288.54,56.47Zm-1.87,2.94a3.39,3.39,0,0,0-.43,1.29,3.33,3.33,0,0,0,.12,1.33,3.42,3.42,0,0,0,.67,1.24,3.51,3.51,0,0,0,1.08.9,3.37,3.37,0,0,0,2.64.22A4.15,4.15,0,0,0,293,62.57a3.39,3.39,0,0,0,.43-1.29,3.35,3.35,0,0,0-.12-1.33,3.42,3.42,0,0,0-.67-1.24,3.45,3.45,0,0,0-1.08-.91,3.49,3.49,0,0,0-1.29-.38,3.42,3.42,0,0,0-1.34.17,3.69,3.69,0,0,0-1.28.71A3.82,3.82,0,0,0,286.67,59.41Z"/><path class="cls-2" d="M297.08,62.74l3.44,4.71-.84.62-1.4-1.9L291.72,71l-.66-.9,6.57-4.8-1.4-1.91Z"/><path class="cls-2" d="M299.14,72l.82,1.23a2.13,2.13,0,0,0,.58.61,1.34,1.34,0,0,0,.71.22,1.38,1.38,0,0,0,1.32-1.17,1.78,1.78,0,0,0-.34-1.16l-.69-1-6,4,.76,1.15a2.43,2.43,0,0,0,.75.75,1.62,1.62,0,0,0,.89.26,1.66,1.66,0,0,0,.94-.32,1.75,1.75,0,0,0,.55-.53,1.54,1.54,0,0,0,.23-.65,1.93,1.93,0,0,0-.07-.71,3.15,3.15,0,0,0-.36-.74l-.89-1.35.51-.34.89,1.35a4.46,4.46,0,0,1,.56,1.11,2.88,2.88,0,0,1,.18,1.06,1.93,1.93,0,0,1-.26,1,2.37,2.37,0,0,1-.78.8A2.5,2.5,0,0,1,298,78a2.54,2.54,0,0,1-1.36-.43,4.19,4.19,0,0,1-1.12-1.17l-1.38-2.08,7.66-5.06,1.3,2a4.3,4.3,0,0,1,.5,1,2.45,2.45,0,0,1,.13,1,2,2,0,0,1-.29.86,2.5,2.5,0,0,1-.75.73,1.81,1.81,0,0,1-1.1.32,2.13,2.13,0,0,1-1.11-.41,4.13,4.13,0,0,1-1-1.07l-.82-1.23Z"/><path class="cls-2" d="M306.84,77.16l-7.9,4.68-.57-1,7.9-4.68Zm-7.25,3.72,2.35,4-.9.53-2.35-4Zm3.84-2.27,2.22,3.75-.9.54-2.23-3.76Zm3.16-1.87,2.35,4-.9.54-2.36-4Z"/><path class="cls-2" d="M305.48,87a3.38,3.38,0,0,0-.66,1.2,3.45,3.45,0,0,0-.16,1.31,3.14,3.14,0,0,0,.36,1.26,4.16,4.16,0,0,0,.7,1,3.9,3.9,0,0,0,.88.66,3.35,3.35,0,0,0,1,.35l-1.3.67a3.85,3.85,0,0,1-1.26-.77,4.87,4.87,0,0,1-1-1.38,4.68,4.68,0,0,1-.51-1.75,4.32,4.32,0,0,1,.2-1.75,4.46,4.46,0,0,1,.88-1.57A4.84,4.84,0,0,1,306.11,85a5.14,5.14,0,0,1,1.84-.56,4.66,4.66,0,0,1,1.79.19,4.37,4.37,0,0,1,1.54.84,4.56,4.56,0,0,1,1.13,1.43,5,5,0,0,1,.56,1.62,4.08,4.08,0,0,1-.09,1.47l-1.31.67a3.31,3.31,0,0,0,.29-1,4.07,4.07,0,0,0,0-1.1,4.15,4.15,0,0,0-.4-1.15,3.3,3.3,0,0,0-.83-1,3.42,3.42,0,0,0-2.52-.77,3.73,3.73,0,0,0-1.43.43A3.83,3.83,0,0,0,305.48,87Z"/><path class="cls-2" d="M314.37,91.09l2.43,5.3-1,.44-1-2.15-7.39,3.38-.47-1,7.4-3.38-1-2.15Z"/><path class="cls-2" d="M314.52,100.56l.55,1.38a2.23,2.23,0,0,0,.46.71,1.25,1.25,0,0,0,.64.36,1.2,1.2,0,0,0,.76-.08,1.22,1.22,0,0,0,.77-.8,1.77,1.77,0,0,0-.1-1.21l-.46-1.15-6.69,2.69.51,1.27a2.41,2.41,0,0,0,.58.89,1.68,1.68,0,0,0,.83.44,1.72,1.72,0,0,0,1-.12,2,2,0,0,0,.64-.42,1.39,1.39,0,0,0,.36-.59,1.85,1.85,0,0,0,.07-.71,2.84,2.84,0,0,0-.2-.8l-.6-1.49.57-.23.6,1.49a4.92,4.92,0,0,1,.33,1.2,3,3,0,0,1,0,1.08,2.13,2.13,0,0,1-.45.9,2.3,2.3,0,0,1-.92.62,2.53,2.53,0,0,1-1.55.18,2.49,2.49,0,0,1-1.24-.7,4,4,0,0,1-.87-1.37l-.93-2.31,8.52-3.43.88,2.19a4.08,4.08,0,0,1,.28,1.09,2.48,2.48,0,0,1-.06,1,1.92,1.92,0,0,1-.46.79,2.34,2.34,0,0,1-.88.56,1.82,1.82,0,0,1-1.14.1,2.08,2.08,0,0,1-1-.63,4,4,0,0,1-.76-1.24l-.55-1.38Z"/><path class="cls-2" d="M321,107.19l-8.68,3-.36-1.06,8.67-3Zm-7.85,2.18,1.51,4.38-1,.34-1.51-4.38Zm4.21-1.45,1.43,4.13-1,.34-1.43-4.13Zm3.48-1.2,1.51,4.37-1,.35-1.51-4.38Z"/><path class="cls-2" d="M323.55,114.93l-8.8,2.62-.31-1.07,8.8-2.62Zm1.76,5.91-8.8,2.62-.31-1.07,8.79-2.62Zm-5.42-5.34,1.8,6-1,.3-1.79-6Z"/><path class="cls-2" d="M326.31,125.15l-9,1.95-.23-1.09,9-2Zm1.31,6-9,1.95-.23-1.09,9-1.95Zm-5-5.73L324,131.6l-1,.22-1.33-6.15Z"/><path class="cls-2" d="M328.38,135.42l-9.08,1.36-.17-1.1,9.08-1.36Zm-3.71.05.28,1.86a3.62,3.62,0,0,1-.1,1.62,2.78,2.78,0,0,1-.77,1.25,2.58,2.58,0,0,1-1.39.62,2.61,2.61,0,0,1-1.51-.19,2.7,2.7,0,0,1-1.11-1,3.69,3.69,0,0,1-.57-1.53l-.28-1.85,1-.16.28,1.86a2.68,2.68,0,0,0,.34,1,1.54,1.54,0,0,0,.67.62,1.63,1.63,0,0,0,1,.11,1.77,1.77,0,0,0,.9-.39,1.61,1.61,0,0,0,.46-.79,2.66,2.66,0,0,0,0-1.06l-.28-1.85Zm4.72,6.69-9.08,1.37-.17-1.11,9.08-1.36Z"/><path class="cls-2" d="M321.68,147.14l-1.53-1,9.61-.78.09,1.11Zm-1.53-1,1.71-.07,9,7.29-1.71.08Zm1.11,8-.09-1.11,8.17-.66,1.53,1Zm11.44-5.75a1.21,1.21,0,0,0-.39.12,1,1,0,0,0-.38.37,1.3,1.3,0,0,0-.12.72,1.22,1.22,0,0,0,.24.69.89.89,0,0,0,.43.31,1.07,1.07,0,0,0,.41.06l.07.93a1.83,1.83,0,0,1-1.64-.79,2.32,2.32,0,0,1-.36-1.13,2.35,2.35,0,0,1,.18-1.16,1.68,1.68,0,0,1,.63-.75,1.78,1.78,0,0,1,.86-.3Z"/><path class="cls-2" d="M327,162l0,1.88a3.71,3.71,0,0,1-.34,1.59,2.8,2.8,0,0,1-1,1.11,2.81,2.81,0,0,1-2.94,0,2.71,2.71,0,0,1-.94-1.12,3.72,3.72,0,0,1-.33-1.6l0-1.87h1.05l0,1.87a2.85,2.85,0,0,0,.18,1.05,1.61,1.61,0,0,0,.57.71,1.65,1.65,0,0,0,.94.26,1.61,1.61,0,0,0,.95-.25,1.53,1.53,0,0,0,.57-.7,2.61,2.61,0,0,0,.2-1l0-1.88Zm3.64,4.33h-1.05l0-3.81-8.14-.06v-1.12l9.18.08Z"/><path class="cls-2" d="M330.43,170.68l-9.17-.53.07-1.12,9.16.54Zm0-.5-.11,1.87a3.69,3.69,0,0,1-.43,1.57,2.72,2.72,0,0,1-1,1.06,2.63,2.63,0,0,1-1.49.33,2.57,2.57,0,0,1-1.44-.5,2.66,2.66,0,0,1-.89-1.17,3.48,3.48,0,0,1-.24-1.6l.11-1.88,1,.06-.1,1.87a2.74,2.74,0,0,0,.12,1.06,1.61,1.61,0,0,0,.53.74,1.88,1.88,0,0,0,1.89.11,1.56,1.56,0,0,0,.61-.68,2.65,2.65,0,0,0,.25-1l.11-1.87Z"/><path class="cls-2" d="M321.79,177.5l-.5,4.6-1.05-.11.5-4.6Zm8,1.38-9.13-1,.12-1.1,9.13,1Zm-3.6-.9-.47,4.34-1.05-.11.48-4.34Zm3.65.4-.5,4.6-1-.11.5-4.6Z"/><path class="cls-2" d="M327.79,193.13l-9.05-1.5.18-1.1L328,192Zm1-6.08-9.06-1.5.18-1.1L329,186ZM325.27,186l-1,6.21-1-.17,1-6.21Z"/><path class="cls-2" d="M318.13,194.64l-1.4-.33.23-1,2.42.57L317.24,203l-2.43-.57.23-1,1.4.33Zm.13,1.17.27-1.15,8.14,5.77-9.86,1.51.27-1.15,7.13-.94Z"/><circle class="cls-1" cx="27.52" cy="241.19" r="2.43"/><circle class="cls-1" cx="165.79" cy="2.93" r="2.43"/></g></g></svg>