<svg xmlns="http://www.w3.org/2000/svg" xmlns:xlink="http://www.w3.org/1999/xlink" viewBox="0 0 188.03 182.99"><defs><style>.cls-1,.cls-11{fill:none;}.cls-2{clip-path:url(#clip-path);}.cls-3{opacity:0.63;}.cls-4{clip-path:url(#clip-path-2);}.cls-5{clip-path:url(#clip-path-3);}.cls-6{fill:#a5bac9;}.cls-7{clip-path:url(#clip-path-4);}.cls-8{fill:#bdcf9b;}.cls-9{clip-path:url(#clip-path-5);}.cls-10{fill:#b6a999;}.cls-11{stroke:#fff;stroke-width:1.5px;}.cls-12{fill:#fff;}</style><clipPath id="clip-path" transform="translate(-6.58 -5.08)"><rect class="cls-1" x="6.56" y="5.02" width="188" height="183.05"/></clipPath><clipPath id="clip-path-2" transform="translate(-6.58 -5.08)"><rect class="cls-1" width="201.11" height="188.45"/></clipPath><clipPath id="clip-path-3" transform="translate(-6.58 -5.08)"><rect class="cls-1" x="3.08" y="43.99" width="124.96" height="115.06"/></clipPath><clipPath id="clip-path-4" transform="translate(-6.58 -5.08)"><rect class="cls-1" x="60.17" y="65.85" width="137.85" height="122.61"/></clipPath><clipPath id="clip-path-5" transform="translate(-6.58 -5.08)"><rect class="cls-1" x="46.31" y="2.32" width="135.6" height="117.98"/></clipPath></defs><title>logo_1</title><g id="Слой_2" data-name="Слой 2"><g id="Слой_1-2" data-name="Слой 1"><g class="cls-2"><g class="cls-3"><g class="cls-4"><g class="cls-5"><path class="cls-6" d="M37.42,47.08a12.7,12.7,0,0,1,3.63-.37,65,65,0,0,1,21.18,4.58C74,56.13,99.39,70.44,104,73.9S122.46,88,124.08,98.37s-.92,22.2-5.31,28.17-13.15,15.9-21.46,21.21a85.45,85.45,0,0,1-25.38,10.41c-6.47,1.38-14.69-.22-20.54-1.39s-14.83-4-20-7.76-9-6.72-13.24-12.78a64.81,64.81,0,0,1-7.82-20.07C9.62,112,6.64,90.09,6.64,90.09s-.39-14.31.77-19.39c0,0,2.92-10.38,10.3-15.69,5.81-4.17,15.75-6.92,19.73-7.9" transform="translate(-6.58 -5.08)"/></g><g class="cls-7"><path class="cls-8" d="M66.85,106.75s-4.16,10.3-3,21.38,7,30.56,13.82,38.07S97.77,184.43,107,187s21.93.23,27-2.54,30.75-20.54,30.75-20.54,17.07-13.38,18.69-15,8.08-8.54,10.15-16.85.72-13.59-1.84-19.16c-1.22-2.65-11.45-16.78-16.46-21s-16.08-15.27-27.85-19.19S129,67.38,120.21,69.46,96.44,77.07,91.59,80.31,80.28,88,76.38,91.89s-9.46,14.86-9.46,14.86" transform="translate(-6.58 -5.08)"/></g><g class="cls-9"><path class="cls-10" d="M49.92,60.89S46.47,95,73.84,108.34s42.28,12.44,56.83,10.33,32-11.86,38.84-21.24,9.57-20.09,8.8-36.92-5.74-27.06-11.86-35.21-20.12-16.46-26-18.15a53.55,53.55,0,0,0-14.18-2.07c-5.17,0-14.36,3.56-20.1,7.84S84.75,26.45,82.26,27.79s-13.93,7.94-16.84,9.75S57,43,53.94,48s-4,12.94-4,12.94" transform="translate(-6.58 -5.08)"/></g></g></g></g><rect class="cls-1" x="44.06" y="84.55" width="102.51" height="35.87"/><path class="cls-11" d="M101.86,124.62a2.51,2.51,0,0,0,2.53-2.49h0a2.67,2.67,0,1,0-3.17,2.47,2.22,2.22,0,0,0,.63,0Z" transform="translate(-6.58 -5.08)"/><path class="cls-12" d="M152,111.77c-.46-1.06-1-2.28-1.53-3.63s-1.16-2.83-1.8-4.41-1.28-3.17-1.92-4.77-1.27-3.18-1.89-4.75l-1.72-4.37h-.63q-2.55,6.24-5.07,12.24t-5.15,12.08c.41,0,.82-.06,1.22-.06a9.87,9.87,0,0,1,1.22.07c.28-1.06.71-2.41,1.27-4s1.2-3.35,1.9-5.16h6.17c.73,0,1.44,0,2.14.06l.93,2.42,1,2.5q.48,1.24.87,2.37c.27.75.48,1.4.64,1.93a4.25,4.25,0,0,1,.87-.06h1.74a5.22,5.22,0,0,1,.88.07c-.29-.55-.66-1.37-1.11-2.44m-9.94-17.24,3.68,8.85h-7.25Zm-26.38,19.46a12.55,12.55,0,0,1,1.62.07c-.07-1.44-.14-2.9-.19-4.38s-.09-3-.1-4.52v-3c0-.14,0-.21.16-.21s.22.1.4.28c.35.38.89,1,1.63,1.94l2.48,3.1c.91,1.15,1.85,2.34,2.8,3.57s1.8,2.18,2.6,3.18a5.58,5.58,0,0,1,.91-.07H130a6.73,6.73,0,0,1,1,.07q-2.8-3.31-5.53-6.61c-1.82-2.19-3.62-4.35-5.4-6.46q.9-1.08,2.22-2.52c.88-1,1.81-1.93,2.79-2.93s1.94-2,2.91-2.91,1.83-1.77,2.59-2.46l-.79.12a5.21,5.21,0,0,1-.79,0,3.68,3.68,0,0,1-.66-.06l-.69-.12c-.76.92-1.56,1.88-2.4,2.86s-1.67,2-2.52,2.9-1.71,1.86-2.55,2.74-1.65,1.66-2.42,2.36c-.22.2-.37.31-.46.31s-.19-.1-.19-.28V99.14c0-1.53,0-3,.07-4.51s.11-3,.17-4.5l-.82.12a7,7,0,0,1-.79,0,5.25,5.25,0,0,1-.79-.06l-.82-.12c.07,1.53.13,3,.19,4.5s.09,3,.09,4.51v6c0,1.53,0,3-.07,4.52s-.11,3-.17,4.38c.5,0,1-.06,1.61-.06m-19-4.51h-.4q-.09,1-.21,1.65a7.18,7.18,0,0,1-.41,1.44,9.54,9.54,0,0,0,2.13,1.31,8.33,8.33,0,0,0,3.31.59,9.44,9.44,0,0,0,3.41-.57,6.9,6.9,0,0,0,2.53-1.62,7.09,7.09,0,0,0,1.58-2.49,7.92,7.92,0,0,0,.53-3,5.24,5.24,0,0,0-.78-3.06,6.44,6.44,0,0,0-1.93-1.89,13.45,13.45,0,0,0-2.49-1.24,19.2,19.2,0,0,1-2.48-1.15,6.57,6.57,0,0,1-1.93-1.59,4,4,0,0,1-.78-2.58,4.65,4.65,0,0,1,.31-1.73,3.75,3.75,0,0,1,.88-1.37,3.83,3.83,0,0,1,1.35-.89A4.44,4.44,0,0,1,103,91a3.64,3.64,0,0,1,1.59.34,4.24,4.24,0,0,1,1.89,1.88,6.61,6.61,0,0,1,.45,1.06h.4c.13-.68.26-1.23.39-1.67a7.91,7.91,0,0,1,.49-1.25,6.38,6.38,0,0,0-2.14-1.24,8.21,8.21,0,0,0-2.74-.41,8.07,8.07,0,0,0-3,.48,6.47,6.47,0,0,0-2.25,1.35,5.79,5.79,0,0,0-1.43,2.06,7.13,7.13,0,0,0-.49,2.66A6.14,6.14,0,0,0,97,99.49a6.94,6.94,0,0,0,1.93,2,13.75,13.75,0,0,0,2.49,1.31,20.08,20.08,0,0,1,2.49,1.15,6.5,6.5,0,0,1,1.93,1.57,3.82,3.82,0,0,1,.78,2.54,5.67,5.67,0,0,1-.33,2,4.77,4.77,0,0,1-.93,1.6,4.53,4.53,0,0,1-3.44,1.46,5.19,5.19,0,0,1-1.91-.33,5.9,5.9,0,0,1-1.5-.86,6.06,6.06,0,0,1-1.09-1.17,7.51,7.51,0,0,1-.71-1.27M80.42,99.06v6c0,1.53,0,3-.07,4.53s-.11,2.94-.17,4.38c1,0,2.07-.07,3-.06h6.17c1,0,2,0,3,.08a3.78,3.78,0,0,1-.16-.94,4.26,4.26,0,0,1,.16-1,44.55,44.55,0,0,1-4.61.39H83.26c0-1.7-.05-3.62-.08-5.76s0-4.68,0-7.6c0-1.53,0-3,.07-4.5s.11-3,.18-4.51l-.83.12a5.21,5.21,0,0,1-.79,0H81l-.82-.13c.07,1.54.13,3,.19,4.51s.09,3,.09,4.5m-9,8a9.48,9.48,0,0,1-1.92,3.47,7.67,7.67,0,0,1-2.9,2,10.09,10.09,0,0,1-7.18,0,8.07,8.07,0,0,1-2.9-2,9.69,9.69,0,0,1-1.93-3.48,18.46,18.46,0,0,1,0-10,9.48,9.48,0,0,1,1.92-3.47,7.56,7.56,0,0,1,2.89-2,10.09,10.09,0,0,1,7.18,0,7.79,7.79,0,0,1,2.9,2A9.45,9.45,0,0,1,71.35,97a18.27,18.27,0,0,1,0,10m-19.84.22a11,11,0,0,0,2.54,3.92A10.26,10.26,0,0,0,58,113.57a14.92,14.92,0,0,0,5,.8,15.41,15.41,0,0,0,5-.77,10.26,10.26,0,0,0,3.89-2.37,10.73,10.73,0,0,0,2.53-3.9,14.06,14.06,0,0,0,.94-5.29,14.34,14.34,0,0,0-.91-5.27,11.07,11.07,0,0,0-2.55-3.92A10.83,10.83,0,0,0,68,90.4a14.68,14.68,0,0,0-5-.85,14.45,14.45,0,0,0-5,.82,10.63,10.63,0,0,0-6.43,6.33,15.88,15.88,0,0,0,0,10.54" transform="translate(-6.58 -5.08)"/></g></g></svg>