<svg width="109" height="108" viewBox="0 0 109 108" fill="none" xmlns="http://www.w3.org/2000/svg">
<path d="M46.2882 106.056C46.256 106.239 46.1951 106.401 46.1055 106.54C46.0153 106.682 45.9065 106.798 45.7791 106.887C45.6481 106.979 45.5081 107.043 45.359 107.079C45.2069 107.114 45.0525 107.118 44.8959 107.091C44.7453 107.065 44.6117 107.021 44.495 106.96C44.3754 106.899 44.2707 106.824 44.1809 106.733C44.0907 106.646 44.0176 106.55 43.9616 106.444L43.873 106.949C43.9849 107.09 44.1142 107.202 44.2608 107.287C44.4074 107.371 44.5967 107.434 44.8286 107.474C45.0485 107.513 45.2619 107.508 45.469 107.461C45.6724 107.416 45.8594 107.332 46.0298 107.21C46.1997 107.091 46.3427 106.939 46.4589 106.755C46.575 106.571 46.6537 106.362 46.6948 106.127C46.736 105.893 46.7333 105.669 46.6868 105.456C46.6403 105.244 46.5577 105.051 46.439 104.878C46.3197 104.709 46.1723 104.567 45.9968 104.453C45.8178 104.341 45.6183 104.266 45.3984 104.227C45.1665 104.187 44.9672 104.181 44.8006 104.211C44.6339 104.241 44.474 104.303 44.3209 104.397L44.2323 104.902C44.3209 104.821 44.4228 104.754 44.5379 104.699C44.6524 104.648 44.7764 104.614 44.9097 104.597C45.0401 104.58 45.1805 104.584 45.3312 104.61C45.4878 104.638 45.6316 104.694 45.7626 104.779C45.8906 104.863 46.0008 104.969 46.0933 105.097C46.1822 105.227 46.2451 105.373 46.282 105.534C46.3183 105.699 46.3204 105.873 46.2882 106.056Z" fill="white"/>
<path d="M41.7205 106.788L42.5274 103.686L42.1501 103.588L41.3431 106.69L41.7205 106.788ZM40.1222 106.374L41.839 105.258L40.8626 103.254L40.3964 103.134L41.3794 105.148L39.6561 106.253L40.1222 106.374Z" fill="white"/>
<path d="M35.2201 104.336L35.0001 104.89L38.6154 103.056L38.8354 102.502L35.2201 104.336ZM37.3461 105.546L37.7137 105.676L38.8354 102.502L38.2999 102.848L37.3461 105.546ZM35.0001 104.89L35.5357 104.544L36.4895 101.846L36.1218 101.716L35.0001 104.89Z" fill="white"/>
<path d="M31.9291 102.623L32.1033 100.121L31.7286 99.9477L31.5574 103.425L34.1015 101.043L33.7268 100.87L31.9291 102.623ZM31.8072 99.8327L32.019 99.3756L31.7068 99.2314L31.3409 100.021L34.2966 101.386L34.6625 100.596L34.3503 100.452L34.1385 100.909L31.8072 99.8327Z" fill="white"/>
<path d="M28.3775 101.659L29.9684 98.8748L29.6297 98.682L28.0389 101.466L28.3775 101.659ZM26.9432 100.842L28.8924 100.212L28.4743 98.0241L28.056 97.7859L28.4775 99.9867L26.5248 100.604L26.9432 100.842Z" fill="white"/>
<path d="M25.8292 97.517L24.4276 96.5618L24.3343 96.9417L25.5087 97.742L25.8292 97.517ZM24.2773 98.2999L24.5521 96.9238L24.5735 96.8275L24.8078 95.6567L24.4479 95.4115L23.7782 99.0297L26.9103 97.0895L26.5504 96.8442L25.5202 97.506L25.4433 97.5534L24.2773 98.2999Z" fill="white"/>
<path d="M6.15745 75.2213C5.9852 75.2927 5.81616 75.3281 5.65032 75.3275C5.48167 75.328 5.32539 75.2986 5.18149 75.2393C5.0336 75.1784 4.90442 75.0948 4.79397 74.9885C4.68235 74.8795 4.59603 74.7517 4.53502 74.6051C4.47635 74.4642 4.44132 74.3283 4.42992 74.1975C4.41735 74.0639 4.425 73.9351 4.45288 73.8112C4.47794 73.6884 4.52015 73.575 4.57953 73.4711L4.10513 73.6678C4.04662 73.8375 4.02105 74.0068 4.02841 74.1756C4.03578 74.3445 4.08463 74.5374 4.17498 74.7544C4.26063 74.9602 4.37913 75.1375 4.53047 75.2862C4.67781 75.4334 4.84882 75.5459 5.04351 75.6238C5.23537 75.7029 5.44033 75.7418 5.65839 75.7406C5.87644 75.7394 6.09559 75.6932 6.31585 75.6018C6.53611 75.5104 6.72359 75.3881 6.87828 75.2347C7.03297 75.0813 7.15134 74.9082 7.23339 74.7155C7.31261 74.524 7.35339 74.3236 7.35571 74.1144C7.35404 73.9036 7.31037 73.6953 7.22472 73.4895C7.13437 73.2725 7.03186 73.1018 6.9172 72.9775C6.80253 72.8532 6.66432 72.7518 6.50256 72.6735L6.02816 72.8703C6.14386 72.9016 6.25554 72.9511 6.3632 73.0189C6.46805 73.0878 6.56346 73.1738 6.64945 73.2769C6.73427 73.3773 6.80601 73.4979 6.86468 73.6389C6.92569 73.7854 6.95553 73.9367 6.95421 74.0926C6.9517 74.2457 6.92133 74.3954 6.86308 74.5419C6.80084 74.6867 6.71145 74.818 6.5949 74.9357C6.47552 75.0546 6.32971 75.1498 6.15745 75.2213Z" fill="white"/>
<path d="M3.08482 71.7691L6.13945 70.7818L6.01934 70.4115L2.96471 71.3989L3.08482 71.7691ZM2.57611 70.201L4.44149 71.0467L5.60955 69.1483L5.46118 68.691L4.28722 70.6008L2.42774 69.7437L2.57611 70.201Z" fill="white"/>
<path d="M1.66385 64.9794L1.07782 65.0916L4.56994 67.1498L5.15598 67.0375L1.66385 64.9794ZM1.78378 67.4192L1.87192 67.7983L5.15598 67.0375L4.57634 66.7723L1.78378 67.4192ZM1.07782 65.0916L1.65745 65.3569L4.45001 64.71L4.36187 64.3309L1.07782 65.0916Z" fill="white"/>
<path d="M1.34311 61.2883L3.55108 60.0904L3.49595 59.6821L0.465774 61.4063L3.84512 62.2684L3.78999 61.8601L1.34311 61.2883ZM3.63539 59.6864L4.13542 59.6191L4.08948 59.2788L3.22578 59.395L3.66072 62.6166L4.52441 62.5005L4.47847 62.1601L3.97843 62.2274L3.63539 59.6864Z" fill="white"/>
<path d="M0.24982 57.7802L3.45679 57.6237L3.43776 57.235L0.23079 57.3915L0.24982 57.7802ZM0.169225 56.1339L1.74847 57.4366L3.37284 55.9088L3.34933 55.4287L1.71625 56.966L0.145718 55.6537L0.169225 56.1339Z" fill="white"/>
<path d="M2.38018 53.4096L2.43417 51.7164L2.06303 51.842L2.01779 53.2606L2.38018 53.4096ZM0.884815 52.5238L2.19516 52.0157L2.28802 51.982L3.40319 51.5502L3.41706 51.1154L0 52.4956L3.32221 54.09L3.33607 53.6552L2.22345 53.1435L2.1421 53.1042L0.884815 52.5238Z" fill="white"/>
<path d="M10.6493 24.8694C10.4964 24.7627 10.3757 24.6395 10.2871 24.4995C10.196 24.3578 10.1369 24.2105 10.1097 24.0575C10.0817 23.9002 10.083 23.7465 10.1134 23.5965C10.1455 23.4439 10.2072 23.3026 10.2982 23.1724C10.3858 23.0473 10.4818 22.9448 10.5861 22.865C10.6923 22.7826 10.8052 22.7199 10.9249 22.6767C11.0421 22.6319 11.1606 22.6065 11.2803 22.6006L10.8592 22.307C10.6844 22.3489 10.5276 22.4183 10.3889 22.5152C10.2502 22.6121 10.1134 22.7569 9.97861 22.9496C9.85077 23.1322 9.76465 23.3272 9.72026 23.5346C9.67511 23.7377 9.67192 23.9421 9.7107 24.1478C9.74696 24.3519 9.82418 24.5453 9.94235 24.7283C10.0605 24.9112 10.2174 25.0708 10.4129 25.2072C10.6084 25.3435 10.8126 25.4356 11.0253 25.4834C11.238 25.5312 11.4478 25.5379 11.6547 25.5034C11.8591 25.4672 12.0503 25.3939 12.2283 25.2835C12.4056 25.1688 12.5581 25.0201 12.6859 24.8374C12.8208 24.6448 12.9099 24.4668 12.9534 24.3034C12.9968 24.1401 13.0082 23.9693 12.9874 23.791L12.5663 23.4974C12.602 23.6116 12.6201 23.7322 12.6208 23.8593C12.6189 23.9846 12.5975 24.1111 12.5565 24.2389C12.5173 24.3642 12.4539 24.4895 12.3663 24.6146C12.2753 24.7447 12.1635 24.8511 12.0311 24.9337C11.9004 25.0138 11.7575 25.0687 11.6025 25.0984C11.4467 25.1238 11.2877 25.1191 11.1256 25.0842C10.961 25.0476 10.8022 24.976 10.6493 24.8694Z" fill="white"/>
<path d="M11.9153 20.4278L14.3907 22.4689L14.639 22.1689L12.1636 20.1278L11.9153 20.4278ZM12.9669 19.157L13.2546 21.1818L15.4862 21.1452L15.7929 20.7746L13.5484 20.8124L13.2736 18.7864L12.9669 19.157Z" fill="white"/>
<path d="M16.8887 15.5836L16.479 15.1505L16.6162 19.1962L17.026 19.6293L16.8887 15.5836ZM14.8917 16.9954L14.6187 17.2733L17.026 19.6293L16.9387 18.9988L14.8917 16.9954ZM16.479 15.1505L16.5663 15.781L18.6133 17.7844L18.8863 17.5065L16.479 15.1505Z" fill="white"/>
<path d="M19.8351 13.3304L22.0335 14.5456L22.349 14.2798L19.264 12.6552L20.3513 15.9634L20.6667 15.6975L19.8351 13.3304ZM22.4202 14.3995L22.7457 14.7843L23.0086 14.5628L22.4464 13.8981L19.958 15.9952L20.5202 16.6599L20.783 16.4384L20.4575 16.0535L22.4202 14.3995Z" fill="white"/>
<path d="M22.2119 10.5251L24.0671 13.1409L24.3853 12.916L22.5301 10.3002L22.2119 10.5251ZM23.5596 9.57272L23.3073 11.6022L25.471 12.1488L25.864 11.8711L23.6876 11.3222L23.9527 9.29494L23.5596 9.57272Z" fill="white"/>
<path d="M27.0494 9.97033L28.509 9.10605L28.2034 8.8611L26.9805 9.58522L27.0494 9.97033ZM26.9944 8.2355L28.1277 9.06567L28.206 9.12574L29.1701 9.83256L29.5448 9.61065L26.5427 7.4755L26.9806 11.129L27.3554 10.9071L27.19 9.69542L27.1794 9.60585L26.9944 8.2355Z" fill="white"/>
<path d="M55.6069 1.59774C55.6148 1.41171 55.6541 1.24383 55.7248 1.09407C55.7955 0.941272 55.8883 0.812317 56.0029 0.707207C56.1208 0.599178 56.2513 0.517655 56.3944 0.462638C56.5406 0.40775 56.6932 0.383683 56.852 0.390437C57.0048 0.396931 57.1429 0.422662 57.2665 0.467632C57.3931 0.512731 57.5068 0.574084 57.6076 0.65169C57.7085 0.726246 57.7935 0.812351 57.8628 0.910006L57.8847 0.397675C57.7553 0.273027 57.6125 0.178355 57.4561 0.113659C57.2997 0.0489633 57.1039 0.0116152 56.8686 0.00161464C56.6456 -0.00786639 56.4346 0.0244064 56.2355 0.0984332C56.0397 0.16954 55.8652 0.276691 55.7122 0.419887C55.5593 0.560033 55.4373 0.728989 55.3462 0.926755C55.2552 1.12452 55.2046 1.34234 55.1944 1.58021C55.1843 1.81807 55.2161 2.0394 55.29 2.24418C55.3639 2.44896 55.471 2.62918 55.6113 2.78484C55.7517 2.93746 55.9164 3.05902 56.1053 3.14954C56.2975 3.23715 56.5051 3.28569 56.7281 3.29517C56.9633 3.30517 57.1616 3.28457 57.323 3.23339C57.4843 3.1822 57.6347 3.09999 57.7742 2.98677L57.7961 2.47444C57.7187 2.56586 57.6266 2.64596 57.5196 2.71473C57.4127 2.78046 57.2943 2.83042 57.1642 2.86461C57.0373 2.89893 56.8974 2.91284 56.7447 2.90634C56.5858 2.89959 56.4359 2.86267 56.2949 2.79557C56.157 2.7286 56.0338 2.63783 55.9255 2.52324C55.8203 2.40573 55.7389 2.26937 55.6812 2.11416C55.6237 1.9559 55.5989 1.78376 55.6069 1.59774Z" fill="white"/>
<path d="M60.0399 0.277157L59.6453 3.45783L60.0322 3.50566L60.4268 0.324986L60.0399 0.277157ZM61.6786 0.479724L60.1224 1.80982L61.3523 3.66884L61.8303 3.72792L60.5924 1.85868L62.1566 0.538806L61.6786 0.479724Z" fill="white"/>
<path d="M66.8051 1.8614L66.9509 1.28379L63.6062 3.57303L63.4605 4.15064L66.8051 1.8614ZM64.5392 0.938681L64.1578 0.858188L63.4605 4.15064L63.9463 3.73838L64.5392 0.938681ZM66.9509 1.28379L66.4651 1.69605L65.8721 4.49575L66.2536 4.57624L66.9509 1.28379Z" fill="white"/>
<path d="M70.2919 3.13128L70.4463 5.63501L70.8404 5.75773L70.5556 2.28772L68.3446 4.98047L68.7386 5.10319L70.2919 3.13128ZM70.7775 5.88204L70.6273 6.36282L70.9557 6.46509L71.2152 5.63465L68.1064 4.66648L67.8468 5.49692L68.1752 5.59919L68.3255 5.11841L70.7775 5.88204Z" fill="white"/>
<path d="M73.9392 3.62497L72.7258 6.59226L73.0868 6.73933L74.3002 3.77205L73.9392 3.62497ZM75.468 4.24788L73.6177 5.12592L74.3183 7.24112L74.7642 7.4228L74.0586 5.29566L75.9139 4.42956L75.468 4.24788Z" fill="white"/>
<path d="M77.0071 7.39943L78.5216 8.16391L78.5644 7.77506L77.2955 7.13455L77.0071 7.39943ZM78.4433 6.42105L78.3508 7.82119L78.3422 7.91943L78.2629 9.11078L78.6517 9.30706L78.8428 5.63249L75.9911 7.96406L76.38 8.16034L77.3149 7.37012L77.3849 7.3131L78.4433 6.42105Z" fill="white"/>
<path d="M99.4248 26.9427C99.5863 26.8494 99.7493 26.7923 99.9138 26.7713C100.081 26.7488 100.24 26.7576 100.39 26.7977C100.545 26.8389 100.684 26.9049 100.807 26.9959C100.932 27.0895 101.034 27.2049 101.114 27.3423C101.191 27.4744 101.243 27.6045 101.271 27.7327C101.301 27.8636 101.311 27.9922 101.299 28.1188C101.29 28.2437 101.263 28.3616 101.218 28.4724L101.663 28.2156C101.698 28.0397 101.702 27.8686 101.672 27.7021C101.643 27.5357 101.569 27.3508 101.451 27.1474C101.34 26.9545 101.199 26.7942 101.029 26.6664C100.864 26.5397 100.68 26.4504 100.477 26.3985C100.276 26.3451 100.068 26.3332 99.8518 26.3628C99.6357 26.3924 99.4245 26.4668 99.2181 26.5861C99.0116 26.7053 98.8417 26.8511 98.7084 27.0233C98.5751 27.1955 98.4804 27.3825 98.4242 27.5842C98.3707 27.7844 98.3565 27.9884 98.3815 28.1961C98.4107 28.4049 98.4812 28.6058 98.593 28.7986C98.711 29.0021 98.8349 29.1579 98.9649 29.2662C99.0948 29.3746 99.2451 29.457 99.4157 29.5136L99.8603 29.2568C99.7415 29.2408 99.6243 29.2062 99.5087 29.1531C99.3958 29.0984 99.2899 29.0256 99.1912 28.9345C99.094 28.846 99.0071 28.7358 98.9305 28.6037C98.8508 28.4663 98.8015 28.3203 98.7824 28.1655C98.7649 28.0134 98.7754 27.861 98.814 27.7082C98.8568 27.5565 98.9283 27.4147 99.0285 27.2828C99.1313 27.1493 99.2634 27.036 99.4248 26.9427Z" fill="white"/>
<path d="M102.922 29.9652L100.023 31.3419L100.19 31.6933L103.09 30.3166L102.922 29.9652ZM103.632 31.4536L101.672 30.8582L100.762 32.8924L100.969 33.3265L101.883 31.2801L103.839 31.8878L103.632 31.4536Z" fill="white"/>
<path d="M105.219 36.5118L105.785 36.3242L102.054 34.7384L101.487 34.9261L105.219 36.5118ZM104.781 34.1085L104.644 33.7441L101.487 34.9261L102.097 35.1135L104.781 34.1085ZM105.785 36.3242L105.176 36.1367L102.492 37.1418L102.628 37.5062L105.785 36.3242Z" fill="white"/>
<path d="M106.019 40.1296L103.987 41.6048L104.095 42.0025L106.874 39.8983L103.41 39.4837L103.518 39.8814L106.019 40.1296ZM103.956 42.0163L103.469 42.1481L103.559 42.4796L104.4 42.2519L103.548 39.1144L102.707 39.3421L102.797 39.6735L103.284 39.5417L103.956 42.0163Z" fill="white"/>
<path d="M107.562 43.4654L104.402 44.0381L104.472 44.421L107.631 43.8483L107.562 43.4654ZM107.857 45.0871L106.121 44.0012L104.71 45.7274L104.796 46.2005L106.214 44.4635L107.943 45.5601L107.857 45.0871Z" fill="white"/>
<path d="M106.021 48.0761L106.188 49.7618L106.54 49.5889L106.399 48.1765L106.021 48.0761ZM107.619 48.7596L106.386 49.4339L106.299 49.4794L105.249 50.0528L105.293 50.4856L108.5 48.6722L104.998 47.5242L105.041 47.957L106.211 48.3195L106.297 48.3478L107.619 48.7596Z" fill="white"/>
<path d="M101.553 77.4492C101.718 77.535 101.854 77.6415 101.96 77.7687C102.069 77.8974 102.147 78.0358 102.194 78.1839C102.242 78.3362 102.261 78.4887 102.25 78.6414C102.238 78.7969 102.196 78.9451 102.122 79.0859C102.052 79.2214 101.97 79.3355 101.877 79.4283C101.783 79.5237 101.679 79.6007 101.566 79.659C101.456 79.7188 101.341 79.7593 101.224 79.7807L101.679 80.0171C101.847 79.9527 101.994 79.8635 102.118 79.7493C102.243 79.6352 102.36 79.4739 102.468 79.2653C102.571 79.0675 102.631 78.863 102.648 78.6516C102.666 78.4444 102.643 78.2413 102.577 78.0423C102.515 77.8448 102.413 77.663 102.272 77.497C102.131 77.3311 101.955 77.1932 101.743 77.0835C101.531 76.9738 101.317 76.9091 101.1 76.8894C100.882 76.8697 100.674 76.8904 100.473 76.9515C100.275 77.014 100.095 77.1116 99.933 77.2443C99.7722 77.3811 99.6404 77.5484 99.5375 77.7461C99.429 77.9547 99.3639 78.1428 99.3422 78.3104C99.3205 78.478 99.3315 78.6488 99.3754 78.8228L99.8313 79.0591C99.781 78.9505 99.7472 78.8333 99.73 78.7074C99.7155 78.583 99.7202 78.4547 99.7441 78.3226C99.7666 78.1933 99.8131 78.0609 99.8835 77.9255C99.9568 77.7846 100.054 77.6646 100.174 77.5654C100.293 77.4689 100.428 77.3959 100.578 77.3463C100.729 77.3008 100.887 77.2848 101.052 77.2982C101.22 77.3131 101.387 77.3634 101.553 77.4492Z" fill="white"/>
<path d="M100.878 82.0177L98.1569 80.3164L97.9499 80.6462L100.671 82.3475L100.878 82.0177ZM100.001 83.4145L99.4515 81.4445L97.2438 81.7714L96.9882 82.1789L99.2085 81.8491L99.7458 83.8219L100.001 83.4145Z" fill="white"/>
<path d="M96.5802 87.4682L97.043 87.8442L96.3782 83.8509L95.9153 83.4749L96.5802 87.4682ZM98.3757 85.8084L98.61 85.4973L95.9153 83.4749L96.0843 84.0887L98.3757 85.8084ZM97.043 87.8442L96.8741 87.2305L94.5827 85.5108L94.3484 85.8218L97.043 87.8442Z" fill="white"/>
<path d="M93.9535 90.0858L91.615 89.1673L91.337 89.4719L94.608 90.6809L93.0976 87.5426L92.8196 87.8472L93.9535 90.0858ZM91.2507 89.3625L90.8777 89.0234L90.6461 89.2772L91.2904 89.863L93.4834 87.4598L92.8391 86.874L92.6074 87.1279L92.9804 87.467L91.2507 89.3625Z" fill="white"/>
<path d="M91.9637 93.1767L89.7825 90.8248L89.4964 91.0892L91.6776 93.441L91.9637 93.1767ZM90.752 94.2964L90.7368 92.2514L88.5202 91.9912L88.1668 92.3178L90.3964 92.5785L90.3986 94.623L90.752 94.2964Z" fill="white"/>
<path d="M87.2401 94.3567L85.9059 95.4036L86.2408 95.6067L87.3587 94.7295L87.2401 94.3567ZM87.5214 96.0695L86.2892 95.394L86.2037 95.3447L85.1555 94.7694L84.8129 95.0383L88.0685 96.7642L87.1568 93.199L86.8143 93.4678L87.1366 94.6475L87.1588 94.735L87.5214 96.0695Z" fill="white"/>
<path d="M42.25 3.5C42.25 3.91421 41.9142 4.24999 41.5 4.24999C41.0858 4.24999 40.75 3.91421 40.75 3.5C40.75 3.08579 41.0858 2.75 41.5 2.75C41.9142 2.75 42.25 3.08579 42.25 3.5Z" stroke="white" stroke-width="0.5"/>
<path d="M92.75 17C92.75 17.4142 92.4142 17.75 92 17.75C91.5858 17.75 91.25 17.4142 91.25 17C91.25 16.5858 91.5858 16.25 92 16.25C92.4142 16.25 92.75 16.5858 92.75 17Z" stroke="white" stroke-width="0.5"/>
<path d="M106.75 65C106.75 65.4142 106.414 65.75 106 65.75C105.586 65.75 105.25 65.4142 105.25 65C105.25 64.5858 105.586 64.25 106 64.25C106.414 64.25 106.75 64.5858 106.75 65Z" stroke="white" stroke-width="0.5"/>
<path d="M68.75 105C68.75 105.414 68.4142 105.75 68 105.75C67.5858 105.75 67.25 105.414 67.25 105C67.25 104.586 67.5858 104.25 68 104.25C68.4142 104.25 68.75 104.586 68.75 105Z" stroke="white" stroke-width="0.5"/>
<circle cx="15" cy="87.5" r="0.75" stroke="white" stroke-width="0.5"/>
<path d="M6.25 37.5C6.25 37.9142 5.91421 38.25 5.5 38.25C5.08579 38.25 4.75 37.9142 4.75 37.5C4.75 37.0858 5.08579 36.75 5.5 36.75C5.91421 36.75 6.25 37.0858 6.25 37.5Z" stroke="white" stroke-width="0.5"/>
</svg>
