<svg width="209" height="29" viewBox="0 0 209 29" fill="none" xmlns="http://www.w3.org/2000/svg">
<path d="M120.279 2.59347C120.608 2.59347 120.991 2.56738 121.507 2.56738C122.538 2.56738 123.08 2.85724 123.08 3.55578C123.081 3.77075 123.004 3.97858 122.861 4.13916C122.719 4.29974 122.523 4.4017 122.311 4.42534V4.44273C122.962 4.54418 123.224 4.86012 123.224 5.36156C123.224 6.06011 122.648 6.44271 121.524 6.44271C121.051 6.44271 120.628 6.41663 120.279 6.41663V2.59347ZM120.72 3.00216V4.2949H121.726C122.276 4.2949 122.613 4.03114 122.613 3.62245C122.613 3.11231 122.132 2.98477 121.556 2.98477C121.207 2.98477 120.919 2.99347 120.72 3.00216ZM120.72 4.66302V6.01663C120.965 6.01663 121.227 6.03402 121.585 6.03402C122.354 6.03402 122.769 5.81373 122.769 5.32678C122.769 4.83983 122.406 4.66302 121.642 4.66302H120.72Z" fill="#544D46"/>
<path d="M126.466 2.59326H126.907V3.87731H127.567C128.734 3.87731 129.074 4.45701 129.074 5.13817C129.074 5.81932 128.7 6.42801 127.515 6.42801H126.466V2.59326ZM126.907 4.2947V6.00483H127.484C128.322 6.00483 128.607 5.68889 128.607 5.13527C128.607 4.58165 128.302 4.2831 127.492 4.2831L126.907 4.2947ZM129.945 2.59326H130.386V6.42801H129.945V2.59326Z" fill="#544D46"/>
<path d="M133.835 2.59347C134.163 2.59347 134.547 2.56738 135.063 2.56738C136.094 2.56738 136.636 2.85724 136.636 3.55578C136.637 3.77075 136.559 3.97858 136.417 4.13916C136.275 4.29974 136.079 4.4017 135.867 4.42534V4.44273C136.518 4.54418 136.78 4.86012 136.78 5.36156C136.78 6.06011 136.204 6.44271 135.08 6.44271C134.607 6.44271 134.184 6.41663 133.835 6.41663V2.59347ZM134.276 3.00216V4.2949H135.282C135.832 4.2949 136.169 4.03114 136.169 3.62245C136.169 3.11231 135.688 2.98477 135.112 2.98477C134.751 2.98477 134.486 2.99347 134.276 3.00216ZM134.276 4.66302V6.01663C134.521 6.01663 134.783 6.03402 135.14 6.03402C135.91 6.03402 136.325 5.81373 136.325 5.32678C136.325 4.83983 135.962 4.66302 135.198 4.66302H134.276Z" fill="#544D46"/>
<path d="M141.745 2.51521C142.009 2.503 142.273 2.54601 142.52 2.64153C142.766 2.73705 142.991 2.883 143.178 3.07015C143.366 3.2573 143.513 3.48158 143.61 3.72881C143.707 3.97605 143.752 4.24086 143.742 4.5065C143.742 5.03924 143.532 5.55015 143.158 5.92685C142.783 6.30355 142.275 6.51518 141.745 6.51518C141.216 6.51518 140.708 6.30355 140.333 5.92685C139.959 5.55015 139.748 5.03924 139.748 4.5065C139.739 4.24086 139.784 3.97605 139.881 3.72881C139.978 3.48158 140.125 3.2573 140.313 3.07015C140.5 2.883 140.724 2.73705 140.971 2.64153C141.218 2.54601 141.481 2.503 141.745 2.51521ZM141.745 6.0804C141.951 6.08714 142.156 6.05077 142.347 5.9736C142.538 5.89643 142.711 5.78014 142.855 5.63212C142.999 5.4841 143.11 5.3076 143.183 5.11382C143.255 4.92003 143.287 4.71322 143.276 4.5065C143.285 4.29857 143.252 4.09096 143.179 3.89619C143.106 3.70142 142.994 3.52351 142.851 3.37318C142.708 3.22286 142.536 3.10323 142.346 3.0215C142.156 2.93978 141.951 2.89765 141.744 2.89765C141.537 2.89765 141.332 2.93978 141.142 3.0215C140.952 3.10323 140.78 3.22286 140.637 3.37318C140.494 3.52351 140.382 3.70142 140.309 3.89619C140.236 4.09096 140.203 4.29857 140.212 4.5065C140.202 4.71338 140.234 4.92019 140.307 5.11393C140.38 5.30767 140.492 5.48413 140.636 5.63223C140.78 5.78033 140.953 5.89686 141.144 5.97449C141.335 6.05212 141.54 6.08916 141.745 6.0833V6.0804Z" fill="#544D46"/>
<path d="M146.35 6.00495H146.823C147.059 5.69771 147.365 4.88032 147.44 3.68613L147.5 2.60498H149.93V6.00495H150.564V7.39334H150.149V6.42813H146.763V7.39914H146.348L146.35 6.00495ZM147.29 6.00495H149.489V3.01077H147.915L147.863 3.84555C147.78 4.94989 147.483 5.75857 147.287 6.00495H147.29Z" fill="#544D46"/>
<path d="M153.483 6.42801V2.59326H153.924V5.78164L156.463 2.59326H156.904V6.42801H156.463V3.23963L153.924 6.42801H153.483Z" fill="#544D46"/>
<path d="M160.362 2.59326H160.777L162.359 4.72947L163.883 2.59326H164.281V6.42801H163.84V3.26572L162.359 5.33527H162.333L160.803 3.26572V6.42801H160.362V2.59326Z" fill="#544D46"/>
<path d="M175.096 0.712268C174.664 1.35864 174.004 1.06879 173.079 1.47748C172.232 1.84269 172.039 2.83979 171.987 3.65717H172.004C172.148 3.34212 172.38 3.0761 172.671 2.89176C172.963 2.70743 173.302 2.6128 173.647 2.6195C174.77 2.6195 175.456 3.3934 175.456 4.54412C175.461 4.80086 175.414 5.05594 175.319 5.29428C175.224 5.53261 175.083 5.74938 174.903 5.93176C174.723 6.11415 174.509 6.25846 174.273 6.35616C174.037 6.45387 173.784 6.50299 173.528 6.50062C172.335 6.50062 171.549 5.61657 171.549 4.14412C171.549 3.12384 171.693 1.57313 172.943 1.05429C173.883 0.654297 174.451 0.935454 174.84 0.381836L175.096 0.712268ZM173.523 6.08323C173.72 6.08409 173.916 6.04497 174.099 5.96821C174.281 5.89145 174.446 5.77862 174.584 5.6364C174.722 5.49419 174.831 5.3255 174.903 5.14035C174.975 4.9552 175.009 4.75737 175.004 4.55861C175.004 3.66586 174.479 3.03399 173.563 3.03399C173.212 3.02386 172.867 3.13598 172.589 3.35142C172.31 3.56686 172.114 3.87244 172.033 4.21658C172.03 5.40208 172.673 6.08323 173.528 6.08323H173.523Z" fill="#544D46"/>
<path d="M178.655 6.42801V2.59326H179.096V5.78164L181.635 2.59326H182.076V6.42801H181.635V3.23963L179.096 6.42801H178.655Z" fill="#544D46"/>
<path d="M185.205 5.98771L185.433 5.64858C185.773 5.92682 186.197 6.08019 186.635 6.08336C187.329 6.08336 187.81 5.79351 187.81 5.30076C187.81 4.90076 187.473 4.66308 186.932 4.66308H186.289V4.29497H186.888C186.985 4.30084 187.082 4.2874 187.174 4.25541C187.265 4.22343 187.35 4.17353 187.422 4.1086C187.494 4.04367 187.553 3.96499 187.595 3.87708C187.637 3.78918 187.661 3.6938 187.666 3.59643C187.666 3.16165 187.286 2.93266 186.701 2.93266C186.265 2.92346 185.841 3.07501 185.508 3.35875L185.329 3.01962C185.727 2.67147 186.244 2.49176 186.77 2.51817C187.658 2.51817 188.142 2.90078 188.142 3.52106C188.143 3.72862 188.077 3.93094 187.953 4.09693C187.829 4.26292 187.655 4.38341 187.456 4.4399V4.45729C187.685 4.46634 187.901 4.56634 188.056 4.73535C188.212 4.90435 188.295 5.12855 188.286 5.35873C188.286 6.07466 187.626 6.49785 186.713 6.49785C186.194 6.50075 185.471 6.29495 185.205 5.98771Z" fill="#544D46"/>
<path d="M194.427 4.6889H191.957V6.42801H191.522V2.59326H191.963V4.26861H194.433V2.59326H194.874V6.42801H194.433L194.427 4.6889Z" fill="#544D46"/>
<path d="M201.476 5.9557C201.098 6.31627 200.593 6.51211 200.072 6.50062C198.871 6.50062 198.055 5.71802 198.055 4.50934C198.055 3.39341 198.732 2.51805 199.983 2.51805C200.213 2.50687 200.443 2.54419 200.658 2.62764C200.873 2.71108 201.068 2.83879 201.23 3.00257C201.393 3.16634 201.52 3.36257 201.603 3.57863C201.686 3.79469 201.723 4.02582 201.712 4.25717C201.713 4.37652 201.705 4.49578 201.686 4.61368H198.539C198.534 4.81683 198.572 5.01878 198.649 5.20643C198.727 5.39408 198.843 5.56324 198.989 5.70291C199.136 5.84258 199.31 5.94966 199.501 6.01717C199.692 6.08469 199.894 6.11115 200.095 6.09483C200.55 6.10075 200.99 5.92816 201.32 5.61367L201.476 5.9557ZM198.513 4.23688H201.254C201.264 4.0611 201.236 3.88521 201.173 3.72101C201.11 3.5568 201.013 3.40809 200.888 3.28483C200.763 3.16158 200.613 3.06664 200.448 3.00637C200.284 2.94611 200.109 2.92193 199.934 2.93544C199.756 2.92609 199.577 2.95243 199.409 3.01294C199.241 3.07345 199.086 3.16692 198.954 3.28796C198.822 3.40899 198.715 3.55518 198.639 3.71806C198.563 3.88094 198.521 4.05728 198.513 4.23688Z" fill="#544D46"/>
<path d="M208.049 5.87747C207.869 6.08142 207.647 6.24282 207.398 6.35006C207.149 6.45731 206.879 6.50775 206.608 6.49776C205.433 6.49776 204.591 5.71516 204.591 4.50647C204.581 4.24943 204.623 3.99306 204.714 3.7526C204.805 3.51214 204.943 3.2925 205.12 3.10673C205.297 2.92097 205.509 2.77287 205.744 2.67125C205.979 2.56963 206.232 2.51656 206.487 2.51519C207.023 2.47547 207.554 2.64579 207.968 2.99054L207.758 3.34706C207.425 3.05949 206.995 2.91026 206.556 2.92967C206.355 2.93266 206.156 2.97591 205.971 3.05689C205.786 3.13787 205.619 3.25499 205.48 3.40142C205.341 3.54786 205.231 3.7207 205.159 3.9099C205.086 4.09911 205.052 4.3009 205.058 4.50357C205.049 4.71409 205.084 4.92412 205.161 5.1202C205.238 5.31628 205.354 5.49411 205.503 5.64227C205.652 5.79044 205.83 5.90568 206.026 5.98062C206.222 6.05556 206.431 6.08855 206.64 6.07747C206.864 6.08086 207.085 6.03635 207.291 5.94689C207.496 5.85744 207.68 5.72509 207.83 5.55863L208.049 5.87747Z" fill="#544D46"/>
<path d="M120.279 11.1037C120.608 11.1037 120.991 11.0776 121.507 11.0776C122.538 11.0776 123.08 11.3675 123.08 12.066C123.081 12.281 123.004 12.4888 122.861 12.6494C122.719 12.81 122.523 12.9119 122.311 12.9356V12.953C122.962 13.0544 123.224 13.3704 123.224 13.8718C123.224 14.5704 122.648 14.953 121.524 14.953C121.051 14.953 120.628 14.9269 120.279 14.9269V11.1037ZM120.72 11.5124V12.8052H121.726C122.276 12.8052 122.613 12.5414 122.613 12.1327C122.613 11.6226 122.132 11.495 121.556 11.495C121.207 11.495 120.919 11.5037 120.72 11.5124ZM120.72 13.1733V14.5269C120.965 14.5269 121.227 14.5443 121.585 14.5443C122.354 14.5443 122.769 14.324 122.769 13.837C122.769 13.3501 122.406 13.1733 121.642 13.1733H120.72Z" fill="#544D46"/>
<path d="M132.296 11.0284C132.687 11.0318 133.068 11.1515 133.391 11.3724C133.715 11.5933 133.966 11.9055 134.113 12.2696C134.26 12.6338 134.297 13.0336 134.218 13.4187C134.14 13.8038 133.95 14.157 133.673 14.4338C133.395 14.7105 133.042 14.8985 132.659 14.9739C132.275 15.0493 131.878 15.0089 131.517 14.8577C131.156 14.7065 130.848 14.4512 130.632 14.1242C130.415 13.7971 130.299 13.4128 130.299 13.0197C130.289 12.754 130.334 12.4892 130.431 12.242C130.528 11.9948 130.676 11.7705 130.863 11.5833C131.051 11.3962 131.275 11.2502 131.522 11.1547C131.768 11.0592 132.032 11.0162 132.296 11.0284ZM132.296 14.5936C132.607 14.6005 132.913 14.5141 133.175 14.3454C133.437 14.1767 133.642 13.9334 133.766 13.6465C133.89 13.3596 133.926 13.0421 133.87 12.7345C133.813 12.4269 133.667 12.1433 133.449 11.9197C133.232 11.6961 132.953 11.5427 132.649 11.4791C132.344 11.4155 132.028 11.4445 131.74 11.5626C131.452 11.6806 131.206 11.8822 131.032 12.1418C130.859 12.4013 130.766 12.7069 130.766 13.0197C130.755 13.2264 130.786 13.4332 130.859 13.627C130.931 13.8208 131.043 13.9973 131.187 14.1453C131.331 14.2933 131.504 14.4096 131.695 14.4868C131.886 14.564 132.09 14.6003 132.296 14.5936Z" fill="#544D46"/>
<path d="M140.391 13.1965H137.921V14.9356H137.48V11.1038H137.921V12.7791H140.391V11.1038H140.832V14.9327H140.391V13.1965Z" fill="#544D46"/>
<path d="M146.967 11.547H145.359L145.307 12.3818C145.146 14.6369 144.529 14.9702 143.936 14.9702L143.901 14.5354C144.155 14.5354 144.766 14.3064 144.884 12.2977L144.944 11.1064H147.405V14.9325H146.964L146.967 11.547Z" fill="#544D46"/>
<path d="M150.86 11.3759C151.223 11.1476 151.643 11.027 152.071 11.0281C153.128 11.0281 153.483 11.5904 153.483 12.5614V14.9353H153.042V14.3556C152.896 14.564 152.7 14.7317 152.472 14.8433C152.245 14.9548 151.992 15.0064 151.739 14.9933C151.585 15.0062 151.43 14.986 151.285 14.9339C151.139 14.8818 151.006 14.7991 150.895 14.6913C150.784 14.5835 150.697 14.4531 150.64 14.3087C150.582 14.1644 150.557 14.0094 150.564 13.8541C150.564 13.0889 151.189 12.6629 152.005 12.6629C152.369 12.6545 152.728 12.7554 153.036 12.9527C153.036 12.0426 152.984 11.4542 152.039 11.4542C151.664 11.4477 151.294 11.5482 150.973 11.744L150.86 11.3759ZM153.042 13.9643V13.3266C152.752 13.1158 152.4 13.0078 152.042 13.0194C151.543 13.0194 151.019 13.257 151.019 13.8194C151.019 14.2947 151.391 14.5672 151.866 14.5672C152.097 14.5764 152.327 14.5258 152.532 14.4203C152.738 14.3147 152.914 14.1577 153.042 13.9643Z" fill="#544D46"/>
<path d="M156.857 14.9325V11.1036H157.298V14.292L159.837 11.1036H160.278V14.9325H159.823V11.7442L157.284 14.9325H156.857ZM157.84 9.1123C157.84 9.2144 157.86 9.31553 157.9 9.40941C157.94 9.50329 157.998 9.58792 158.072 9.65805C158.146 9.72818 158.233 9.7823 158.329 9.81706C158.424 9.85183 158.526 9.86648 158.627 9.86012C158.726 9.86371 158.825 9.84689 158.917 9.81069C159.009 9.77449 159.093 9.71969 159.164 9.64964C159.234 9.57959 159.289 9.49579 159.326 9.40338C159.364 9.31097 159.381 9.21191 159.379 9.1123H159.777C159.778 9.26172 159.748 9.40976 159.69 9.54714C159.631 9.68451 159.545 9.80825 159.437 9.91059C159.329 10.0129 159.201 10.0917 159.061 10.1418C158.921 10.192 158.772 10.2125 158.624 10.2022C157.872 10.2022 157.44 9.73549 157.44 9.1123H157.84Z" fill="#544D46"/>
<path d="M166.638 13.1965H164.168V14.9356H163.728V11.1038H164.168V12.7791H166.638V11.1038H167.079V14.9327H166.638V13.1965Z" fill="#544D46"/>
<path d="M18.6622 15.292H15.0744V18.663H13.6969V10.7761H15.0744V13.9964H18.6622V10.7761H20.031V18.663H18.6622V15.292Z" fill="#544D46"/>
<path d="M26.198 10.7471H27.4084L30.7195 18.6629H29.2498L28.4314 16.634H25.0885L24.2701 18.6629H22.8782L26.198 10.7471ZM25.6217 15.347H27.9271L26.7744 12.5384L25.6217 15.347Z" fill="#544D46"/>
<path d="M36.7021 15.3703V18.663H35.3304V15.3703L32.5552 10.7761H34.1258L36.0767 14.0804L38.0018 10.7761H39.4916L36.7021 15.3703Z" fill="#544D46"/>
<path d="M45.9756 12.8223C45.9756 11.6397 46.8949 10.6456 48.4193 10.6456C48.8307 10.6251 49.2419 10.6896 49.6275 10.8352C50.0131 10.9808 50.365 11.2043 50.6613 11.4919L49.9207 12.5151C49.7438 12.3243 49.5283 12.1738 49.2887 12.0738C49.0491 11.9738 48.791 11.9266 48.5317 11.9354C47.8487 11.9354 47.4338 12.2861 47.4338 12.805C47.4338 14.4397 50.987 13.9209 50.987 16.547C50.987 17.8774 49.8343 18.7788 48.3646 18.7788C47.356 18.7788 46.1773 18.3382 45.7969 17.5382L46.5692 16.5991C46.7864 16.8717 47.0607 17.0927 47.3725 17.2465C47.6843 17.4003 48.026 17.4831 48.3732 17.489C49.0245 17.489 49.5259 17.1614 49.5259 16.5643C49.5288 15.0107 45.9756 15.3933 45.9756 12.8223Z" fill="#544D46"/>
<path d="M53.2838 10.7761H59.7533V12.0718H57.2087V18.663H55.8313V12.066H53.2838V10.7761Z" fill="#544D46"/>
<path d="M68.9779 15.3935C68.9779 17.805 67.5082 18.7876 65.8627 18.7876C63.9117 18.7876 62.5227 17.6282 62.5227 15.3094V10.7761H63.9002V15.0225C63.9002 16.5007 64.5054 17.492 65.8627 17.492C67.05 17.492 67.6119 16.6456 67.6119 15.1123V10.7761H68.9808L68.9779 15.3935Z" fill="#544D46"/>
<path d="M72.7357 10.7762H72.8827C73.3524 10.7762 74.4734 10.7415 75.0469 10.7415C78.1851 10.7415 79.4531 12.5559 79.4531 14.6429C79.4531 16.8631 77.9517 18.7008 74.9575 18.7008C74.4878 18.7008 73.6118 18.6776 72.8942 18.6776H72.7386L72.7357 10.7762ZM74.1132 12.0719V17.3675C74.4936 17.3907 74.8077 17.3907 74.9979 17.3907C76.8912 17.3907 77.992 16.3095 77.992 14.64C77.992 13.0516 76.8941 12.0313 75.0209 12.0313C74.6982 12.0342 74.4273 12.0458 74.1132 12.0661V12.0719Z" fill="#544D46"/>
<path d="M82.8795 10.7761H84.257V18.663H82.8795V10.7761Z" fill="#544D46"/>
<path d="M91.7957 10.6454C94.1271 10.6454 95.8879 12.257 95.8879 14.7034C95.8879 17.0715 94.1271 18.7613 91.7957 18.7613C89.4644 18.7613 87.7152 17.1497 87.7152 14.7034C87.7027 14.1631 87.8 13.626 88.0013 13.1249C88.2025 12.6238 88.5034 12.1694 88.8855 11.7894C89.2676 11.4094 89.7228 11.112 90.2232 10.9153C90.7237 10.7186 91.2588 10.6267 91.7957 10.6454ZM91.7957 17.4889C93.4441 17.4889 94.4297 16.2715 94.4297 14.715C94.4297 13.0802 93.277 11.9411 91.7957 11.9411C90.3145 11.9411 89.1733 13.0802 89.1733 14.715C89.1704 16.2831 90.326 17.4918 91.7957 17.4918V17.4889Z" fill="#544D46"/>
<path d="M106.539 10.4775V26.915H2.36002V2.51815H98.6226V0.709473H0.561798V28.7237H108.334V10.4775H106.539Z" fill="#544D46"/>
<path d="M106.539 8.73839H108.334V0.709473H100.355V2.51815H106.539V8.73839Z" fill="#66B699"/>
</svg>
