<svg width="506" height="508" viewBox="0 0 506 508" fill="none" xmlns="http://www.w3.org/2000/svg">
<g clip-path="url(#clip0)">
<path fill-rule="evenodd" clip-rule="evenodd" d="M432.265 73.8236C384.702 26.2433 321.448 0.0267432 254.057 0C115.2 0 2.18791 112.917 2.13234 251.71C2.11382 296.075 13.7148 339.383 35.7594 377.556L0.0200195 508L133.569 472.996C170.364 493.049 211.793 503.618 253.956 503.635H254.06C392.902 503.635 505.925 390.704 505.981 251.911C506.008 184.649 479.829 121.404 432.265 73.8236V73.8236ZM254.06 461.12H253.974C216.402 461.105 179.55 451.02 147.402 431.957L139.756 427.422L60.507 448.195L81.6604 370.988L76.6811 363.072C55.7211 329.76 44.6505 291.257 44.6669 251.725C44.7129 136.366 138.645 42.5148 254.143 42.5148C310.07 42.5361 362.643 64.3277 402.176 103.875C441.71 143.422 463.469 195.989 463.447 251.894C463.399 367.262 369.469 461.12 254.06 461.12V461.12ZM368.914 304.423C362.619 301.274 331.671 286.058 325.901 283.959C320.131 281.86 315.935 280.81 311.738 287.107C307.542 293.404 295.479 307.571 291.806 311.769C288.135 315.967 284.463 316.492 278.168 313.343C271.874 310.195 251.592 303.554 227.548 282.125C208.836 265.448 196.202 244.849 192.53 238.553C188.859 232.256 192.14 228.851 195.291 225.716C198.122 222.898 201.585 218.37 204.733 214.696C207.88 211.024 208.929 208.4 211.027 204.203C213.125 200.005 212.076 196.331 210.502 193.183C208.929 190.035 196.341 159.076 191.094 146.483C185.985 134.218 180.795 135.877 176.932 135.685C173.264 135.503 169.063 135.464 164.868 135.464C160.671 135.464 153.852 137.038 148.082 143.335C142.312 149.632 126.051 164.848 126.051 195.807C126.051 226.765 148.606 256.674 151.754 260.872C154.901 265.07 196.14 328.601 259.285 355.846C274.303 362.326 286.028 366.195 295.17 369.096C310.25 373.882 323.972 373.206 334.818 371.587C346.912 369.782 372.06 356.371 377.306 341.679C382.551 326.986 382.551 314.393 380.978 311.769C379.405 309.146 375.208 307.571 368.914 304.423" fill="#544D46"/>
</g>
<defs>
<clipPath id="clip0">
<rect width="506" height="508" fill="white"/>
</clipPath>
</defs>
</svg>
