<svg width="511" height="486" viewBox="0 0 511 486" fill="none" xmlns="http://www.w3.org/2000/svg">
<mask id="mask0" mask-type="alpha" maskUnits="userSpaceOnUse" x="0" y="0" width="511" height="486">
<path fill-rule="evenodd" clip-rule="evenodd" d="M266.988 0.354163C328.749 -0.496573 394.409 -1.17768 440.883 39.5087C489.704 82.2505 515.549 148.726 510.34 213.403C505.443 274.211 455.687 315.957 414.96 361.376C370.385 411.086 333.426 478.153 266.988 484.789C197.258 491.755 135.31 444.182 86.1735 394.218C37.516 344.741 -2.21203 282.759 0.0957164 213.403C2.34709 145.742 44.9102 86.4692 97.8189 44.2343C145.149 6.45257 206.433 1.18829 266.988 0.354163Z" fill="#BDCF9B"/>
</mask>
<g mask="url(#mask0)">
<path opacity="0.63" fill-rule="evenodd" clip-rule="evenodd" d="M266.988 0.354163C328.749 -0.496573 394.409 -1.17768 440.883 39.5087C489.704 82.2505 515.549 148.726 510.34 213.403C505.443 274.211 455.687 315.957 414.96 361.376C370.385 411.086 333.426 478.153 266.988 484.789C197.258 491.755 135.31 444.182 86.1735 394.218C37.516 344.741 -2.21203 282.759 0.0957164 213.403C2.34709 145.742 44.9102 86.4692 97.8189 44.2343C145.149 6.45257 206.433 1.18829 266.988 0.354163Z" fill="#BDCF9B"/>
<path opacity="0.5" d="M51.7954 157.988C51.7954 157.988 26.198 184.147 15.789 219.373C5.38483 254.588 -1.12896 321.405 10.0864 352.822C21.2969 384.251 48.4408 433.652 73.3973 452.99C98.342 472.324 139.943 481.248 158.895 479.185C177.847 477.122 278.268 455.138 278.268 455.138C278.268 455.138 347.149 435.791 354.101 432.908C361.058 430.012 389.45 417.027 406.226 394.316C423.002 371.604 425.492 353.786 424.668 333.598C424.275 323.973 410.861 268.06 400.864 249.002C390.856 229.938 371.01 182.254 340.057 155.505C309.117 128.762 290.459 116.132 261.117 111.436C231.774 106.74 179.088 104.786 160.253 108.535C141.414 112.294 116.211 117.544 99.3251 124.571C82.4347 131.611 51.7954 157.988 51.7954 157.988Z" fill="#BDCF9B"/>
</g>
</svg>
