<svg width="507" height="482" viewBox="0 0 507 482" fill="none" xmlns="http://www.w3.org/2000/svg" xmlns:xlink="http://www.w3.org/1999/xlink">
<mask id="mask0" mask-type="alpha" maskUnits="userSpaceOnUse" x="0" y="0" width="507" height="482">
<path fill-rule="evenodd" clip-rule="evenodd" d="M242.102 481.32C180.824 482.164 115.678 482.839 69.5684 442.471C21.1295 400.064 -4.51324 334.109 0.654999 269.938C5.51398 209.606 54.8797 168.187 95.288 123.124C139.514 73.8027 176.184 7.26089 242.102 0.676361C311.286 -6.23444 372.749 40.9659 421.501 90.5388C469.778 139.628 509.195 201.125 506.905 269.938C504.671 337.07 462.441 395.879 409.947 437.783C362.987 475.269 302.183 480.492 242.102 481.32Z" fill="#A5BAC9"/>
</mask>
<g mask="url(#mask0)">
<path opacity="0.63" fill-rule="evenodd" clip-rule="evenodd" d="M242.102 481.32C180.824 482.164 115.678 482.839 69.5684 442.471C21.1295 400.064 -4.51324 334.109 0.654999 269.938C5.51398 209.606 54.8797 168.187 95.288 123.124C139.514 73.8027 176.184 7.26089 242.102 0.676361C311.286 -6.23444 372.749 40.9659 421.501 90.5388C469.778 139.628 509.195 201.125 506.905 269.938C504.671 337.07 462.441 395.879 409.947 437.783C362.987 475.269 302.183 480.492 242.102 481.32Z" fill="#A5BAC9"/>
<path opacity="0.5" d="M67.4944 52.2701C71.8675 51.1911 76.3541 50.7225 80.8549 50.9213C94.4852 51.5034 126.176 54.3289 158.831 67.7746C202.164 85.6217 295.617 138.297 312.612 151.033C329.607 163.783 380.579 202.856 386.528 241.092C392.477 279.328 383.134 322.831 366.991 344.838C350.848 366.831 318.561 403.377 287.978 422.914C257.395 442.451 218.308 456.052 194.526 461.15C170.729 466.247 140.459 460.369 118.906 456.052C97.3532 451.736 64.2999 441.372 45.3027 427.471C26.3055 413.571 12.1783 402.724 -3.43972 380.447C-9.68692 371.531 -27.2217 336.22 -32.3188 306.531C-34.9455 291.254 -45.9207 210.523 -45.9207 210.523C-45.9207 210.523 -47.3263 157.848 -43.0811 139.163C-43.0811 139.163 -32.3188 100.927 -5.14351 81.3906C16.2248 66.014 52.8135 55.9049 67.4944 52.2701Z" fill="#A5BAC9"/>
<g opacity="0.63">
<rect opacity="0.5" x="579.625" y="472.258" width="726.933" height="408.8" transform="rotate(-180 579.625 472.258)" fill="url(#pattern0)"/>
<rect opacity="0.1" x="653.812" y="481.893" width="755.565" height="472.427" transform="rotate(-180 653.812 481.893)" fill="url(#pattern1)"/>
</g>
</g>
</svg>
