<svg width="389" height="392" viewBox="0 0 389 392" fill="none" xmlns="http://www.w3.org/2000/svg">
<path fill-rule="evenodd" clip-rule="evenodd" d="M201.316 392C-72.5345 392 -60.1693 0 196.884 0C453.051 0 451.544 392 201.316 392ZM196.618 26.3287C184.249 26.3055 171.905 27.4352 159.744 29.703L164.442 56.6533L108.156 96.6125L58.7401 93.549C53.8749 100.372 49.5338 107.556 45.7544 115.038L56.1252 212.228L86.6171 251.477L55.3275 295.876C83.2045 336.767 131.247 365.671 200.385 365.671C299.927 365.671 353.953 293.922 361.797 216.446L338.441 195.179L304.182 182.125L298.598 190.605L311.893 204.591L322.176 206.145L326.608 221.063L294.254 237.447L272.094 198.775L264.427 216.179L281.136 252.986L301.656 258.98L268.593 276.74L225.515 338.632L188.907 341.518L180.885 305.999L186.957 253.652L144.986 242.464L131.158 209.253L137.762 177.286L177.649 160.902L215.365 182.525L235.265 175.998L264.915 184.034L271.651 146.162L233.492 133.508L233.049 158.194L208.806 157.084L206.723 130.977L176.763 137.593L179.023 114.639L166.259 99.8092L185.671 82.0496L217.227 99.8092L227.11 78.8085L252.106 68.1527L268.771 75.5229L285.701 72.1042L293.013 54.3445C267.618 36.8513 235.575 26.3287 196.618 26.3287Z" fill="#4055C0"/>
</svg>
