<svg width="111" height="104" viewBox="0 0 111 104" fill="none" xmlns="http://www.w3.org/2000/svg">
<path fill-rule="evenodd" clip-rule="evenodd" d="M29.1506 29.7842C27.8663 29.7842 26.6216 31.1562 26.6216 33.1698V81.9132H25.3979V33.1698C25.3979 30.7781 26.927 28.5605 29.1506 28.5605H66.6769C68.8553 28.5605 70.4295 30.7725 70.4295 33.1698V78.8132H69.2058V33.1698C69.2058 31.1618 67.9248 29.7842 66.6769 29.7842H29.1506Z" fill="white"/>
<path fill-rule="evenodd" clip-rule="evenodd" d="M69.5 36.147C69.5 35.8091 69.7739 35.5352 70.1118 35.5352L82.4211 35.5352C84.3209 35.5352 85.6027 37.4295 85.6027 39.451V84.6049C85.6027 86.6264 84.3209 88.5207 82.4211 88.5207H30.6593C27.5234 88.5207 25.2687 85.263 25.3979 81.6463L25.3979 81.6449C25.5284 78.2095 27.8601 75.3865 30.7817 75.3865H67.4514C68.471 75.3865 69.2516 75.8655 69.7524 76.567C70.24 77.2501 70.4543 78.1265 70.4339 78.9704C70.4136 79.8151 70.1565 80.6892 69.6248 81.3665C69.0802 82.0601 68.2618 82.5247 67.2067 82.5247H33.2698C32.9319 82.5247 32.658 82.2507 32.658 81.9128C32.658 81.5749 32.9319 81.301 33.2698 81.301H67.2067C67.8647 81.301 68.3362 81.0262 68.6623 80.6109C69.0011 80.1793 69.1953 79.5747 69.2106 78.9408C69.2259 78.306 69.0604 77.7039 68.7564 77.278C68.4656 76.8705 68.0429 76.6102 67.4514 76.6102H30.7817C28.7271 76.6102 26.7353 78.6817 26.6207 81.6906C26.5055 84.9262 28.4928 87.297 30.6593 87.297H82.4211C83.3767 87.297 84.379 86.2546 84.379 84.6049V39.451C84.379 37.8013 83.3767 36.7589 82.4211 36.7589L70.1118 36.7588C69.7739 36.7588 69.5 36.4849 69.5 36.147Z" fill="white"/>
</svg>
