<svg width="274" height="274" viewBox="0 0 274 274" fill="none" xmlns="http://www.w3.org/2000/svg">
<path d="M137 274C212.663 274 274 212.663 274 137C274 61.337 212.663 0 137 0C61.337 0 0 61.337 0 137C0 212.663 61.337 274 137 274Z" fill="#F5F6FC"/>
<path d="M82.2001 94.1127C83.59 114.166 82.2001 134.22 79.9168 154.174C78.1299 170.158 75.4494 186.141 73.3646 202.124C72.8683 206.195 72.0741 210.563 72.3719 214.732C72.4712 216.221 72.769 217.313 73.861 218.306C76.1444 220.49 79.4204 221.582 82.3987 222.476C89.8443 224.858 97.5878 226.05 105.331 227.042C112.976 228.035 120.719 229.226 128.462 229.822C137.099 230.418 145.637 230.318 154.175 229.127C164.4 227.638 174.328 224.561 183.759 220.292C186.439 219.1 189.12 217.711 191.701 216.321C193.389 215.427 191.899 212.846 190.212 213.739C180.681 218.803 170.654 222.774 160.032 224.958C151.494 226.745 142.659 227.34 133.923 227.042C126.278 226.745 118.634 225.752 110.99 224.759C103.644 223.766 96.2972 222.774 89.0501 221.086C85.4762 220.292 81.9023 219.299 78.6262 217.711C77.5342 217.214 76.4422 216.619 75.648 215.626C75.5487 215.427 75.8465 215.824 75.648 215.626C75.4494 215.427 75.648 215.526 75.648 215.725C75.5487 215.526 75.5487 215.328 75.4494 215.129C75.4494 215.03 75.3501 214.633 75.4494 214.931C75.4494 215.229 75.4494 214.732 75.4494 214.633C75.4494 214.335 75.4494 213.938 75.4494 213.64C75.4494 212.846 75.4494 212.052 75.5487 211.158C75.648 208.875 75.9458 206.691 76.2436 204.408C78.0306 189.417 80.6117 174.625 82.498 159.634C84.8806 140.176 86.469 120.52 85.7741 100.963C85.6748 98.5801 85.5755 96.2968 85.377 93.9142C85.0791 92.2265 82.1009 92.1272 82.2001 94.1127Z" fill="#4055C0"/>
<path d="M192.396 214.732C190.013 199.146 188.127 183.461 186.241 167.775C184.255 151.891 182.369 136.007 180.086 120.222C179.788 118.137 179.391 116.053 179.291 113.869C179.192 111.883 179.291 109.997 179.391 108.011C179.589 103.743 179.49 99.573 178.299 95.3041C177.802 93.4179 174.923 94.2121 175.42 96.0983C176.512 99.8708 176.71 103.544 176.512 107.416C176.313 111.089 176.313 114.663 176.809 118.336C177.901 125.881 178.993 133.327 179.887 140.872C181.972 157.153 183.858 173.533 185.943 189.814C187.035 198.352 188.226 206.89 189.517 215.427C189.814 217.413 192.693 216.619 192.396 214.732Z" fill="#4055C0"/>
<path d="M53.7905 103.345C60.6134 115.258 70.7502 125.087 82.8364 131.44C84.4933 132.334 85.9554 129.753 84.2984 128.859C72.6996 122.803 62.9526 113.372 56.3247 101.856C55.4475 100.168 52.9133 101.658 53.7905 103.345Z" fill="#4055C0"/>
<path d="M56.0383 103.713C62.8571 94.8349 68.5889 85.0386 75.7042 76.3648C77.7795 73.8137 80.0525 71.2626 82.3254 68.9156C84.0054 67.0788 85.4878 65.344 87.6619 64.1195C91.7137 61.7724 96.3584 60.4459 100.904 59.2213C104.956 58.0988 109.502 56.7723 113.751 56.6702C115.629 56.6702 115.629 53.6089 113.751 53.6089C109.897 53.6089 105.944 54.7314 102.189 55.6498C97.3466 56.8743 92.4054 58.405 87.8595 60.5479C82.9183 62.8949 79.3607 67.4869 75.803 71.6708C72.1466 75.8546 68.7865 80.3445 65.6242 85.0386C61.7701 90.651 58.0148 96.1614 53.963 101.57C52.7771 103.1 54.8524 105.243 56.0383 103.713Z" fill="#4055C0"/>
<path d="M208.776 101.856C202.025 113.372 192.098 122.704 180.284 128.859C178.596 129.753 180.086 132.334 181.773 131.44C194.083 125.087 204.408 115.258 211.357 103.345C212.251 101.658 209.67 100.168 208.776 101.856Z" fill="#4055C0"/>
<path d="M211.457 100.169C204.507 91.333 198.551 81.6041 191.205 73.0664C189.021 70.4852 186.638 68.0033 184.255 65.5214C182.568 63.8338 181.078 62.2454 178.894 61.1533C174.526 58.7707 169.662 57.3809 164.897 56.0903C160.528 54.899 155.863 53.6084 151.395 53.6084C149.509 53.6084 149.509 56.5867 151.395 56.5867C155.068 56.5867 158.94 57.6787 162.514 58.5722C167.18 59.7635 171.945 61.054 176.313 63.2381C178.199 64.1316 179.49 65.1243 180.979 66.5142C183.461 68.9961 185.844 71.5772 188.127 74.1584C191.602 78.1294 194.679 82.1997 197.757 86.4686C201.529 91.8294 205.302 97.1903 209.372 102.353C210.464 103.742 212.549 101.658 211.457 100.169Z" fill="#4055C0"/>
<path d="M112.219 56.0074C112.616 57.8936 114.204 58.9857 115.793 59.9784C117.48 61.0705 119.267 62.0632 121.154 62.7581C124.827 64.2473 128.699 65.1408 132.67 65.1408C140.215 65.1408 147.561 61.9639 152.425 56.206C153.617 54.7168 151.532 52.6321 150.341 54.1212C146.171 59.0849 140.016 61.9639 133.563 62.1625C130.188 62.2618 126.812 61.6661 123.636 60.5741C122.047 59.9784 120.459 59.2835 118.97 58.39C117.778 57.6951 115.495 56.7023 115.098 55.2132C114.701 53.327 111.822 54.1212 112.219 56.0074Z" fill="#4055C0"/>
<path d="M219.796 89.0499C219.796 110.99 203.614 129.256 182.468 132.334C181.475 132.533 180.483 132.632 179.49 132.632C178.299 132.731 177.207 132.731 176.015 132.731C172.739 132.731 169.662 132.433 166.584 131.738C165.591 131.54 164.599 131.242 163.606 130.944C159.238 129.654 155.167 127.668 151.494 125.186C150.601 124.591 149.707 123.995 148.913 123.3C146.63 121.513 144.545 119.527 142.659 117.244C141.765 116.152 140.872 115.06 140.078 113.968C139.879 113.67 139.681 113.472 139.581 113.174C138.986 112.38 138.489 111.486 137.993 110.593C135.61 106.522 133.923 101.956 133.029 97.1905C132.831 95.9992 132.632 94.8079 132.533 93.6166C132.334 92.0282 132.235 90.4398 132.235 88.8514C132.235 86.6673 132.433 84.5826 132.731 82.4978C132.831 82.1007 132.831 81.6043 132.93 81.2072C133.128 80.2144 133.327 79.2217 133.525 78.2289C133.823 76.8391 134.32 75.5485 134.717 74.2579C135.511 72.0739 136.504 69.8898 137.596 67.805C138.092 66.9115 138.588 66.018 139.184 65.2238C142.957 59.2673 148.119 54.4028 154.274 50.8289C155.366 50.2333 156.359 49.6376 157.55 49.1412C161.62 47.255 166.088 45.9644 170.654 45.3688C171.647 45.2695 172.64 45.1702 173.633 45.071C174.427 45.071 175.221 44.9717 176.015 44.9717C179.688 44.9717 183.163 45.3688 186.538 46.2623C187.531 46.4608 188.524 46.7586 189.517 47.0565C207.088 53.013 219.796 69.592 219.796 89.0499Z" fill="#F5F6FC"/>
<path fill-rule="evenodd" clip-rule="evenodd" d="M173.71 46.5707L170.826 46.8591C166.416 47.4366 162.104 48.6842 158.181 50.5022L158.154 50.5146L158.127 50.5259C157.269 50.8833 156.542 51.2873 155.712 51.7485C155.487 51.8734 155.255 52.0025 155.01 52.136C149.061 55.594 144.085 60.2893 140.451 66.0264L140.42 66.0765L140.384 66.1238C139.864 66.8177 139.418 67.6134 138.916 68.5173C137.859 70.5374 136.903 72.6421 136.139 74.7358C136.003 75.1751 135.868 75.5851 135.737 75.9808C135.449 76.8479 135.185 77.6463 134.994 78.5334L134.394 81.5364L134.385 81.571C134.364 81.6532 134.349 81.7709 134.321 82.0181L134.318 82.0496C134.298 82.2318 134.268 82.5041 134.207 82.7755C133.921 84.7916 133.735 86.7815 133.735 88.8514C133.735 90.3771 133.83 91.9034 134.021 93.4306L134.025 93.4612L134.028 93.492C134.12 94.6069 134.307 95.7325 134.506 96.9288C135.37 101.525 136.997 105.923 139.287 109.835L139.296 109.849L139.304 109.864C139.81 110.775 140.258 111.576 140.781 112.274L140.927 112.469L140.995 112.672C141 112.68 141.009 112.693 141.021 112.711C141.044 112.743 141.066 112.774 141.102 112.822C141.112 112.836 141.124 112.852 141.137 112.869C141.184 112.933 141.244 113.015 141.307 113.108C142.067 114.151 142.926 115.202 143.818 116.292C145.628 118.483 147.632 120.393 149.838 122.119L149.87 122.144L149.901 122.171C150.608 122.79 151.418 123.333 152.326 123.938L152.334 123.943C155.889 126.346 159.821 128.262 164.031 129.506L164.037 129.507C165.042 129.809 165.967 130.085 166.878 130.267L166.896 130.271L166.915 130.275C169.868 130.942 172.833 131.231 176.015 131.231C177.214 131.231 178.246 131.23 179.365 131.137L179.428 131.132H179.49C180.382 131.132 181.276 131.043 182.174 130.863L182.213 130.855L182.252 130.85C202.667 127.878 218.296 110.238 218.296 89.0499C218.296 70.2712 206.036 54.2517 189.06 48.4855C188.065 48.1869 187.148 47.9139 186.244 47.7331L186.199 47.7241L186.155 47.7123C182.922 46.8567 179.579 46.4717 176.015 46.4717C175.673 46.4717 175.323 46.4931 174.918 46.5184L174.898 46.5196C174.536 46.5423 174.128 46.5678 173.71 46.5707ZM174.75 43.523C175.134 43.499 175.571 43.4717 176.015 43.4717C179.783 43.4717 183.374 43.8775 186.878 44.8006C187.925 45.0129 188.958 45.3229 189.916 45.6101L189.973 45.6273L189.998 45.6359C208.153 51.7899 221.296 68.9219 221.296 89.0499C221.296 111.728 204.58 130.612 182.723 133.813C181.669 134.021 180.612 134.128 179.553 134.132C178.323 134.231 177.197 134.231 176.042 134.231H176.015C172.652 134.231 169.467 133.926 166.272 133.206C165.216 132.993 164.172 132.68 163.207 132.39L163.181 132.383C163.18 132.382 163.18 132.382 163.179 132.382C158.655 131.045 154.448 128.992 150.658 126.432C150.657 126.431 150.656 126.43 150.655 126.429L150.625 126.41C149.767 125.837 148.817 125.204 147.957 124.456C145.609 122.615 143.455 120.563 141.502 118.199L141.498 118.194L141.484 118.177C140.6 117.097 139.684 115.977 138.865 114.85L138.847 114.826L138.83 114.8C138.772 114.713 138.752 114.688 138.725 114.653C138.696 114.616 138.659 114.568 138.563 114.431C138.473 114.302 138.361 114.129 138.262 113.912C137.658 113.079 137.156 112.175 136.704 111.362L136.69 111.336C134.221 107.115 132.478 102.39 131.555 97.4669L131.552 97.4521L131.545 97.4084C131.351 96.2458 131.146 95.0145 131.04 93.7722C130.837 92.1327 130.735 90.4923 130.735 88.8514C130.735 86.5756 130.942 84.4167 131.246 82.2856L131.257 82.209L131.276 82.134C131.297 82.0518 131.312 81.9341 131.34 81.6868L131.343 81.6553C131.364 81.4627 131.397 81.1695 131.465 80.883L132.057 77.9247L132.059 77.9146C132.285 76.8582 132.634 75.8044 132.944 74.8653C133.066 74.4957 133.182 74.1439 133.283 73.8168L133.294 73.7807L133.307 73.7453C134.128 71.488 135.15 69.2423 136.267 67.109L136.276 67.0927L136.307 67.0356C136.779 66.1855 137.307 65.2362 137.948 64.3725C141.853 58.2243 147.184 53.2109 153.521 49.5317L153.538 49.5217L153.556 49.5121C153.761 49.3998 153.97 49.2837 154.183 49.1653C155.025 48.6969 155.928 48.1945 156.946 47.7681C161.149 45.8233 165.755 44.4951 170.46 43.8814L170.483 43.8785L173.558 43.571H173.633C173.975 43.571 174.325 43.5495 174.73 43.5242L174.75 43.523Z" fill="#4055C0"/>
<path d="M188.822 66.8121C188.425 67.507 187.531 67.8049 186.836 67.4078C186.241 67.1099 185.645 66.8121 185.149 66.5143C182.071 64.8266 179.192 63.2382 173.236 63.2382C167.279 63.2382 164.4 64.8266 161.323 66.5143C158.046 68.3012 154.671 70.1875 148.02 70.1875C143.254 70.1875 140.177 69.1947 137.596 68.0034C138.092 67.1099 138.588 66.2164 139.184 65.4222C141.368 66.415 144.049 67.2092 148.02 67.2092C153.976 67.2092 156.855 65.6208 159.933 63.8338C163.209 62.0469 166.584 60.1606 173.236 60.1606C179.887 60.1606 183.262 62.0469 186.538 63.8338C187.134 64.1317 187.63 64.4295 188.226 64.7273C188.921 65.1244 189.219 66.0179 188.822 66.8121Z" fill="#4055C0"/>
<path d="M192.396 83.9868C192.098 84.781 191.304 85.1781 190.509 84.8803C188.425 84.1854 186.737 83.2919 185.149 82.3984C182.071 80.7107 179.192 79.1223 173.235 79.1223C167.279 79.1223 164.4 80.7107 161.322 82.3984C158.046 84.1854 154.671 86.0716 148.02 86.0716C141.368 86.0716 137.993 84.1854 134.717 82.3984C134.121 82.1006 133.525 81.7035 132.93 81.4056C133.128 80.4129 133.327 79.4201 133.525 78.4274C134.419 78.9238 135.312 79.3209 136.206 79.8172C139.283 81.5049 142.162 83.0933 148.119 83.0933C154.075 83.0933 156.954 81.5049 160.032 79.8172C163.308 78.0303 166.683 76.144 173.335 76.144C179.986 76.144 183.362 78.0303 186.638 79.8172C188.226 80.7107 189.715 81.5049 191.502 82.1006C192.197 82.2991 192.594 83.1926 192.396 83.9868Z" fill="#4055C0"/>
<path d="M189.616 98.9774C189.219 99.6724 188.325 99.9702 187.631 99.6724C186.737 99.2753 185.943 98.7789 185.149 98.3818C182.071 96.6941 179.192 95.1057 173.236 95.1057C167.279 95.1057 164.4 96.6941 161.323 98.3818C158.046 100.169 154.671 102.055 148.02 102.055C141.368 102.055 137.993 100.169 134.717 98.3818C134.121 98.084 133.625 97.7861 133.029 97.4883C132.831 96.297 132.632 95.1057 132.533 93.9144C133.823 94.5101 135.015 95.1057 136.206 95.8006C139.283 97.4883 142.162 99.0767 148.119 99.0767C154.075 99.0767 156.954 97.4883 160.032 95.8006C163.308 94.0137 166.683 92.1274 173.335 92.1274C179.986 92.1274 183.362 94.0137 186.638 95.8006C187.432 96.1977 188.226 96.6941 189.02 97.0912C189.616 97.2898 189.914 98.1832 189.616 98.9774Z" fill="#4055C0"/>
<path d="M199.941 116.45C199.941 117.244 199.246 117.939 198.452 117.939C191.8 117.939 188.425 116.053 185.149 114.266C182.071 112.578 179.192 110.989 173.236 110.989C167.279 110.989 164.4 112.578 161.323 114.266C158.047 116.053 154.671 117.939 148.02 117.939C145.935 117.939 144.247 117.74 142.659 117.442C141.765 116.35 140.872 115.258 140.078 114.166C139.879 113.868 139.681 113.67 139.581 113.372C141.765 114.266 144.247 114.961 148.02 114.961C153.976 114.961 156.855 113.372 159.933 111.684C163.209 109.897 166.584 108.011 173.236 108.011C179.887 108.011 183.262 109.897 186.539 111.684C189.616 113.372 192.495 114.961 198.452 114.961C199.246 114.961 199.941 115.655 199.941 116.45Z" fill="#4055C0"/>
<path d="M141.766 103.643C141.766 108.21 141.071 111.486 140.177 114.167C139.383 113.075 138.688 111.983 138.092 110.791C138.589 108.806 138.887 106.522 138.887 103.643C138.887 96.6942 137.199 93.3189 135.511 89.6457C134.518 87.5609 133.526 85.4761 132.731 82.6964C133.129 79.8174 133.823 77.0377 134.816 74.4565C134.816 81.4058 136.405 84.7812 138.192 88.4544C139.879 92.1276 141.766 95.9993 141.766 103.643Z" fill="#4055C0"/>
<path d="M157.65 103.643C157.65 111.288 155.763 115.159 153.976 118.932C152.984 120.917 152.09 122.903 151.495 125.385C150.601 124.789 149.708 124.193 148.913 123.499C149.608 121.215 150.502 119.428 151.296 117.641C153.083 114.067 154.671 110.692 154.671 103.643C154.671 96.5949 153.083 93.3188 151.296 89.6456C149.509 85.8732 147.623 82.0014 147.623 74.3572C147.623 66.713 149.509 62.8413 151.296 59.1681C152.487 56.7855 153.579 54.4029 154.175 51.0275C155.267 50.4319 156.26 49.8362 157.451 49.3398C156.955 54.4029 155.466 57.4804 153.976 60.4587C152.289 64.0326 150.601 67.408 150.601 74.4565C150.601 81.4058 152.289 84.7812 153.976 88.4543C155.763 92.1275 157.65 95.9993 157.65 103.643Z" fill="#4055C0"/>
<path d="M169.96 88.3552C171.747 92.1277 173.633 95.9994 173.633 103.644C173.633 111.288 171.747 115.16 169.96 118.932C168.371 122.307 166.783 125.583 166.584 131.838C165.592 131.639 164.599 131.341 163.606 131.044C163.904 124.591 165.592 121.017 167.18 117.542C168.967 113.968 170.555 110.593 170.555 103.544C170.555 96.4958 168.967 93.2197 167.18 89.5465C165.393 85.774 163.507 81.9023 163.507 74.2581C163.507 66.6139 165.393 62.7421 167.18 59.069C168.868 55.495 170.456 52.219 170.555 45.4682C171.548 45.369 172.541 45.2697 173.534 45.1704C173.534 52.7153 171.647 56.5871 169.86 60.3595C168.173 63.9335 166.485 67.3088 166.485 74.3574C166.584 81.4059 168.173 84.7813 169.96 88.3552Z" fill="#4055C0"/>
<path d="M189.418 47.3544C189.12 53.6088 187.432 57.0834 185.844 60.4588C184.355 63.5363 182.965 66.4153 182.568 71.4783C182.468 72.2725 181.873 72.8682 181.078 72.8682H180.979C180.185 72.7689 179.589 72.074 179.589 71.2798C179.986 65.6211 181.575 62.345 183.163 59.1682C184.752 55.7928 186.34 52.616 186.539 46.4609C187.531 46.7588 188.524 47.0566 189.418 47.3544Z" fill="#4055C0"/>
<path d="M189.517 103.643C189.517 111.288 187.631 115.159 185.844 118.932C184.156 122.407 182.568 125.782 182.468 132.433C181.476 132.632 180.483 132.731 179.49 132.731C179.49 125.186 181.376 121.314 183.163 117.641C184.851 114.067 186.539 110.692 186.539 103.643C186.539 96.5949 184.653 92.3261 182.766 88.1565C181.575 85.3768 180.284 82.5971 179.59 79.0232C179.391 78.229 179.987 77.4348 180.781 77.2362C181.575 77.0377 182.369 77.6333 182.568 78.4275C183.163 81.6043 184.355 84.1855 185.546 86.8659C187.432 91.4326 189.517 95.9993 189.517 103.643Z" fill="#4055C0"/>
<path d="M195.97 100.268C196.168 99.8713 195.97 100.368 195.97 100.268C195.87 100.368 195.87 100.268 195.97 100.268C196.069 100.169 196.168 100.169 196.069 100.169C195.97 100.169 195.97 100.169 196.069 100.169C196.168 100.169 196.367 100.268 196.168 100.169C196.565 100.268 196.863 100.665 197.161 100.963C198.054 102.055 198.749 103.247 200.04 103.942C202.323 105.133 205.103 104.934 207.287 103.743C208.975 102.85 207.486 100.268 205.798 101.162C204.011 102.155 201.728 102.055 200.437 100.368C199.543 99.1763 198.749 97.985 197.26 97.3894C195.87 96.893 194.083 97.3894 193.388 98.7792C192.991 99.4742 193.19 100.368 193.885 100.864C194.58 101.261 195.572 101.063 195.97 100.268Z" fill="#4055C0"/>
<path d="M192.693 69.0951C193.984 70.8821 195.97 71.9741 198.253 72.0734C200.536 72.1726 202.919 70.9813 203.812 68.7973C204.11 68.1024 203.515 67.1096 202.82 67.0103C202.025 66.8118 201.231 67.3082 201.033 68.0031C200.933 68.3009 201.132 67.9038 201.033 68.0031C200.933 68.1024 200.933 68.2016 200.834 68.3009C200.933 68.2016 200.933 68.2016 200.834 68.3009C200.735 68.4002 200.735 68.4002 200.636 68.4995C200.536 68.5987 200.338 68.698 200.636 68.4995C200.536 68.4995 200.536 68.5987 200.437 68.5987C200.338 68.698 200.238 68.698 200.139 68.7973C200.139 68.7973 199.841 68.8966 200.04 68.8966C200.238 68.7973 199.941 68.8966 199.841 68.9958C199.742 68.9958 199.643 69.0951 199.543 69.0951C199.345 69.0951 199.246 69.1944 199.047 69.1944C199.246 69.1944 199.246 69.1944 199.047 69.1944C198.948 69.1944 198.849 69.1944 198.849 69.1944C198.65 69.1944 198.451 69.1944 198.253 69.1944C198.154 69.1944 198.054 69.1944 198.054 69.1944C197.856 69.1944 198.352 69.2937 198.054 69.1944C197.856 69.1944 197.757 69.0951 197.558 69.0951C197.359 69.0951 197.26 68.9958 197.062 68.8966C196.665 68.7973 197.26 68.9958 197.062 68.8966C196.962 68.8966 196.863 68.7973 196.764 68.7973C196.565 68.698 196.466 68.5987 196.267 68.4995C196.168 68.4002 196.069 68.4002 196.069 68.3009C196.168 68.4002 196.168 68.4002 196.069 68.3009C195.97 68.2016 195.771 68.0031 195.672 67.9038C195.572 67.8045 195.572 67.8045 195.473 67.7053C195.175 67.4074 195.672 67.9038 195.374 67.606C194.878 67.0103 194.083 66.6132 193.289 67.1096C192.594 67.4074 192.296 68.4002 192.693 69.0951Z" fill="#4055C0"/>
<path d="M188.921 76.045C189.02 76.045 189.219 76.045 189.318 76.045C189.219 76.045 189.12 76.045 188.921 76.045C189.417 76.1443 189.914 76.2436 190.311 76.4421C190.212 76.3428 190.112 76.3428 189.914 76.2436C190.212 76.3428 190.41 76.5414 190.708 76.6407C190.609 76.5414 190.509 76.4421 190.41 76.4421C190.609 76.5414 190.708 76.7399 190.906 76.9385C190.807 76.8392 190.708 76.7399 190.708 76.6407C190.807 76.8392 190.906 77.0378 191.006 77.2363C190.906 77.137 190.906 77.0378 190.807 76.8392C190.906 77.0378 190.906 77.2363 191.006 77.4349C191.006 77.3356 191.006 77.137 190.906 77.0378C190.906 77.2363 190.906 77.4349 190.906 77.6334C190.906 77.5341 190.906 77.3356 191.006 77.2363C191.006 77.4349 190.906 77.5341 190.906 77.6334C191.006 77.5341 191.006 77.4349 191.105 77.2363C191.006 77.3356 191.006 77.4349 190.906 77.5341C190.708 77.832 190.708 78.3283 190.708 78.7254C190.807 79.0233 191.105 79.4204 191.403 79.6189C191.701 79.8175 192.197 79.9167 192.594 79.8175C192.991 79.7182 193.289 79.4204 193.488 79.1225C193.885 78.5269 194.083 77.7327 193.984 77.0378C193.885 76.5414 193.785 76.1443 193.587 75.6479C193.388 75.3501 193.19 75.0523 192.991 74.7544C192.495 74.1588 191.8 73.7617 191.006 73.5631C190.311 73.3646 189.616 73.2653 188.921 73.166C188.524 73.166 188.127 73.3646 187.829 73.5631C187.531 73.8609 187.333 74.258 187.432 74.6551C187.432 75.0522 187.531 75.4494 187.829 75.7472C188.226 75.9457 188.524 76.045 188.921 76.045Z" fill="#4055C0"/>
<path d="M208.28 77.5337C206.195 77.5337 204.11 78.3279 202.82 79.9163C201.231 81.7033 201.231 84.0859 203.118 85.6743C204.607 86.9648 206.394 87.7591 207.982 88.9504C208.479 89.3475 208.975 89.8438 208.776 90.5388C208.578 91.4322 207.684 92.1272 207.089 92.7228C205.699 94.0134 207.784 96.0982 209.173 94.8076C210.663 93.4177 212.152 91.6308 211.755 89.3475C211.457 87.4612 209.769 86.3692 208.28 85.4757C207.486 84.9793 206.592 84.3837 205.798 83.8873C205.401 83.5895 204.607 83.1924 204.607 82.696C204.607 82.1004 205.5 81.5047 205.897 81.2069C206.592 80.7105 207.486 80.512 208.28 80.512C210.166 80.512 210.166 77.5337 208.28 77.5337Z" fill="#4055C0"/>
</svg>
