<svg width="102" height="96" viewBox="0 0 102 96" fill="none" xmlns="http://www.w3.org/2000/svg">
<path d="M31.4114 41.3382C31.4484 42.1481 31.3373 42.9581 31.2633 43.768C31.1892 44.5412 31.2633 45.3143 31.3743 46.0875C31.4854 46.8606 31.6705 47.6706 31.4854 48.4437C31.3373 49.1432 31.0041 49.7691 30.819 50.4318C30.6339 51.1681 30.708 51.9781 30.745 52.7144C30.782 53.4875 30.819 54.2607 30.745 55.0706C30.671 55.9174 30.5599 56.7642 30.4859 57.6109C30.4118 58.4209 30.4118 59.2309 30.3748 60.0776C30.3378 60.9244 30.2637 61.7712 30.1897 62.618C30.1527 63.4279 30.1157 64.2011 29.9306 64.9742C29.7455 65.7105 29.4863 66.4468 29.3752 67.1832C29.2642 67.9563 29.2642 68.7295 29.2642 69.5026C29.2642 70.3126 29.1161 71.1225 29.0421 71.8957C28.968 72.6688 28.894 73.4419 28.7829 74.2151C28.5608 75.6877 28.3757 77.234 27.8574 78.633C27.3762 79.9952 27.2651 81.3943 27.117 82.7933C27.006 84.0818 26.8209 85.4072 27.043 86.6958C27.2651 87.8371 28.4497 88.2053 29.4493 88.5366C30.1897 88.7943 30.8931 89.052 31.6705 89.1625C32.4479 89.3098 33.2254 89.4202 33.9658 89.6043C35.4466 89.9356 36.9644 90.2302 38.4452 90.6351C39.1486 90.8192 39.852 90.8929 40.5554 91.0033C41.3328 91.1138 42.0732 91.2978 42.8506 91.3347C43.628 91.4083 44.4055 91.2242 45.1829 91.1874C45.9973 91.1506 46.7748 91.2978 47.5892 91.4451C48.3666 91.5924 49.107 91.7028 49.8844 91.7028C50.6619 91.7028 51.4393 91.6292 52.2167 91.5924C52.9941 91.5556 53.7716 91.7028 54.549 91.7765C55.3264 91.8501 56.1038 91.8133 56.8813 91.7028C57.6587 91.5924 58.4361 91.4451 59.2135 91.2978C59.9539 91.1506 60.7314 91.1506 61.4718 91.0769C62.2122 91.0033 62.8785 90.8192 63.5449 90.4879C64.1742 90.1565 64.7296 89.7515 65.3219 89.457C65.9882 89.1257 66.7657 88.9416 67.469 88.6839C68.2095 88.4262 68.9499 88.0948 69.6903 87.7267C70.3936 87.3953 71.097 87.0271 71.8004 86.659C72.4298 86.3276 71.8745 85.3704 71.2451 85.7018C69.8383 86.4381 68.4316 87.1744 66.9508 87.6898C66.2844 87.9107 65.581 88.1316 64.9146 88.4262C64.2853 88.6839 63.767 89.0889 63.1747 89.4202C61.916 90.1197 60.4352 89.9724 59.0284 90.1933C57.4736 90.4511 55.9558 90.8192 54.4009 90.6351C53.6605 90.5247 52.9201 90.4511 52.1427 90.4879C51.4023 90.5247 50.6249 90.5983 49.8844 90.5983C48.3296 90.5983 46.8118 90.0093 45.2569 90.0829C44.5165 90.1197 43.7391 90.267 42.9987 90.2302C42.2583 90.1933 41.4809 90.0093 40.7405 89.8988C40.0741 89.7884 39.3707 89.7147 38.7043 89.5307C38.001 89.3466 37.3346 89.1625 36.6312 89.0152C35.1134 88.7207 33.5956 88.3525 32.0777 88.0948C31.3373 87.9844 30.6339 87.7635 29.9306 87.5058C29.4123 87.3217 28.5978 87.1744 28.2276 86.7326C28.0425 86.5485 28.0425 86.1067 28.0425 85.7754C28.0055 85.0759 28.0425 84.3764 28.1166 83.6769C28.2276 82.3147 28.2646 80.8788 28.6719 79.5534C28.857 78.9276 29.1161 78.3017 29.3012 77.6758C29.4863 76.9395 29.5604 76.2032 29.6714 75.4668C29.9306 73.9206 30.0786 72.3743 30.2637 70.828C30.4488 69.3185 30.2637 67.8091 30.671 66.3364C30.8561 65.6369 31.0782 64.9374 31.1892 64.1642C31.3003 63.3543 31.3003 62.5443 31.3743 61.7344C31.4854 60.1513 31.4854 58.5314 31.6705 56.9114C31.7445 56.1015 31.8556 55.2915 31.8926 54.4816C31.9296 53.7452 31.8926 52.9721 31.8556 52.2358C31.8186 51.4994 31.8186 50.7999 32.0407 50.0636C32.2628 49.4009 32.559 48.775 32.633 48.0755C32.7071 47.3392 32.559 46.5661 32.4479 45.8297C32.3369 45.0566 32.2998 44.3203 32.3369 43.5471C32.4109 42.774 32.522 42.0008 32.485 41.2277C32.485 40.6386 31.3743 40.6386 31.4114 41.3382Z" fill="#4055C0"/>
<path d="M71.9114 86.1431C71.6893 84.5968 71.3931 83.0874 71.208 81.5779C71.134 80.8416 70.9859 80.0684 70.9489 79.3321C70.9119 78.5958 70.9859 77.8595 70.9489 77.16C70.7268 74.141 70.1715 71.1589 69.6532 68.2136C69.394 66.7041 69.1349 65.1578 69.0609 63.6484C69.0238 62.8752 69.0609 62.1021 68.9868 61.329C68.9128 60.5558 68.8387 59.8195 68.7647 59.0463C68.5056 56.2483 67.6541 53.5607 67.1728 50.7627C67.0247 49.9527 66.8396 49.1428 66.7286 48.3328C66.6175 47.486 66.6916 46.6393 66.7286 45.8293C66.7656 45.0193 66.6916 44.2462 66.5435 43.4731C66.4324 42.8104 66.2103 42.1109 66.1733 41.4114C66.1363 40.7118 65.0257 40.7118 65.0627 41.4114C65.1367 42.6999 65.618 43.9517 65.618 45.2402C65.618 45.9766 65.5439 46.7129 65.5439 47.4492C65.5439 48.2224 65.692 48.9955 65.8401 49.7318C66.0992 51.094 66.3214 52.493 66.6916 53.8553C66.8396 54.4811 66.9507 55.0702 67.0618 55.6961C67.2098 56.4324 67.3949 57.2055 67.506 57.9419C67.7281 59.4513 67.8762 61.0344 67.9132 62.5439C67.9502 64.127 68.1724 65.6365 68.3945 67.1827C68.5796 68.6922 68.8017 70.2017 69.0979 71.6743C69.394 73.1838 69.5421 74.6933 69.7272 76.2395C69.8383 77.0495 69.8383 77.8595 69.8383 78.7062C69.8383 79.553 69.9493 80.363 70.0604 81.1729C70.2825 82.9401 70.5787 84.6705 70.8378 86.4008C70.9489 87.1372 72.0225 86.8058 71.9114 86.1431Z" fill="#4055C0"/>
<path d="M20.0091 44.3204C21.3048 46.5293 22.9707 48.5542 24.6737 50.4319C26.3766 52.3095 28.4497 53.9662 30.745 55.1075C31.3743 55.4389 31.9296 54.4816 31.3003 54.1503C29.1161 53.009 27.117 51.4627 25.4511 49.6219C23.7852 47.7811 22.2303 45.8666 20.9346 43.7313C20.6385 43.1422 19.6759 43.6945 20.0091 44.3204Z" fill="#4055C0"/>
<path d="M20.9353 44.3949C21.5276 43.6217 22.0829 42.8118 22.6382 42.0386C23.1935 41.2287 23.7858 40.4923 24.4152 39.756C25.0075 39.0197 25.5258 38.2834 25.97 37.4734C26.4513 36.6266 26.9325 35.8535 27.5989 35.154C28.2653 34.4177 28.9687 33.755 29.598 33.0186C30.2273 32.2823 30.8197 31.546 31.486 30.8465C32.8188 29.4843 34.8919 29.2266 36.6689 28.7848C37.7795 28.5271 38.8901 28.2325 40.0007 27.9748C40.519 27.8644 41.0372 27.6803 41.5185 27.533C41.8517 27.4226 42.1849 27.2753 42.518 27.2753C43.2214 27.2385 43.2214 26.134 42.518 26.1708C41.7406 26.2076 41.0372 26.5758 40.2968 26.7967C39.2973 27.0912 38.2607 27.2753 37.2612 27.533C35.2991 28.0485 33.3 28.343 31.5601 29.4107C30.7826 29.8893 30.1533 30.6624 29.561 31.3619C28.8946 32.1351 28.2283 32.8714 27.5249 33.6077C26.8955 34.2704 26.2292 34.9699 25.7109 35.7431C25.1556 36.5898 24.7113 37.4734 24.119 38.3202C23.4526 39.2406 22.7122 40.0506 22.0459 40.971C21.3795 41.8914 20.7872 42.8118 20.0838 43.6954C19.7136 44.1372 20.5281 44.9471 20.9353 44.3949Z" fill="#4055C0"/>
<path d="M78.3901 43.7676C77.7237 44.8353 76.9463 45.8662 76.1688 46.8602C75.3914 47.8543 74.54 48.7747 73.6515 49.6951C71.9115 51.4991 69.8754 53.1558 67.6172 54.3339C66.9878 54.6653 67.5431 55.6225 68.1725 55.2911C70.5048 54.0762 72.6149 52.3458 74.4289 50.4682C75.3544 49.511 76.2429 48.5169 77.0573 47.4861C77.8718 46.4552 78.6862 45.4244 79.3526 44.2831C79.6858 43.694 78.7603 43.1418 78.3901 43.7676Z" fill="#4055C0"/>
<path d="M79.3154 43.5103C78.0568 41.9272 76.8351 40.3809 75.6875 38.7242C74.5398 37.1043 73.3182 35.558 72.0965 34.0117C71.4672 33.2385 70.8378 32.4654 70.1344 31.7659C69.4681 31.1032 68.8017 30.4037 68.0613 29.7778C67.3949 29.2256 66.5435 28.931 65.729 28.6365C64.7665 28.2683 63.804 27.9738 62.8044 27.6793C61.7309 27.3848 60.7683 26.8325 59.6947 26.6116C58.7692 26.4275 57.7697 26.2803 56.8442 26.2803C56.1408 26.2803 56.1408 27.3848 56.8442 27.3848C57.6586 27.3848 58.4361 27.4952 59.2505 27.6425C60.176 27.8266 60.9904 28.2315 61.8789 28.5261C62.8415 28.8574 63.841 29.0783 64.8405 29.4465C65.655 29.741 66.5435 30.0355 67.2469 30.5141C67.58 30.735 67.8762 31.0664 68.1724 31.3609C68.5426 31.7291 68.9128 32.0604 69.283 32.4286C69.9493 33.0545 70.5417 33.754 71.097 34.4535C72.3186 35.963 73.5033 37.5092 74.6139 39.0555C75.8726 40.8227 77.2053 42.5531 78.575 44.2466C78.9452 44.8725 79.7597 44.0625 79.3154 43.5103Z" fill="#4055C0"/>
<path d="M42.2212 27.0901C43.1097 28.1578 44.1462 29.2991 45.4049 29.9986C46.7747 30.7717 48.2555 30.6981 49.7733 30.7717C50.5137 30.8085 51.2911 30.919 52.0685 30.8453C52.809 30.7717 53.5123 30.5508 54.1417 30.2195C55.5114 29.52 56.474 28.3786 57.3254 27.0901C57.7326 26.501 56.7701 25.9488 56.3629 26.5378C55.6225 27.6791 54.771 28.6732 53.5123 29.2991C52.957 29.5568 52.3277 29.7777 51.6983 29.7777C50.995 29.7777 50.2916 29.704 49.5882 29.6672C48.2925 29.6304 46.9968 29.6672 45.8492 29.0045C44.7385 28.3418 43.813 27.311 43.0356 26.3169C42.5544 25.7647 41.7769 26.5378 42.2212 27.0901Z" fill="#4055C0"/>
<path d="M64.5814 32.6865C66.8396 34.0855 69.357 35.6318 70.1714 38.3194C70.3935 38.9821 71.4671 38.7244 71.245 38.0249C70.3195 35.0428 67.654 33.2756 65.1367 31.7293C64.5443 31.3611 63.989 32.3183 64.5814 32.6865Z" fill="#4055C0"/>
<path d="M41.2957 30.3303C41.888 31.1771 42.5173 31.9502 43.4428 32.392C44.2943 32.797 45.2198 32.981 46.1823 33.1283C46.4785 33.1651 46.7747 33.0547 46.8487 32.7601C46.9227 32.5024 46.7747 32.1343 46.4785 32.0975C45.6641 31.9502 44.8496 31.8397 44.0722 31.5084C43.702 31.3611 43.3688 31.1402 43.0726 30.8825C42.7395 30.5512 42.4803 30.2198 42.2212 29.8517C42.0361 29.5939 41.7399 29.4835 41.4437 29.6676C41.2586 29.7412 41.1476 30.1094 41.2957 30.3303Z" fill="#4055C0"/>
<path d="M33.6697 51.9406C33.3365 54.1864 33.0034 56.469 33.2255 58.7516C33.3365 59.8561 33.5216 60.9238 33.8919 61.9547C34.2621 63.0223 34.7063 64.0532 34.9654 65.1577C35.1135 65.8572 36.1871 65.5626 36.039 64.8631C35.8169 63.8323 35.4097 62.8751 35.0395 61.881C34.6693 60.8502 34.4101 59.8193 34.3361 58.7516C34.151 56.5795 34.4472 54.3705 34.7433 52.2352C34.7803 51.9406 34.6693 51.6461 34.3731 51.5725C34.114 51.4988 33.7067 51.6461 33.6697 51.9406Z" fill="#4055C0"/>
</svg>
