<svg width="274" height="274" viewBox="0 0 274 274" fill="none" xmlns="http://www.w3.org/2000/svg">
<path d="M137 274C212.663 274 274 212.663 274 137C274 61.337 212.663 0 137 0C61.337 0 0 61.337 0 137C0 212.663 61.337 274 137 274Z" fill="#F5F6FC"/>
<path fill-rule="evenodd" clip-rule="evenodd" d="M82.0015 94.3228C79.0435 94.3228 76.5522 96.7426 76.5522 99.772V220.193C76.5522 223.222 79.0435 225.642 82.0015 225.642H191.999C195.028 225.642 197.448 223.151 197.448 220.193V99.772C197.448 96.7426 194.957 94.3228 191.999 94.3228H82.0015ZM73.5522 99.772C73.5522 95.058 77.4146 91.3228 82.0015 91.3228H191.999C196.586 91.3228 200.448 95.058 200.448 99.772V220.193C200.448 224.78 196.713 228.642 191.999 228.642H82.0015C77.4146 228.642 73.5522 224.907 73.5522 220.193V99.772Z" fill="#4055C0"/>
<path fill-rule="evenodd" clip-rule="evenodd" d="M137 121.127C119.077 121.127 104.548 135.656 104.548 153.579C104.548 171.502 119.077 186.031 137 186.031C154.923 186.031 169.452 171.502 169.452 153.579C169.452 135.656 154.923 121.127 137 121.127ZM101.548 153.579C101.548 133.999 117.42 118.127 137 118.127C156.58 118.127 172.452 133.999 172.452 153.579C172.452 173.159 156.58 189.031 137 189.031C117.42 189.031 101.548 173.159 101.548 153.579Z" fill="#4055C0"/>
<path fill-rule="evenodd" clip-rule="evenodd" d="M152.289 57.0942C150.43 57.0942 148.924 58.6006 148.924 60.4587C148.924 62.3169 150.43 63.8232 152.289 63.8232C154.147 63.8232 155.653 62.3169 155.653 60.4587C155.653 58.6006 154.147 57.0942 152.289 57.0942ZM145.924 60.4587C145.924 56.9437 148.774 54.0942 152.289 54.0942C155.804 54.0942 158.653 56.9437 158.653 60.4587C158.653 63.9737 155.804 66.8232 152.289 66.8232C148.774 66.8232 145.924 63.9737 145.924 60.4587Z" fill="#4055C0"/>
<path fill-rule="evenodd" clip-rule="evenodd" d="M169.761 54.9102C166.697 54.9102 164.212 57.3943 164.212 60.4587C164.212 63.5231 166.697 66.0073 169.761 66.0073C172.825 66.0073 175.31 63.5231 175.31 60.4587C175.31 57.3943 172.825 54.9102 169.761 54.9102ZM161.212 60.4587C161.212 55.7375 165.04 51.9102 169.761 51.9102C174.482 51.9102 178.31 55.7375 178.31 60.4587C178.31 65.1799 174.482 69.0073 169.761 69.0073C165.04 69.0073 161.212 65.1799 161.212 60.4587Z" fill="#4055C0"/>
<path fill-rule="evenodd" clip-rule="evenodd" d="M137 108.916C112.333 108.916 92.3372 128.912 92.3372 153.579C92.3372 178.246 112.333 198.242 137 198.242C161.667 198.242 181.663 178.246 181.663 153.579C181.663 128.912 161.667 108.916 137 108.916ZM89.3372 153.579C89.3372 127.255 110.677 105.916 137 105.916C163.324 105.916 184.663 127.255 184.663 153.579C184.663 179.903 163.324 201.242 137 201.242C110.677 201.242 89.3372 179.903 89.3372 153.579Z" fill="#4055C0"/>
<path fill-rule="evenodd" clip-rule="evenodd" d="M83.877 64.5294C83.877 53.972 92.4906 45.3584 103.048 45.3584H170.952C181.51 45.3584 190.123 53.972 190.123 64.5294V74.0598C190.123 74.8883 189.452 75.5598 188.623 75.5598H85.377C84.5485 75.5598 83.877 74.8883 83.877 74.0598V64.5294ZM103.048 48.3584C94.1474 48.3584 86.877 55.6289 86.877 64.5294V72.5598H187.123V64.5294C187.123 55.6289 179.853 48.3584 170.952 48.3584H103.048Z" fill="#4055C0"/>
<path fill-rule="evenodd" clip-rule="evenodd" d="M85.9642 72.6792C86.7265 73.0035 87.0815 73.8844 86.7572 74.6467L77.1275 97.2815C76.8032 98.0438 75.9223 98.3988 75.16 98.0745C74.3977 97.7502 74.0426 96.8693 74.3669 96.107L83.9966 73.4722C84.321 72.7099 85.2018 72.3549 85.9642 72.6792Z" fill="#4055C0"/>
<path fill-rule="evenodd" clip-rule="evenodd" d="M188.036 72.6792C188.798 72.3549 189.679 72.7099 190.003 73.4722L199.633 96.107C199.957 96.8693 199.602 97.7502 198.84 98.0745C198.078 98.3988 197.197 98.0438 196.873 97.2815L187.243 74.6467C186.919 73.8844 187.274 73.0035 188.036 72.6792Z" fill="#4055C0"/>
<path fill-rule="evenodd" clip-rule="evenodd" d="M116.283 152.518C116.869 151.933 117.818 151.933 118.404 152.518L136.77 170.884C137.356 171.47 137.356 172.42 136.77 173.006C136.184 173.591 135.235 173.591 134.649 173.006L116.283 154.64C115.697 154.054 115.697 153.104 116.283 152.518Z" fill="#4055C0"/>
<path fill-rule="evenodd" clip-rule="evenodd" d="M119.955 136.636C120.539 136.05 121.489 136.048 122.076 136.633L153.745 168.203C154.331 168.787 154.333 169.737 153.748 170.324C153.163 170.911 152.213 170.912 151.627 170.327L119.958 138.758C119.371 138.173 119.37 137.223 119.955 136.636Z" fill="#4055C0"/>
<path fill-rule="evenodd" clip-rule="evenodd" d="M139.31 141.603C139.894 141.014 140.843 141.01 141.432 141.593L153.047 153.109C153.635 153.693 153.639 154.642 153.056 155.231C152.473 155.819 151.523 155.823 150.935 155.24L139.319 143.724C138.731 143.141 138.727 142.191 139.31 141.603Z" fill="#4055C0"/>
</svg>
