<svg width="274" height="274" viewBox="0 0 274 274" fill="none" xmlns="http://www.w3.org/2000/svg">
<path d="M274 137C274 140.375 273.901 143.751 273.603 147.126C273.504 148.119 273.404 149.211 273.305 150.204C272.213 161.819 269.632 172.938 265.859 183.56C265.562 184.553 265.165 185.446 264.767 186.439C261.193 195.771 256.627 204.507 251.167 212.747C250.472 213.74 249.777 214.832 249.082 215.825C238.459 231.014 224.759 243.92 208.975 253.649C207.982 254.244 206.89 254.84 205.897 255.436C185.645 267.249 162.117 274 137 274C113.869 274 92.0283 268.242 72.8681 258.116C71.8754 257.62 70.9819 257.123 69.9891 256.528C52.1196 246.501 36.7319 232.503 24.9181 215.825L22.7341 212.648C15.9833 202.522 10.6225 191.502 6.75072 179.788C6.4529 178.795 6.15507 177.802 5.85725 176.809C2.48189 165.79 0.496375 154.274 0.0992738 142.262C0.0992738 141.07 0 139.879 0 138.688C0 138.092 0 137.496 0 136.901C0 128.164 0.794204 119.528 2.38261 111.288C2.58116 110.295 2.77971 109.302 2.97826 108.309C16.1819 46.4609 71.1804 0 137 0C199.047 0 251.464 41.1993 268.341 97.7862C268.738 98.9775 269.036 100.169 269.334 101.36C272.412 112.777 274 124.69 274 137Z" fill="#F5F6FC"/>
<path d="M269.334 101.36C267.348 100.467 265.065 99.871 261.988 99.871C255.336 99.871 252.06 102.551 248.585 105.43C244.813 108.508 240.941 111.784 233.297 111.784C225.554 111.784 221.682 108.607 218.009 105.43C214.534 102.551 211.258 99.871 204.606 99.871C197.955 99.871 194.679 102.551 191.204 105.43C187.432 108.508 183.56 111.784 175.916 111.784C168.172 111.784 164.301 108.607 160.627 105.43C157.153 102.551 153.877 99.871 147.225 99.871C140.574 99.871 137.298 102.551 133.823 105.43C130.051 108.508 126.278 111.784 118.535 111.784C110.791 111.784 106.919 108.607 103.246 105.43C100.069 102.849 97.1905 100.367 91.8296 99.871C91.234 99.7717 90.539 99.7717 89.8441 99.7717C89.0499 99.7717 88.355 99.0768 88.355 98.2826C88.355 97.8855 88.4542 97.5877 88.7521 97.2898C89.0499 96.992 89.447 96.7935 89.8441 96.7935C90.539 96.7935 91.1347 96.7935 91.8296 96.8927C92.9216 96.992 93.9144 97.0913 94.9072 97.3891C99.4738 98.4811 102.353 100.864 105.133 103.147C108.607 106.026 111.883 108.806 118.535 108.806C125.186 108.806 128.462 106.026 131.937 103.147C135.709 100.07 139.482 96.8927 147.225 96.8927C154.969 96.8927 158.84 100.07 162.514 103.147C165.988 106.026 169.264 108.806 175.916 108.806C182.567 108.806 185.843 106.026 189.318 103.147C193.09 100.07 196.962 96.8927 204.606 96.8927C212.35 96.8927 216.222 100.07 219.895 103.147C223.369 106.026 226.646 108.806 233.297 108.806C239.948 108.806 243.225 106.026 246.699 103.147C250.472 100.07 254.343 96.8927 261.988 96.8927C264.469 96.8927 266.554 97.1906 268.341 97.7862C268.639 98.9775 269.036 100.169 269.334 101.36Z" fill="#4055C0"/>
<path d="M127.768 137C127.768 137.795 127.073 138.49 126.278 138.49C119.627 138.49 116.351 141.269 112.876 144.148C109.104 147.226 105.232 150.403 97.5879 150.403C89.8444 150.403 85.9726 147.226 82.2994 144.148C78.8248 141.269 75.5487 138.49 68.8973 138.49C62.2458 138.49 58.9697 141.269 55.4951 144.148C51.7226 147.226 47.9502 150.403 40.2067 150.403C32.4632 150.403 28.5915 147.226 24.9183 144.148C21.4437 141.269 18.1676 138.49 11.5161 138.49C6.25452 138.49 3.07771 140.177 0.298004 142.361C0.298004 141.17 0.19873 139.979 0.19873 138.787C2.97844 137 6.45308 135.611 11.5161 135.611C19.2596 135.611 23.1313 138.787 26.8045 141.964C30.2792 144.843 33.5552 147.524 40.2067 147.524C46.8581 147.524 50.1342 144.744 53.6089 141.964C57.3813 138.887 61.1538 135.611 68.8973 135.611C76.6408 135.611 80.5125 138.787 84.1857 141.964C87.6603 144.843 90.9364 147.524 97.5879 147.524C104.239 147.524 107.515 144.744 110.99 141.865C114.762 138.787 118.634 135.611 126.278 135.611C127.073 135.511 127.768 136.206 127.768 137Z" fill="#4055C0"/>
<path d="M273.603 147.126C273.503 148.119 273.404 149.211 273.305 150.203C272.213 150.402 271.121 150.402 269.83 150.402C262.087 150.402 258.215 147.225 254.542 144.148C251.067 141.269 247.791 138.489 241.14 138.489C234.488 138.489 231.212 141.269 227.737 144.148C223.965 147.225 220.093 150.402 212.449 150.402C204.706 150.402 200.834 147.225 197.161 144.148C193.686 141.269 190.41 138.489 183.758 138.489C177.107 138.489 173.831 141.269 170.356 144.148C166.584 147.225 162.811 150.402 155.068 150.402C147.324 150.402 143.453 147.225 139.779 144.148C136.305 141.269 133.029 138.489 126.377 138.489C125.583 138.489 124.888 137.794 124.888 137C124.888 136.206 125.583 135.511 126.377 135.511C134.121 135.511 137.993 138.688 141.666 141.864C145.14 144.743 148.416 147.424 155.068 147.424C161.719 147.424 164.995 144.644 168.47 141.765C172.243 138.688 176.114 135.511 183.758 135.511C191.502 135.511 195.374 138.688 199.047 141.864C202.522 144.743 205.798 147.424 212.449 147.424C219.1 147.424 222.377 144.644 225.851 141.765C229.624 138.688 233.495 135.511 241.14 135.511C248.883 135.511 252.755 138.688 256.428 141.864C259.903 144.743 263.179 147.424 269.83 147.424C271.319 147.424 272.511 147.325 273.603 147.126Z" fill="#4055C0"/>
<path d="M265.86 183.461C265.562 184.454 265.165 185.347 264.768 186.34C262.881 185.248 261.293 183.958 259.804 182.667C256.329 179.788 253.053 177.108 246.402 177.108C239.75 177.108 236.474 179.887 232.999 182.667C229.227 185.745 225.355 189.021 217.711 189.021C210.067 189.021 206.096 185.844 202.423 182.667C198.948 179.788 195.672 177.108 189.02 177.108C182.369 177.108 179.093 179.887 175.618 182.667C171.846 185.745 168.073 189.021 160.33 189.021C152.586 189.021 148.715 185.844 145.041 182.667C141.567 179.788 138.291 177.108 131.639 177.108C130.845 177.108 130.15 176.413 130.15 175.619C130.15 174.824 130.845 174.129 131.639 174.129C139.383 174.129 143.254 177.306 146.928 180.384C150.402 183.263 153.678 186.042 160.33 186.042C166.981 186.042 170.257 183.263 173.732 180.384C177.504 177.306 181.277 174.129 189.02 174.129C196.764 174.129 200.636 177.306 204.309 180.384C207.783 183.263 211.06 186.042 217.711 186.042C224.362 186.042 227.639 183.263 231.113 180.384C234.886 177.306 238.757 174.129 246.402 174.129C254.145 174.129 258.017 177.306 261.69 180.384C263.08 181.476 264.37 182.568 265.86 183.461Z" fill="#4055C0"/>
<path d="M132.93 175.619C132.93 176.413 132.235 177.108 131.441 177.108C124.789 177.108 121.513 179.887 118.038 182.667C114.266 185.745 110.394 189.021 102.75 189.021C95.0066 189.021 91.1349 185.844 87.4617 182.766C83.9871 179.887 80.711 177.108 74.0595 177.108C67.4081 177.108 64.132 179.887 60.6573 182.766C56.8849 185.844 53.1124 189.021 45.3689 189.021C37.6255 189.021 33.7537 185.844 30.0805 182.667C26.6059 179.788 23.3298 177.108 16.6784 177.108C12.3103 177.108 9.43127 178.299 6.94939 179.887C6.65156 178.895 6.35373 177.902 6.05591 176.909C8.73634 175.321 12.0124 174.129 16.6784 174.129C24.4219 174.129 28.2936 177.306 31.9668 180.384C35.4414 183.263 38.7175 186.042 45.3689 186.042C52.0204 186.042 55.2965 183.263 58.7711 180.384C62.5436 177.306 66.316 174.129 74.0595 174.129C81.803 174.129 85.6747 177.306 89.3479 180.384C92.8226 183.263 96.0986 186.042 102.75 186.042C109.402 186.042 112.678 183.263 116.152 180.384C119.925 177.306 123.796 174.129 131.441 174.129C132.334 174.129 132.93 174.725 132.93 175.619Z" fill="#4055C0"/>
<path d="M251.266 212.648C250.571 213.641 249.876 214.733 249.181 215.725C244.118 216.321 241.239 218.704 238.261 221.186C234.488 224.263 230.616 227.44 222.972 227.44C215.229 227.44 211.357 224.263 207.684 221.186C204.209 218.307 200.933 215.527 194.282 215.527C187.63 215.527 184.354 218.307 180.879 221.186C177.107 224.263 173.335 227.44 165.591 227.44C157.848 227.44 153.976 224.263 150.303 221.186C146.828 218.307 143.552 215.527 136.901 215.527C130.249 215.527 126.973 218.307 123.498 221.186C119.726 224.263 115.854 227.44 108.21 227.44C100.466 227.44 96.5947 224.263 92.9215 221.186C89.4469 218.307 86.1708 215.527 79.5194 215.527C72.8679 215.527 69.5918 218.307 66.1172 221.186C62.3447 224.263 58.473 227.44 50.8288 227.44C43.1846 227.44 39.2136 224.263 35.5404 221.186C32.6614 218.803 29.9809 216.52 25.4143 215.825L23.2302 212.648C30.1795 212.946 33.952 215.924 37.4266 218.902C40.9012 221.781 44.1773 224.561 50.8288 224.561C57.4802 224.561 60.7563 221.781 64.2309 218.902C68.0034 215.825 71.8752 212.648 79.5194 212.648C87.2628 212.648 91.1346 215.825 94.8078 218.902C98.2824 221.781 101.558 224.561 108.21 224.561C114.861 224.561 118.137 221.781 121.612 218.902C125.385 215.825 129.256 212.648 136.901 212.648C144.644 212.648 148.516 215.825 152.189 218.902C155.664 221.781 158.94 224.561 165.591 224.561C172.243 224.561 175.519 221.781 178.993 218.902C182.766 215.825 186.538 212.648 194.282 212.648C202.025 212.648 205.897 215.825 209.57 218.902C213.045 221.781 216.321 224.561 222.972 224.561C229.624 224.561 232.9 221.781 236.374 218.902C239.948 215.924 243.721 212.747 251.266 212.648Z" fill="#4055C0"/>
<path d="M208.975 253.648C207.982 254.244 206.89 254.84 205.897 255.435C204.011 254.641 201.827 254.244 199.047 254.244C192.396 254.244 189.12 257.024 185.645 259.903C181.872 262.98 178.1 266.157 170.357 266.157C162.613 266.157 158.741 262.98 155.068 259.903C151.593 257.024 148.317 254.244 141.666 254.244C135.014 254.244 131.738 257.024 128.264 259.903C124.491 262.98 120.62 266.157 112.975 266.157C105.232 266.157 101.36 262.98 97.6869 259.903C94.2123 257.024 90.9362 254.244 84.2848 254.244C79.0232 254.244 75.8464 255.932 72.9674 258.116C71.9746 257.619 71.0811 257.123 70.0884 256.527C73.4637 253.748 77.3355 251.167 84.1855 251.167C91.929 251.167 95.8007 254.343 99.4739 257.52C102.949 260.399 106.225 263.08 112.876 263.08C119.528 263.08 122.804 260.399 126.278 257.52C130.051 254.443 133.922 251.167 141.567 251.167C149.31 251.167 153.182 254.343 156.855 257.52C160.33 260.399 163.606 263.08 170.257 263.08C176.909 263.08 180.185 260.399 183.659 257.52C187.432 254.443 191.204 251.167 198.948 251.167C203.316 251.266 206.393 252.159 208.975 253.648Z" fill="#4055C0"/>
<path d="M94.9072 98.4813C94.9072 99.2755 94.2123 99.9704 93.4181 99.9704C92.7231 99.9704 92.0282 99.9705 91.4326 100.07C86.0717 100.566 83.0934 102.949 79.9166 105.629C76.1442 108.707 72.2724 111.983 64.6282 111.983C56.8847 111.983 53.013 108.806 49.3398 105.629C45.8652 102.75 42.5891 100.07 35.9376 100.07C29.2862 100.07 26.0101 102.75 22.5355 105.629C18.763 108.707 14.8913 111.983 7.24706 111.983C5.4601 111.983 3.8717 111.784 2.38257 111.486C2.58112 110.494 2.77967 109.501 2.97822 108.508C4.2688 108.806 5.65865 109.005 7.24706 109.005C13.8985 109.005 17.1746 106.225 20.6492 103.346C24.4217 100.268 28.2934 97.0915 35.9376 97.0915C43.6811 97.0915 47.5529 100.268 51.226 103.346C54.7007 106.225 57.9768 109.005 64.6282 109.005C71.2797 109.005 74.5558 106.225 78.0304 103.346C80.8101 101.062 83.7884 98.5806 88.2557 97.5878C89.1492 97.3893 90.2413 97.1907 91.3333 97.0915C91.9289 97.0915 92.6239 96.9922 93.3188 96.9922C93.8152 96.9922 94.2123 97.1907 94.4108 97.4886C94.8079 97.6871 94.9072 98.0842 94.9072 98.4813Z" fill="#4055C0"/>
<path d="M95.1058 125.584C112.322 125.584 126.278 111.627 126.278 94.4112C126.278 77.1952 112.322 63.2388 95.1058 63.2388C77.8897 63.2388 63.9333 77.1952 63.9333 94.4112C63.9333 111.627 77.8897 125.584 95.1058 125.584Z" fill="#F5F6FC"/>
<path fill-rule="evenodd" clip-rule="evenodd" d="M95.1058 64.7388C78.7182 64.7388 65.4333 78.0236 65.4333 94.4112C65.4333 110.799 78.7182 124.084 95.1058 124.084C111.493 124.084 124.778 110.799 124.778 94.4112C124.778 78.0236 111.493 64.7388 95.1058 64.7388ZM62.4333 94.4112C62.4333 76.3667 77.0613 61.7388 95.1058 61.7388C113.15 61.7388 127.778 76.3667 127.778 94.4112C127.778 112.456 113.15 127.084 95.1058 127.084C77.0613 127.084 62.4333 112.456 62.4333 94.4112Z" fill="#4055C0"/>
<path d="M72.3717 92.7235C69.8898 95.3046 70.8826 99.2756 73.2652 101.559C74.4565 102.75 75.9456 103.544 77.4348 104.239C77.9311 104.438 78.7253 104.736 78.9239 105.431C79.1224 106.126 78.6261 107.019 78.4275 107.615C78.1297 108.31 78.229 109.203 78.9239 109.7C79.5195 110.097 80.6116 109.898 81.0087 109.203C81.8029 107.515 82.4978 105.53 81.4058 103.743C80.5123 102.254 78.7253 101.758 77.3355 100.963C76.1442 100.268 74.8536 99.3749 74.2579 98.0843C73.8608 97.0916 73.7616 95.801 74.5558 95.0068C75.7471 93.4184 73.6623 91.3336 72.3717 92.7235Z" fill="#4055C0"/>
<path d="M92.2268 116.55C93.2196 118.337 94.5102 120.024 96.6942 120.223C97.7863 120.322 98.8783 120.124 99.9703 119.826C101.062 119.528 102.154 119.23 103.147 118.634C104.041 118.138 104.835 117.344 105.232 116.351C105.728 115.259 105.728 114.266 105.629 113.075C105.53 112.281 105.43 111.487 106.125 110.99C106.92 110.395 108.012 110.494 108.905 110.494C109.699 110.593 110.394 109.799 110.394 109.005C110.394 108.111 109.699 107.615 108.905 107.516C106.92 107.416 104.835 107.714 103.544 109.402C102.849 110.196 102.551 111.189 102.551 112.281C102.551 113.075 102.849 114.167 102.551 114.961C101.857 116.45 99.474 116.847 98.0841 117.145C97.3892 117.245 96.6942 117.344 96.0986 116.847C95.5029 116.351 95.1058 115.656 94.7087 114.961C93.8152 113.472 91.2341 114.961 92.2268 116.55Z" fill="#4055C0"/>
<path d="M85.9724 92.5249C86.171 92.4256 86.3695 92.4256 86.5681 92.4256C86.4688 92.4256 86.2702 92.4256 86.171 92.5249C86.4688 92.5249 86.7666 92.5249 87.0644 92.5249C86.9652 92.5249 86.7666 92.5249 86.6674 92.4256C86.9652 92.4256 87.263 92.5249 87.5608 92.7235C87.4615 92.6242 87.3623 92.6242 87.1637 92.5249C87.4616 92.6242 87.7594 92.8227 88.0572 93.0213C87.9579 92.922 87.8586 92.8227 87.7594 92.8227C88.0572 93.0213 88.2558 93.2198 88.4543 93.5177C88.355 93.4184 88.2557 93.3191 88.2557 93.2198C88.4543 93.4184 88.5536 93.7162 88.7521 94.014C88.6528 93.9148 88.6529 93.8155 88.5536 93.617C88.6529 93.8155 88.6528 93.9148 88.7521 94.1133C88.9507 94.9075 89.8442 95.4039 90.5391 95.1061C91.3333 94.8083 91.7304 94.1133 91.5318 93.3191C90.9362 90.5394 87.7594 88.7525 85.0789 89.6459C84.384 89.8445 83.7884 90.738 84.0862 91.4329C84.384 92.2271 85.1782 92.8227 85.9724 92.5249Z" fill="#4055C0"/>
<path d="M102.948 97.8857L102.849 97.7865C102.849 97.7865 102.651 97.4886 102.75 97.6872C102.849 97.8857 102.75 97.6872 102.75 97.6872C102.75 97.5879 102.651 97.5879 102.651 97.4886C102.551 97.3894 102.551 97.2901 102.452 97.1908C102.452 97.0915 102.353 97.0915 102.353 96.9922C102.353 96.9922 102.254 96.7937 102.353 96.9922C102.452 97.1908 102.353 96.9923 102.353 96.893C102.353 96.7937 102.353 96.7937 102.254 96.6944C102.254 96.5951 102.154 96.3966 102.154 96.2973C102.154 96.1981 102.154 95.9995 102.055 95.9002C102.055 95.9002 102.055 96.198 102.055 95.9995C102.055 95.9002 102.055 95.8009 102.055 95.8009C102.055 95.5031 102.055 95.3046 102.055 95.0067C102.055 94.9075 102.055 94.8082 102.055 94.8082C102.055 94.6096 101.956 95.106 102.055 94.9075C102.055 94.8082 102.154 94.6096 102.154 94.5104C102.154 94.4111 102.254 94.2125 102.254 94.1133C102.254 94.014 102.254 94.014 102.353 93.9147C102.353 93.9147 102.452 93.6169 102.353 93.9147C102.254 94.1133 102.353 93.9147 102.353 93.8154C102.353 93.7162 102.452 93.7162 102.452 93.6169C102.551 93.5176 102.651 93.3191 102.651 93.2198C103.048 92.5249 102.75 91.5321 102.154 91.135C101.36 90.7379 100.566 90.9365 100.069 91.6314C98.3818 94.2125 98.7789 97.7865 100.764 99.9705C101.261 100.566 102.353 100.566 102.849 99.9705C103.544 99.3749 103.544 98.4814 102.948 97.8857Z" fill="#4055C0"/>
<path d="M77.8319 82.7959C79.2217 78.6263 82.8949 75.9459 86.6674 74.0596C88.6529 73.0669 90.7377 71.7763 92.7232 73.2654C94.4109 74.556 95.8007 75.9459 97.7862 76.9386C99.6725 77.8321 101.658 78.3285 103.743 78.2292C104.736 78.1299 105.629 77.9314 106.622 77.7328C107.614 77.435 108.905 76.9386 109.898 77.3357C111.685 78.0307 112.082 80.9097 112.181 82.4981C112.28 84.8807 111.685 87.164 111.089 89.4473C110.493 91.3336 113.372 92.0285 113.968 90.2415C115.159 86.3698 115.854 82.0017 114.266 78.1299C113.571 76.5415 112.479 74.9531 110.692 74.4568C108.707 73.8611 106.82 74.6553 104.934 75.0524C103.048 75.4495 101.062 75.1517 99.2754 74.3575C97.3891 73.5633 96.0985 72.1734 94.5101 70.9821C92.9217 69.6915 91.1348 69.2944 89.1493 69.7908C87.1638 70.2872 85.1783 71.4785 83.3913 72.4712C79.6188 74.6553 76.2435 77.7328 74.8536 82.0017C74.3572 83.7886 77.2362 84.5828 77.8319 82.7959Z" fill="#4055C0"/>
</svg>
