<svg width="111" height="104" viewBox="0 0 111 104" fill="none" xmlns="http://www.w3.org/2000/svg">
<path d="M33.3001 39.8382C33.8631 47.9833 33.3001 56.1285 32.3751 64.2333C31.6512 70.7253 30.5653 77.2172 29.7207 83.7091C29.5197 85.3624 29.1979 87.1366 29.3186 88.8301C29.3588 89.4349 29.4794 89.8785 29.9218 90.2817C30.8468 91.1688 32.174 91.6124 33.3805 91.9753C36.3968 92.943 39.5338 93.4269 42.6707 93.8301C45.7675 94.2333 48.9044 94.7172 52.0414 94.9591C55.5403 95.2011 58.999 95.1608 62.4577 94.6769C66.6001 94.072 70.6218 92.822 74.4425 91.0882C75.5284 90.6043 76.6142 90.0398 77.6599 89.4753C78.3436 89.1124 77.7403 88.064 77.0566 88.4269C73.1958 90.4833 69.1338 92.0962 64.8305 92.9833C61.3718 93.7091 57.7925 93.9511 54.2534 93.8301C51.1566 93.7091 48.0599 93.3059 44.9631 92.9027C41.9871 92.4995 39.011 92.0962 36.0751 91.4108C34.6273 91.0882 33.1794 90.6849 31.8523 90.0398C31.4099 89.8382 30.9675 89.5962 30.6457 89.193C30.6055 89.1124 30.7262 89.2737 30.6457 89.193C30.5653 89.1124 30.6457 89.1527 30.6457 89.2333C30.6055 89.1527 30.6055 89.0721 30.5653 88.9914C30.5653 88.9511 30.5251 88.7898 30.5653 88.9108C30.5653 89.0317 30.5653 88.8301 30.5653 88.7898C30.5653 88.6688 30.5653 88.5075 30.5653 88.3866C30.5653 88.064 30.5653 87.7414 30.6055 87.3785C30.6457 86.4511 30.7664 85.564 30.887 84.6366C31.611 78.5479 32.6566 72.5398 33.4207 66.4511C34.386 58.5479 35.0294 50.564 34.7479 42.6204C34.7077 41.6527 34.6675 40.7253 34.587 39.7575C34.4664 39.0721 33.2599 39.0317 33.3001 39.8382Z" fill="white"/>
<path d="M77.9415 88.8309C76.8154 81.4519 76.0111 74.0325 75.1263 66.6535C74.3622 60.4841 73.397 54.3148 72.673 48.1454C72.3513 45.4035 72.0296 42.6212 71.9089 39.8793C71.8687 39.1132 70.6622 39.1132 70.7024 39.8793C70.8231 42.2986 71.0644 44.7583 71.3459 47.1777C71.6274 49.597 71.9089 52.0567 72.2709 54.4761C73.3567 61.8148 74.2013 69.1535 75.0861 76.4922C75.6089 80.7261 76.1317 84.9599 76.7752 89.1938C76.8959 89.9196 78.0622 89.597 77.9415 88.8309Z" fill="white"/>
<path d="M21.4359 43.0236C24.2913 47.9429 28.474 52.3784 33.5413 54.9994C34.225 55.3623 34.8283 54.3139 34.1446 53.951C29.2381 51.4107 25.2566 47.1768 22.4816 42.4187C22.0794 41.7332 21.0337 42.3381 21.4359 43.0236Z" fill="white"/>
<path d="M22.401 43.1451C25.176 39.637 27.5086 35.766 30.4043 32.3386C31.2488 31.3305 32.1739 30.3225 33.0989 29.3951C33.7825 28.6693 34.3858 27.9838 35.2706 27.4999C36.9195 26.5725 38.8097 26.0483 40.6597 25.5644C42.3086 25.1209 44.1586 24.5967 45.888 24.5564C46.6521 24.5564 46.6521 23.3467 45.888 23.3467C44.3195 23.3467 42.7108 23.7902 41.1825 24.1531C39.2119 24.637 37.201 25.2418 35.351 26.0886C33.3402 27.016 31.8923 28.8305 30.4445 30.4838C28.9565 32.137 27.5891 33.9112 26.3021 35.766C24.7336 37.9838 23.2054 40.1612 21.5565 42.2983C21.0738 42.9031 21.9184 43.7499 22.401 43.1451Z" fill="white"/>
<path d="M84.6979 42.4197C81.9229 47.1778 77.9414 51.4116 73.0349 53.952C72.3512 54.3149 72.9544 55.3633 73.6381 55.0004C78.7458 52.3794 82.8881 47.9439 85.7436 43.0245C86.1458 42.3391 85.1001 41.7342 84.6979 42.4197Z" fill="white"/>
<path d="M85.6632 42.298C82.848 38.7093 80.4349 34.7577 77.4588 31.2899C76.574 30.2416 75.6088 29.2335 74.6436 28.2254C73.9599 27.5399 73.3566 26.8948 72.4719 26.4512C70.7023 25.4835 68.7316 24.919 66.8012 24.3948C65.0316 23.9109 63.1414 23.3867 61.3316 23.3867C60.5675 23.3867 60.5675 24.5964 61.3316 24.5964C62.8197 24.5964 64.3882 25.0399 65.836 25.4028C67.7262 25.8867 69.6566 26.4109 71.4262 27.298C72.1903 27.6609 72.7132 28.0641 73.3164 28.6287C74.3219 29.6367 75.2871 30.6851 76.2121 31.7335C77.6197 33.3464 78.8664 34.9996 80.1132 36.7335C81.6414 38.9109 83.1697 41.0883 84.8186 43.1851C85.261 43.7496 86.1056 42.9028 85.6632 42.298Z" fill="white"/>
<path d="M45.4055 24.395C47.0142 26.3708 49.3468 27.8627 51.8805 28.266C54.2533 28.6289 56.7065 27.9434 58.7978 26.8547C59.9239 26.2498 61.0098 25.4434 61.7337 24.395C62.1761 23.7498 61.1305 23.145 60.6881 23.7901C59.9642 24.8385 58.7978 25.5643 57.6718 26.0885C56.425 26.653 55.0576 27.0966 53.6902 27.1772C50.7946 27.3789 48.0196 25.766 46.2098 23.5482C45.7674 22.903 44.9229 23.7901 45.4055 24.395Z" fill="white"/>
<path d="M74.3216 18.7906L73.7586 17.097C72.5521 13.468 71.6271 12.5406 68.0075 11.3309L66.3184 10.7664L68.0075 10.2019C71.6271 8.99219 72.5521 8.06477 73.7586 4.43574L74.3216 2.74219L74.8847 4.43574C76.0912 8.06477 77.0162 8.99219 80.6357 10.2019L82.3249 10.7664L80.6357 11.3309C77.0162 12.5406 76.0912 13.468 74.8847 17.097L74.3216 18.7906ZM69.8977 10.7261C72.2303 11.6938 73.3162 12.7825 74.3216 15.1615C75.2868 12.8228 76.3727 11.7341 78.7455 10.7261C76.4129 9.75832 75.3271 8.66961 74.3216 6.29057C73.3564 8.66961 72.2705 9.75832 69.8977 10.7261Z" fill="white"/>
<path d="M20.2695 73.5887L19.7065 71.8952C18.3391 67.8629 17.3337 66.8548 13.3119 65.4839L11.6228 64.9194L13.3119 64.3548C17.3337 62.9839 18.3391 61.9758 19.7065 57.9435L20.2695 56.25L20.8326 57.9435C22.2 61.9758 23.2054 62.9839 27.2272 64.3548L28.9163 64.9194L27.2272 65.4839C23.2054 66.8548 22.2 67.8629 20.8326 71.8952L20.2695 73.5887ZM15.2424 64.9194C17.9369 66.0081 19.1837 67.2581 20.2695 69.9597C21.3554 67.2581 22.6022 66.0081 25.2967 64.9194C22.6022 63.8306 21.3554 62.5806 20.2695 59.879C19.1435 62.5806 17.9369 63.8306 15.2424 64.9194Z" fill="white"/>
<path d="M84.4564 22.903L83.8933 21.2095C83.089 18.7901 82.4857 18.2256 80.0727 17.3788L78.3835 16.8143L80.0727 16.2498C82.4857 15.4433 83.0488 14.8385 83.8933 12.4191L84.4564 10.7256L85.0194 12.4191C85.8238 14.8385 86.427 15.403 88.8401 16.2498L90.5292 16.8143L88.8401 17.3788C86.427 18.1853 85.864 18.7901 85.0194 21.2095L84.4564 22.903ZM81.9227 16.8143C83.1694 17.4191 83.8531 18.1046 84.4564 19.3546C85.0596 18.1046 85.7433 17.4191 86.9901 16.8143C85.7433 16.2095 85.0596 15.524 84.4564 14.274C83.8531 15.524 83.1694 16.2095 81.9227 16.8143Z" fill="white"/>
</svg>
