<svg width="111" height="104" viewBox="0 0 111 104" fill="none" xmlns="http://www.w3.org/2000/svg">
<path d="M56.9092 95.3477C62.7876 95.5087 68.5453 94.5021 74.0211 92.3279C75.9134 91.5629 77.7655 90.6772 79.5774 89.7108C80.2619 89.3485 79.6579 88.3016 78.9734 88.664C73.4976 91.6032 67.5387 93.6163 61.2979 94.0592C59.8484 94.18 58.3587 94.18 56.8689 94.1398C56.1442 94.0995 56.1442 95.3074 56.9092 95.3477Z" fill="white"/>
<path d="M35.1674 40.1065C35.6103 46.7902 35.3284 53.5142 34.6842 60.1576C34.5232 62.0097 34.3218 63.8618 34.0803 65.7139C33.9997 66.4789 35.2076 66.4789 35.2882 65.7139C36.0532 59.1107 36.6571 52.427 36.5766 45.7836C36.5766 43.8913 36.4961 41.9989 36.3753 40.1065C36.335 39.3415 35.1271 39.3013 35.1674 40.1065Z" fill="white"/>
<path d="M79.8997 89.0255C78.7724 81.6573 77.9671 74.2489 77.0813 66.8808C76.3163 60.7205 75.35 54.5602 74.6252 48.4C74.3031 45.6621 73.981 42.8839 73.8602 40.146C73.82 39.381 72.6121 39.381 72.6524 40.146C72.7731 42.5618 73.0147 45.0179 73.2966 47.4337C73.5784 49.8494 73.8602 52.3055 74.2226 54.7213C75.3097 62.0492 76.1552 69.3771 77.041 76.705C77.5645 80.9326 78.0879 85.1602 78.7321 89.3879C78.8126 90.1126 79.9802 89.7905 79.8997 89.0255Z" fill="white"/>
<path d="M23.3298 43.2869C26.1885 48.199 30.3759 52.6279 35.449 55.245C36.1335 55.6074 36.7374 54.5606 36.053 54.1982C31.1409 51.6616 27.1548 47.434 24.3767 42.6829C23.974 41.9985 22.9272 42.6024 23.3298 43.2869Z" fill="white"/>
<path d="M24.2564 43.4088C27.0346 39.906 29.3698 36.0407 32.2688 32.6183C33.1143 31.6117 34.0404 30.6052 34.9664 29.6791C35.6509 28.9544 36.2548 28.2699 37.1406 27.7867C38.7914 26.8607 40.6838 26.3373 42.5359 25.8541C44.1867 25.4112 46.0388 24.8878 47.7701 24.8475C48.5351 24.8475 48.5351 23.6396 47.7701 23.6396C46.1998 23.6396 44.5893 24.0825 43.0593 24.4449C41.0864 24.9281 39.0733 25.532 37.2211 26.3775C35.208 27.3036 33.7585 29.1154 32.309 30.7662C30.8193 32.417 29.4503 34.1886 28.1619 36.0407C26.5917 38.2552 25.0617 40.4294 23.4109 42.5633C22.9277 43.1673 23.7732 44.0128 24.2564 43.4088Z" fill="white"/>
<path d="M86.6637 42.6829C83.8856 47.434 79.8995 51.6616 74.9874 54.1982C74.3029 54.5606 74.9068 55.6074 75.5913 55.245C80.7048 52.6279 84.8519 48.199 87.7106 43.2869C88.0729 42.6024 87.0261 41.9985 86.6637 42.6829Z" fill="white"/>
<path d="M87.5899 42.5621C84.7715 38.9787 82.3557 35.0329 79.3763 31.5703C78.4905 30.5234 77.5242 29.5169 76.5578 28.5103C75.8734 27.8258 75.2694 27.1816 74.3836 26.7387C72.612 25.7724 70.6392 25.2087 68.7065 24.6853C66.9349 24.2021 65.0426 23.6787 63.2307 23.6787C62.4657 23.6787 62.4657 24.8866 63.2307 24.8866C64.7205 24.8866 66.2907 25.3295 67.7402 25.6919C69.6326 26.175 71.5652 26.6984 73.3368 27.5842C74.1018 27.9466 74.6252 28.3492 75.2292 28.9129C76.2357 29.9195 77.202 30.9663 78.1281 32.0132C79.5373 33.6237 80.7855 35.2745 82.0336 37.0058C83.5636 39.18 85.0936 41.3542 86.7444 43.4479C87.2276 44.0116 88.0731 43.1661 87.5899 42.5621Z" fill="white"/>
<path d="M47.3268 24.6854C48.9373 26.6583 51.2726 28.148 53.8091 28.5507C56.1847 28.913 58.6407 28.2286 60.7344 27.1414C61.8618 26.5375 62.9489 25.7322 63.6736 24.6854C64.1165 24.0412 63.0697 23.4372 62.6268 24.0814C61.902 25.1283 60.7344 25.853 59.607 26.3764C58.3589 26.9401 56.9899 27.383 55.621 27.4636C52.722 27.6649 49.9439 26.0543 48.132 23.8399C47.6891 23.1957 46.8436 24.0814 47.3268 24.6854Z" fill="white"/>
<path fill-rule="evenodd" clip-rule="evenodd" d="M16.2433 66.4384C14.4027 66.4384 12.9015 67.9396 12.9015 69.7802C12.9015 71.6209 14.4027 73.1221 16.2433 73.1221H53.1646C55.0075 73.1221 56.5002 71.6212 56.4663 69.7914L56.4662 69.7858V69.7802C56.4662 67.9396 54.965 66.4384 53.1244 66.4384H16.2433ZM11.6936 69.7802C11.6936 67.2724 13.7356 65.2305 16.2433 65.2305H53.1244C55.6303 65.2305 57.6711 67.2694 57.6741 69.7747C57.7176 72.2907 55.6683 74.33 53.1646 74.33H16.2433C13.7356 74.33 11.6936 72.288 11.6936 69.7802Z" fill="white"/>
<path fill-rule="evenodd" clip-rule="evenodd" d="M16.2433 74.33C14.4027 74.33 12.9015 75.8311 12.9015 77.6718C12.9015 79.5125 14.4027 81.0136 16.2433 81.0136H53.1646C55.0075 81.0136 56.5002 79.5128 56.4663 77.683L56.4662 77.6774V77.6718C56.4662 75.8311 54.965 74.33 53.1244 74.33H16.2433ZM11.6936 77.6718C11.6936 75.164 13.7356 73.1221 16.2433 73.1221H53.1244C55.6303 73.1221 57.6711 75.161 57.6741 77.6663C57.7176 80.1823 55.6683 82.2215 53.1646 82.2215H16.2433C13.7356 82.2215 11.6936 80.1796 11.6936 77.6718Z" fill="white"/>
<path fill-rule="evenodd" clip-rule="evenodd" d="M16.2433 82.2616C14.4027 82.2616 12.9015 83.7628 12.9015 85.6034C12.9015 87.4441 14.4027 88.9453 16.2433 88.9453H53.1646C55.0075 88.9453 56.5002 87.4444 56.4663 85.6146L56.4662 85.609V85.6034C56.4662 83.7628 54.965 82.2616 53.1244 82.2616H16.2433ZM11.6936 85.6034C11.6936 83.0957 13.7356 81.0537 16.2433 81.0537H53.1244C55.6303 81.0537 57.6711 83.0927 57.6741 85.5979C57.7176 88.114 55.6683 90.1532 53.1646 90.1532H16.2433C13.7356 90.1532 11.6936 88.1112 11.6936 85.6034Z" fill="white"/>
<path fill-rule="evenodd" clip-rule="evenodd" d="M16.2433 90.1932C14.4027 90.1932 12.9015 91.6944 12.9015 93.5351C12.9015 95.3757 14.4027 96.8769 16.2433 96.8769H53.1646C55.0075 96.8769 56.5002 95.376 56.4663 93.5463L56.4662 93.5407V93.5351C56.4662 91.6944 54.965 90.1932 53.1244 90.1932H16.2433ZM11.6936 93.5351C11.6936 91.0273 13.7356 88.9854 16.2433 88.9854H53.1244C55.6303 88.9854 57.6711 91.0243 57.6741 93.5296C57.7176 96.0456 55.6683 98.0848 53.1646 98.0848H16.2433C13.7356 98.0848 11.6936 96.0428 11.6936 93.5351Z" fill="white"/>
</svg>
