<svg width="102" height="96" viewBox="0 0 102 96" fill="none" xmlns="http://www.w3.org/2000/svg">
<path d="M30.8284 41.3739C31.3467 48.8108 30.8284 56.2477 29.9769 63.6477C29.3106 69.5752 28.311 75.5026 27.5336 81.43C27.3485 82.9395 27.0523 84.5594 27.1634 86.1057C27.2004 86.6579 27.3115 87.0629 27.7187 87.4311C28.5702 88.241 29.7918 88.646 30.9024 88.9773C33.679 89.8609 36.5665 90.3027 39.4541 90.6709C42.3047 91.0391 45.1922 91.4808 48.0798 91.7017C51.3006 91.9226 54.4843 91.8858 57.668 91.444C61.4811 90.8918 65.1831 89.7505 68.7001 88.1674C69.6996 87.7256 70.6991 87.2102 71.6617 86.6947C72.291 86.3634 71.7357 85.4062 71.1064 85.7375C67.5524 87.6151 63.8134 89.0878 59.8522 89.8977C56.6685 90.5604 53.3737 90.7813 50.1159 90.6709C47.2654 90.5604 44.4148 90.1923 41.5643 89.8241C38.8248 89.4559 36.0853 89.0878 33.3828 88.4619C32.0501 88.1674 30.7173 87.7992 29.4957 87.2102C29.0884 87.0261 28.6812 86.8052 28.3851 86.437C28.348 86.3634 28.4591 86.5107 28.3851 86.437C28.311 86.3634 28.3851 86.4002 28.3851 86.4738C28.348 86.4002 28.348 86.3266 28.311 86.2529C28.311 86.2161 28.274 86.0689 28.311 86.1793C28.311 86.2898 28.311 86.1057 28.311 86.0689C28.311 85.9584 28.311 85.8111 28.311 85.7007C28.311 85.4062 28.311 85.1116 28.348 84.7803C28.3851 83.9335 28.4961 83.1236 28.6072 82.2768C29.2736 76.7175 30.2361 71.2319 30.9395 65.6726C31.8279 58.4567 32.4203 51.167 32.1611 43.9142C32.1241 43.0306 32.0871 42.1839 32.013 41.3003C31.902 40.6744 30.7914 40.6376 30.8284 41.3739Z" fill="#4055C0"/>
<path d="M71.9209 86.1063C70.8843 79.3689 70.1439 72.5947 69.3295 65.8574C68.6261 60.2245 67.7376 54.5916 67.0712 48.9587C66.7751 46.4552 66.4789 43.9149 66.3679 41.4114C66.3308 40.7118 65.2202 40.7118 65.2573 41.4114C65.3683 43.6203 65.5904 45.8661 65.8496 48.0751C66.1087 50.2841 66.3679 52.5299 66.701 54.7388C67.7006 61.4394 68.478 68.14 69.2925 74.8405C69.7737 78.7062 70.255 82.5719 70.8473 86.4377C70.9584 87.1004 72.0319 86.8058 71.9209 86.1063Z" fill="#4055C0"/>
<path d="M19.9075 44.2826C22.5359 48.7742 26.386 52.824 31.0506 55.2171C31.6799 55.5484 32.2352 54.5912 31.6059 54.2598C27.0894 51.9404 23.4244 48.0747 20.87 43.7304C20.4998 43.1045 19.5373 43.6568 19.9075 44.2826Z" fill="#4055C0"/>
<path d="M20.7968 44.3942C23.3512 41.1912 25.4984 37.6568 28.1638 34.5274C28.9412 33.607 29.7927 32.6866 30.6442 31.8398C31.2735 31.1771 31.8288 30.5513 32.6433 30.1095C34.1611 29.2627 35.901 28.7841 37.604 28.3423C39.1218 27.9373 40.8247 27.4587 42.4166 27.4219C43.12 27.4219 43.12 26.3174 42.4166 26.3174C40.9728 26.3174 39.492 26.7224 38.0852 27.0537C36.2712 27.4955 34.4202 28.0477 32.7173 28.8209C30.8663 29.6677 29.5336 31.3244 28.2008 32.8339C26.8311 34.3433 25.5724 35.9632 24.3877 37.6568C22.944 39.6817 21.5372 41.6698 20.0194 43.621C19.5751 44.1733 20.3525 44.9464 20.7968 44.3942Z" fill="#4055C0"/>
<path d="M78.1401 43.7304C75.5858 48.0747 71.9208 51.9404 67.4043 54.2598C66.7749 54.5912 67.3302 55.5484 67.9596 55.2171C72.6612 52.824 76.4742 48.7742 79.1027 44.2826C79.4729 43.6568 78.5103 43.1045 78.1401 43.7304Z" fill="#4055C0"/>
<path d="M79.0288 43.6203C76.4373 40.3437 74.2161 36.7357 71.4766 33.5695C70.6622 32.6123 69.7737 31.6919 68.8852 30.7715C68.2559 30.1456 67.7006 29.5565 66.8861 29.1516C65.2572 28.268 63.4433 27.7525 61.6663 27.2739C60.0374 26.8321 58.2975 26.3535 56.6315 26.3535C55.9282 26.3535 55.9282 27.458 56.6315 27.458C58.0013 27.458 59.4451 27.863 60.7778 28.1943C62.5178 28.6361 64.2947 29.1147 65.9236 29.9247C66.627 30.256 67.1083 30.6242 67.6636 31.1396C68.5891 32.06 69.4775 33.0173 70.329 33.9745C71.6247 35.4471 72.7723 36.9566 73.92 38.5397C75.3267 40.5278 76.7335 42.5159 78.2513 44.4303C78.6586 44.9457 79.436 44.1726 79.0288 43.6203Z" fill="#4055C0"/>
<path d="M41.9716 27.2735C43.4524 29.0775 45.5996 30.4397 47.9319 30.8078C50.1161 31.1392 52.3743 30.5133 54.2993 29.5193C55.3359 28.967 56.3355 28.2307 57.0018 27.2735C57.409 26.6844 56.4465 26.1322 56.0393 26.7212C55.3729 27.6784 54.2993 28.3411 53.2628 28.8197C52.1152 29.3352 50.8565 29.7402 49.5978 29.8138C46.9323 29.9979 44.3779 28.5252 42.712 26.5003C42.3048 25.9113 41.5274 26.7212 41.9716 27.2735Z" fill="#4055C0"/>
<path d="M62.8879 27.5679C62.7768 27.7152 62.6658 27.8993 62.5547 28.0465C62.4437 28.1938 62.2956 28.3779 62.1845 28.5252C62.5547 28.6356 62.9619 28.7461 63.3321 28.8565C63.4432 28.7092 63.5543 28.562 63.6653 28.4147C63.7764 28.2674 63.8874 28.0834 63.9985 27.9361C63.6283 27.7888 63.2581 27.6784 62.8879 27.5679ZM61.9624 28.8197C60.7037 30.2923 59.5931 31.0655 59.1118 30.8078C58.5565 30.5132 58.2234 30.1083 58.1123 29.5928C58.0012 29.0774 58.1123 28.5252 58.2974 27.9729C58.3344 27.8993 58.3344 27.8625 58.3714 27.7888C58.4085 27.7152 58.4085 27.6784 58.4455 27.6048C58.3714 27.6048 58.3344 27.5679 58.2604 27.5679C58.1863 27.5679 58.1493 27.5311 58.0753 27.5311C57.9642 27.4943 57.8161 27.4943 57.7051 27.4943C57.631 27.4943 57.594 27.4575 57.52 27.4575C57.4829 27.4575 57.4089 27.4575 57.3719 27.4575H57.3349C57.3349 27.4943 57.2978 27.5679 57.2608 27.6048C57.2608 27.6048 57.2608 27.6048 57.2608 27.6416C57.2238 27.7152 57.2238 27.752 57.1868 27.8256C56.9647 28.4883 56.8906 29.151 57.0387 29.8137C57.2238 30.6605 57.7421 31.36 58.6306 31.8018C58.8527 31.9123 59.1118 31.9859 59.334 31.9859C60.5186 31.9859 61.9254 30.7709 63.147 29.1878C62.8139 29.0774 62.4807 28.967 62.1475 28.8933C62.0364 28.8565 61.9994 28.8565 61.9624 28.8197ZM66.1827 22.5977C66.1827 22.1191 65.9976 21.7141 65.6274 21.4564C65.0351 21.0515 64.5538 20.9778 63.8504 21.1619C63.7764 21.5301 63.8504 21.935 64.0726 22.2664C64.1096 22.2664 64.2577 22.2296 64.4057 22.2296C64.6649 22.2296 64.85 22.2664 64.961 22.4137C65.0721 22.5609 65.1091 22.6714 65.0721 23.0027C65.0721 23.1132 65.0351 23.2236 64.9981 23.3709C64.887 23.8127 64.7019 24.4386 64.3317 25.1749C64.2947 25.2853 64.2206 25.3958 64.1466 25.5062C63.9615 25.8376 63.7764 26.2057 63.5543 26.5739C63.4062 26.8316 63.2581 27.0525 63.11 27.3102C63.4432 27.4207 63.7764 27.5311 64.1096 27.6048C64.1466 27.6048 64.1836 27.6416 64.1836 27.6416C64.2947 27.4575 64.4057 27.3102 64.4798 27.1261C64.7019 26.758 64.9981 26.2425 65.2572 25.6535C65.3312 25.543 65.3683 25.3958 65.4423 25.2853C65.7755 24.549 66.0716 23.7759 66.1457 23.0763C66.1827 22.8923 66.1827 22.745 66.1827 22.5977ZM62.1105 28.8933C62.0735 28.8933 61.9994 28.8565 61.9624 28.8565C60.7037 30.3292 59.5931 31.1023 59.1118 30.8446C58.5565 30.5501 58.2234 30.1451 58.1123 29.6296C58.0012 29.1142 58.1123 28.562 58.2974 28.0097C58.3344 27.9361 58.3344 27.8993 58.3714 27.8256L58.1863 27.7888L58.2604 27.6048C58.1863 27.6048 58.1493 27.5679 58.0753 27.5679C57.9642 27.5311 57.8161 27.5311 57.7051 27.5311C57.631 27.5311 57.594 27.4943 57.52 27.4943C57.4829 27.4943 57.4089 27.4943 57.3719 27.4943H57.3349C57.3349 27.5311 57.2978 27.6048 57.2608 27.6416C57.2608 27.6416 57.2608 27.6416 57.2608 27.6784C57.2238 27.752 57.2238 27.7888 57.1868 27.8625C56.9647 28.5252 56.8906 29.1879 57.0387 29.8505C57.2238 30.6973 57.7421 31.3968 58.6306 31.8386C58.8527 31.9491 59.1118 32.0227 59.334 32.0227C60.5186 32.0227 61.9254 30.8078 63.147 29.2247C62.7398 29.0774 62.4437 28.967 62.1105 28.8933ZM58.2234 26.4266C58.3714 26.4634 58.4825 26.4634 58.5936 26.5003C58.6676 26.5003 58.7416 26.5371 58.7787 26.5371C58.8527 26.5371 58.8897 26.5739 58.9638 26.5739C59.0008 26.5003 59.0378 26.4634 59.0748 26.3898C59.1118 26.3162 59.1489 26.2794 59.1859 26.2425C59.334 26.0216 59.5191 25.8008 59.6671 25.6167C60.3705 24.8067 60.8148 24.2913 61.4441 23.739C61.222 23.4077 61.0739 23.0763 60.9629 22.7082C60.1484 23.4077 59.5191 24.0704 58.8527 24.9172C58.6676 25.1381 58.3344 25.543 58.0383 26.0585C58.0012 26.1321 57.9642 26.1689 57.9272 26.2425C57.8902 26.2794 57.8532 26.353 57.8161 26.4266C57.8902 26.4266 57.9642 26.4266 58.0012 26.4634C58.0753 26.4266 58.1493 26.4266 58.2234 26.4266ZM62.1105 28.8933C62.0735 28.8933 61.9994 28.8565 61.9624 28.8565C60.7037 30.3292 59.5931 31.1023 59.1118 30.8446C58.5565 30.5501 58.2234 30.1451 58.1123 29.6296C58.0012 29.1142 58.1123 28.562 58.2974 28.0097C58.3344 27.9361 58.3344 27.8993 58.3714 27.8256L58.1863 27.7888L58.2604 27.6048C58.1863 27.6048 58.1493 27.5679 58.0753 27.5679C57.9642 27.5311 57.8161 27.5311 57.7051 27.5311C57.631 27.5311 57.594 27.4943 57.52 27.4943C57.4829 27.4943 57.4089 27.4943 57.3719 27.4943H57.3349C57.3349 27.5311 57.2978 27.6048 57.2608 27.6416C57.2608 27.6416 57.2608 27.6416 57.2608 27.6784C57.2238 27.752 57.2238 27.7888 57.1868 27.8625C56.9647 28.5252 56.8906 29.1879 57.0387 29.8505C57.2238 30.6973 57.7421 31.3968 58.6306 31.8386C58.8527 31.9491 59.1118 32.0227 59.334 32.0227C60.5186 32.0227 61.9254 30.8078 63.147 29.2247C62.7398 29.0774 62.4437 28.967 62.1105 28.8933Z" fill="#4055C0"/>
<path d="M65.4423 25.4699C64.2947 25.4699 63.2211 25.0281 62.4067 24.2181C60.7407 22.5614 60.7407 19.837 62.4067 18.1802L70.329 10.3016C70.6622 9.97021 71.1434 9.78613 71.6247 9.78613C72.1059 9.78613 72.5502 9.97021 72.9204 10.3016L76.4003 13.7623C77.1037 14.4618 77.1037 15.6031 76.4003 16.3394L68.478 24.2181C67.6635 25.0281 66.5899 25.4699 65.4423 25.4699ZM65.1832 19.7265C64.7389 19.7265 64.2947 19.9106 63.9615 20.242C63.2951 20.9046 63.2951 22.0091 63.9615 22.6718C64.2947 23.0032 64.7389 23.1873 65.1832 23.1873C65.6274 23.1873 66.0717 23.0032 66.4048 22.6718C66.738 22.3405 66.9231 21.8987 66.9231 21.4569C66.9231 21.0151 66.738 20.5733 66.4048 20.242C66.0717 19.9106 65.6644 19.7265 65.1832 19.7265Z" fill="#4055C0"/>
<path d="M72.1429 17.8492L72.6612 18.3646L71.9949 19.0273L71.5136 18.5487C71.0323 18.9905 70.44 19.3219 69.9958 19.4323L69.5515 18.291C70.0328 18.1806 70.5511 17.886 70.9213 17.5179C71.2174 17.2233 71.2915 17.0392 71.1804 16.9288C70.7732 16.5238 69.2924 18.6592 68.0707 17.4442C67.5524 16.9288 67.4784 16.082 68.1448 15.2353L67.6265 14.7198L68.2928 14.0571L68.7741 14.5357C69.1443 14.2412 69.5885 13.9835 69.9958 13.873L70.477 14.9775C69.9958 15.1248 69.6256 15.3457 69.3294 15.6402C68.9962 15.9716 68.9962 16.1557 69.1073 16.2661C69.5145 16.6711 70.9583 14.5357 72.18 15.7507C72.6612 16.1925 72.7353 17.0024 72.1429 17.8492Z" fill="white"/>
</svg>
