<svg width="102" height="96" viewBox="0 0 102 96" fill="none" xmlns="http://www.w3.org/2000/svg">
<path opacity="0.5" fill-rule="evenodd" clip-rule="evenodd" d="M67.4962 59.5989L67.4962 59.5989L67.4962 59.5989L67.4962 59.5988C67.6795 59.4621 67.877 59.3395 68.0799 59.2135L68.0799 59.2135C68.2048 59.136 68.3318 59.0571 68.4587 58.973C68.7549 58.7889 69.0511 58.568 69.3472 58.3103C69.6434 58.0526 69.9025 57.8317 70.2357 57.6476C70.3468 57.5862 70.4578 57.529 70.5689 57.4717C70.791 57.3571 71.0131 57.2426 71.2353 57.0953C71.3463 57.034 71.4532 56.9686 71.5601 56.9031L71.5601 56.9031L71.5602 56.9031L71.5602 56.9031L71.5602 56.9031L71.5602 56.9031L71.5602 56.9031C71.7741 56.7722 71.988 56.6413 72.2348 56.5431C72.8235 56.2504 73.5278 56.3312 74.169 56.4048C74.2536 56.4145 74.337 56.4241 74.419 56.4326L75.7517 56.5431C75.9738 56.5799 76.1589 56.5799 76.3811 56.5799H76.3811C76.4968 56.5799 76.6126 56.5799 76.7106 56.5975C76.8932 57.0861 77.1432 57.5978 77.4917 57.979C77.8564 58.3747 78.3398 58.5636 78.8357 58.7574C78.8935 58.78 78.9515 58.8027 79.0095 58.8258C79.0658 58.8498 79.1238 58.8755 79.1831 58.9018L79.1831 58.9018C79.3972 58.9967 79.6291 59.0995 79.861 59.1571C80.1572 59.2308 80.4163 59.2308 80.7125 59.194C81.2468 59.1275 81.7208 58.8514 82.1618 58.5548C82.4058 58.6557 82.6453 58.7775 82.8596 58.8992C83.123 59.0447 83.3401 59.2363 83.5475 59.4193L83.5475 59.4193L83.5476 59.4193C83.6025 59.4678 83.6568 59.5157 83.7111 59.5619C83.8533 59.672 83.9956 59.7686 84.135 59.8633L84.1351 59.8633C84.3221 59.9903 84.5039 60.1138 84.6736 60.2614C84.7234 60.3039 84.7747 60.3464 84.8262 60.3892C85.0426 60.5687 85.2645 60.7528 85.414 60.9609C85.488 61.0591 85.5292 61.1573 85.5703 61.2555C85.5909 61.3046 85.6114 61.3536 85.6361 61.4027C85.6867 61.5285 85.7546 61.6543 85.8162 61.7684L85.8162 61.7685C85.8447 61.8213 85.8718 61.8716 85.8953 61.9182L85.8953 61.9182C86.0434 62.2495 86.1914 62.5809 86.3025 62.9122C86.5616 63.6117 86.8208 64.348 87.0059 65.0844C87.2572 65.8698 87.5085 66.6553 87.7936 67.4408C87.5931 67.6007 87.3777 67.7457 87.1622 67.8906C87.0223 67.9847 86.8825 68.0788 86.7467 68.177C86.3395 68.4347 85.8953 68.6924 85.451 68.9133C84.6066 69.3332 83.6952 69.6866 82.7487 69.847L82.7607 69.7428C82.8105 69.3083 82.8605 68.8714 82.9337 68.4346C82.9707 68.1033 83.0078 67.8087 83.0818 67.4774C83.1558 67.1461 83.2669 66.8515 83.415 66.557C83.526 66.2625 83.6001 65.9679 83.6371 65.6366C83.6556 65.5077 83.6741 65.3697 83.6926 65.2316C83.7111 65.0935 83.7297 64.9555 83.7482 64.8266C83.8222 64.5689 83.415 64.4217 83.3409 64.6794C83.2727 64.8999 83.2438 65.1282 83.2143 65.3607C83.1798 65.6329 83.1446 65.9109 83.0448 66.1888C83.0078 66.3177 82.9522 66.4557 82.8967 66.5938L82.8967 66.5939C82.8411 66.7319 82.7856 66.8699 82.7486 66.9988C82.6376 67.2933 82.6005 67.5878 82.5635 67.8824C82.5376 68.0753 82.5073 68.2638 82.4771 68.4509C82.4209 68.7993 82.3655 69.143 82.3414 69.5023C82.3414 69.6311 82.3229 69.7508 82.3044 69.8704L82.3044 69.8705C82.2859 69.9901 82.2674 70.1098 82.2674 70.2386L82.1563 71.1222C82.0452 71.7113 81.8972 72.3003 81.712 72.8894C81.5269 73.4784 81.4159 74.0675 81.3048 74.6934L80.9716 76.4606C80.9223 76.8533 80.84 77.246 80.7577 77.6387C80.7166 77.835 80.6755 78.0314 80.6385 78.2277C80.5644 78.559 80.4534 78.8535 80.3424 79.148L80.3423 79.1481C80.2313 79.4426 80.1572 79.7739 80.0832 80.1052L80.0832 80.1054C79.9535 80.6857 79.8522 81.2942 79.7545 81.8815L79.7297 82.03C79.2022 82.1139 78.6935 82.1672 78.158 82.1672H77.3066C77.177 82.1856 77.0475 82.2132 76.9179 82.2408L76.9179 82.2408L76.9178 82.2409C76.7882 82.2685 76.6587 82.2961 76.5292 82.3145C76.1526 82.3894 75.7761 82.295 75.4111 82.2035L75.4111 82.2035C75.2378 82.1601 75.0671 82.1173 74.9003 82.0936C74.7654 82.0684 74.6285 82.0471 74.4911 82.0257C74.0251 81.953 73.5521 81.8792 73.1233 81.6518C72.8642 81.5045 72.605 81.3941 72.3089 81.3204C72.0127 81.2468 71.7535 81.1732 71.4574 81.0627C71.1612 80.9707 70.8928 80.8234 70.6244 80.6762C70.356 80.5289 70.0876 80.3816 69.7915 80.2896C69.6993 80.2667 69.607 80.2473 69.5159 80.2282C69.3145 80.1859 69.1185 80.1447 68.94 80.0687C68.6809 79.9582 68.4217 79.811 68.1626 79.6637C67.9405 79.5533 67.6813 79.406 67.4592 79.2587C67.4156 79.2298 67.3706 79.1995 67.3248 79.1686C67.1368 79.0421 66.9344 78.9057 66.7558 78.8169C66.4967 78.6697 66.2375 78.5132 65.9784 78.3567C65.7192 78.2003 65.4601 78.0438 65.201 77.8965C64.9418 77.7493 64.7197 77.602 64.4976 77.4179C64.4553 77.3843 64.4092 77.3506 64.3618 77.3161L64.3618 77.3161L64.3617 77.3161L64.3617 77.316L64.3616 77.316L64.3616 77.3159L64.3615 77.3159L64.3614 77.3159L64.3614 77.3158C64.2015 77.1993 64.0279 77.0728 63.9423 76.9025C63.9053 76.8289 63.9423 76.6448 63.9793 76.5343C64.0534 76.2766 64.1644 76.0189 64.2755 75.7612C64.3331 75.6369 64.3883 75.5077 64.4442 75.3768C64.6037 75.0033 64.7692 74.6156 65.0159 74.2885C65.0899 74.1781 65.1732 74.0768 65.2565 73.9756C65.3398 73.8743 65.4231 73.7731 65.4971 73.6627L65.4972 73.6626C65.6452 73.4049 65.7933 73.1472 65.9044 72.8895C66.2005 72.3373 66.4596 71.7851 66.7188 71.2329L66.7188 71.2329L66.7188 71.2328C66.8172 71.037 66.8943 70.8306 66.9723 70.6216C67.0997 70.2805 67.2296 69.9325 67.4592 69.6129C67.5332 69.484 67.6165 69.3644 67.6998 69.2447C67.7831 69.1251 67.8664 69.0054 67.9405 68.8765C68.0886 68.582 68.1996 68.2875 68.3107 67.993C68.4402 67.6984 68.5513 67.4039 68.6624 67.1094C68.7734 66.8148 68.8845 66.5203 69.0141 66.2258C69.0881 66.0785 69.1529 65.9312 69.2177 65.784L69.2177 65.784C69.2825 65.6367 69.3472 65.4894 69.4213 65.3422C69.5323 65.0845 69.6064 64.79 69.6804 64.4955L69.6804 64.4955L69.6804 64.4955L69.6804 64.4955L69.6804 64.4955L69.6804 64.4954L69.6804 64.4954L69.6804 64.4954L69.6804 64.4954L69.6804 64.4954C69.7545 64.2009 69.8285 63.9432 70.0136 63.7223C70.0483 63.6808 70.083 63.6407 70.1172 63.6012L70.1174 63.601L70.1174 63.601C70.2656 63.4296 70.4047 63.2689 70.4949 63.0596C70.6059 62.8019 70.68 62.4705 70.717 62.2128C70.791 61.9183 70.8651 61.6237 70.9761 61.366C71.0317 61.2188 71.0964 61.0807 71.1612 60.9426L71.1612 60.9426C71.226 60.8046 71.2908 60.6665 71.3463 60.5193C71.3093 60.2984 70.9021 60.1879 70.828 60.4456C70.754 60.7401 70.6059 61.0347 70.4579 61.3292L70.4578 61.3292C70.3468 61.6237 70.2727 61.8814 70.1987 62.2128C70.1793 62.2898 70.1625 62.3693 70.1456 62.4493C70.0977 62.6755 70.0489 62.906 69.9396 63.0964C69.8753 63.1923 69.7971 63.2812 69.717 63.3722L69.717 63.3722C69.6126 63.4909 69.5051 63.6132 69.4213 63.7591C69.2732 64.0168 69.1992 64.3113 69.1251 64.6059C69.0929 64.7339 69.0538 64.8619 69.0106 64.9899C68.428 64.3328 67.9419 63.564 67.6072 62.7651C67.2574 61.9301 66.9406 61.0622 66.7193 60.1614C66.9934 59.9739 67.2448 59.7864 67.4962 59.5989L67.4962 59.5989L67.4962 59.5989L67.4962 59.5989L67.4962 59.5989ZM76.9364 56.2117C76.9832 56.2251 77.0168 56.2492 77.0388 56.2795C77.0568 56.3007 77.0724 56.3271 77.0845 56.3591C77.2326 56.8377 77.4547 57.3531 77.7879 57.7213C78.086 58.0837 78.5027 58.2397 78.9319 58.4004L78.9319 58.4004L78.9319 58.4004L78.9319 58.4004C78.9823 58.4193 79.033 58.4383 79.0836 58.4576C79.2131 58.4944 79.3427 58.5497 79.4723 58.6049C79.6019 58.6601 79.7314 58.7153 79.861 58.7522C80.1201 58.8258 80.3423 58.8258 80.6014 58.789C81.1029 58.7225 81.5138 58.5059 81.8886 58.2205C81.922 58.1277 82.0052 58.0533 82.1132 58.0756C82.1864 58.0623 82.258 58.0907 82.309 58.1395C82.6193 58.251 82.906 58.4094 83.1927 58.5679L83.1928 58.5679C83.4075 58.696 83.5974 58.849 83.7912 59.0051L83.7913 59.0051C83.9315 59.1181 84.0739 59.2328 84.2293 59.341C84.351 59.4351 84.4727 59.5244 84.5926 59.6123L84.5926 59.6123L84.5927 59.6123C84.801 59.7651 85.0039 59.9138 85.1919 60.0773C85.2537 60.1388 85.3213 60.2003 85.3906 60.2634C85.5702 60.4269 85.7617 60.6011 85.8953 60.8137L85.8954 60.8139L85.8954 60.814L85.8954 60.814L85.8954 60.814L85.8955 60.814C86.0805 61.1453 86.2655 61.4765 86.4135 61.8077C86.5986 62.1391 86.7467 62.5072 86.8578 62.8754C87.1169 63.6117 87.3761 64.348 87.5982 65.0844C87.8203 65.8575 88.0794 66.5938 88.3386 67.3301C88.3717 67.4069 88.3588 67.4771 88.3185 67.5311C88.3047 67.5757 88.2757 67.6205 88.2276 67.6616C87.9435 67.9158 87.616 68.1266 87.2782 68.344C87.1757 68.41 87.0723 68.4766 86.9689 68.5451C86.5246 68.8397 86.0434 69.0974 85.5991 69.3183C84.7164 69.7938 83.6874 70.1603 82.6938 70.3094C82.6349 70.7816 82.5644 71.2499 82.4525 71.7113L82.2303 72.5949C82.1933 72.7421 82.1471 72.8893 82.1008 73.0366L82.1008 73.0367C82.0545 73.1839 82.0082 73.3312 81.9712 73.4784C81.8408 73.9647 81.7391 74.5081 81.6408 75.0332L81.601 75.2456C81.4159 76.4237 81.2308 77.6019 80.9346 78.7432C80.8976 78.872 80.8421 79.01 80.7866 79.1479L80.7866 79.148L80.7866 79.148L80.7866 79.1481L80.7865 79.1482L80.7865 79.1482L80.7865 79.1483C80.731 79.2863 80.6755 79.4243 80.6385 79.5531C80.5982 79.6933 80.5689 79.8444 80.5386 80.0005L80.5386 80.0005L80.5386 80.0005C80.5132 80.1313 80.4871 80.2656 80.4534 80.3999C80.357 80.783 80.2921 81.1817 80.2278 81.5758L80.2278 81.576L80.2278 81.5762L80.2277 81.5764L80.2277 81.5766L80.2277 81.5768L80.2277 81.5768L80.2276 81.5769L80.2276 81.5769C80.2034 81.7258 80.1792 81.874 80.1535 82.0204C80.2846 82.1237 80.2843 82.3963 80.0831 82.4249C79.8162 82.4913 79.5193 82.5277 79.2465 82.5612L79.1576 82.5722C78.8614 82.609 78.5653 82.6458 78.2321 82.6458C78.1334 82.6458 78.0346 82.6417 77.9359 82.6376C77.7385 82.6295 77.541 82.6213 77.3436 82.6458C77.1816 82.666 77.0307 82.6971 76.8848 82.7272C76.7639 82.7522 76.6465 82.7764 76.5292 82.7931C76.233 82.8299 75.9739 82.8299 75.6777 82.7563C75.5571 82.7391 75.4284 82.7061 75.2955 82.6719L75.2955 82.6719C75.1428 82.6326 74.9845 82.5919 74.8262 82.5722L74.7373 82.5612C74.4645 82.5277 74.1676 82.4913 73.9007 82.4249C73.5675 82.3881 73.3084 82.3145 73.0122 82.1672C72.9623 82.1424 72.9134 82.1175 72.8651 82.093L72.8648 82.0929L72.8648 82.0929C72.6274 81.9723 72.4069 81.8602 72.1608 81.7991C72.0127 81.7438 71.8646 81.707 71.7165 81.6702C71.5684 81.6334 71.4204 81.5966 71.2723 81.5413C70.9761 81.4677 70.717 81.3204 70.4578 81.1732C70.4259 81.155 70.3935 81.1364 70.3605 81.1174L70.3605 81.1174C70.1258 80.9823 69.8661 80.8328 69.6064 80.7682C69.4583 80.713 69.3102 80.6762 69.1622 80.6394L69.1621 80.6393L69.1621 80.6393C69.014 80.6025 68.866 80.5657 68.7179 80.5105C68.4217 80.4 68.1626 80.2528 67.9035 80.1055L67.9034 80.1055C67.8004 80.047 67.6974 79.9942 67.5967 79.9427L67.5966 79.9426C67.4441 79.8646 67.2968 79.7892 67.163 79.7005C66.9039 79.5349 66.6448 79.3784 66.3856 79.2219C66.1265 79.0654 65.8673 78.909 65.6082 78.7433C65.4786 78.6697 65.3398 78.596 65.201 78.5224C65.0622 78.4488 64.9233 78.3751 64.7938 78.3015C64.5346 78.1542 64.2755 77.9702 64.0534 77.7861L64.0154 77.7568C63.6902 77.506 63.3157 77.2172 63.387 76.792C63.4547 76.321 63.646 75.9115 63.848 75.4791L63.9053 75.3562L63.9622 75.233C64.1664 74.7902 64.3811 74.3245 64.7197 73.9204C64.9885 73.5729 65.1987 73.1867 65.407 72.8039C65.4857 72.6594 65.5641 72.5153 65.6452 72.3741C65.7933 72.1164 65.9414 71.8587 66.0524 71.5641C66.108 71.4169 66.1728 71.2696 66.2375 71.1223C66.3023 70.9751 66.3671 70.8278 66.4226 70.6805C66.4559 70.5923 66.4859 70.5041 66.5155 70.4168C66.5847 70.2128 66.6521 70.0143 66.7558 69.8338C66.8247 69.6511 66.9363 69.4968 67.0464 69.3445L67.0464 69.3445C67.1139 69.2511 67.1808 69.1585 67.2371 69.0606C67.4222 68.8029 67.5332 68.5084 67.6443 68.2138C67.7924 67.9193 67.9405 67.588 68.0515 67.2934C68.1256 67.1462 68.1811 66.9989 68.2366 66.8516C68.2922 66.7044 68.3477 66.5571 68.4217 66.4099C68.5328 66.0785 68.6809 65.784 68.829 65.4894L68.8391 65.4627C68.1484 64.7675 67.602 63.8947 67.2 62.986C66.7928 62.0656 66.4226 61.1084 66.2375 60.1143C66.1951 59.9459 66.3222 59.8497 66.4527 59.8464C66.6134 59.7332 66.7679 59.62 66.9224 59.5068C67.0982 59.378 67.2741 59.2491 67.4592 59.1202C67.6443 58.9914 67.8294 58.8717 68.0145 58.7521C68.1996 58.6324 68.3847 58.5128 68.5698 58.3839C68.7657 58.254 68.9488 58.0987 69.1266 57.9479L69.1266 57.9479C69.2512 57.8422 69.3733 57.7386 69.4953 57.6476C69.6906 57.4811 69.9279 57.3565 70.1755 57.2264L70.1755 57.2264C70.2566 57.1839 70.3387 57.1407 70.4208 57.0953C70.5874 57.0033 70.7633 56.902 70.9391 56.8008C71.1149 56.6996 71.2908 56.5983 71.4574 56.5063C71.5357 56.463 71.612 56.4177 71.6877 56.3727C71.9339 56.2264 72.1738 56.084 72.4569 56.0277C73.1447 55.8974 73.8614 55.9688 74.5558 56.038C74.6463 56.047 74.7365 56.056 74.8262 56.0645C74.9619 56.0768 75.0977 56.0931 75.2334 56.1095L75.2334 56.1095C75.5049 56.1422 75.7764 56.1749 76.0479 56.1749C76.1219 56.1749 76.196 56.1726 76.27 56.1703C76.4921 56.1634 76.7142 56.1565 76.9364 56.2117ZM84.2941 61.4733L84.2664 61.4397C84.0813 61.2188 84.4145 60.9243 84.5996 61.1452C85.34 62.0656 86.1174 63.0596 86.0804 64.2746C86.0804 64.5323 85.6361 64.5323 85.6361 64.2377C85.6726 63.1485 84.9531 62.2741 84.2941 61.4733ZM75.8998 57.6106C76.0108 57.9788 76.1589 58.347 76.4551 58.6415C76.7142 58.8992 77.0474 59.0833 77.3806 59.2674C77.4916 59.341 77.6027 59.3042 77.6767 59.1937C77.7508 59.1201 77.7138 58.936 77.6027 58.8992C77.3065 58.7519 77.0104 58.6047 76.7883 58.3838L76.7882 58.3837C76.6772 58.2733 76.5661 58.1629 76.4921 58.0156C76.4181 57.8684 76.344 57.6843 76.307 57.537C76.27 57.4266 76.1589 57.3529 76.0479 57.3529C75.9738 57.3897 75.8998 57.5002 75.8998 57.6106ZM70.3098 64.6796L70.3098 64.6796C70.3839 64.5691 70.532 64.5691 70.643 64.6427C70.7541 64.7164 70.7541 64.8268 70.7171 64.9373C70.3098 65.7104 69.9396 66.4836 69.7175 67.3303C69.6064 67.7353 69.5694 68.1403 69.5694 68.5821C69.5694 68.7171 69.5735 68.8521 69.5776 68.9871C69.5859 69.2571 69.5941 69.5271 69.5694 69.797C69.5324 70.0548 69.0881 70.0547 69.1252 69.7602C69.1498 69.4657 69.1416 69.1712 69.1334 68.8766C69.1293 68.7294 69.1252 68.5821 69.1252 68.4348C69.1252 67.993 69.1622 67.5512 69.2732 67.1463C69.4954 66.2995 69.9026 65.4895 70.3098 64.6796Z" fill="#4055C0"/>
<path d="M64.6089 41.3748C64.7199 43.5837 64.9421 45.8295 65.2012 48.0385C65.4603 50.2475 65.7195 52.4933 66.0527 54.7022C67.0522 61.4028 67.8296 68.1034 68.6441 74.8407C69.0883 78.5592 69.5696 82.2776 70.1249 85.9961C66.682 87.8001 63.017 89.1991 59.2039 90.009C56.0202 90.6717 52.7254 90.8926 49.4676 90.7822C46.6171 90.6717 43.7665 90.3036 40.916 89.9354C38.1765 89.5673 35.437 89.1991 32.7345 88.5732C31.4018 88.2787 30.069 87.9105 28.8474 87.3215C28.4401 87.1374 28.0329 86.9165 27.7368 86.5851C27.6997 86.5115 27.6997 86.4379 27.6997 86.4011V86.3642C27.6997 86.3642 27.6997 86.3642 27.6997 86.3274C27.6997 86.2906 27.6997 86.2538 27.6997 86.2538C27.6997 86.1433 27.6997 85.9961 27.6627 85.8856C27.6627 85.5911 27.6627 85.2966 27.6997 84.9652C27.7368 84.1185 27.8478 83.3085 27.9589 82.4617C28.6252 76.9025 29.5878 71.4168 30.2912 65.8576C31.1796 58.6416 31.772 51.352 31.5128 44.0992C31.4758 43.2156 31.4388 42.3688 31.3647 41.4852C31.3277 40.7857 30.2171 40.7857 30.2541 41.4852C30.5503 45.6454 30.5133 49.8057 30.2912 53.9659C26.2189 51.6833 22.8871 48.1121 20.5178 44.1728C22.9612 41.0434 25.0343 37.6931 27.6257 34.6742C28.4031 33.7538 29.2546 32.8334 30.1061 31.9866C30.7354 31.3239 31.2907 30.698 32.1051 30.2562C33.623 29.4095 35.3999 28.9309 37.0658 28.4891C38.5096 28.0841 40.1015 27.6423 41.6193 27.6055C43.1001 29.3358 45.2103 30.6244 47.4685 30.9926C49.6527 31.3239 51.9109 30.698 53.836 29.704C54.8355 29.1886 55.761 28.5259 56.4274 27.6055C57.7231 27.6791 59.0558 28.0104 60.3145 28.3418C62.0545 28.7836 63.8315 29.2622 65.4603 30.0353C66.1637 30.3667 66.645 30.7349 67.2003 31.2871C68.1258 32.2075 69.0143 33.1279 69.8657 34.1219C71.1614 35.5946 72.3091 37.1041 73.4197 38.6872C74.7524 40.5648 76.0481 42.4056 77.4549 44.2096C74.9745 48.333 71.4946 51.9778 67.2373 54.2605C67.0152 52.5301 66.7931 50.8365 66.5709 49.1062C66.2748 46.6027 65.9786 44.0623 65.8676 41.5588C65.6825 40.6384 64.5719 40.6384 64.6089 41.3748Z" fill="white"/>
<path d="M30.18 41.3739C30.6982 48.8108 30.18 56.2477 29.3285 63.6477C28.6621 69.5752 27.6626 75.5026 26.8852 81.43C26.7001 82.9395 26.4039 84.5594 26.515 86.1057C26.552 86.6579 26.663 87.0629 27.0703 87.431C27.9217 88.241 29.1434 88.646 30.254 88.9773C33.0305 89.8609 35.9181 90.3027 38.8057 90.6709C41.6562 91.039 44.5438 91.4808 47.4314 91.7017C50.6521 91.9226 53.8359 91.8858 57.0196 91.444C60.8327 90.8918 64.5347 89.7505 68.0516 88.1674C69.0512 87.7256 70.0507 87.2102 71.0132 86.6947C71.6426 86.3634 71.0873 85.4062 70.4579 85.7375C66.904 87.6151 63.165 89.0878 59.2038 89.8977C56.0201 90.5604 52.7253 90.7813 49.4675 90.6709C46.6169 90.5604 43.7664 90.1923 40.9158 89.8241C38.1763 89.4559 35.4368 89.0878 32.7344 88.4619C31.4016 88.1674 30.0689 87.7992 28.8472 87.2101C28.44 87.0261 28.0328 86.8052 27.7366 86.437C27.6996 86.3634 27.8107 86.5107 27.7366 86.437C27.6626 86.3634 27.7366 86.4002 27.7366 86.4738C27.6996 86.4002 27.6996 86.3266 27.6626 86.2529C27.6626 86.2161 27.6256 86.0689 27.6626 86.1793C27.6626 86.2897 27.6626 86.1057 27.6626 86.0689C27.6626 85.9584 27.6626 85.8111 27.6626 85.7007C27.6626 85.4062 27.6626 85.1116 27.6996 84.7803C27.7366 83.9335 27.8477 83.1235 27.9588 82.2768C28.6251 76.7175 29.5876 71.2319 30.291 65.6726C31.1795 58.4567 31.7718 51.167 31.5127 43.9142C31.4757 43.0306 31.4386 42.1839 31.3646 41.3003C31.2535 40.6744 30.1429 40.6376 30.18 41.3739Z" fill="#4055C0"/>
<path d="M71.2725 86.1063C70.2359 79.3689 69.4955 72.5947 68.681 65.8574C67.9777 60.2245 67.0892 54.5916 66.4228 48.9587C66.1266 46.4552 65.8305 43.9149 65.7194 41.4114C65.6824 40.7118 64.5718 40.7118 64.6088 41.4114C64.7199 43.6203 64.942 45.8661 65.2011 48.0751C65.4603 50.2841 65.7194 52.5299 66.0526 54.7388C67.0521 61.4394 67.8296 68.14 68.644 74.8405C69.1253 78.7062 69.6065 82.5719 70.1989 86.4377C70.3099 87.1004 71.3835 86.8058 71.2725 86.1063Z" fill="#4055C0"/>
<path d="M19.259 44.2826C21.8875 48.7742 25.7376 52.824 30.4021 55.2171C31.0315 55.5484 31.5868 54.5912 30.9574 54.2598C26.441 51.9404 22.776 48.0747 20.2216 43.7304C19.8514 43.1045 18.8888 43.6568 19.259 44.2826Z" fill="#4055C0"/>
<path d="M20.1476 44.3932C22.702 41.1902 24.8492 37.6558 27.5146 34.5264C28.2921 33.606 29.1435 32.6856 29.995 31.8388C30.6243 31.1762 31.1796 30.5503 31.9941 30.1085C33.5119 29.2617 35.2519 28.7831 36.9548 28.3413C38.4726 27.9363 40.1756 27.4577 41.7674 27.4209C42.4708 27.4209 42.4708 26.3164 41.7674 26.3164C40.3236 26.3164 38.8428 26.7214 37.4361 27.0527C35.6221 27.4945 33.7711 28.0468 32.0681 28.8199C30.2171 29.6667 28.8844 31.3234 27.5517 32.8329C26.1819 34.3424 24.9232 35.9623 23.7386 37.6558C22.2948 39.6807 20.888 41.6688 19.3702 43.6201C18.926 44.1723 19.7034 44.9454 20.1476 44.3932Z" fill="#4055C0"/>
<path d="M77.4919 43.7304C74.9375 48.0747 71.2726 51.9404 66.7561 54.2599C66.1267 54.5912 66.6821 55.5484 67.3114 55.2171C72.013 52.824 75.826 48.7742 78.4545 44.2826C78.8247 43.6568 77.8621 43.1045 77.4919 43.7304Z" fill="#4055C0"/>
<path d="M78.3803 43.6203C75.7889 40.3437 73.5677 36.7357 70.8282 33.5695C70.0138 32.6123 69.1253 31.6919 68.2368 30.7715C67.6074 30.1456 67.0521 29.5565 66.2377 29.1516C64.6088 28.268 62.7948 27.7525 61.0179 27.2739C59.389 26.8321 57.649 26.3535 55.9831 26.3535C55.2797 26.3535 55.2797 27.458 55.9831 27.458C57.3529 27.458 58.7966 27.863 60.1294 28.1943C61.8693 28.6361 63.6463 29.1147 65.2752 29.9247C65.9786 30.256 66.4598 30.6242 67.0151 31.1396C67.9406 32.06 68.8291 33.0173 69.6806 33.9745C70.9763 35.4471 72.1239 36.9566 73.2715 38.5397C74.6783 40.5278 76.0851 42.5159 77.6029 44.4303C78.0101 44.9457 78.7875 44.1726 78.3803 43.6203Z" fill="#4055C0"/>
<path d="M41.3232 27.2735C42.804 29.0775 44.9512 30.4397 47.2834 30.8078C49.4676 31.1392 51.7258 30.5133 53.6509 29.5193C54.6875 28.967 55.687 28.2307 56.3534 27.2735C56.7606 26.6844 55.7981 26.1322 55.3908 26.7212C54.7245 27.6784 53.6509 28.3411 52.6143 28.8197C51.4667 29.3352 50.208 29.7402 48.9493 29.8138C46.2839 29.9979 43.7295 28.5252 42.0636 26.5003C41.6564 25.9113 40.8789 26.7212 41.3232 27.2735Z" fill="#4055C0"/>
<path d="M62.2395 27.5679C62.1284 27.7152 62.0173 27.8993 61.9063 28.0465C61.7952 28.1938 61.6471 28.3779 61.5361 28.5252C61.9063 28.6356 62.3135 28.7461 62.6837 28.8565C62.7948 28.7092 62.9058 28.562 63.0169 28.4147C63.1279 28.2674 63.239 28.0834 63.3501 27.9361C62.9799 27.7888 62.6097 27.6784 62.2395 27.5679ZM61.314 28.8197C60.0553 30.2923 58.9447 31.0655 58.4634 30.8078C57.9081 30.5132 57.5749 30.1083 57.4639 29.5928C57.3528 29.0774 57.4639 28.5252 57.649 27.9729C57.686 27.8993 57.686 27.8625 57.723 27.7888C57.76 27.7152 57.76 27.6784 57.797 27.6048C57.723 27.6048 57.686 27.5679 57.6119 27.5679C57.5379 27.5679 57.5009 27.5311 57.4268 27.5311C57.3158 27.4943 57.1677 27.4943 57.0566 27.4943C56.9826 27.4943 56.9456 27.4575 56.8715 27.4575C56.8345 27.4575 56.7605 27.4575 56.7235 27.4575H56.6864C56.6864 27.4943 56.6494 27.5679 56.6124 27.6048C56.6124 27.6048 56.6124 27.6048 56.6124 27.6416C56.5754 27.7152 56.5754 27.752 56.5384 27.8256C56.3162 28.4883 56.2422 29.151 56.3903 29.8137C56.5754 30.6605 57.0937 31.36 57.9821 31.8018C58.2043 31.9123 58.4634 31.9859 58.6855 31.9859C59.8702 31.9859 61.2769 30.7709 62.4986 29.1878C62.1654 29.0774 61.8322 28.967 61.4991 28.8933C61.388 28.8565 61.351 28.8565 61.314 28.8197ZM65.5343 22.5977C65.5343 22.1191 65.3492 21.7141 64.979 21.4564C64.3866 21.0515 63.7203 20.9778 63.0169 21.1619C62.9428 21.5301 63.0169 21.935 63.239 22.2664C63.3871 22.2296 63.5722 22.1928 63.7203 22.1928C63.9794 22.1928 64.2015 22.2664 64.3866 22.3768C64.4607 22.4137 64.4977 22.6346 64.4607 22.9659C64.4607 23.0763 64.4237 23.1868 64.3866 23.3341C64.2756 23.7759 64.0905 24.4017 63.7203 25.1381C63.6832 25.2485 63.6092 25.359 63.5352 25.4694C63.3501 25.8008 63.165 26.1689 62.9428 26.5371C62.7948 26.7948 62.6467 27.0157 62.4986 27.2734C62.8318 27.3839 63.165 27.4943 63.4982 27.5679C63.5352 27.5679 63.5722 27.6048 63.5722 27.6048C63.6833 27.4207 63.7943 27.2734 63.8684 27.0893C64.0905 26.7212 64.3866 26.2057 64.6458 25.6167C64.7198 25.5062 64.7568 25.359 64.8309 25.2485C65.1641 24.5122 65.4602 23.739 65.5343 23.0395C65.5343 22.8923 65.5343 22.745 65.5343 22.5977ZM61.462 28.8933C61.425 28.8933 61.351 28.8565 61.314 28.8565C60.0553 30.3292 58.9447 31.1023 58.4634 30.8446C57.9081 30.5501 57.5749 30.1451 57.4639 29.6296C57.3528 29.1142 57.4639 28.562 57.649 28.0097C57.686 27.9361 57.686 27.8993 57.723 27.8256L57.5379 27.7888L57.6119 27.6048C57.5379 27.6048 57.5009 27.5679 57.4268 27.5679C57.3158 27.5311 57.1677 27.5311 57.0566 27.5311C56.9826 27.5311 56.9456 27.4943 56.8715 27.4943C56.8345 27.4943 56.7605 27.4943 56.7235 27.4943H56.6864C56.6864 27.5311 56.6494 27.6048 56.6124 27.6416C56.6124 27.6416 56.6124 27.6416 56.6124 27.6784C56.5754 27.752 56.5754 27.7888 56.5384 27.8625C56.3162 28.5252 56.2422 29.1879 56.3903 29.8505C56.5754 30.6973 57.0937 31.3968 57.9821 31.8386C58.2043 31.9491 58.4634 32.0227 58.6855 32.0227C59.8702 32.0227 61.2769 30.8078 62.4986 29.2247C62.0914 29.0774 61.7952 28.967 61.462 28.8933ZM57.5749 26.4266C57.723 26.4634 57.8341 26.4634 57.9451 26.5003C58.0192 26.5003 58.0932 26.5371 58.1302 26.5371C58.2043 26.5371 58.2413 26.5739 58.3153 26.5739C58.3523 26.5003 58.3894 26.4634 58.4264 26.3898C58.4634 26.3162 58.5004 26.2794 58.5374 26.2425C58.6855 26.0216 58.8706 25.8008 59.0187 25.6167C59.7221 24.8067 60.3885 24.1072 60.9808 23.5918C60.7587 23.2604 60.6106 22.9291 60.4995 22.5609C59.6851 23.2604 58.8706 24.0704 58.1672 24.9172C57.9821 25.1381 57.649 25.543 57.3528 26.0585C57.3158 26.1321 57.2788 26.1689 57.2417 26.2425C57.2047 26.2794 57.1677 26.353 57.1307 26.4266C57.2047 26.4266 57.2788 26.4266 57.3158 26.4634C57.4268 26.4266 57.5009 26.4266 57.5749 26.4266ZM61.462 28.8933C61.425 28.8933 61.351 28.8565 61.314 28.8565C60.0553 30.3292 58.9447 31.1023 58.4634 30.8446C57.9081 30.5501 57.5749 30.1451 57.4639 29.6296C57.3528 29.1142 57.4639 28.562 57.649 28.0097C57.686 27.9361 57.686 27.8993 57.723 27.8256L57.5379 27.7888L57.6119 27.6048C57.5379 27.6048 57.5009 27.5679 57.4268 27.5679C57.3158 27.5311 57.1677 27.5311 57.0566 27.5311C56.9826 27.5311 56.9456 27.4943 56.8715 27.4943C56.8345 27.4943 56.7605 27.4943 56.7235 27.4943H56.6864C56.6864 27.5311 56.6494 27.6048 56.6124 27.6416C56.6124 27.6416 56.6124 27.6416 56.6124 27.6784C56.5754 27.752 56.5754 27.7888 56.5384 27.8625C56.3162 28.5252 56.2422 29.1879 56.3903 29.8505C56.5754 30.6973 57.0937 31.3968 57.9821 31.8386C58.2043 31.9491 58.4634 32.0227 58.6855 32.0227C59.8702 32.0227 61.2769 30.8078 62.4986 29.2247C62.0914 29.0774 61.7952 28.967 61.462 28.8933Z" fill="#4055C0"/>
<path d="M64.7939 25.4699C63.6462 25.4699 62.5727 25.0281 61.7582 24.2181C60.0923 22.5614 60.0923 19.837 61.7582 18.1802L69.6805 10.3016C70.0137 9.97021 70.495 9.78613 70.9762 9.78613C71.4575 9.78613 71.9017 9.97021 72.272 10.3016L75.7518 13.7623C76.4552 14.4618 76.4552 15.6031 75.7518 16.3394L67.8295 24.2181C67.0151 25.0281 65.9415 25.4699 64.7939 25.4699ZM64.5347 19.7265C64.0905 19.7265 63.6462 19.9106 63.3131 20.242C62.6467 20.9046 62.6467 22.0091 63.3131 22.6718C63.6462 23.0032 64.0905 23.1873 64.5347 23.1873C64.979 23.1873 65.4232 23.0032 65.7564 22.6718C66.0896 22.3405 66.2747 21.8987 66.2747 21.4569C66.2747 21.0151 66.0896 20.5733 65.7564 20.242C65.4232 19.9106 65.016 19.7265 64.5347 19.7265Z" fill="#4055C0"/>
<path d="M71.4945 17.8492L72.0128 18.3646L71.3464 19.0273L70.8652 18.5487C70.3839 18.9905 69.7916 19.3219 69.3473 19.4323L68.9031 18.291C69.3843 18.1806 69.9026 17.886 70.2728 17.5179C70.569 17.2233 70.643 17.0392 70.532 16.9288C70.1247 16.5238 68.6439 18.6592 67.4223 17.4442C66.904 16.9288 66.8299 16.082 67.4963 15.2353L66.978 14.7198L67.6444 14.0571L68.1257 14.5357C68.4959 14.2412 68.9401 13.9835 69.3473 13.873L69.8286 14.9775C69.3473 15.1248 68.9771 15.3457 68.681 15.6402C68.3478 15.9716 68.3478 16.1557 68.4588 16.2661C68.8661 16.6711 70.3098 14.5357 71.5315 15.7507C72.0128 16.1925 72.0868 17.0024 71.4945 17.8492Z" fill="white"/>
</svg>
