<svg width="274" height="274" viewBox="0 0 274 274" fill="none" xmlns="http://www.w3.org/2000/svg">
<path d="M274 137C274 212.648 212.648 274 137 274C61.3522 274 0 212.648 0 137C0 93.5174 20.2522 54.8 51.8217 29.6833C52.8145 28.8891 53.8072 28.0949 54.8 27.4C59.863 23.6275 65.1246 20.1529 70.5848 17.1746C71.5775 16.6783 72.5703 16.0826 73.563 15.5862C92.5246 5.65869 114.167 0 137 0C212.648 0 274 61.3522 274 137Z" fill="#F5F6FC"/>
<path d="M109.6 104.934V124.194C109.6 124.988 108.905 125.683 108.111 125.683H89.6458C68.6987 125.683 51.7227 108.707 51.7227 87.7596V29.6835C52.7154 28.8893 53.7082 28.0951 54.7009 27.4002V87.7596C54.7009 107.019 70.3864 122.705 89.6458 122.705H106.622V106.423H90.3408C79.5198 106.423 70.6842 97.5879 70.6842 86.7669V17.1748C71.677 16.6785 72.6698 16.0828 73.6625 15.5864V86.8661C73.6625 96.0988 81.2074 103.544 90.3408 103.544H108.21C109.005 103.445 109.6 104.14 109.6 104.934Z" fill="#4055C0"/>
<path fill-rule="evenodd" clip-rule="evenodd" d="M106.611 96.9922C106.611 96.1638 107.283 95.4922 108.111 95.4922H123.598C124.426 95.4922 125.098 96.1638 125.098 96.9922V132.136C125.098 132.964 124.426 133.636 123.598 133.636H108.111C107.283 133.636 106.611 132.964 106.611 132.136V96.9922ZM109.611 98.4922V130.636H122.098V98.4922H109.611Z" fill="#4055C0"/>
<path fill-rule="evenodd" clip-rule="evenodd" d="M139.471 96.9922C139.471 96.1638 140.143 95.4922 140.971 95.4922H156.458C157.287 95.4922 157.958 96.1638 157.958 96.9922V132.136C157.958 132.964 157.287 133.636 156.458 133.636H140.971C140.143 133.636 139.471 132.964 139.471 132.136V96.9922ZM142.471 98.4922V130.636H154.958V98.4922H142.471Z" fill="#4055C0"/>
<path fill-rule="evenodd" clip-rule="evenodd" d="M122.098 104.934C122.098 104.106 122.77 103.434 123.598 103.434H140.971C141.8 103.434 142.471 104.106 142.471 104.934V124.194C142.471 125.022 141.8 125.694 140.971 125.694H123.598C122.77 125.694 122.098 125.022 122.098 124.194V104.934ZM125.098 106.434V122.694H139.471V106.434H125.098Z" fill="#4055C0"/>
<path d="M156.557 112.38C174.923 115.16 194.381 120.818 205.5 136.901C211.159 145.141 214.336 154.771 216.321 164.4C218.108 173.137 218.902 182.071 219.101 190.907C219.2 197.062 219.101 203.316 218.902 209.471C218.803 211.358 221.781 211.358 221.881 209.471C222.476 195.076 222.278 180.582 219.696 166.386C217.91 156.458 214.931 146.431 209.57 137.795C204.408 129.455 197.062 122.903 188.325 118.535C178.596 113.671 167.875 111.189 157.252 109.501C155.465 109.203 154.671 112.082 156.557 112.38Z" fill="#4055C0"/>
<path d="M156.557 119.429C166.783 124.591 172.541 135.213 175.023 146.034C176.512 152.487 177.008 159.139 177.306 165.79C177.504 169.662 177.604 173.633 177.405 177.505C177.207 183.263 176.512 189.12 175.916 194.878C175.717 196.764 178.696 196.764 178.894 194.878C179.887 185.546 180.681 176.313 180.383 166.981C179.887 154.175 178.696 140.673 171.647 129.555C168.272 124.194 163.705 119.627 158.146 116.847C156.359 115.954 154.87 118.535 156.557 119.429Z" fill="#4055C0"/>
<path d="M179.788 129.753C184.255 135.312 186.737 142.46 186.638 149.707C186.638 151.594 189.616 151.594 189.616 149.707C189.715 141.666 186.936 133.923 181.873 127.668C181.376 127.073 180.284 127.172 179.788 127.668C179.192 128.264 179.291 129.157 179.788 129.753Z" fill="#4055C0"/>
<path d="M188.524 174.229C188.723 184.057 188.226 193.786 186.638 203.515C186.34 205.401 189.219 206.195 189.517 204.309C191.105 194.282 191.701 184.355 191.502 174.229C191.403 172.342 188.425 172.342 188.524 174.229Z" fill="#4055C0"/>
<path d="M203.415 152.388C205.004 155.962 205.5 160.528 206.096 164.4C206.791 169.066 207.287 173.732 207.486 178.398C207.585 180.284 210.563 180.284 210.464 178.398C210.265 173.434 209.67 168.47 208.975 163.606C208.379 159.337 207.784 154.77 205.997 150.899C205.103 149.112 202.621 150.7 203.415 152.388Z" fill="#4055C0"/>
</svg>
