<svg width="102" height="96" viewBox="0 0 102 96" fill="none" xmlns="http://www.w3.org/2000/svg">
<path d="M30.6526 41.3739C31.1709 48.8108 30.6526 56.2477 29.8012 63.6477C29.1348 69.5752 28.1352 75.5026 27.3578 81.43C27.1727 82.9395 26.8766 84.5594 26.9876 86.1057C27.0246 86.6579 27.1357 87.0629 27.5429 87.431C28.3944 88.241 29.6161 88.646 30.7267 88.9773C33.5032 89.8609 36.3908 90.3027 39.2783 90.6709C42.1289 91.039 45.0165 91.4808 47.904 91.7017C51.1248 91.9226 54.3085 91.8858 57.4923 91.444C61.3053 90.8918 65.0074 89.7505 68.5243 88.1674C69.5238 87.7256 70.5234 87.2102 71.4859 86.6947C72.1152 86.3634 71.5599 85.4062 70.9306 85.7375C67.3767 87.6151 63.6376 89.0878 59.6765 89.8977C56.4927 90.5604 53.1979 90.7813 49.9401 90.6709C47.0896 90.5604 44.239 90.1923 41.3885 89.8241C38.649 89.4559 35.9095 89.0878 33.207 88.4619C31.8743 88.1674 30.5416 87.7992 29.3199 87.2101C28.9127 87.0261 28.5054 86.8052 28.2093 86.437C28.1723 86.3634 28.2833 86.5107 28.2093 86.437C28.1352 86.3634 28.2093 86.4002 28.2093 86.4738C28.1723 86.4002 28.1723 86.3266 28.1352 86.2529C28.1352 86.2161 28.0982 86.0689 28.1352 86.1793C28.1352 86.2897 28.1352 86.1057 28.1352 86.0689C28.1352 85.9584 28.1352 85.8111 28.1352 85.7007C28.1352 85.4062 28.1352 85.1116 28.1723 84.7803C28.2093 83.9335 28.3203 83.1235 28.4314 82.2768C29.0978 76.7175 30.0603 71.2319 30.7637 65.6726C31.6522 58.4567 32.2445 51.167 31.9853 43.9142C31.9483 43.0306 31.9113 42.1839 31.8373 41.3003C31.7262 40.6744 30.6156 40.6376 30.6526 41.3739Z" fill="#4055C0"/>
<path d="M71.7451 86.1063C70.7085 79.3689 69.9681 72.5947 69.1537 65.8574C68.4503 60.2245 67.5618 54.5916 66.8955 48.9587C66.5993 46.4552 66.3031 43.9149 66.1921 41.4114C66.1551 40.7118 65.0445 40.7118 65.0815 41.4114C65.1925 43.6203 65.4147 45.8661 65.6738 48.0751C65.9329 50.2841 66.1921 52.5299 66.5253 54.7388C67.5248 61.4394 68.3022 68.14 69.1167 74.8405C69.5979 78.7062 70.0792 82.5719 70.6715 86.4377C70.7826 87.1004 71.8562 86.8058 71.7451 86.1063Z" fill="#4055C0"/>
<path d="M19.7317 44.2826C22.3601 48.7742 26.2102 52.824 30.8748 55.2171C31.5041 55.5484 32.0594 54.5912 31.4301 54.2598C26.9136 51.9404 23.2486 48.0747 20.6942 43.7304C20.324 43.1045 19.3615 43.6568 19.7317 44.2826Z" fill="#4055C0"/>
<path d="M20.6203 44.3932C23.1747 41.1902 25.3218 37.6558 27.9873 34.5264C28.7647 33.606 29.6162 32.6856 30.4677 31.8388C31.097 31.1762 31.6523 30.5503 32.4667 30.1085C33.9846 29.2617 35.7245 28.7831 37.4275 28.3413C38.9453 27.9363 40.6482 27.4577 42.2401 27.4209C42.9435 27.4209 42.9435 26.3164 42.2401 26.3164C40.7963 26.3164 39.3155 26.7214 37.9087 27.0527C36.0947 27.4945 34.2437 28.0468 32.5408 28.8199C30.6898 29.6667 29.357 31.3234 28.0243 32.8329C26.6546 34.3424 25.3959 35.9623 24.2112 37.6558C22.7674 39.6807 21.3607 41.6688 19.8429 43.6201C19.3986 44.1723 20.176 44.9454 20.6203 44.3932Z" fill="#4055C0"/>
<path d="M77.9646 43.7304C75.4102 48.0747 71.7452 51.9404 67.2287 54.2599C66.5994 54.5912 67.1547 55.5484 67.7841 55.2171C72.4856 52.824 76.2987 48.7742 78.9271 44.2826C79.2973 43.6568 78.3348 43.1045 77.9646 43.7304Z" fill="#4055C0"/>
<path d="M78.853 43.6203C76.2616 40.3437 74.0404 36.7357 71.3009 33.5695C70.4864 32.6123 69.5979 31.6919 68.7094 30.7715C68.0801 30.1456 67.5248 29.5565 66.7104 29.1516C65.0815 28.268 63.2675 27.7525 61.4905 27.2739C59.8616 26.8321 58.1217 26.3535 56.4558 26.3535C55.7524 26.3535 55.7524 27.458 56.4558 27.458C57.8255 27.458 59.2693 27.863 60.602 28.1943C62.342 28.6361 64.1189 29.1147 65.7478 29.9247C66.4512 30.256 66.9325 30.6242 67.4878 31.1396C68.4133 32.06 69.3018 33.0173 70.1532 33.9745C71.4489 35.4471 72.5966 36.9566 73.7442 38.5397C75.151 40.5278 76.5577 42.5159 78.0755 44.4303C78.4828 44.9457 79.2602 44.1726 78.853 43.6203Z" fill="#4055C0"/>
<path d="M41.7958 27.2735C43.2766 29.0775 45.4238 30.4397 47.7561 30.8078C49.9403 31.1392 52.1985 30.5133 54.1236 29.5193C55.1601 28.967 56.1597 28.2307 56.826 27.2735C57.2332 26.6844 56.2707 26.1322 55.8635 26.7212C55.1971 27.6784 54.1235 28.3411 53.087 28.8197C51.9394 29.3352 50.6807 29.7402 49.422 29.8138C46.7565 29.9979 44.2021 28.5252 42.5362 26.5003C42.129 25.9113 41.3516 26.7212 41.7958 27.2735Z" fill="#4055C0"/>
<path d="M68.4134 22.1568L67.8951 20.6105C66.7845 17.297 65.9331 16.4503 62.6012 15.3458L61.0464 14.8303L62.6012 14.3149C65.9331 13.2104 66.7845 12.3637 67.8951 9.05019L68.4134 7.50391L68.9317 9.05019C70.0423 12.3637 70.8938 13.2104 74.2256 14.3149L75.7804 14.8303L74.2256 15.3458C70.8938 16.4503 70.0423 17.297 68.9317 20.6105L68.4134 22.1568ZM64.3412 14.7935C66.4884 15.6771 67.4879 16.6712 68.4134 18.8433C69.3019 16.708 70.3014 15.7139 72.4856 14.7935C70.3385 13.9099 69.3389 12.9159 68.4134 10.7437C67.5249 12.9159 66.5254 13.9099 64.3412 14.7935Z" fill="#4055C0"/>
<path d="M18.6581 72.1904L18.1398 70.6441C16.8811 66.9625 15.9556 66.0421 12.2536 64.7903L10.6987 64.2749L12.2536 63.7594C15.9556 62.5077 16.8811 61.5873 18.1398 57.9057L18.6581 56.3594L19.1764 57.9057C20.435 61.5873 21.3605 62.5077 25.0626 63.7594L26.6174 64.2749L25.0626 64.7903C21.3605 66.0421 20.435 66.9625 19.1764 70.6441L18.6581 72.1904ZM14.0305 64.2749C16.5109 65.2689 17.6585 66.4102 18.6581 68.8769C19.6576 66.4102 20.8052 65.2689 23.2856 64.2749C20.8052 63.2808 19.6576 62.1395 18.6581 59.6728C17.6215 62.1395 16.5109 63.2808 14.0305 64.2749Z" fill="#4055C0"/>
<path d="M77.7424 25.9115L77.2241 24.3652C76.4837 22.1562 75.9284 21.6408 73.7072 20.8677L72.1523 20.3522L73.7072 19.8368C75.9284 19.1005 76.4467 18.5482 77.2241 16.3393L77.7424 14.793L78.2607 16.3393C79.0011 18.5482 79.5564 19.0637 81.7776 19.8368L83.3325 20.3522L81.7776 20.8677C79.5564 21.604 79.0381 22.1562 78.2607 24.3652L77.7424 25.9115ZM75.4101 20.3522C76.5578 20.9045 77.1871 21.5303 77.7424 22.6717C78.2977 21.5303 78.927 20.9045 80.0747 20.3522C78.927 19.8 78.2977 19.1741 77.7424 18.0328C77.1871 19.1741 76.5578 19.8 75.4101 20.3522Z" fill="#4055C0"/>
</svg>
